<svg xmlns="http://www.w3.org/2000/svg" width="81.998" height="68.332" viewBox="0 0 81.998 68.332"><defs><style>.a{fill:#333;}</style></defs><g transform="translate(0 -42.667)"><g transform="translate(0 42.667)"><g transform="translate(0 0)"><path class="a" d="M71.749,42.667H10.25A10.262,10.262,0,0,0,0,52.917V66.583a10.262,10.262,0,0,0,10.25,10.25h6.833v30.749A3.416,3.416,0,0,0,20.5,111h41a3.413,3.413,0,0,0,3.417-3.417V76.833h6.833A10.262,10.262,0,0,0,82,66.583V52.917A10.262,10.262,0,0,0,71.749,42.667Zm-13.666,61.5H23.916v-41H58.082v41ZM75.165,66.583A3.42,3.42,0,0,1,71.749,70H64.915V63.166h3.417a3.417,3.417,0,0,0,0-6.833H13.666a3.417,3.417,0,0,0,0,6.833h3.417V70H10.25a3.422,3.422,0,0,1-3.417-3.417V52.917A3.422,3.422,0,0,1,10.25,49.5h61.5a3.42,3.42,0,0,1,3.417,3.417Z" transform="translate(0 -42.667)"/></g></g><g transform="translate(33.346 69.145)"><g transform="translate(0 0)"><path class="a" d="M217.233,219.443v-5.091a11.6,11.6,0,0,1,3.143,1.332,1.553,1.553,0,0,0,.615,0,1.709,1.709,0,0,0,1.742-1.674,1.39,1.39,0,0,0-.342-.888,8.263,8.263,0,0,0-5.159-2.152v-1.811a1.2,1.2,0,0,0-1.2-1.162H216a1.193,1.193,0,0,0-1.227,1.162v1.777a6.147,6.147,0,0,0-6.321,5.808c0,3.929,3.246,5.022,6.321,5.808v5.74a8.2,8.2,0,0,1-3.929-1.674,1.649,1.649,0,0,0-.991-.342,1.709,1.709,0,0,0-1.64,1.708,1.425,1.425,0,0,0,.342.922,9.281,9.281,0,0,0,6.218,2.528v1.746a1.233,1.233,0,0,0,2.46-.037v-1.708c4.441-.41,6.321-3.041,6.457-5.979C223.69,221.458,220.308,220.263,217.233,219.443Zm-2.46-.752c-1.572-.444-2.7-.854-2.7-2.187s1.059-2.255,2.7-2.426Zm2.46,9.6V223.2c1.606.478,2.8,1.367,2.8,2.494S219.249,227.984,217.233,228.291Z" transform="translate(-208.213 -207.996)"/></g></g></g></svg>