<svg xmlns="http://www.w3.org/2000/svg" width="83.841" height="83.838" viewBox="0 0 83.841 83.838"><defs><style>.a{fill:#333;}</style></defs><g transform="translate(-0.001)"><path class="a" d="M26.959,5A20.959,20.959,0,1,0,47.918,25.959,20.98,20.98,0,0,0,26.959,5Zm-.437,18.339H27.4a6.534,6.534,0,0,1,2.183,12.7v1.275a2.62,2.62,0,1,1-5.24,0v-.873H22.593a2.62,2.62,0,1,1,0-5.24h4.8a1.31,1.31,0,1,0,0-2.62h-.873a6.534,6.534,0,0,1-2.183-12.7V14.606a2.62,2.62,0,1,1,5.24,0v.873h1.747a2.62,2.62,0,0,1,0,5.24h-4.8a1.31,1.31,0,1,0,0,2.62Z" transform="translate(14.958 12.466)"/><path class="a" d="M50.97,10.272a2.621,2.621,0,0,0-2.62,2.62A33.3,33.3,0,0,1,22.836,45.2V41.938a2.62,2.62,0,0,0-4.471-1.851l-6.836,6.833a2.621,2.621,0,0,0,0,3.706l6.836,6.833a2.62,2.62,0,0,0,4.471-1.851v-5A38.565,38.565,0,0,0,53.59,12.892a2.621,2.621,0,0,0-2.62-2.62Z" transform="translate(26.828 25.61)"/><path class="a" d="M30.822,59.817a33.166,33.166,0,0,1-20.1-42.827l3.14,1.809a2.623,2.623,0,0,0,3.843-2.948l-2.655-9.9A2.625,2.625,0,0,0,11.84,4.1l-9.9,2.651a2.622,2.622,0,0,0-.629,4.8l4.817,2.781A38.442,38.442,0,0,0,29.093,64.763a2.62,2.62,0,1,0,1.729-4.946Z" transform="translate(0 10.009)"/><path class="a" d="M68.3,17.176l-5.635,1.509A38.779,38.779,0,0,0,29.675,0,37.593,37.593,0,0,0,5.89,8.335a2.621,2.621,0,1,0,3.284,4.087,32.383,32.383,0,0,1,20.5-7.182,33.478,33.478,0,0,1,27.67,14.867l-3.053.817a2.623,2.623,0,0,0-.632,4.8l8.876,5.128a2.615,2.615,0,0,0,3.577-.961l5.131-8.876A2.621,2.621,0,0,0,68.3,17.176Z" transform="translate(12.242)"/></g></svg>