<svg xmlns="http://www.w3.org/2000/svg" width="81.998" height="74.967" viewBox="0 0 81.998 74.967"><defs><style>.a{fill:#333;}</style></defs><g transform="translate(0 -21.952)"><g transform="translate(0 21.952)"><g transform="translate(0 0)"><path class="a" d="M58.319,21.952H9.823a9.823,9.823,0,1,0,0,19.647v-6.2a3.619,3.619,0,0,1,0-7.238H55.217V38.5h6.2V25.054A3.1,3.1,0,0,0,58.319,21.952Z" transform="translate(0 -21.952)"/></g></g><g transform="translate(0 28.673)"><g transform="translate(0 0)"><path class="a" d="M78.9,70.641H9.823A3.623,3.623,0,0,1,6.2,67.022a3.1,3.1,0,0,0-6.2,0v55.32a9.835,9.835,0,0,0,9.823,9.823H78.9a3.1,3.1,0,0,0,3.1-3.1V73.743A3.1,3.1,0,0,0,78.9,70.641Zm-3.1,55.32H9.823A3.623,3.623,0,0,1,6.2,122.342V76.155a9.769,9.769,0,0,0,3.619.691H75.794v49.116Z" transform="translate(0 -63.92)"/></g></g><g transform="translate(53.872 55.661)"><path class="a" d="M347.545,248.565a4.963,4.963,0,1,1,0-9.927H361.3v-6.2H347.545a11.167,11.167,0,1,0,0,22.335H361.4v-6.2Z" transform="translate(-336.376 -232.434)"/></g></g></svg>