<?xml version="1.0" encoding="UTF-8"?>
<svg width="32px" height="32px" viewBox="0 0 32 32" version="1.1" xmlns="http://www.w3.org/2000/svg" xmlns:xlink="http://www.w3.org/1999/xlink">
    <!-- Generator: Sketch 50.2 (55047) - http://www.bohemiancoding.com/sketch -->
    <title>Disc / flag-br</title>
    <desc>Created with Sketch.</desc>
    <defs>
        <circle id="path-1" cx="16" cy="16" r="16"></circle>
        <filter x="-4.7%" y="-4.7%" width="109.4%" height="109.4%" filterUnits="objectBoundingBox" id="filter-3">
            <feMorphology radius="1" operator="erode" in="SourceAlpha" result="shadowSpreadInner1"></feMorphology>
            <feGaussianBlur stdDeviation="1" in="shadowSpreadInner1" result="shadowBlurInner1"></feGaussianBlur>
            <feOffset dx="0" dy="0" in="shadowBlurInner1" result="shadowOffsetInner1"></feOffset>
            <feComposite in="shadowOffsetInner1" in2="SourceAlpha" operator="arithmetic" k2="-1" k3="1" result="shadowInnerInner1"></feComposite>
            <feColorMatrix values="0 0 0 0 0   0 0 0 0 0   0 0 0 0 0  0 0 0 0.5 0" type="matrix" in="shadowInnerInner1"></feColorMatrix>
        </filter>
        <circle id="path-4" cx="16" cy="16" r="16"></circle>
    </defs>
    <g id="Disc-/-flag-br" stroke="none" stroke-width="1" fill="none" fill-rule="evenodd">
        <mask id="mask-2" fill="white">
            <use xlink:href="#path-1"></use>
        </mask>
        <g id="Oval">
            <use fill="#12234D" fill-rule="evenodd" xlink:href="#path-1"></use>
            <use fill="black" fill-opacity="1" filter="url(#filter-3)" xlink:href="#path-1"></use>
        </g>
        <mask id="mask-5" fill="white">
            <use xlink:href="#path-4"></use>
        </mask>
        <use id="Oval" fill="#DB1F48" xlink:href="#path-4"></use>
        <g id="flag-br" mask="url(#mask-5)">
            <g transform="translate(-8.000000, 0.000000)" id="Shape">
                <polygon fill="#06807B" points="0 0 48 0 48 32 0 32"></polygon>
                <polygon fill="#FEDD00" points="24.10545 30.695125 46.716675 16.019875 23.968575 1.304875 1.28325 16.05505 24.10545 30.69505"></polygon>
                <path d="M33.95775,16.000375 C33.95775,21.274975 29.675025,25.550875 24.39195,25.550875 C19.1088,25.550875 14.82615,21.274975 14.82615,16.000375 C14.82615,10.725775 19.10895,6.449875 24.39195,6.449875 C29.6751,6.449875 33.957825,10.725775 33.957825,16.000375 L33.95775,16.000375 Z" fill="#1D3B80"></path>
                <path d="M33.761325,17.952325 C28.680675,13.489225 23.016825,11.20285 15.860325,11.673325 C15.603675,12.165175 15.398325,12.68005 15.225075,13.2373 C23.7048,12.42835 29.920275,16.18255 33.327825,19.43635 C33.4734,19.05505 33.66135,18.480025 33.761325,17.952325 Z" fill="#FFFFFF"></path>
            </g>
        </g>
    </g>
</svg>