<?xml version="1.0" encoding="UTF-8"?>
<svg width="32px" height="32px" viewBox="0 0 32 32" version="1.1" xmlns="http://www.w3.org/2000/svg" xmlns:xlink="http://www.w3.org/1999/xlink">
    <!-- Generator: Sketch 50.2 (55047) - http://www.bohemiancoding.com/sketch -->
    <title>Disc / flag-ug</title>
    <desc>Created with Sketch.</desc>
    <defs>
        <circle id="path-1" cx="16" cy="16" r="16"></circle>
        <filter x="-4.7%" y="-4.7%" width="109.4%" height="109.4%" filterUnits="objectBoundingBox" id="filter-3">
            <feMorphology radius="1" operator="erode" in="SourceAlpha" result="shadowSpreadInner1"></feMorphology>
            <feGaussianBlur stdDeviation="1" in="shadowSpreadInner1" result="shadowBlurInner1"></feGaussianBlur>
            <feOffset dx="0" dy="0" in="shadowBlurInner1" result="shadowOffsetInner1"></feOffset>
            <feComposite in="shadowOffsetInner1" in2="SourceAlpha" operator="arithmetic" k2="-1" k3="1" result="shadowInnerInner1"></feComposite>
            <feColorMatrix values="0 0 0 0 0   0 0 0 0 0   0 0 0 0 0  0 0 0 0.5 0" type="matrix" in="shadowInnerInner1"></feColorMatrix>
        </filter>
        <circle id="path-4" cx="16" cy="16" r="16"></circle>
        <rect id="path-6" x="0" y="0" width="48" height="32"></rect>
    </defs>
    <g id="Disc-/-flag-ug" stroke="none" stroke-width="1" fill="none" fill-rule="evenodd">
        <mask id="mask-2" fill="white">
            <use xlink:href="#path-1"></use>
        </mask>
        <g id="Oval">
            <use fill="#12234D" fill-rule="evenodd" xlink:href="#path-1"></use>
            <use fill="black" fill-opacity="1" filter="url(#filter-3)" xlink:href="#path-1"></use>
        </g>
        <mask id="mask-5" fill="white">
            <use xlink:href="#path-4"></use>
        </mask>
        <use id="Oval" fill="#1D3B80" xlink:href="#path-4"></use>
        <g id="flag-ug" mask="url(#mask-5)">
            <g transform="translate(-8.000000, 0.000000)">
                <mask id="mask-7" fill="white">
                    <use xlink:href="#path-6"></use>
                </mask>
                <use id="background" stroke="none" fill="#FACA37" fill-rule="evenodd" xlink:href="#path-6"></use>
                <g id="Group-16" stroke="none" stroke-width="1" fill="none" fill-rule="evenodd" mask="url(#mask-7)">
                    <rect id="top" fill="#12234D" x="0" y="0" width="48" height="5.33333333"></rect>
                    <rect id="top-copy" fill="#FEDD00" x="0" y="5.33333333" width="48" height="5.33333333"></rect>
                    <rect id="top-copy-4" fill="#FF2353" x="0" y="10.6666667" width="48" height="5.33333333"></rect>
                    <rect id="top-copy-3" fill="#12234D" x="0" y="16" width="48" height="5.33333333"></rect>
                    <rect id="top-copy-2" fill="#FEDD00" x="0" y="21.3333333" width="48" height="5.33333333"></rect>
                    <rect id="top-copy-5" fill="#FF2353" x="0" y="26.6666667" width="48" height="5.33333333"></rect>
                </g>
                <g id="Group-17" stroke="none" stroke-width="1" fill="none" fill-rule="evenodd" mask="url(#mask-7)">
                    <g transform="translate(18.000000, 10.000000)">
                        <circle id="Oval" fill="#FFFFFF" cx="6.52" cy="6.52" r="6"></circle>
                        <g id="Group" stroke-width="1" fill="none" transform="translate(4.960000, 3.040000)">
                            <path d="M1.10131731,1.0028512 L0.6182372,0.273688586 C0.804649511,0.120932005 1.11826946,0.0028512 1.6182372,0.0028512 C1.6182372,0.030635034 1.56737995,0.80147242 1.56737995,0.80147242 L1.10131731,1.0028512 Z" id="Shape" stroke="#000000" stroke-width="0.1" fill="#D90000"></path>
                            <path d="M1.0948424,0.727461695 L1.13695331,0.0031799038 C1.13695331,0.0031799038 1.75797219,-0.0404879597 2.09478134,0.440237091 C2.1000449,0.433992453 1.76323624,1.00214772 1.76323624,1.00214772 L1.0948424,0.727461695 Z" id="Shape" stroke="#000000" stroke-width="0.1" fill="#FCDC04"></path>
                            <path d="M1.643804,0.95805323 L2.13116333,0.2964692 C2.45889182,0.597878149 2.59330707,0.811052906 2.64373668,1.13452023 C2.65214188,1.14187325 1.87067406,1.30357893 1.87067406,1.29622591 C1.87067406,1.28887288 1.6522092,0.965405561 1.643804,0.95805323 L1.643804,0.95805323 Z" id="Shape" stroke="#000000" stroke-width="0.1" fill="#D90000"></path>
                            <path d="M0.9842116,7.0029272 C0.9842116,7.0029272 1.448048,6.4709904 2.3501832,6.5859096 C2.2140148,6.364616 1.775716,6.3901536 1.775716,6.3901536 C1.775716,6.3901536 1.639548,5.3561064 1.7459224,5.3050312 C1.8522964,5.253956 2.303364,5.3092876 2.303364,5.3092876 C2.3629196,5.3092876 2.46507,5.1475816 2.3842332,5.0454636 C2.303364,4.9433128 2.0650776,4.5518332 2.1629396,4.4752204 C2.260834,4.39864 2.792738,4.5177828 2.792738,4.5177828 L1.2905984,2.5943696 C1.2905984,2.5943696 1.1374052,1.8709656 1.4437916,1.522016 C1.8140228,1.2156292 1.775716,0.8837048 1.7629472,0.8879612 C1.711872,0.5517804 1.2012492,0.3092056 0.856556,0.6198808 C0.6522872,0.86668 0.7884556,1.0539232 0.7884556,1.0539232 C0.7884556,1.0539232 0.2522952,1.198604 0.2310136,1.2922096 C0.2097324,1.3858476 0.8352744,1.2752172 0.8352744,1.2752172 L0.7756868,1.7050032 C0.7756868,1.7050032 -0.4413476,2.8113744 0.4905812,3.7688412 C0.499094,3.7645848 0.5203752,3.7262784 0.5203752,3.7262784 C0.5203752,3.7262784 0.8480432,4.1305596 1.192704,4.2199088 C1.516116,4.5518332 1.4863544,4.500758 1.4863544,4.500758 C1.4863544,4.500758 1.550166,5.024182 1.4906108,5.1263 C1.4097416,5.1007624 0.5842192,5.0710012 0.4607876,5.1177876 C0.3501568,5.151838 -0.0753732,5.1305564 0.0310012,5.8241992 C0.111838,5.6369556 0.1841948,5.4709932 0.1841948,5.4709932 C0.1841948,5.4709932 0.171426,5.7220484 0.2735764,5.8114304 C0.2565512,5.547574 0.371438,5.3688752 0.371438,5.3688752 C0.371438,5.3688752 0.3927196,5.6582368 0.4565312,5.7007672 C0.5203752,5.74333 0.5203752,5.2326744 0.8735812,5.2752372 C1.2267544,5.3178 1.4820984,5.3050312 1.4820984,5.3050312 C1.4820984,5.3050312 1.6012416,6.305028 1.5629348,6.398666 C1.3075908,6.3390784 0.6991064,6.4242036 0.6608,6.5773972 C1.0182292,6.5561156 1.184224,6.598646 1.184224,6.598646 C1.184224,6.598646 0.8948624,6.85399 0.9842116,7.0029272 L0.9842116,7.0029272 Z" id="Shape" stroke="#000000" stroke-width="0.1" fill="#000000"></path>
                            <path d="M1.52847744,1.5464164 C1.52847744,1.5464164 0.0505169412,2.5225004 0.688150444,3.2694276 C0.722095471,3.1652628 0.70729192,3.0998264 0.728602358,3.1040828 C0.693085184,3.091314 0.911883337,3.193952 0.895235934,3.17397 C0.899899637,3.1199708 0.828593585,3.0042392 0.828593585,3.0042392 C0.895235934,3.0142136 0.961933025,3.0242208 1.02857604,3.0341952 C0.989696275,2.990918 0.950762435,2.9476728 0.911883337,2.9043952 C1.00634368,2.911056 1.10074928,2.917684 1.19520962,2.9243444 C1.19520962,2.9243444 1.09521839,2.764588 1.1285666,2.764588 C1.16186141,2.764588 1.36184319,2.7745628 1.36184319,2.7745628 C0.941544513,2.322618 1.33803868,1.947286 1.52847744,1.5464164 L1.52847744,1.5464164 Z" id="Shape" stroke="#9CA69C" stroke-width="0.1" fill="#9CA69C"></path>
                            <path d="M1.82062992,0.70923 C1.82062992,0.70923 1.93539412,1.23894584 1.48685109,1.39314576 C1.41382039,1.42667828 1.13220649,1.48703719 1.17393902,1.59434213 C1.22610394,1.74183529 1.35122112,1.7150089 1.52858362,1.68818251 C1.99791201,1.63453035 2.54035249,0.990854496 1.82062992,0.70923 L1.82062992,0.70923 Z" id="Shape" stroke="#9CA69C" stroke-width="0.1" fill="#9CA69C"></path>
                            <circle id="Oval" fill="#FFFFFF" cx="1.328" cy="1.288" r="1"></circle>
                            <path d="M1.12108211,1.2794408 C0.984756484,1.37835831 0.266134913,2.03772576 0.972362823,2.2794408 C1.7034724,2.1035871 1.50517963,1.98277193 1.66629258,1.83989073 C1.67045524,1.54322186 1.30281971,1.46628568 1.12108211,1.2794408 L1.12108211,1.2794408 Z" id="Shape" stroke="#000000" stroke-width="0.1" fill="#D90000"></path>
                            <path d="M1.40134282,3.6922608 C1.37114001,3.82494502 1.24033746,4.31469939 1.42147772,4.6922608 C1.92478198,4.47800297 2.1562609,4.539164 2.32740988,4.65143563 C1.91479165,4.31469939 1.75370964,4.17180937 1.40134282,3.6922608 L1.40134282,3.6922608 Z" id="Shape" stroke="#9CA69C" stroke-width="0.1" fill="#9CA69C"></path>
                            <path d="M1.7246408,4.6582076 L1.76974673,5.63117512 C1.76974673,5.63117512 2.35601085,5.6919982 2.62653201,5.63117512 C2.89716762,5.57035205 2.61149622,4.95356678 1.7246408,4.6582076 L1.7246408,4.6582076 Z" id="Shape" stroke="#FFFFFF" stroke-width="0.1" fill="#FFFFFF"></path>
                            <path d="M2.9289064,4.7177952 C2.9289064,4.7177952 2.6225196,3.977366 1.8395276,3.7901228 C1.056536,3.6028792 1.158654,2.7688444 1.222498,2.7177692 C1.2565484,2.6454124 1.282086,2.5347816 1.5076032,2.6411884 C1.7331532,2.7475628 2.7714568,3.2709548 2.920394,3.2964924 C3.0693308,3.32203 2.9416752,4.7348204 2.9289064,4.7177952 L2.9289064,4.7177952 Z" id="Shape" stroke="#000000" stroke-width="0.1" fill="#9CA69C"></path>
                            <path d="M2.1842208,3.7858664 C2.171452,3.7943788 3.2310368,4.411376 2.9118812,4.9433128 C3.2140444,4.7433004 3.11615,4.3943836 3.11615,4.3943836 C3.11615,4.3943836 3.3629488,5.0369508 2.7629444,5.3518504 C2.8267884,5.4071816 2.8693512,5.3943804 2.8693512,5.3943804 L2.7672004,5.4965312 C2.7672004,5.4965312 2.7203816,5.5731116 3.1246624,5.3773552 C3.0139996,5.4667372 3.0055192,5.5305488 3.0055192,5.5305488 C3.0055192,5.5305488 3.0352808,5.615674 3.2991372,5.385868 C3.086356,5.615674 3.0395372,5.7348172 3.0395372,5.7305612 C3.614004,5.679486 4.8650888,3.811404 2.6438012,3.258186 C2.7629768,3.3816176 2.7459192,3.3645928 2.7459192,3.3645928 L2.1842208,3.7858664 Z" id="Shape" stroke="#000000" stroke-width="0.1" fill="#D90000"></path>
                            <path d="M2.23104,3.75398167 C2.3757208,3.88116097 2.4267636,3.92356735 2.4437888,3.98717768 C2.3118768,3.95011213 2.1927336,3.96067325 2.1927336,3.96067325 C2.1927336,3.96067325 1.907628,3.62150138 1.8565528,3.59499695 C1.8182464,3.59499695 1.5969852,3.42011028 1.5969852,3.42011028 C1.4863544,3.35119947 1.3842364,2.87424633 1.7927412,3.0120276 C2.2139824,3.26108522 2.2735704,3.28232901 2.2735704,3.28232901 C2.440962,3.34767893 2.6083212,3.4130697 2.7757132,3.47841912 C2.8721776,3.61267985 2.96861,3.74694059 3.0650748,3.88120132 C3.0650748,3.88120132 2.5501956,3.56319204 2.4863516,3.55789155 C2.626776,3.70097331 2.7076452,3.89706342 2.7076452,3.89706342 C2.5445096,3.83875408 2.402688,3.78578658 2.23104,3.75398167 L2.23104,3.75398167 Z" id="Shape" stroke="#000000" stroke-width="0.1" fill="#FFFFFF"></path>
                            <path d="M0.2267572,1.73287964 C0.2267572,1.73287964 1.11909793,1.13716364 1.2267572,1.22228964" id="Shape" stroke="#FFFFFF" stroke-width="0.1" fill="#000000"></path>
                        </g>
                    </g>
                </g>
            </g>
        </g>
    </g>
</svg>