<?xml version="1.0" encoding="UTF-8"?>
<svg width="32px" height="32px" viewBox="0 0 32 32" version="1.1" xmlns="http://www.w3.org/2000/svg" xmlns:xlink="http://www.w3.org/1999/xlink">
    <!-- Generator: Sketch 50.2 (55047) - http://www.bohemiancoding.com/sketch -->
    <title>Disc / flag-cm</title>
    <desc>Created with Sketch.</desc>
    <defs>
        <circle id="path-1" cx="16" cy="16" r="16"></circle>
        <filter x="-4.7%" y="-4.7%" width="109.4%" height="109.4%" filterUnits="objectBoundingBox" id="filter-3">
            <feMorphology radius="1" operator="erode" in="SourceAlpha" result="shadowSpreadInner1"></feMorphology>
            <feGaussianBlur stdDeviation="1" in="shadowSpreadInner1" result="shadowBlurInner1"></feGaussianBlur>
            <feOffset dx="0" dy="0" in="shadowBlurInner1" result="shadowOffsetInner1"></feOffset>
            <feComposite in="shadowOffsetInner1" in2="SourceAlpha" operator="arithmetic" k2="-1" k3="1" result="shadowInnerInner1"></feComposite>
            <feColorMatrix values="0 0 0 0 0   0 0 0 0 0   0 0 0 0 0  0 0 0 0.5 0" type="matrix" in="shadowInnerInner1"></feColorMatrix>
        </filter>
        <circle id="path-4" cx="16" cy="16" r="16"></circle>
    </defs>
    <g id="Disc-/-flag-cm" stroke="none" stroke-width="1" fill="none" fill-rule="evenodd">
        <mask id="mask-2" fill="white">
            <use xlink:href="#path-1"></use>
        </mask>
        <g id="Oval">
            <use fill="#12234D" fill-rule="evenodd" xlink:href="#path-1"></use>
            <use fill="black" fill-opacity="1" filter="url(#filter-3)" xlink:href="#path-1"></use>
        </g>
        <mask id="mask-5" fill="white">
            <use xlink:href="#path-4"></use>
        </mask>
        <use id="Oval" fill="#1D3B80" xlink:href="#path-4"></use>
        <g id="flag-cm" mask="url(#mask-5)">
            <g transform="translate(-8.000000, 0.000000)" id="Group">
                <g>
                    <polygon id="Shape" fill="#06807B" points="0 0 15.999975 0 15.999975 32 0 32"></polygon>
                    <polygon id="Shape" fill="#FF2353" points="15.999975 0 31.99995 0 31.99995 32 15.999975 32"></polygon>
                    <polygon id="Shape" fill="#F09622" points="32.000025 0 48 0 48 32 32.000025 32"></polygon>
                    <g transform="translate(17.200007, 9.754832)" fill="#FCD116">
                        <g id="b" transform="translate(3.199995, 2.000000)">
                            <polygon id="a" points="3.5999975 0 2.28159956 4.06394357 4.31039639 4.72470832"></polygon>
                            <g id="a-link" transform="translate(3.199995, 3.000000) scale(-1, 1) translate(-3.199995, -3.000000) translate(1.199995, 0.000000)">
                                <polygon id="a" points="1.5999975 0 0.28159956 4.06394357 2.31039639 4.72470832"></polygon>
                            </g>
                        </g>
                        <g id="b-link" transform="translate(7.822820, 5.309620) rotate(72.000000) translate(-7.822820, -5.309620) translate(4.822820, 2.309620)">
                            <g id="b" transform="translate(-0.000000, 0.000000)">
                                <polygon id="a" points="3.5999975 -6.1284311e-14 2.28159956 4.06394357 4.31039639 4.72470832"></polygon>
                                <g id="a-link" transform="translate(3.199995, 3.000000) scale(-1, 1) translate(-3.199995, -3.000000) translate(1.199995, -0.000000)">
                                    <polygon id="a" points="1.5999975 1.0658141e-14 0.28159956 4.06394357 2.31039639 4.72470832"></polygon>
                                </g>
                            </g>
                        </g>
                        <g id="b-link" transform="translate(8.032132, 6.951064) rotate(144.000000) translate(-8.032132, -6.951064) translate(5.032132, 3.951064)">
                            <g id="b" transform="translate(0.000000, 0.000000)">
                                <polygon id="a" points="3.5999975 -1.15463195e-13 2.28159956 4.06394357 4.31039639 4.72470832"></polygon>
                                <g id="a-link" transform="translate(3.199995, 3.000000) scale(-1, 1) translate(-3.199995, -3.000000) translate(1.199995, -0.000000)">
                                    <polygon id="a" points="1.5999975 -3.28626015e-14 0.28159956 4.06394357 2.31039639 4.72470832"></polygon>
                                </g>
                            </g>
                        </g>
                        <g id="b-link" transform="translate(6.538669, 7.655913) rotate(216.000000) translate(-6.538669, -7.655913) translate(3.538669, 4.655913)">
                            <g id="b" transform="translate(0.000000, -0.000000)">
                                <polygon id="a" points="3.5999975 -7.50510765e-14 2.28159956 4.06394357 4.31039639 4.72470832"></polygon>
                                <g id="a-link" transform="translate(3.199995, 3.000000) scale(-1, 1) translate(-3.199995, -3.000000) translate(1.199995, 0.000000)">
                                    <polygon id="a" points="1.5999975 -1.42996726e-13 0.28159956 4.06394357 2.31039639 4.72470832"></polygon>
                                </g>
                            </g>
                        </g>
                        <g id="b-link" transform="translate(5.406346, 6.450089) rotate(-72.000000) translate(-5.406346, -6.450089) translate(2.406346, 3.450089)">
                            <g id="b" transform="translate(0.000000, -0.000000)">
                                <polygon id="a" points="3.5999975 6.15063556e-14 2.28159956 4.06394357 4.31039639 4.72470832"></polygon>
                                <g id="a-link" transform="translate(3.199995, 3.000000) scale(-1, 1) translate(-3.199995, -3.000000) translate(1.199995, 0.000000)">
                                    <polygon id="a" points="1.5999975 5.90638649e-14 0.28159956 4.06394357 2.31039639 4.72470832"></polygon>
                                </g>
                            </g>
                        </g>
                    </g>
                </g>
            </g>
        </g>
    </g>
</svg>