<?xml version="1.0" encoding="UTF-8"?>
<svg width="32px" height="32px" viewBox="0 0 32 32" version="1.1" xmlns="http://www.w3.org/2000/svg" xmlns:xlink="http://www.w3.org/1999/xlink">
    <!-- Generator: Sketch 50.2 (55047) - http://www.bohemiancoding.com/sketch -->
    <title>Disc / flag-hk</title>
    <desc>Created with Sketch.</desc>
    <defs>
        <circle id="path-1" cx="16" cy="16" r="16"></circle>
    </defs>
    <g id="Disc-/-flag-hk" stroke="none" stroke-width="1" fill="none" fill-rule="evenodd">
        <mask id="mask-2" fill="white">
            <use xlink:href="#path-1"></use>
        </mask>
        <use id="Oval" fill="#1D3B80" xlink:href="#path-1"></use>
        <g id="flag-hk" mask="url(#mask-2)">
            <g transform="translate(-8.000000, 0.000000)">
                <rect id="Rectangle-path" fill="#FF2353" x="0" y="0" width="48" height="32"></rect>
                <g id="petal" stroke-width="1" fill="none" transform="translate(20.800000, 6.613333)">
                    <path d="M3.1980832,9.382048 C-2.41594613,7.00944747 0.0726570667,-0.302317333 5.44179307,0.0652106667 C4.3556016,0.623447467 4.19817973,1.66508907 4.81848427,2.63002187 C5.51312107,3.7103312 4.7545392,5.44861173 3.81550987,5.87094987 C2.27231787,6.56558613 1.96335467,8.417616 3.1980832,9.382048 L3.1980832,9.382048 Z" id="Shape" fill="#FFFFFF"></path>
                    <polygon id="Shape" fill="#DE2910" points="2.89450027 4.10238613 2.57877973 4.5980544 2.46440427 4.02129707 1.89490453 3.87413547 2.40821707 3.58669547 2.37242827 3.0000528 2.80365067 3.39949013 3.3506256 3.18387893 3.10473067 3.71771467 3.47814027 4.17133653"></polygon>
                    <path d="M3.22986773,9.32048107 C2.5508736,8.97197387 2.0033984,8.24555253 1.76488693,7.37747627 C1.492088,6.38175947 1.64901013,5.3112112 2.19598453,4.44213333 L2.0782304,4.36780213 C1.51073333,5.27066667 1.34793013,6.3807584 1.6309904,7.41414133 C1.88314187,8.33264853 2.44237973,9.07270933 3.16629867,9.4442416 L3.22986773,9.32048107 Z" id="Shape" fill="#DE2910"></path>
                </g>
                <g id="petal-link" stroke-width="1" fill="none" transform="translate(28.110165, 14.454234) rotate(72.000000) translate(-28.110165, -14.454234) translate(25.110165, 9.454234)">
                    <g id="petal" transform="translate(-0.000000, -0.000000)">
                        <path d="M3.1980832,9.382048 C-2.41594613,7.00944747 0.0726570667,-0.302317333 5.44179307,0.0652106667 C4.3556016,0.623447467 4.19817973,1.66508907 4.81848427,2.63002187 C5.51312107,3.7103312 4.7545392,5.44861173 3.81550987,5.87094987 C2.27231787,6.56558613 1.96335467,8.417616 3.1980832,9.382048 L3.1980832,9.382048 Z" id="Shape" fill="#FFFFFF"></path>
                        <polygon id="Shape" fill="#DE2910" points="2.89450027 4.10238613 2.57877973 4.5980544 2.46440427 4.02129707 1.89490453 3.87413547 2.40821707 3.58669547 2.37242827 3.0000528 2.80365067 3.39949013 3.3506256 3.18387893 3.10473067 3.71771467 3.47814027 4.17133653"></polygon>
                        <path d="M3.22986773,9.32048107 C2.5508736,8.97197387 2.0033984,8.24555253 1.76488693,7.37747627 C1.492088,6.38175947 1.64901013,5.3112112 2.19598453,4.44213333 L2.0782304,4.36780213 C1.51073333,5.27066667 1.34793013,6.3807584 1.6309904,7.41414133 C1.88314187,8.33264853 2.44237973,9.07270933 3.16629867,9.4442416 L3.22986773,9.32048107 Z" id="Shape" fill="#DE2910"></path>
                    </g>
                </g>
                <g id="petal-link" stroke-width="1" fill="none" transform="translate(26.740221, 19.431331) rotate(144.000000) translate(-26.740221, -19.431331) translate(23.740221, 14.431331)">
                    <g id="petal" transform="translate(0.000000, -0.000000)">
                        <path d="M3.1980832,9.382048 C-2.41594613,7.00944747 0.0726570667,-0.302317333 5.44179307,0.0652106667 C4.3556016,0.623447467 4.19817973,1.66508907 4.81848427,2.63002187 C5.51312107,3.7103312 4.7545392,5.44861173 3.81550987,5.87094987 C2.27231787,6.56558613 1.96335467,8.417616 3.1980832,9.382048 L3.1980832,9.382048 Z" id="Shape" fill="#FFFFFF"></path>
                        <polygon id="Shape" fill="#DE2910" points="2.89450027 4.10238613 2.57877973 4.5980544 2.46440427 4.02129707 1.89490453 3.87413547 2.40821707 3.58669547 2.37242827 3.0000528 2.80365067 3.39949013 3.3506256 3.18387893 3.10473067 3.71771467 3.47814027 4.17133653"></polygon>
                        <path d="M3.22986773,9.32048107 C2.5508736,8.97197387 2.0033984,8.24555253 1.76488693,7.37747627 C1.492088,6.38175947 1.64901013,5.3112112 2.19598453,4.44213333 L2.0782304,4.36780213 C1.51073333,5.27066667 1.34793013,6.3807584 1.6309904,7.41414133 C1.88314187,8.33264853 2.44237973,9.07270933 3.16629867,9.4442416 L3.22986773,9.32048107 Z" id="Shape" fill="#DE2910"></path>
                    </g>
                </g>
                <g id="petal-link" stroke-width="1" fill="none" transform="translate(21.583385, 19.666445) rotate(216.000000) translate(-21.583385, -19.666445) translate(18.583385, 14.666445)">
                    <g id="petal" transform="translate(-0.000000, -0.000000)">
                        <path d="M3.1980832,9.382048 C-2.41594613,7.00944747 0.0726570667,-0.302317333 5.44179307,0.0652106667 C4.3556016,0.623447467 4.19817973,1.66508907 4.81848427,2.63002187 C5.51312107,3.7103312 4.7545392,5.44861173 3.81550987,5.87094987 C2.27231787,6.56558613 1.96335467,8.417616 3.1980832,9.382048 L3.1980832,9.382048 Z" id="Shape" fill="#FFFFFF"></path>
                        <polygon id="Shape" fill="#DE2910" points="2.89450027 4.10238613 2.57877973 4.5980544 2.46440427 4.02129707 1.89490453 3.87413547 2.40821707 3.58669547 2.37242827 3.0000528 2.80365067 3.39949013 3.3506256 3.18387893 3.10473067 3.71771467 3.47814027 4.17133653"></polygon>
                        <path d="M3.22986773,9.32048107 C2.5508736,8.97197387 2.0033984,8.24555253 1.76488693,7.37747627 C1.492088,6.38175947 1.64901013,5.3112112 2.19598453,4.44213333 L2.0782304,4.36780213 C1.51073333,5.27066667 1.34793013,6.3807584 1.6309904,7.41414133 C1.88314187,8.33264853 2.44237973,9.07270933 3.16629867,9.4442416 L3.22986773,9.32048107 Z" id="Shape" fill="#DE2910"></path>
                    </g>
                </g>
                <g id="petal-link" stroke-width="1" fill="none" transform="translate(19.766229, 14.834657) rotate(-72.000000) translate(-19.766229, -14.834657) translate(16.766229, 9.834657)">
                    <g id="petal" transform="translate(-0.000000, 0.000000)">
                        <path d="M3.1980832,9.382048 C-2.41594613,7.00944747 0.0726570667,-0.302317333 5.44179307,0.0652106667 C4.3556016,0.623447467 4.19817973,1.66508907 4.81848427,2.63002187 C5.51312107,3.7103312 4.7545392,5.44861173 3.81550987,5.87094987 C2.27231787,6.56558613 1.96335467,8.417616 3.1980832,9.382048 L3.1980832,9.382048 Z" id="Shape" fill="#FFFFFF"></path>
                        <polygon id="Shape" fill="#DE2910" points="2.89450027 4.10238613 2.57877973 4.5980544 2.46440427 4.02129707 1.89490453 3.87413547 2.40821707 3.58669547 2.37242827 3.0000528 2.80365067 3.39949013 3.3506256 3.18387893 3.10473067 3.71771467 3.47814027 4.17133653"></polygon>
                        <path d="M3.22986773,9.32048107 C2.5508736,8.97197387 2.0033984,8.24555253 1.76488693,7.37747627 C1.492088,6.38175947 1.64901013,5.3112112 2.19598453,4.44213333 L2.0782304,4.36780213 C1.51073333,5.27066667 1.34793013,6.3807584 1.6309904,7.41414133 C1.88314187,8.33264853 2.44237973,9.07270933 3.16629867,9.4442416 L3.22986773,9.32048107 Z" id="Shape" fill="#DE2910"></path>
                    </g>
                </g>
            </g>
        </g>
    </g>
</svg>