<?xml version="1.0" encoding="UTF-8"?>
<svg width="32px" height="32px" viewBox="0 0 32 32" version="1.1" xmlns="http://www.w3.org/2000/svg" xmlns:xlink="http://www.w3.org/1999/xlink">
    <!-- Generator: Sketch 50.2 (55047) - http://www.bohemiancoding.com/sketch -->
    <title>Disc / flag-au</title>
    <desc>Created with Sketch.</desc>
    <defs>
        <circle id="path-1" cx="16" cy="16" r="16"></circle>
        <filter x="-4.7%" y="-4.7%" width="109.4%" height="109.4%" filterUnits="objectBoundingBox" id="filter-3">
            <feMorphology radius="1" operator="erode" in="SourceAlpha" result="shadowSpreadInner1"></feMorphology>
            <feGaussianBlur stdDeviation="1" in="shadowSpreadInner1" result="shadowBlurInner1"></feGaussianBlur>
            <feOffset dx="0" dy="0" in="shadowBlurInner1" result="shadowOffsetInner1"></feOffset>
            <feComposite in="shadowOffsetInner1" in2="SourceAlpha" operator="arithmetic" k2="-1" k3="1" result="shadowInnerInner1"></feComposite>
            <feColorMatrix values="0 0 0 0 0   0 0 0 0 0   0 0 0 0 0  0 0 0 0.5 0" type="matrix" in="shadowInnerInner1"></feColorMatrix>
        </filter>
        <circle id="path-4" cx="16" cy="16" r="16"></circle>
        <rect id="path-6" x="0" y="0" width="39" height="26"></rect>
        <rect id="path-8" x="0" y="0" width="20" height="13"></rect>
    </defs>
    <g id="Disc-/-flag-au" stroke="none" stroke-width="1" fill="none" fill-rule="evenodd">
        <mask id="mask-2" fill="white">
            <use xlink:href="#path-1"></use>
        </mask>
        <g id="Oval">
            <use fill="#FFFFFF" fill-rule="evenodd" xlink:href="#path-1"></use>
            <use fill="black" fill-opacity="1" filter="url(#filter-3)" xlink:href="#path-1"></use>
        </g>
        <mask id="mask-5" fill="white">
            <use xlink:href="#path-4"></use>
        </mask>
        <use id="Oval" fill="#1D3B80" xlink:href="#path-4"></use>
        <g id="flag-au" mask="url(#mask-5)">
            <g transform="translate(-4.000000, 0.000000)">
                <mask id="mask-7" fill="white">
                    <use xlink:href="#path-6"></use>
                </mask>
                <use id="background" stroke="none" fill="#1D3B80" fill-rule="evenodd" xlink:href="#path-6"></use>
                <path d="M19.388421,21.484107 L17.0108169,21.6741079 L17.338321,23.8472777 L15.694156,22.2569776 L14.0500455,23.8472777 L14.377604,21.6741079 L12,21.484107 L14.0522786,20.3644283 L12.7318051,18.5372654 L14.9632768,19.3139911 L15.6942105,17.2255832 L16.4251441,19.3139411 L18.6566159,18.5371653 L17.3362513,20.3642781 M29.5608167,23.487002 L28.9869086,22.6932537 L29.9569479,23.0307995 L30.2741578,22.1233511 L30.5914223,23.0308496 L31.5612982,22.6933038 L30.98739,23.487052 L31.8789983,23.9735945 L30.8460508,24.0562036 L30.9885338,24.9999499 L30.2741578,24.309388 L29.5597274,25 L29.7022104,24.0562537 L28.6693173,23.9736446 M29.5608167,9.36360076 L28.9869086,8.56975241 L29.9569479,8.90729817 L30.2741578,8 L30.5914223,8.90719804 L31.5612982,8.56975241 L30.98739,9.36355069 L31.8789983,9.85004315 L30.8460508,9.93265224 L30.9885338,10.8763985 L30.2741578,10.1858366 L29.5597274,10.8764486 L29.7022104,9.9327023 L28.6693173,9.85009321 M23.7990771,15.1011777 L23.225169,14.3074796 L24.1950994,14.6450253 L24.5123638,13.737577 L24.8296282,14.6450253 L25.7995586,14.3074796 L25.2257049,15.1011777 L26.1173132,15.5878204 L25.0843656,15.6704295 L25.2267942,16.6141758 L24.5123638,15.9235137 L23.7979333,16.6141758 L23.9404708,15.6704295 L22.9075777,15.5878204 M34.6837792,13.6888626 L34.1087272,12.8951144 L35.0794201,13.2326602 L35.3943425,12.3252118 L35.7131864,13.2326602 L36.6811561,12.8951144 L36.1088274,13.6888626 L37,14.1754052 L35.9667801,14.2580143 L36.1088274,15.2017606 L35.3943425,14.5111986 L34.6799121,15.2017606 L34.8220683,14.2580143 L33.7907003,14.1754052 M32.5787774,17.8499577 L32.0141285,18.1716325 L32.1728424,17.5788497 L31.6654372,17.1851798 L32.328016,17.1403206 L32.5788319,16.5750741 L32.8297023,17.1403206 L33.4922811,17.1852299 L32.9848214,17.5788998 L33.1434264,18.1716826" id="Shape" stroke="none" fill="#FFFFFF" fill-rule="evenodd" mask="url(#mask-7)"></path>
                <g id="flag-gb" stroke="none" stroke-width="1" fill="none" fill-rule="evenodd" mask="url(#mask-7)">
                    <mask id="mask-9" fill="white">
                        <use xlink:href="#path-8"></use>
                    </mask>
                    <use id="background" fill="#1D3B80" xlink:href="#path-8"></use>
                    <g id="uk-flag" mask="url(#mask-9)" fill="#E8525D" stroke="#FFFFFF" stroke-linecap="round" stroke-linejoin="round" stroke-width="0.5">
                        <path d="M-0.25,0.949793825 L-0.25,-0.25 L0.833333333,-0.25 L0.967478011,-0.210962569 L20.2500001,12.0502065 L20.2499995,13.2500001 L19.1666667,13.2500001 L19.032522,13.2109627 L-0.25,0.949793825 Z" id="Rectangle-675-Copy-4" transform="translate(10.000000, 6.500000) scale(1, -1) translate(-10.000000, -6.500000) "></path>
                        <path d="M-0.25,0.949793825 L-0.25,-0.25 L0.833333333,-0.25 L0.967478011,-0.210962569 L20.2500001,12.0502065 L20.2499995,13.2500001 L19.1666667,13.2500001 L19.032522,13.2109627 L-0.25,0.949793825 Z" id="Rectangle-675-Copy-5"></path>
                    </g>
                    <path d="M11.6785714,5.0255102 L20.203125,5.0255102 L20.203125,7.9744898 L11.6785714,7.9744898 L11.6785714,13.25 L8.72959184,13.25 L8.72959184,7.9744898 L-0.203125,7.9744898 L-0.203125,5.0255102 L8.72959184,5.0255102 L8.72959184,-0.25 L11.6785714,-0.25 L11.6785714,5.0255102 Z" id="Combined-Shape" stroke="#FFFFFF" stroke-width="0.5" fill="#C7152A" mask="url(#mask-9)"></path>
                    <path d="M11.4285714,5.2755102 L19.953125,5.2755102 L19.953125,7.7244898 L11.4285714,7.7244898 L11.4285714,13 L8.97959184,13 L8.97959184,7.7244898 L0.046875,7.7244898 L0.046875,5.2755102 L8.97959184,5.2755102 L8.97959184,0 L11.4285714,0 L11.4285714,5.2755102 Z" id="Combined-Shape-Copy-4" fill="#FF2353" mask="url(#mask-9)"></path>
                </g>
            </g>
        </g>
    </g>
</svg>