<?xml version="1.0" encoding="UTF-8"?>
<svg width="32px" height="32px" viewBox="0 0 32 32" version="1.1" xmlns="http://www.w3.org/2000/svg" xmlns:xlink="http://www.w3.org/1999/xlink">
    <!-- Generator: Sketch 50.2 (55047) - http://www.bohemiancoding.com/sketch -->
    <title>Disc / flag-us</title>
    <desc>Created with Sketch.</desc>
    <defs>
        <circle id="path-1" cx="16" cy="16" r="16"></circle>
        <circle id="path-3" cx="16" cy="16" r="16"></circle>
        <rect id="path-5" x="0" y="0" width="48" height="32"></rect>
    </defs>
    <g id="Disc-/-flag-us" stroke="none" stroke-width="1" fill="none" fill-rule="evenodd">
        <mask id="mask-2" fill="white">
            <use xlink:href="#path-1"></use>
        </mask>
        <g id="Oval"></g>
        <mask id="mask-4" fill="white">
            <use xlink:href="#path-3"></use>
        </mask>
        <g id="Oval"></g>
        <g id="flag-us" mask="url(#mask-4)">
            <g transform="translate(-5.000000, 0.000000)">
                <mask id="mask-6" fill="white">
                    <use xlink:href="#path-5"></use>
                </mask>
                <use id="background" stroke="none" fill="#FFFFFF" fill-rule="evenodd" xlink:href="#path-5"></use>
                <rect id="Rectangle-6-Copy-13" stroke="none" fill="#FF2353" fill-rule="evenodd" mask="url(#mask-6)" x="0" y="14.7700195" width="48" height="2.46000004"></rect>
                <rect id="Rectangle-6-Copy-20" stroke="none" fill="#FF2353" fill-rule="evenodd" mask="url(#mask-6)" x="0" y="9.84667969" width="48" height="2.46000004"></rect>
                <rect id="Rectangle-6-Copy-21" stroke="none" fill="#FF2353" fill-rule="evenodd" mask="url(#mask-6)" x="0" y="4.92333984" width="48" height="2.46000004"></rect>
                <rect id="Rectangle-6-Copy-22" stroke="none" fill="#FF2353" fill-rule="evenodd" mask="url(#mask-6)" x="0" y="0" width="48" height="2.46000004"></rect>
                <rect id="Rectangle-6-Copy-16" stroke="none" fill="#FF2353" fill-rule="evenodd" mask="url(#mask-6)" x="0" y="19.6933594" width="48" height="2.46000004"></rect>
                <rect id="Rectangle-6-Copy-17" stroke="none" fill="#FF2353" fill-rule="evenodd" mask="url(#mask-6)" x="0" y="24.6166992" width="48" height="2.46000004"></rect>
                <rect id="Rectangle-6-Copy-18" stroke="none" fill="#FF2353" fill-rule="evenodd" mask="url(#mask-6)" x="0" y="29.5400391" width="48" height="2.46000004"></rect>
                <rect id="rectangle" stroke="none" fill="#1D3B80" fill-rule="evenodd" mask="url(#mask-6)" x="0" y="0" width="22" height="17.2399998"></rect>
                <path d="M19.3176467,14.127301 L18.6487158,14.5 L18.8549567,13.7106108 L18.2352938,13.1515622 L18.9831813,13.1195698 L19.3176467,12.3181818 L19.6521121,13.1195698 L20.3999996,13.1515622 L19.7803367,13.7106108 L19.9865776,14.5 L19.3176467,14.127301 Z M16.0705879,14.127301 L15.4016571,14.5 L15.6078979,13.7106108 L14.988235,13.1515622 L15.7361225,13.1195698 L16.0705879,12.3181818 L16.4050534,13.1195698 L17.1529409,13.1515622 L16.533278,13.7106108 L16.7395188,14.5 L16.0705879,14.127301 Z M12.8235292,14.127301 L12.1545983,14.5 L12.3608392,13.7106108 L11.7411763,13.1515622 L12.4890637,13.1195698 L12.8235292,12.3181818 L13.1579946,13.1195698 L13.9058821,13.1515622 L13.2862192,13.7106108 L13.4924601,14.5 L12.8235292,14.127301 Z M9.57647043,14.127301 L8.90753954,14.5 L9.1137804,13.7106108 L8.49411751,13.1515622 L9.24200499,13.1195698 L9.57647043,12.3181818 L9.91093588,13.1195698 L10.6588233,13.1515622 L10.0391605,13.7106108 L10.2454013,14.5 L9.57647043,14.127301 Z M6.32941167,14.127301 L5.66048078,14.5 L5.86672164,13.7106108 L5.24705876,13.1515622 L5.99494623,13.1195698 L6.32941167,12.3181818 L6.66387712,13.1195698 L7.41176459,13.1515622 L6.79210171,13.7106108 L6.99834257,14.5 L6.32941167,14.127301 Z M3.08235292,14.127301 L2.41342203,14.5 L2.61966289,13.7106108 L2,13.1515622 L2.74788747,13.1195698 L3.08235292,12.3181818 L3.41681836,13.1195698 L4.16470584,13.1515622 L3.54504295,13.7106108 L3.75128381,14.5 L3.08235292,14.127301 Z M4.16470584,10.8545737 L3.49577495,11.2272727 L3.70201581,10.4378835 L3.08235292,9.87883493 L3.83024039,9.84684249 L4.16470584,9.04545455 L4.49917128,9.84684249 L5.24705876,9.87883493 L4.62739587,10.4378835 L4.83363673,11.2272727 L4.16470584,10.8545737 Z M17.6941173,10.8545737 L17.0251864,11.2272727 L17.2314273,10.4378835 L16.6117644,9.87883493 L17.3596519,9.84684249 L17.6941173,9.04545455 L18.0285828,9.84684249 L18.7764702,9.87883493 L18.1568074,10.4378835 L18.3630482,11.2272727 L17.6941173,10.8545737 Z M14.4470586,10.8545737 L13.7781277,11.2272727 L13.9843685,10.4378835 L13.3647056,9.87883493 L14.1125931,9.84684249 L14.4470586,9.04545455 L14.781524,9.84684249 L15.5294115,9.87883493 L14.9097486,10.4378835 L15.1159895,11.2272727 L14.4470586,10.8545737 Z M11.1999998,10.8545737 L10.5310689,11.2272727 L10.7373098,10.4378835 L10.1176469,9.87883493 L10.8655344,9.84684249 L11.1999998,9.04545455 L11.5344653,9.84684249 L12.2823527,9.87883493 L11.6626898,10.4378835 L11.8689307,11.2272727 L11.1999998,10.8545737 Z M7.95294105,10.8545737 L7.28401016,11.2272727 L7.49025102,10.4378835 L6.87058813,9.87883493 L7.61847561,9.84684249 L7.95294105,9.04545455 L8.2874065,9.84684249 L9.03529397,9.87883493 L8.41563108,10.4378835 L8.62187194,11.2272727 L7.95294105,10.8545737 Z M19.3176467,7.58184641 L18.6487158,7.95454545 L18.8549567,7.16515622 L18.2352938,6.60610766 L18.9831813,6.57411522 L19.3176467,5.77272727 L19.6521121,6.57411522 L20.3999996,6.60610766 L19.7803367,7.16515622 L19.9865776,7.95454545 L19.3176467,7.58184641 Z M16.0705879,7.58184641 L15.4016571,7.95454545 L15.6078979,7.16515622 L14.988235,6.60610766 L15.7361225,6.57411522 L16.0705879,5.77272727 L16.4050534,6.57411522 L17.1529409,6.60610766 L16.533278,7.16515622 L16.7395188,7.95454545 L16.0705879,7.58184641 Z M12.8235292,7.58184641 L12.1545983,7.95454545 L12.3608392,7.16515622 L11.7411763,6.60610766 L12.4890637,6.57411522 L12.8235292,5.77272727 L13.1579946,6.57411522 L13.9058821,6.60610766 L13.2862192,7.16515622 L13.4924601,7.95454545 L12.8235292,7.58184641 Z M9.57647043,7.58184641 L8.90753954,7.95454545 L9.1137804,7.16515622 L8.49411751,6.60610766 L9.24200499,6.57411522 L9.57647043,5.77272727 L9.91093588,6.57411522 L10.6588233,6.60610766 L10.0391605,7.16515622 L10.2454013,7.95454545 L9.57647043,7.58184641 Z M6.32941167,7.58184641 L5.66048078,7.95454545 L5.86672164,7.16515622 L5.24705876,6.60610766 L5.99494623,6.57411522 L6.32941167,5.77272727 L6.66387712,6.57411522 L7.41176459,6.60610766 L6.79210171,7.16515622 L6.99834257,7.95454545 L6.32941167,7.58184641 Z M3.08235292,7.58184641 L2.41342203,7.95454545 L2.61966289,7.16515622 L2,6.60610766 L2.74788747,6.57411522 L3.08235292,5.77272727 L3.41681836,6.57411522 L4.16470584,6.60610766 L3.54504295,7.16515622 L3.75128381,7.95454545 L3.08235292,7.58184641 Z M4.7058823,4.30911914 L4.03695141,4.68181818 L4.24319227,3.89242895 L3.62352938,3.33338039 L4.37141685,3.30138794 L4.7058823,2.5 L5.04034774,3.30138794 L5.78823522,3.33338039 L5.16857233,3.89242895 L5.37481319,4.68181818 L4.7058823,4.30911914 Z M17.6941173,4.30911914 L17.0251864,4.68181818 L17.2314273,3.89242895 L16.6117644,3.33338039 L17.3596519,3.30138794 L17.6941173,2.5 L18.0285828,3.30138794 L18.7764702,3.33338039 L18.1568074,3.89242895 L18.3630482,4.68181818 L17.6941173,4.30911914 Z M14.4470586,4.30911914 L13.7781277,4.68181818 L13.9843685,3.89242895 L13.3647056,3.33338039 L14.1125931,3.30138794 L14.4470586,2.5 L14.781524,3.30138794 L15.5294115,3.33338039 L14.9097486,3.89242895 L15.1159895,4.68181818 L14.4470586,4.30911914 Z M11.1999998,4.30911914 L10.5310689,4.68181818 L10.7373098,3.89242895 L10.1176469,3.33338039 L10.8655344,3.30138794 L11.1999998,2.5 L11.5344653,3.30138794 L12.2823527,3.33338039 L11.6626898,3.89242895 L11.8689307,4.68181818 L11.1999998,4.30911914 Z M7.95294105,4.30911914 L7.28401016,4.68181818 L7.49025102,3.89242895 L6.87058813,3.33338039 L7.61847561,3.30138794 L7.95294105,2.5 L8.2874065,3.30138794 L9.03529397,3.33338039 L8.41563108,3.89242895 L8.62187194,4.68181818 L7.95294105,4.30911914 Z" id="stars" stroke="none" fill="#FFFFFF" fill-rule="evenodd" mask="url(#mask-6)"></path>
            </g>
        </g>
    </g>
</svg>