<?xml version="1.0" encoding="UTF-8"?>
<svg width="32px" height="32px" viewBox="0 0 32 32" version="1.1" xmlns="http://www.w3.org/2000/svg" xmlns:xlink="http://www.w3.org/1999/xlink">
    <!-- Generator: Sketch 50.2 (55047) - http://www.bohemiancoding.com/sketch -->
    <title>Disc / flag-gb</title>
    <desc>Created with Sketch.</desc>
    <defs>
        <circle id="path-1" cx="16" cy="16" r="16"></circle>
        <polygon id="path-3" points="0.0168585366 0 47.9709659 0 47.9709659 31.9382456 0.0168585366 31.9382456"></polygon>
    </defs>
    <g id="Disc-/-flag-gb" stroke="none" stroke-width="1" fill="none" fill-rule="evenodd">
        <mask id="mask-2" fill="white">
            <use xlink:href="#path-1"></use>
        </mask>
        <g id="Oval"></g>
        <g id="flag-gb" mask="url(#mask-2)">
            <g transform="translate(-8.000000, 0.000000)">
                <mask id="mask-4" fill="white">
                    <use xlink:href="#path-3"></use>
                </mask>
                <use id="Shape" stroke="none" fill="#1D3B80" fill-rule="evenodd" xlink:href="#path-3"></use>
                <polygon id="Path-Copy-2" stroke="none" fill="#FFFFFF" fill-rule="evenodd" mask="url(#mask-4)" points="21.0450434 20.7062989 5.37810732 31.9382456 0.0168585366 31.9382456 0.0168585366 28.3675322 15.6837946 17.1355855 21.0450434 17.1355855"></polygon>
                <polygon id="Path-Copy-3" stroke="none" fill="#FFFFFF" fill-rule="evenodd" mask="url(#mask-4)" points="48 3.57007181 33.0991075 14.8000002 28 14.8000002 28 10.6665039 42.9008925 7.10542736e-15 48 7.10542736e-15"></polygon>
                <polygon id="Path" stroke="none" fill="#FFFFFF" fill-rule="evenodd" mask="url(#mask-4)" points="0.0168585366 20 47.9768576 20 47.9768576 12 0.0168585366 12"></polygon>
                <polygon id="Path" stroke="none" fill="#FFFFFF" fill-rule="evenodd" mask="url(#mask-4)" points="0.0168585366 3.57077583 17.6072566 13.9759245 22.0457758 13.9811735 22.0457758 9.98168945 5.37810732 0 0.0168585366 0"></polygon>
                <polygon id="Path-Copy-4" stroke="none" fill="#FFFFFF" fill-rule="evenodd" mask="url(#mask-4)" points="26 21.5707758 43.590398 31.9759245 48.0289173 31.9811735 48.0289173 28.4383545 30.3543701 18 26 18"></polygon>
                <polygon id="Path" stroke="none" fill="#FF2353" fill-rule="evenodd" mask="url(#mask-4)" points="28.0294405 20.019043 31.6036376 20.019043 47.9709659 29.55777 47.9709659 31.9382456"></polygon>
                <polygon id="Path" stroke="none" fill="#FFFFFF" fill-rule="evenodd" mask="url(#mask-4)" points="19.9977366 0 19.9977366 31.9382456 27.9900878 31.9382456 27.9900878 0 19.9977366 0"></polygon>
                <polygon id="Path" stroke="none" fill="#FF2353" fill-rule="evenodd" mask="url(#mask-4)" points="44.3967688 0 47.9709659 0 31.5493165 11.9991455 27.9751194 11.9991455"></polygon>
                <polygon id="Path" stroke="none" fill="#FF2353" fill-rule="evenodd" mask="url(#mask-4)" points="20.009643 11.9978027 16.435446 11.9978027 0.0168585366 2.38060039 0.0168585366 0"></polygon>
                <polygon id="Path" stroke="none" fill="#FF2353" fill-rule="evenodd" mask="url(#mask-4)" points="16.5263883 19.9641113 20.1005854 19.9641113 3.59105561 31.9382456 0.0168585366 31.9382456"></polygon>
                <polygon id="Path" stroke="none" fill="#FF2353" fill-rule="evenodd" mask="url(#mask-4)" points="22 0 22 31.9382456 26 31.9382456 26 0 22 0"></polygon>
                <polygon id="Path" stroke="none" fill="#FF2353" fill-rule="evenodd" mask="url(#mask-4)" points="0.0168585366 14 0.0168585366 18 47.9768576 18 47.9768576 14"></polygon>
            </g>
        </g>
    </g>
</svg>