<?xml version="1.0" encoding="UTF-8"?>
<svg width="32px" height="32px" viewBox="0 0 32 32" version="1.1" xmlns="http://www.w3.org/2000/svg" xmlns:xlink="http://www.w3.org/1999/xlink">
    <!-- Generator: Sketch 50.2 (55047) - http://www.bohemiancoding.com/sketch -->
    <title>Disc / flag-ca</title>
    <desc>Created with Sketch.</desc>
    <defs>
        <circle id="path-1" cx="16" cy="16" r="16"></circle>
        <filter x="-4.7%" y="-4.7%" width="109.4%" height="109.4%" filterUnits="objectBoundingBox" id="filter-3">
            <feMorphology radius="1" operator="erode" in="SourceAlpha" result="shadowSpreadInner1"></feMorphology>
            <feGaussianBlur stdDeviation="1" in="shadowSpreadInner1" result="shadowBlurInner1"></feGaussianBlur>
            <feOffset dx="0" dy="0" in="shadowBlurInner1" result="shadowOffsetInner1"></feOffset>
            <feComposite in="shadowOffsetInner1" in2="SourceAlpha" operator="arithmetic" k2="-1" k3="1" result="shadowInnerInner1"></feComposite>
            <feColorMatrix values="0 0 0 0 0   0 0 0 0 0   0 0 0 0 0  0 0 0 0.5 0" type="matrix" in="shadowInnerInner1"></feColorMatrix>
        </filter>
        <circle id="path-4" cx="16" cy="16" r="16"></circle>
    </defs>
    <g id="Disc-/-flag-ca" stroke="none" stroke-width="1" fill="none" fill-rule="evenodd">
        <mask id="mask-2" fill="white">
            <use xlink:href="#path-1"></use>
        </mask>
        <g id="Oval">
            <use fill="#12234D" fill-rule="evenodd" xlink:href="#path-1"></use>
            <use fill="black" fill-opacity="1" filter="url(#filter-3)" xlink:href="#path-1"></use>
        </g>
        <mask id="mask-5" fill="white">
            <use xlink:href="#path-4"></use>
        </mask>
        <use id="Oval" fill="#1D3B80" xlink:href="#path-4"></use>
        <g id="flag-ca" mask="url(#mask-5)">
            <g transform="translate(-8.000000, 0.000000)">
                <polygon id="Shape" fill="#FFFFFF" points="11.9925186 0 35.9776883 0 35.9776883 32 11.9925186 32"></polygon>
                <rect id="Rectangle-818" fill="#FFFFFF" x="0" y="0" width="48" height="32"></rect>
                <path d="M0,0 L11.9925848,0 L11.9925848,32 L0,32 L0,0 Z M35.9776883,0 L47.9702069,0 L47.9702069,32 L35.9777545,32 L35.9776883,0 Z M15.5791448,15.463125 L14.6478124,15.763625 L18.981451,19.354 C19.3091752,20.27675 18.8675752,20.54875 18.5861959,21.03275 L23.2908579,20.469 L23.1683752,24.9385 L24.1428083,24.9120625 L23.9302841,20.4796875 L28.6395807,21.0066875 C28.3481379,20.425625 28.0887393,20.117125 28.3584,19.1880625 L32.6892579,15.7864375 L31.9313876,15.5274375 C31.311691,15.0760625 32.1991283,13.3534375 32.3329986,12.2663125 C32.3329986,12.2663125 29.8042262,13.08725 29.6385103,12.6576875 L28.9945159,11.489875 L26.6940248,13.8755 C26.4427034,13.932375 26.3356469,13.838 26.2766566,13.6375 L27.3394759,8.652125 L25.6564966,9.5456875 C25.5156083,9.6025625 25.37472,9.5535 25.2818979,9.3985 L23.6631393,6.33225 L21.9940634,9.516625 C21.8682703,9.63075 21.7422786,9.6439375 21.6377379,9.566375 L20.0352662,8.71775 L20.9972524,13.6641875 C20.9207172,13.8604375 20.7374566,13.91575 20.5218869,13.8094375 L18.3227586,11.450875 C18.0350897,11.886 17.8401103,12.596875 17.4598841,12.7561875 C17.0795917,12.905375 15.8060359,12.45475 14.9524303,12.278875 C15.2440055,13.2723125 16.1558069,14.92275 15.5787476,15.4636875 L15.5791448,15.463125 Z" id="Shape" fill="#FF2353"></path>
            </g>
        </g>
    </g>
</svg>