<?xml version="1.0" encoding="UTF-8"?>
<svg width="32px" height="32px" viewBox="0 0 32 32" version="1.1" xmlns="http://www.w3.org/2000/svg" xmlns:xlink="http://www.w3.org/1999/xlink">
    <!-- Generator: Sketch 50.2 (55047) - http://www.bohemiancoding.com/sketch -->
    <title>Disc / flag-cy</title>
    <desc>Created with Sketch.</desc>
    <defs>
        <circle id="path-1" cx="16" cy="16" r="16"></circle>
        <filter x="-4.7%" y="-4.7%" width="109.4%" height="109.4%" filterUnits="objectBoundingBox" id="filter-3">
            <feMorphology radius="1" operator="erode" in="SourceAlpha" result="shadowSpreadInner1"></feMorphology>
            <feGaussianBlur stdDeviation="1" in="shadowSpreadInner1" result="shadowBlurInner1"></feGaussianBlur>
            <feOffset dx="0" dy="0" in="shadowBlurInner1" result="shadowOffsetInner1"></feOffset>
            <feComposite in="shadowOffsetInner1" in2="SourceAlpha" operator="arithmetic" k2="-1" k3="1" result="shadowInnerInner1"></feComposite>
            <feColorMatrix values="0 0 0 0 0   0 0 0 0 0   0 0 0 0 0  0 0 0 0.5 0" type="matrix" in="shadowInnerInner1"></feColorMatrix>
        </filter>
        <circle id="path-4" cx="16" cy="16" r="16"></circle>
    </defs>
    <g id="Disc-/-flag-cy" stroke="none" stroke-width="1" fill="none" fill-rule="evenodd">
        <mask id="mask-2" fill="white">
            <use xlink:href="#path-1"></use>
        </mask>
        <g id="Oval">
            <use fill="#12234D" fill-rule="evenodd" xlink:href="#path-1"></use>
            <use fill="black" fill-opacity="1" filter="url(#filter-3)" xlink:href="#path-1"></use>
        </g>
        <mask id="mask-5" fill="white">
            <use xlink:href="#path-4"></use>
        </mask>
        <use id="Oval" fill="#06807B" xlink:href="#path-4"></use>
        <g id="flag-cy" mask="url(#mask-5)">
            <g transform="translate(-8.000000, 0.000000)">
                <g id="Group">
                    <polygon id="Shape" fill="#FFFFFF" points="0 0 48 0 48 32 0 32"></polygon>
                    <path d="M23.088,29.895 C23.0800934,29.891621 23.0729887,29.8866119 23.06715,29.8803 L23.05965,29.87325 C23.04015,29.855475 23.00805,29.823975 22.964775,29.7747 C22.884825,29.68395 22.77765,29.55105 22.683375,29.4336 C22.496475,29.20065 22.342125,28.99995 22.312875,28.96215 L22.265325,28.9002 L21.799425,28.7565 L21.45915,28.597875 L21.641025,28.3935 L22.265475,28.660875 L22.7316,28.7565 L23.59335,29.39025 L23.5926,29.39085 C23.59095,29.39235 23.46735,29.4951 23.3445,29.60685 C23.28975,29.656575 23.22075,29.72055 23.172,29.7738 C23.1495,29.79825 23.129625,29.82255 23.116125,29.8422 C23.107875,29.8542 23.103225,29.86515 23.100975,29.870475 L23.154525,29.837175 L23.2125,29.882175 L23.09445,29.8932 L23.08905,29.8944 L23.088,29.895 Z M19.8876,28.9338 C19.48095,28.9338 19.079325,28.8213 18.6939,28.59975 L18.69345,28.599525 L18.6936,28.599075 C18.6936,28.599075 18.744,28.503075 18.86625,28.41345 C18.982725,28.32795 19.1928,28.225725 19.53225,28.22445 L19.5393,28.22445 C19.9413,28.22445 20.4333,28.3611 21.00165,28.63065 C20.98245,28.6434 20.53635,28.934025 19.88775,28.934025 L19.88835,28.934625 L19.8876,28.9338 Z M18.1254,28.5432 C18.05025,28.5432 17.982675,28.5147 17.9352,28.46325 C17.8962,28.420875 17.86845,28.364475 17.84985,28.290525 C17.819625,28.169475 17.82795,28.049025 17.82885,28.03755 C17.8585115,28.0247061 17.8903007,28.0174836 17.9226,28.01625 L17.92935,28.0161 C18.07995,28.0161 18.1986,28.146825 18.2496,28.27635 C18.2784,28.35 18.28395,28.411875 18.26595,28.4604 C18.24795,28.509 18.19155,28.5426 18.12555,28.5426 L18.1254,28.5432 Z M21.2262,28.1838 C20.184675,28.035075 19.74315,27.6585 19.55625,27.36885 C19.35675,27.05985 19.397775,26.7741 19.39815,26.77125 L19.3983,26.77035 L19.39905,26.770125 C19.399425,26.770125 19.4628,26.753025 19.558575,26.752575 C19.835775,26.752575 20.54445,26.892075 21.226575,28.1832 L21.227025,28.18395 L21.225825,28.183425 L21.2262,28.1838 Z M19.0914,27.9774 C18.646425,27.9774 18.30765,27.9006 18.08445,27.749175 C17.9562,27.662175 17.893425,27.566475 17.86335,27.501675 C17.845162,27.463294 17.8331152,27.4222944 17.82765,27.380175 C17.839425,27.374775 18.0216,27.293925 18.29355,27.281175 C18.316575,27.280125 18.33975,27.27945 18.36405,27.279375 C18.707925,27.279375 19.2309,27.391575 19.78275,27.926175 L19.783275,27.9267 L19.782525,27.9267 C19.530525,27.9597 19.2978,27.977175 19.0908,27.977175 L19.0914,27.9774 Z M16.9368,27.8946 C16.4676,27.8946 15.82305,27.75135 15.42105,27.34935 L15.4206,27.3489 L15.4218,27.3486 C15.426,27.34755 15.862275,27.23685 16.35315,27.22485 C16.3824,27.2241 16.411875,27.2238 16.44165,27.2238 C16.8816,27.2238 17.218275,27.309075 17.4426,27.4773 C17.5209,27.536025 17.56365,27.5907 17.57325,27.64425 C17.581275,27.689025 17.55765,27.73725 17.509875,27.77325 C17.408925,27.849525 17.2284,27.89025 16.973175,27.8943 L16.937175,27.8955 L16.9368,27.8946 Z M15.4164,27.1146 C15.3588301,27.114728 15.3042408,27.0890163 15.267675,27.04455 C15.237225,27.0078 15.216075,26.95965 15.201075,26.893275 C15.176025,26.782275 15.1836,26.6739 15.183675,26.672775 L15.183675,26.671725 C15.2066202,26.6612274 15.2314953,26.6556088 15.256725,26.655225 L15.256875,26.655225 C15.326325,26.655225 15.379125,26.693025 15.412125,26.72475 C15.4575639,26.7692423 15.4922451,26.8235215 15.513525,26.88345 C15.535425,26.94525 15.539025,26.996925 15.524325,27.04155 C15.512325,27.07695 15.471525,27.11415 15.416325,27.11415 L15.4164,27.1146 Z M18.9282,27.0354 C18.85305,27.0354 18.785475,27.0069 18.738,26.95545 C18.699,26.913075 18.67125,26.856675 18.65265,26.782725 C18.622425,26.661675 18.63075,26.541225 18.63165,26.52975 C18.6613115,26.5169061 18.6931007,26.5096836 18.7254,26.50845 L18.73215,26.5083 C18.88275,26.5083 19.0014,26.639025 19.0524,26.76855 C19.0812,26.8422 19.08675,26.904075 19.06875,26.9526 C19.05075,27.0018 18.99375,27.0348 18.92835,27.0348 L18.9282,27.0354 Z M17.2176,26.9646 C16.27335,26.931375 15.783375,26.66295 15.538575,26.44365 C15.4008,26.320125 15.324225,26.19765 15.284325,26.1168 C15.246525,26.0403 15.232275,25.9818 15.229725,25.97055 L15.231,25.970025 C15.231,25.970025 15.32025,25.938075 15.464025,25.935225 L15.48615,25.935 C15.804525,25.935 16.45275,26.0688 17.21715,26.964225 L17.21715,26.964825 L17.2176,26.9646 Z M18.243,26.8692 C17.48325,26.75355 17.052975,26.42745 16.82565,26.1741 C16.58745,25.9086 16.51605,25.661325 16.5129,25.64985 C16.51425,25.6494 16.6071,25.62525 16.7469,25.62165 C16.7684451,25.6209976 16.7900049,25.6209976 16.81155,25.62165 C17.1936,25.63005 17.887575,25.80315 18.24285,26.86875 L18.24345,26.86875 L18.243,26.8692 Z M14.343,26.5044 C14.094,26.5044 13.8525,26.4756 13.62525,26.41875 C13.227525,26.3193 13.0569,26.1675 12.98385,26.05755 C12.9423,25.99515 12.927225,25.9404 12.921975,25.90545 C12.9186452,25.8841643 12.9180152,25.8625435 12.9201,25.8411 L12.921975,25.84035 C12.92295,25.8402 13.185975,25.766325 13.549725,25.76085 C13.7367074,25.7574682 13.9235164,25.7740622 14.106975,25.81035 C14.739225,25.936575 15.067125,26.4138 15.07035,26.4186 L15.07065,26.419125 L15.0699,26.419275 C15.06615,26.419875 14.765025,26.504475 14.342625,26.504475 L14.343,26.5044 Z M16.1064,25.8636 C16.030275,25.8636 15.9627,25.83585 15.91605,25.785375 C15.8778,25.7439 15.849825,25.68675 15.83085,25.61085 C15.80055,25.48995 15.80895,25.37085 15.80985,25.35975 C15.8395165,25.3469319 15.8713055,25.3397349 15.9036,25.338525 L15.91035,25.338375 C16.06065,25.338375 16.1796,25.4691 16.2306,25.598625 C16.25865,25.669875 16.2636,25.73115 16.24515,25.780725 C16.22655,25.831125 16.17195,25.863525 16.10655,25.863525 L16.1064,25.8636 Z M14.7804,25.6818 C14.7747,25.68045 14.42175,25.58955 14.06235,25.3683 C13.729725,25.16355 13.32285,24.8013 13.2732,24.2385 L13.2732,24.2382 L13.27395,24.237975 C13.2741,24.237975 13.305,24.230475 13.35075,24.22875 C13.35705,24.228525 13.363725,24.228375 13.370775,24.228375 C13.47015,24.228375 13.67355,24.25635 13.91955,24.4434 C14.23275,24.6822 14.52195,25.0986 14.78055,25.6824 L14.7804,25.6818 Z M15.6462,25.65 C15.64395,25.6491 15.392475,25.54845 15.078075,25.284975 C14.7852,25.039425 14.373375,24.597375 14.075175,23.885175 C14.075325,23.885025 14.143725,23.848575 14.248425,23.841975 C14.2545165,23.8415751 14.2606206,23.8413999 14.266725,23.84145 C14.275725,23.84145 14.285025,23.84175 14.294475,23.841975 C14.439225,23.8461 14.659425,23.906175 14.9037,24.169725 C15.1842,24.472575 15.4347,24.9702 15.647925,25.648875 L15.648525,25.65075 L15.646725,25.650225 L15.6462,25.65 Z M13.4028,25.5846 C13.113525,25.5846 13.014525,25.4277 12.98535,25.3602 C12.9375,25.2492 12.95205,25.13895 12.952125,25.13775 L12.952275,25.13655 C12.9994039,25.1248343 13.0477174,25.1185435 13.096275,25.1178 L13.106025,25.11765 C13.334025,25.11765 13.514025,25.23345 13.591125,25.348125 C13.606425,25.37085 13.653375,25.44975 13.614525,25.5114 C13.583325,25.56 13.512525,25.5846 13.402725,25.5846 L13.4028,25.5846 Z M12.762,24.7764 C12.60045,24.7764 12.35325,24.7665 12.093525,24.71925 C11.8359,24.67245 11.689875,24.453375 11.612775,24.27795 C11.528775,24.08685 11.50515,23.90445 11.504775,23.90265 L11.505525,23.90265 C12.30255,23.92605 12.6789,24.158925 12.854325,24.3501 C13.03545,24.5475 13.046175,24.752475 13.046775,24.76545 L13.04625,24.76545 C13.044975,24.76545 12.932775,24.77625 12.761775,24.77625 L12.762,24.7764 Z M13.5918,23.9472 C13.527066,23.8656556 13.466344,23.7810052 13.40985,23.69355 C13.31535,23.54685 13.228125,23.393775 13.228125,23.26845 C13.228125,23.14755 13.199625,22.89255 13.18275,22.751325 C13.161225,22.5723 13.13955,22.419075 13.13775,22.406025 L13.1385,22.40625 C13.15875,22.413525 13.63695,22.593 13.63695,23.0415 C13.63695,23.490975 13.5927,23.942475 13.59225,23.946975 L13.59225,23.947725 L13.59165,23.947725 L13.5918,23.9472 Z M12.972,23.9046 C12.966975,23.9046 12.96195,23.90415 12.957,23.903325 C12.815625,23.87985 12.567225,23.771775 12.29265,23.61435 C11.9877,23.4396 11.74005,23.2521 11.59545,23.086875 C11.46345,22.936125 11.385225,22.699425 11.36265,22.383375 C11.3466,22.158975 11.3658,21.972075 11.3679,21.953625 C11.39265,21.945375 11.4189,21.941325 11.44665,21.941325 C11.55255,21.94305 11.66565,21.990675 11.81805,22.095825 C11.936925,22.177575 12.06795,22.289025 12.20745,22.426575 C12.4482,22.664025 12.637575,22.902525 12.63945,22.90485 L12.641325,22.90725 C12.6573,22.93575 12.793575,23.18145 12.89985,23.420625 C12.96735,23.572575 13.005825,23.682075 13.02135,23.7654 C13.030125,23.812875 13.0326,23.844 13.02105,23.872275 C13.0165826,23.8835645 13.0084459,23.8930221 12.99795,23.899125 C12.9896243,23.9027508 12.9806307,23.9045903 12.97155,23.904525 L12.972,23.9046 Z" id="a" fill="#06807B"></path>
                    <g id="a-link" transform="translate(26.205650, 25.900000) scale(-1, 1) translate(-26.205650, -25.900000) translate(19.205650, 21.900000)" fill="#06807B">
                        <path d="M11.763,7.995 C11.7550934,7.991621 11.7479887,7.98661192 11.74215,7.9803 L11.73465,7.97325 C11.71515,7.955475 11.68305,7.923975 11.639775,7.8747 C11.559825,7.78395 11.45265,7.65105 11.358375,7.5336 C11.171475,7.30065 11.017125,7.09995 10.987875,7.06215 L10.940325,7.0002 L10.474425,6.8565 L10.13415,6.697875 L10.316025,6.4935 L10.940475,6.760875 L11.4066,6.8565 L12.26835,7.49025 L12.2676,7.49085 C12.26595,7.49235 12.14235,7.5951 12.0195,7.70685 C11.96475,7.756575 11.89575,7.82055 11.847,7.8738 C11.8245,7.89825 11.804625,7.92255 11.791125,7.9422 C11.782875,7.9542 11.778225,7.96515 11.775975,7.970475 L11.829525,7.937175 L11.8875,7.982175 L11.76945,7.9932 L11.76405,7.9944 L11.763,7.995 Z M8.5626,7.0338 C8.15595,7.0338 7.754325,6.9213 7.3689,6.69975 L7.36845,6.699525 L7.3686,6.699075 C7.3686,6.699075 7.419,6.603075 7.54125,6.51345 C7.657725,6.42795 7.8678,6.325725 8.20725,6.32445 L8.2143,6.32445 C8.6163,6.32445 9.1083,6.4611 9.67665,6.73065 C9.65745,6.7434 9.21135,7.034025 8.56275,7.034025 L8.56335,7.034625 L8.5626,7.0338 Z M6.8004,6.6432 C6.72525,6.6432 6.657675,6.6147 6.6102,6.56325 C6.5712,6.520875 6.54345,6.464475 6.52485,6.390525 C6.494625,6.269475 6.50295,6.149025 6.50385,6.13755 C6.53351148,6.12470614 6.56530067,6.11748363 6.5976,6.11625 L6.60435,6.1161 C6.75495,6.1161 6.8736,6.246825 6.9246,6.37635 C6.9534,6.45 6.95895,6.511875 6.94095,6.5604 C6.92295,6.609 6.86655,6.6426 6.80055,6.6426 L6.8004,6.6432 Z M9.9012,6.2838 C8.859675,6.135075 8.41815,5.7585 8.23125,5.46885 C8.03175,5.15985 8.072775,4.8741 8.07315,4.87125 L8.0733,4.87035 L8.07405,4.870125 C8.074425,4.870125 8.1378,4.853025 8.233575,4.852575 C8.510775,4.852575 9.21945,4.992075 9.901575,6.2832 L9.902025,6.28395 L9.900825,6.283425 L9.9012,6.2838 Z M7.7664,6.0774 C7.321425,6.0774 6.98265,6.0006 6.75945,5.849175 C6.6312,5.762175 6.568425,5.666475 6.53835,5.601675 C6.52016196,5.56329397 6.50811516,5.52229436 6.50265,5.480175 C6.514425,5.474775 6.6966,5.393925 6.96855,5.381175 C6.991575,5.380125 7.01475,5.37945 7.03905,5.379375 C7.382925,5.379375 7.9059,5.491575 8.45775,6.026175 L8.458275,6.0267 L8.457525,6.0267 C8.205525,6.0597 7.9728,6.077175 7.7658,6.077175 L7.7664,6.0774 Z M5.6118,5.9946 C5.1426,5.9946 4.49805,5.85135 4.09605,5.44935 L4.0956,5.4489 L4.0968,5.4486 C4.101,5.44755 4.537275,5.33685 5.02815,5.32485 C5.0574,5.3241 5.086875,5.3238 5.11665,5.3238 C5.5566,5.3238 5.893275,5.409075 6.1176,5.5773 C6.1959,5.636025 6.23865,5.6907 6.24825,5.74425 C6.256275,5.789025 6.23265,5.83725 6.184875,5.87325 C6.083925,5.949525 5.9034,5.99025 5.648175,5.9943 L5.612175,5.9955 L5.6118,5.9946 Z M4.0914,5.2146 C4.03383009,5.21472802 3.97924084,5.18901629 3.942675,5.14455 C3.912225,5.1078 3.891075,5.05965 3.876075,4.993275 C3.851025,4.882275 3.8586,4.7739 3.858675,4.772775 L3.858675,4.771725 C3.88162024,4.7612274 3.90649533,4.7556088 3.931725,4.755225 L3.931875,4.755225 C4.001325,4.755225 4.054125,4.793025 4.087125,4.82475 C4.13256393,4.86924231 4.16724513,4.92352147 4.188525,4.98345 C4.210425,5.04525 4.214025,5.096925 4.199325,5.14155 C4.187325,5.17695 4.146525,5.21415 4.091325,5.21415 L4.0914,5.2146 Z M7.6032,5.1354 C7.52805,5.1354 7.460475,5.1069 7.413,5.05545 C7.374,5.013075 7.34625,4.956675 7.32765,4.882725 C7.297425,4.761675 7.30575,4.641225 7.30665,4.62975 C7.33631148,4.61690614 7.36810067,4.60968363 7.4004,4.60845 L7.40715,4.6083 C7.55775,4.6083 7.6764,4.739025 7.7274,4.86855 C7.7562,4.9422 7.76175,5.004075 7.74375,5.0526 C7.72575,5.1018 7.66875,5.1348 7.60335,5.1348 L7.6032,5.1354 Z M5.8926,5.0646 C4.94835,5.031375 4.458375,4.76295 4.213575,4.54365 C4.0758,4.420125 3.999225,4.29765 3.959325,4.2168 C3.921525,4.1403 3.907275,4.0818 3.904725,4.07055 L3.906,4.070025 C3.906,4.070025 3.99525,4.038075 4.139025,4.035225 L4.16115,4.035 C4.479525,4.035 5.12775,4.1688 5.89215,5.064225 L5.89215,5.064825 L5.8926,5.0646 Z M6.918,4.9692 C6.15825,4.85355 5.727975,4.52745 5.50065,4.2741 C5.26245,4.0086 5.19105,3.761325 5.1879,3.74985 C5.18925,3.7494 5.2821,3.72525 5.4219,3.72165 C5.44344506,3.7209976 5.46500494,3.7209976 5.48655,3.72165 C5.8686,3.73005 6.562575,3.90315 6.91785,4.96875 L6.91845,4.96875 L6.918,4.9692 Z M3.018,4.6044 C2.769,4.6044 2.5275,4.5756 2.30025,4.51875 C1.902525,4.4193 1.7319,4.2675 1.65885,4.15755 C1.6173,4.09515 1.602225,4.0404 1.596975,4.00545 C1.59364522,3.98416431 1.59301524,3.96254346 1.5951,3.9411 L1.596975,3.94035 C1.59795,3.9402 1.860975,3.866325 2.224725,3.86085 C2.41170741,3.85746817 2.59851641,3.87406224 2.781975,3.91035 C3.414225,4.036575 3.742125,4.5138 3.74535,4.5186 L3.74565,4.519125 L3.7449,4.519275 C3.74115,4.519875 3.440025,4.604475 3.017625,4.604475 L3.018,4.6044 Z M4.7814,3.9636 C4.705275,3.9636 4.6377,3.93585 4.59105,3.885375 C4.5528,3.8439 4.524825,3.78675 4.50585,3.71085 C4.47555,3.58995 4.48395,3.47085 4.48485,3.45975 C4.51451645,3.44693192 4.54630545,3.43973489 4.5786,3.438525 L4.58535,3.438375 C4.73565,3.438375 4.8546,3.5691 4.9056,3.698625 C4.93365,3.769875 4.9386,3.83115 4.92015,3.880725 C4.90155,3.931125 4.84695,3.963525 4.78155,3.963525 L4.7814,3.9636 Z M3.4554,3.7818 C3.4497,3.78045 3.09675,3.68955 2.73735,3.4683 C2.404725,3.26355 1.99785,2.9013 1.9482,2.3385 L1.9482,2.3382 L1.94895,2.337975 C1.9491,2.337975 1.98,2.330475 2.02575,2.32875 C2.03205,2.328525 2.038725,2.328375 2.045775,2.328375 C2.14515,2.328375 2.34855,2.35635 2.59455,2.5434 C2.90775,2.7822 3.19695,3.1986 3.45555,3.7824 L3.4554,3.7818 Z M4.3212,3.75 C4.31895,3.7491 4.067475,3.64845 3.753075,3.384975 C3.4602,3.139425 3.048375,2.697375 2.750175,1.985175 C2.750325,1.985025 2.818725,1.948575 2.923425,1.941975 C2.92951647,1.94157506 2.93562062,1.94139994 2.941725,1.94145 C2.950725,1.94145 2.960025,1.94175 2.969475,1.941975 C3.114225,1.9461 3.334425,2.006175 3.5787,2.269725 C3.8592,2.572575 4.1097,3.0702 4.322925,3.748875 L4.323525,3.75075 L4.321725,3.750225 L4.3212,3.75 Z M2.0778,3.6846 C1.788525,3.6846 1.689525,3.5277 1.66035,3.4602 C1.6125,3.3492 1.62705,3.23895 1.627125,3.23775 L1.627275,3.23655 C1.67440391,3.22483433 1.72271742,3.21854351 1.771275,3.2178 L1.781025,3.21765 C2.009025,3.21765 2.189025,3.33345 2.266125,3.448125 C2.281425,3.47085 2.328375,3.54975 2.289525,3.6114 C2.258325,3.66 2.187525,3.6846 2.077725,3.6846 L2.0778,3.6846 Z M1.437,2.8764 C1.27545,2.8764 1.02825,2.8665 0.768525,2.81925 C0.5109,2.77245 0.364875,2.553375 0.287775,2.37795 C0.203775,2.18685 0.18015,2.00445 0.179775,2.00265 L0.180525,2.00265 C0.97755,2.02605 1.3539,2.258925 1.529325,2.4501 C1.71045,2.6475 1.721175,2.852475 1.721775,2.86545 L1.72125,2.86545 C1.719975,2.86545 1.607775,2.87625 1.436775,2.87625 L1.437,2.8764 Z M2.2668,2.0472 C2.20206603,1.96565556 2.14134402,1.88100518 2.08485,1.79355 C1.99035,1.64685 1.903125,1.493775 1.903125,1.36845 C1.903125,1.24755 1.874625,0.99255 1.85775,0.851325 C1.836225,0.6723 1.81455,0.519075 1.81275,0.506025 L1.8135,0.50625 C1.83375,0.513525 2.31195,0.693 2.31195,1.1415 C2.31195,1.590975 2.2677,2.042475 2.26725,2.046975 L2.26725,2.047725 L2.26665,2.047725 L2.2668,2.0472 Z M1.647,2.0046 C1.641975,2.0046 1.63695,2.00415 1.632,2.003325 C1.490625,1.97985 1.242225,1.871775 0.96765,1.71435 C0.6627,1.5396 0.41505,1.3521 0.27045,1.186875 C0.13845,1.036125 0.060225,0.799425 0.03765,0.483375 C0.0216,0.258975 0.0408,0.072075 0.0429,0.053625 C0.06765,0.045375 0.0939,0.041325 0.12165,0.041325 C0.22755,0.04305 0.34065,0.090675 0.49305,0.195825 C0.611925,0.277575 0.74295,0.389025 0.88245,0.526575 C1.1232,0.764025 1.312575,1.002525 1.31445,1.00485 L1.316325,1.00725 C1.3323,1.03575 1.468575,1.28145 1.57485,1.520625 C1.64235,1.672575 1.680825,1.782075 1.69635,1.8654 C1.705125,1.912875 1.7076,1.944 1.69605,1.972275 C1.69158261,1.98356448 1.68344592,1.99302207 1.67295,1.999125 C1.66462426,2.00275076 1.65563074,2.00459035 1.64655,2.004525 L1.647,2.0046 Z" id="a"></path>
                    </g>
                    <path d="M38.9298,5.7285 L38.7885,5.78475 L38.73315,5.80695 L38.56185,5.7975 L38.4015,5.87445 L38.1171,6.06885 L38.104575,6.07785 L37.9986,6.10545 L37.900125,6.063 L37.84425,6.0885 L37.8249,6.203625 L37.77165,6.28635 L37.706175,6.3324 L37.479075,6.35565 L37.287675,6.45435 L37.038675,6.3876 L36.923025,6.432975 L36.677025,6.65445 L36.5514,6.714 L36.50745,6.71145 L36.3408,6.7029 L36.2703,6.725925 L36.1653,6.827475 L35.9664,6.842925 L35.904375,6.885825 L35.807325,7.081425 L35.702175,7.189875 L35.64195,7.202625 L35.5767,7.178775 L35.527725,7.1874 L35.505525,7.31265 L35.457975,7.365 L35.324775,7.4109 L35.218425,7.49955 L35.12505,7.54755 L35.000025,7.544325 L34.9713,7.544325 L34.8468,7.613175 L34.612425,7.633725 L34.514925,7.726725 L34.493475,7.746525 L34.448025,7.773975 L34.373625,7.818375 L34.3554,7.8294 L34.2657,7.8135 L34.1607,7.85505 L34.118175,7.7898 L34.045575,7.8333 L33.949275,7.8375 L33.829425,7.7841 L33.738075,7.74345 L33.671325,7.7532 L33.648075,7.86945 L33.645825,7.8819 L33.57555,7.975275 L33.444525,8.054775 L33.426675,8.077875 L33.277575,8.2704 L32.9943,8.5683 L32.754675,8.690025 L32.506425,8.76555 L32.332575,8.90835 L31.876575,9.1344 L31.15695,9.492375 L31.0098,9.539625 L30.7986,9.573375 L30.4218,9.711975 L30.08955,9.812325 L30.071025,9.81795 L30.005175,9.8379 L29.536575,9.97965 L29.318475,9.95655 L29.189325,10.0035 L28.853025,9.96615 L28.619175,9.9708 L28.471125,10.00155 L28.192875,10.13505 L27.723375,10.3608 L27.568125,10.5027 L27.326625,10.6287 L27.04365,10.718325 L27.0444,10.599375 L27.0426,10.59435 L26.944575,10.625325 L26.8737,10.647825 L26.6442,10.683075 L26.516475,10.683075 L26.437275,10.660125 L26.4249,10.66425 L25.95585,10.81875 L25.4328,10.869225 L25.17105,10.953225 L24.9753,10.950075 L24.85305,10.986525 L24.613425,11.015775 L24.527925,10.992975 L24.508425,10.987725 L23.803425,11.018325 L23.48115,10.981875 L23.3274,11.016825 L23.06955,10.930125 L22.693425,10.886625 L22.605525,10.860225 L22.407825,10.8015 L22.31835,10.85295 L22.251375,10.86015 L22.091325,10.8021 L22.033725,10.8006 L21.901575,10.848375 L21.8256,10.828875 L21.75495,10.772625 L21.5892,10.747875 L21.4884,10.663125 L20.92425,10.737825 L20.77125,10.692825 L20.25795,10.543425 L20.1762,10.54755 L20.074575,10.623825 L19.921575,10.67955 L19.788975,10.71405 L19.608225,10.72035 L19.398375,10.665225 L19.182075,10.560375 L19.10205,10.541325 L18.92355,10.559325 L18.869025,10.56435 L18.540975,10.3884 L18.1185,10.12425 L17.831775,9.986475 L17.72415,9.969075 L17.709675,10.0203 L17.763075,10.188675 L17.7813,10.355175 L17.775825,10.508925 L17.772825,10.604175 L17.7996,10.689675 L17.9031,10.804425 L17.946375,10.91955 L17.977875,11.236575 L17.9775,11.558325 L17.92725,12.071325 L17.910225,12.149475 L17.850225,12.4152 L17.795325,12.659325 L17.58255,13.309275 L17.52405,13.3899 L17.38065,13.4877 L17.055525,13.70895 L16.81605,13.84695 L16.7403,13.87845 L16.5459,13.893075 L16.42485,13.8867 L16.2741,13.80495 L16.126125,13.766925 L15.932175,13.627425 L15.71655,13.582875 L15.480075,13.446225 L15.418575,13.3722 L15.2898,13.3602 L15.1113,13.3065 L15.1113,13.306125 L15.045825,13.286625 L15.000525,13.27335 L14.77275,13.26705 L14.5605,13.16895 L14.4486,13.14195 L14.29575,13.134225 L14.135775,13.208475 L14.135775,13.208325 L14.054775,13.2462 L13.95225,13.205475 L13.87815,13.210125 L13.79415,13.337025 L13.7817,13.356675 L13.7238,13.387275 L13.6518,13.3863 L13.59555,13.3848 L13.5345,13.411425 L13.45245,13.446975 L13.45245,13.447125 L13.38,13.478775 L13.3446,13.494075 L13.344,13.493475 L13.32225,13.497825 L13.283475,13.504575 L13.235475,13.513725 L13.150875,13.464225 L13.105875,13.43775 L13.0305,13.422375 L12.98985,13.451625 L12.9819,13.589775 L12.944775,13.672425 L12.827025,13.776375 L12.70755,13.881675 L12.6243,14.004525 L12.40365,14.507925 L12.2655,14.711025 L12.2226,14.758275 L12.078075,14.917725 L11.949975,15.0171 L11.6547,15.24585 L11.375175,15.3504 L11.134425,15.3996 L11.017275,15.40005 L10.795575,15.370575 L10.596075,15.309375 L10.377075,15.172425 L10.137075,14.97945 L9.789375,14.63595 L9.740175,14.606475 L9.7299,14.599725 L9.6204,14.5296 L9.53925,14.531625 L9.50745,14.584125 L9.49005,14.659875 L9.47535,14.727075 L9.43545,15.10905 L9.43845,15.131175 L9.45945,15.288675 L9.72345,15.657675 L9.8049,15.85365 L9.81825,15.876 L9.872775,15.9675 L9.91425,16.03725 L9.918375,16.04445 L10.0086,16.3137 L9.94515,16.465725 L9.97725,16.567575 L9.897,16.629825 L9.882375,16.7178 L10.119375,17.01495 L10.171125,17.14605 L10.113375,17.327775 L10.021125,17.42805 L9.995475,17.4555 L10.008525,17.532225 L10.117575,17.630325 L10.302825,17.795325 L10.401825,18.040575 L10.476825,18.106275 L10.564275,18.087675 L10.612875,18.1248 L10.686525,18.123525 L10.75905,18.195975 L10.806,18.2187 L10.88025,18.255675 L10.93875,18.332025 L10.9518,18.566775 L11.061075,18.8583 L11.0628,19.0164 L11.0634,19.0389 L11.131425,19.15575 L11.1528,19.248 L11.1165,19.4922 L11.2032,19.570575 L11.29725,19.5513 L11.358,19.5609 L11.4555,19.6422 L11.5737,19.8222 L11.6892,19.805325 L11.76255,19.840575 L12.1167,20.1606 L12.19695,20.2011 L12.20145,20.203725 L12.2592,20.232675 L12.33105,20.3052 L12.442425,20.23125 L12.4548,20.2299 L12.57585,20.21925 L12.6291,20.255025 L12.73125,20.324025 L12.865275,20.322225 L13.1559,20.411325 L13.2831,20.444025 L13.5387,20.602875 L13.64745,20.670075 L13.711725,20.72235 L13.797075,20.7921 L13.967775,20.86545 L14.114175,20.900475 L14.193525,20.919225 L14.253225,20.942475 L14.254725,20.938725 L14.255475,20.938875 L14.254125,20.942625 L14.57115,21.064125 L14.74275,21.1041 L14.90175,21.1626 L15.01725,21.204825 L15.10215,21.206175 L15.22215,21.105225 L15.3384,21.098475 L15.43485,21.122625 L15.52905,21.106875 L15.67815,21.014925 L15.70725,20.9718 L15.813,20.92155 L16.169625,20.8773 L16.273875,20.91105 L16.541475,20.79465 L16.720725,20.8446 L16.8795,20.78835 L17.226225,20.8653 L17.318475,20.930175 L17.42145,21.048075 L17.43405,21.048525 L17.5488,21.050775 L17.5008,21.13065 L17.6523,21.2895 L17.789025,21.4962 L17.79825,21.5235 L17.8977,21.81525 L17.971575,21.91875 L18.023325,22.06305 L18.0258,22.1571 L17.9454,22.21845 L17.9322,22.2534 L17.9277,22.266375 L17.943975,22.305675 L17.974275,22.289175 L18.032025,22.25715 L18.102,22.246275 L18.225975,22.259475 L18.307725,22.2681 L18.437025,22.203975 L18.522675,22.161375 L18.660225,22.220625 L18.811425,22.2189 L18.87495,22.2471 L19.05465,22.328625 L19.1463,22.33725 L19.1802,22.314975 L19.2018,22.263675 L19.1907,22.2039 L19.122,22.1244 L18.970125,21.94815 L18.907875,21.857625 L18.860625,21.726375 L18.845925,21.558825 L18.835425,21.445575 L18.854325,21.297075 L18.89505,21.243975 L18.92505,21.12585 L18.925575,21.12585 L18.9333,21.09495 L19.017675,20.98305 L19.241175,20.839425 L19.481175,20.62455 L19.670925,20.49945 L19.86645,20.4147 L19.8717,20.390925 L19.89345,20.3997 L20.391,20.230575 L20.3991,20.2296 L20.62065,20.19105 L22.11585,20.29635 L22.17135,20.27955 L22.1715,20.279175 L22.2213,20.139375 L22.24815,20.1135 L22.265925,20.096475 L22.430175,20.0241 L22.507125,20.01315 L22.7205,20.0658 L22.80795,20.0874 L22.947825,20.00895 L23.047125,20.0106 L23.252175,19.8987 L23.378925,19.90185 L23.426925,19.882575 L23.673675,19.70535 L23.911425,19.63725 L23.973225,19.60425 L23.994975,19.5924 L24.238575,19.4637 L24.3933,19.3449 L24.5268,19.273875 L24.67305,19.23615 L25.055925,19.20915 L25.13295,19.0809 L25.297575,19.059 L25.397025,18.9468 L25.510725,18.900525 L25.592325,18.783 L25.660575,18.6846 L25.756125,18.629325 L26.062125,18.6102 L26.424825,18.6552 L26.472825,18.62595 L26.554725,18.33345 L26.640525,18.2787 L26.871525,17.94195 L26.872275,17.819175 L26.872575,17.716725 L26.910525,17.570775 L26.884725,17.307375 L26.915325,17.0406 L27.05895,16.7016 L27.18555,16.564875 L27.38955,16.426875 L27.49335,16.381575 L27.64035,16.356825 L27.64035,16.356525 L27.661875,16.352775 L27.699375,16.3464 L28.20525,16.33965 C28.212225,16.3344 28.389225,16.337025 28.389225,16.337025 L28.557975,16.334775 L28.984725,16.410675 L29.015175,16.415925 L29.1594,16.462725 L29.3259,16.59225 L29.502,16.7643 L29.535,16.79655 L29.649225,16.84455 L29.683725,16.85955 L29.778,16.84455 L29.91225,16.77465 L30.0135,16.689 L30.1515,16.613625 L30.154875,16.6089 L30.232575,16.4919 L30.23505,16.48965 L30.2367,16.490025 L30.23685,16.489275 L30.2355,16.48905 L30.2661,16.44255 L30.53295,16.338525 L30.84675,16.3203 L30.882,16.301175 L30.90165,16.290675 L30.984525,16.193325 L31.062225,16.192575 L31.250325,16.260675 L31.3827,16.234425 L31.4877,16.276425 L31.5693,16.266675 L31.7232,16.248525 L31.888425,16.364775 L31.984725,16.377075 L32.324175,16.575675 L32.3418,16.578525 L32.35095,16.58025 L32.37045,16.5834 L32.41065,16.5714 L32.47065,16.55415 L32.478525,16.5519 L32.486025,16.56225 L32.52465,16.616625 L32.5776,16.624275 L32.640225,16.540725 L32.615475,16.502775 L32.60595,16.488975 L32.48475,16.464225 L32.37585,16.278225 L32.4795,16.166475 L32.31675,15.966975 L32.28975,15.933975 L32.28075,15.919725 L32.2245,15.83445 L31.93965,15.400425 L31.5687,15.104325 L31.56855,15.10455 L31.43865,15.0006 L31.4379,15 L31.3923,14.9643 L31.1943,14.762775 L31.0527,14.57505 L31.034175,14.53455 L31.004925,14.4708 L30.920175,14.2863 L30.772425,14.17245 L30.652125,14.0409 L30.646125,14.033175 L30.397875,13.695675 L30.357,13.63905 L30.29835,13.60515 L30.174375,13.6044 L30.162675,13.59255 L30.1557,13.585275 L30.1599,13.580925 L30.219375,13.521825 L30.285675,13.505175 L30.314175,13.439775 L30.187725,13.07355 L30.186975,13.0608 L30.1776,12.9438 L30.28065,12.4125 L30.293775,12.347775 L30.469425,11.99025 L30.578325,11.901 L30.69705,11.6676 L30.79875,11.51835 L30.89625,11.423475 L30.913275,11.41335 L31.0893,11.30685 L31.2372,11.286 L31.37805,11.266125 L31.62405,11.341875 L31.85805,11.337375 L31.9038,11.332575 L32.009925,11.32035 L32.184525,11.265375 L32.267025,11.214375 L32.309775,11.1489 L32.399025,10.84965 L32.427525,10.7544 L32.48265,10.65105 L32.801025,10.284525 L33.041775,10.061775 L33.582825,9.665025 L33.847725,9.506775 L33.98295,9.425925 L35.19045,8.88915 L35.504325,8.57115 L35.667825,8.405625 L35.9571,8.211525 L36.29535,8.072775 L36.586725,7.842375 L36.650325,7.762275 L36.730425,7.504125 L36.797325,7.488 L36.857625,7.3575 L36.874875,7.32045 L37.1124,7.1529 L37.1394,7.1394 L38.06265,6.676875 L38.19675,6.69525 L38.26875,6.587625 L38.53725,6.542625 L38.58675,6.534225 L38.652975,6.501225 L38.709225,6.405225 L38.709225,6.38625 L38.717025,6.12975 L38.7744,6.060525 L38.805675,5.891625 L38.834925,5.852625 L38.865825,5.812125 L38.941875,5.758575 L38.928675,5.7267 L38.9298,5.7285 Z" id="Shape" fill="#F09622"></path>
                </g>
                <g id="flag-border"></g>
            </g>
        </g>
    </g>
</svg>