<svg xmlns="http://www.w3.org/2000/svg" viewBox="0 0 728 28" width="728" height="28">
	<defs>
		<clipPath clipPathUnits="userSpaceOnUse" id="cp1">
			<path d="M-596 -2052L1324 -2052L1324 110L-596 110Z" />
		</clipPath>
	</defs>
	<style>
		tspan { white-space:pre }
		.shp0 { fill: #e8eef4 } 
	</style>
	<g id="Amount – 11" clip-path="url(#cp1)">
		<g id="Group 16537">
			<g id="Group 16526">
				<path id="Polygon 1" class="shp0" d="M16.5 28L0 0L33 0L16.5 28Z" />
				<path id="Polygon 2" class="shp0" d="M49.5 28L33 0L66 0L49.5 28Z" />
				<path id="Polygon 2" class="shp0" d="M82.5 28L66 0L99 0L82.5 28Z" />
				<path id="Polygon 2" class="shp0" d="M115.5 28L99 0L132 0L115.5 28Z" />
				<path id="Polygon 2" class="shp0" d="M148.5 28L132 0L165 0L148.5 28Z" />
				<path id="Polygon 2" class="shp0" d="M182 28L165 0L199 0L182 28Z" />
				<path id="Polygon 2" class="shp0" d="M215.5 28L199 0L232 0L215.5 28Z" />
				<path id="Polygon 2" class="shp0" d="M248.5 28L232 0L265 0L248.5 28Z" />
				<path id="Polygon 2" class="shp0" d="M281.5 28L265 0L298 0L281.5 28Z" />
				<path id="Polygon 2" class="shp0" d="M314.5 28L298 0L331 0L314.5 28Z" />
				<path id="Polygon 2" class="shp0" d="M347.5 28L331 0L364 0L347.5 28Z" />
				<path id="Polygon 2" class="shp0" d="M380.5 28L364 0L397 0L380.5 28Z" />
				<path id="Polygon 2" class="shp0" d="M413.5 28L397 0L430 0L413.5 28Z" />
				<path id="Polygon 2" class="shp0" d="M446.5 28L430 0L463 0L446.5 28Z" />
				<path id="Polygon 2" class="shp0" d="M479.5 28L463 0L496 0L479.5 28Z" />
				<path id="Polygon 2" class="shp0" d="M512.5 28L496 0L529 0L512.5 28Z" />
				<path id="Polygon 2" class="shp0" d="M546 28L529 0L563 0L546 28Z" />
				<path id="Polygon 2" class="shp0" d="M579.5 28L563 0L596 0L579.5 28Z" />
				<path id="Polygon 2" class="shp0" d="M612.5 28L596 0L629 0L612.5 28Z" />
				<path id="Polygon 2" class="shp0" d="M645.5 28L629 0L662 0L645.5 28Z" />
				<path id="Polygon 2" class="shp0" d="M678.5 28L662 0L695 0L678.5 28Z" />
				<path id="Polygon 2" class="shp0" d="M711.5 28L695 0L728 0L711.5 28Z" />
			</g>
		</g>
	</g>
</svg>