<svg xmlns="http://www.w3.org/2000/svg" viewBox="0 0 26 24" width="26" height="24">
	<defs>
		<clipPath clipPathUnits="userSpaceOnUse" id="cp1">
			<path d="M-881 -1940L1039 -1940L1039 222L-881 222Z" />
		</clipPath>
	</defs>
	<style>
		tspan { white-space:pre }
		.shp0 { fill: #ffffff } 
	</style>
	<g id="Amount – 11" clip-path="url(#cp1)">
		<g id="Group 16536">
			<g id="Group 16535">
				<g id="Iconly/Light-outline/Downlaod">
					<g id="Download">
						<path id="Download" class="shp0" d="M6.2 23.4C3.22 23.4 0.79 21.06 0.66 18.12L0.65 17.86L0.65 11.75C0.65 8.79 2.99 6.37 5.92 6.23L6.18 6.22L7.36 6.22C7.88 6.22 8.3 6.64 8.3 7.16C8.3 7.63 7.95 8.03 7.49 8.09L7.36 8.1L6.18 8.1C4.24 8.1 2.64 9.62 2.53 11.54L2.53 11.75L2.53 17.86C2.53 19.81 4.05 21.41 5.98 21.52L6.2 21.53L20.12 21.53C22.07 21.53 23.66 20.01 23.77 18.09L23.78 17.87L23.78 11.77C23.78 9.81 22.25 8.22 20.33 8.1L20.11 8.1L18.94 8.1C18.43 8.1 18.01 7.68 18.01 7.16C18.01 6.69 18.36 6.29 18.82 6.23L18.94 6.22L20.11 6.22C23.08 6.22 25.51 8.56 25.65 11.51L25.65 11.77L25.65 17.87C25.65 20.84 23.32 23.26 20.38 23.4L20.12 23.4L6.2 23.4ZM13.13 17.23C13.13 17.23 13.13 17.23 13.13 17.23C13.12 17.23 13.12 17.23 13.11 17.23C13.11 17.23 13.11 17.23 13.1 17.23C13.1 17.23 13.1 17.23 13.09 17.23C13.09 17.23 13.08 17.23 13.08 17.23C13.08 17.23 13.08 17.23 13.07 17.23C13.07 17.23 13.06 17.23 13.06 17.23C13.06 17.23 13.06 17.23 13.06 17.23C13.04 17.23 13.01 17.22 12.99 17.22L12.99 17.22C12.98 17.22 12.98 17.22 12.97 17.22C12.97 17.22 12.97 17.21 12.97 17.21C12.96 17.21 12.96 17.21 12.95 17.21C12.95 17.21 12.95 17.21 12.95 17.21C12.94 17.21 12.94 17.21 12.93 17.21C12.93 17.21 12.93 17.21 12.93 17.21C12.92 17.2 12.92 17.2 12.91 17.2C12.91 17.2 12.9 17.2 12.9 17.2C12.9 17.2 12.89 17.2 12.89 17.2C12.79 17.17 12.69 17.12 12.59 17.05L12.59 17.04C12.55 17.02 12.52 16.99 12.49 16.96L12.49 16.96L8.84 13.3C8.48 12.93 8.48 12.34 8.85 11.97C9.18 11.64 9.7 11.61 10.07 11.88L10.17 11.97L12.21 14.02L12.21 1.24C12.21 0.73 12.63 0.31 13.15 0.31C13.63 0.31 14.02 0.66 14.08 1.12L14.09 1.24L14.09 14.02L16.13 11.97C16.46 11.64 16.99 11.61 17.35 11.88L17.46 11.97C17.79 12.3 17.82 12.82 17.55 13.19L17.46 13.3L13.82 16.96C13.69 17.09 13.53 17.17 13.36 17.21C13.36 17.21 13.36 17.21 13.36 17.21C13.36 17.21 13.35 17.21 13.34 17.21C13.34 17.21 13.34 17.21 13.34 17.21C13.33 17.22 13.33 17.22 13.32 17.22C13.32 17.22 13.32 17.22 13.32 17.22C13.31 17.22 13.3 17.22 13.3 17.22C13.3 17.22 13.29 17.22 13.29 17.22C13.29 17.22 13.28 17.22 13.28 17.22C13.27 17.23 13.27 17.23 13.27 17.23C13.26 17.23 13.26 17.23 13.25 17.23C13.25 17.23 13.25 17.23 13.25 17.23C13.24 17.23 13.23 17.23 13.23 17.23C13.23 17.23 13.23 17.23 13.22 17.23C13.2 17.23 13.18 17.23 13.15 17.23C13.14 17.23 13.14 17.23 13.13 17.23Z" />
					</g>
				</g>
			</g>
		</g>
	</g>
</svg>