<svg xmlns="http://www.w3.org/2000/svg" viewBox="0 0 42 42" width="42" height="42">
	<defs>
		<clipPath clipPathUnits="userSpaceOnUse" id="cp1">
			<path d="M-1709 -489L211 -489L211 591L-1709 591Z" />
		</clipPath>
	</defs>
	<style>
		tspan { white-space:pre }
		.shp0 { fill: #255f99 } 
	</style>
	<g id="My activity" clip-path="url(#cp1)">
		<g id="Group 16588">
			<g id="Iconly/Light-outline/More Square">
				<g id="More Square">
					<path id="More Square" fill-rule="evenodd" class="shp0" d="M11.97 41.83C8.51 41.83 5.55 40.64 3.41 38.39C1.29 36.16 0.17 33.09 0.17 29.51L0.17 12.49C0.17 8.92 1.29 5.84 3.41 3.61C5.55 1.36 8.51 0.17 11.97 0.17L30.03 0.17C33.49 0.17 36.45 1.36 38.59 3.61C40.71 5.84 41.83 8.91 41.83 12.49L41.83 29.51C41.83 33.09 40.71 36.16 38.59 38.39C36.45 40.64 33.49 41.83 30.03 41.83L11.97 41.83ZM3.29 12.49L3.29 29.51C3.29 32.26 4.1 34.57 5.64 36.2C7.18 37.84 9.37 38.71 11.97 38.71L30.03 38.71C35.3 38.71 38.71 35.1 38.71 29.51L38.71 12.49C38.71 9.74 37.9 7.43 36.36 5.8C34.82 4.16 32.63 3.29 30.03 3.29L11.97 3.29C6.7 3.29 3.29 6.9 3.29 12.49ZM27.84 21C27.84 19.63 28.95 18.5 30.33 18.5C31.71 18.5 32.83 19.63 32.83 21C32.83 22.38 31.71 23.49 30.33 23.49C28.95 23.49 27.84 22.38 27.84 21ZM18.5 21C18.5 19.63 19.62 18.5 21 18.5C22.38 18.5 23.5 19.63 23.5 21C23.5 22.38 22.38 23.49 21 23.49C19.62 23.49 18.5 22.38 18.5 21ZM9.17 21C9.17 19.63 10.29 18.5 11.67 18.5C13.04 18.5 14.16 19.63 14.16 21C14.16 22.38 13.04 23.49 11.67 23.49C10.29 23.49 9.17 22.38 9.17 21Z" />
				</g>
			</g>
		</g>
	</g>
</svg>