<svg xmlns="http://www.w3.org/2000/svg" viewBox="0 0 22 26" width="22" height="26">
	<defs>
		<clipPath clipPathUnits="userSpaceOnUse" id="cp1">
			<path d="M-1496 -413L424 -413L424 667L-1496 667Z" />
		</clipPath>
	</defs>
	<style>
		tspan { white-space:pre }
		.shp0 { fill: #200e32 } 
	</style>
	<g id="My activity – 1" clip-path="url(#cp1)">
		<g id="Group 16595">
			<g id="Group 16594">
				<g id="Iconly/Light-outline/Paper">
					<g id="Paper">
						<path id="Paper" fill-rule="evenodd" class="shp0" d="M6.1 25.33C2.89 25.33 0.37 22.77 0.37 19.5L0.37 6.11C0.37 4.63 0.98 3.23 2.07 2.16C3.16 1.1 4.6 0.51 6.1 0.51L13.93 0.51C13.98 0.51 14.04 0.5 14.09 0.5C14.15 0.5 14.2 0.51 14.26 0.51L14.42 0.51C14.67 0.51 14.92 0.62 15.1 0.8L21.43 7.4C21.6 7.57 21.69 7.81 21.69 8.05L21.69 19.5C21.69 22.66 19.13 25.33 16.09 25.33L6.1 25.33ZM6.1 2.39C4.01 2.39 2.25 4.1 2.25 6.11L2.25 19.5C2.25 20.58 2.64 21.58 3.36 22.32C4.08 23.05 5.05 23.46 6.1 23.46L16.09 23.46C17.04 23.46 18 23.02 18.7 22.27C19.41 21.52 19.81 20.51 19.81 19.5L19.81 9.23L18.72 9.23C18.3 9.23 17.83 9.23 17.3 9.23C15.09 9.23 13.28 7.49 13.16 5.31L13.15 5.07L13.15 2.39L6.1 2.39ZM15.03 5.07C15.03 6.33 16.05 7.35 17.3 7.35L18.79 7.35L15.03 3.44L15.03 5.07ZM7.11 18.38C6.59 18.38 6.17 17.96 6.17 17.45C6.17 16.97 6.52 16.58 6.98 16.52L7.11 16.51L13.85 16.51C14.37 16.51 14.79 16.93 14.79 17.45C14.79 17.92 14.44 18.31 13.98 18.38L13.85 18.38L7.11 18.38ZM7.11 12.19C6.59 12.19 6.17 11.77 6.17 11.26C6.17 10.78 6.52 10.39 6.98 10.33L7.11 10.32L11.3 10.32C11.82 10.32 12.24 10.74 12.24 11.26C12.24 11.73 11.89 12.12 11.43 12.19L11.3 12.19L7.11 12.19Z" />
					</g>
				</g>
			</g>
		</g>
	</g>
</svg>