<svg xmlns="http://www.w3.org/2000/svg" viewBox="0 0 33 33" width="33" height="33">
	<defs>
		<clipPath clipPathUnits="userSpaceOnUse" id="cp1">
			<path d="M-222 -350L1698 -350L1698 730L-222 730Z" />
		</clipPath>
	</defs>
	<style>
		tspan { white-space:pre }
		.shp0 { fill: #255f99 } 
		.shp1 { fill: none } 
		.shp2 { fill: #ffffff } 
	</style>
	<g id="My activity – 1" clip-path="url(#cp1)">
		<g id="Group 16593">
			<g id="Group 16581">
				<path id="Ellipse 121" class="shp0" d="M16.5 33C7.37 33 0 25.62 0 16.5C0 7.38 7.37 0 16.5 0C25.62 0 33 7.38 33 16.5C33 25.62 25.62 33 16.5 33Z" />
				<g id="Group 16580">
					<path id="Path 10720" class="shp1" d="M4 5L28 5L28 29L4 29L4 5Z" />
					<path id="Path 10721" class="shp2" d="M19 12C19 11.45 19.45 11 20 11C20.55 11 21 11.45 21 12L21 22C21 22.55 20.55 23 20 23C19.45 23 19 22.55 19 22L19 12ZM11 12C11 11.45 11.45 11 12 11C12.55 11 13 11.45 13 12L13 22C13 22.55 12.55 23 12 23C11.45 23 11 22.55 11 22L11 12Z" />
				</g>
			</g>
		</g>
	</g>
</svg>