<svg xmlns="http://www.w3.org/2000/svg" viewBox="0 0 20 21" width="20" height="21">
	<defs>
		<clipPath clipPathUnits="userSpaceOnUse" id="cp1">
			<path d="M-206 -428L754 -428L754 284L-206 284Z" />
		</clipPath>
	</defs>
	<style>
		tspan { white-space:pre }
		.shp0 { fill: #255f99 } 
		.shp1 { fill: none } 
		.shp2 { fill: #ffffff } 
	</style>
	<g id="Amount – 4" clip-path="url(#cp1)">
		<g id="Group 16545">
			<path id="Ellipse 116" class="shp0" d="M10 20.5C4.47 20.5 0 16.03 0 10.5C0 4.97 4.47 0.5 10 0.5C15.53 0.5 20 4.97 20 10.5C20 16.03 15.53 20.5 10 20.5Z" />
			<g id="Group 16543">
				<path id="Path 10700" class="shp1" d="M4 4.5L16 4.5L16 16.5L4 16.5L4 4.5Z" />
				<path id="Path 10701" fill-rule="evenodd" class="shp2" d="M10 16.36L6.82 13.18C5.06 11.42 5.06 8.58 6.82 6.82C8.58 5.06 11.42 5.06 13.18 6.82C14.94 8.58 14.94 11.42 13.18 13.18L10 16.36ZM12.47 7.53C11.11 6.16 8.89 6.16 7.53 7.53C6.16 8.89 6.16 11.11 7.52 12.47L10 14.95L12.47 12.47C13.84 11.11 13.84 8.89 12.47 7.53ZM10 11C9.45 11 9 10.55 9 10C9 9.45 9.45 9 10 9C10.55 9 11 9.45 11 10C11 10.55 10.55 11 10 11Z" />
			</g>
		</g>
	</g>
</svg>