<svg xmlns="http://www.w3.org/2000/svg" width="342.413" height="77.45" viewBox="0 0 342.413 77.45"><defs><style>.a{fill:#0a455e;}.b{fill:#fff;}.c{fill:#255f99;}.d{fill:#bf5d00;}.e{fill:#b75a0d;}.f{fill:#face1d;}.g{fill:#f7e597;}.h{fill:#ffd41f;}.i,.k{opacity:0.5;}.i{mix-blend-mode:multiply;isolation:isolate;}.j{fill:#f9d43a;}.k{fill:#f9aa1e;}.l{fill:#cc5c09;opacity:0.9;}</style></defs><g transform="translate(-111.294 -228.62)"><path class="a" d="M341.6,296.591a17.945,17.945,0,0,1-8.385-2.079h-8.861a10.323,10.323,0,0,1-5.472,1.549H308.164a17.772,17.772,0,0,1-7.3-1.549h-1.455a3.341,3.341,0,0,1-2.835,1.549H273.49l-.229,0a2.691,2.691,0,0,1-2.452-3.654c.016-.041.031-.081.045-.121,1.339-3.838-2.641-8.2-6.215-11.182a3.187,3.187,0,0,1-1.149-2.452V261.114a9.756,9.756,0,0,1,10-9.469h23.087a3.337,3.337,0,0,1,2.589,1.211h2.454a17.618,17.618,0,0,1,6.438-1.211h5.308a26.8,26.8,0,0,1,7.518,1.211h13a17.757,17.757,0,0,1,7.718-1.742h5.307a18.055,18.055,0,0,1,7.723,1.742h15.816a17.639,17.639,0,0,1,6.45-1.211h5.308a26.783,26.783,0,0,1,7.518,1.211h8.091a10.4,10.4,0,0,1,4.879-1.211h10.722a21.006,21.006,0,0,1,7.147,1.211h20.147a9.75,9.75,0,0,1,11.123,0h17.7a10.009,10.009,0,0,1,5.189-1.476,9.288,9.288,0,0,1,5.1,1.476h16.966a9.287,9.287,0,0,1,5.1-1.476,9.821,9.821,0,0,1,9.823,9.073l3.5,31.813a3.421,3.421,0,0,1-3.4,3.8h-6.66a3.4,3.4,0,0,1-2.868-1.549H474.327a3.4,3.4,0,0,1-2.868,1.549H464.8a3.384,3.384,0,0,0-3.109,0h-3.812a3.413,3.413,0,0,1-2.842-1.549H437.508a3.414,3.414,0,0,1-2.843,1.549h-6.639a3.4,3.4,0,0,1-1.743-.488,3.964,3.964,0,0,1-1.9.488h-4.1a3.967,3.967,0,0,1-2.973-1.343l-.181-.206H404.866a3.964,3.964,0,0,1-3.14,1.549h-5.067a3.959,3.959,0,0,1-3.137-1.549H393.2a10.317,10.317,0,0,1-5.477,1.549H377.006a17.776,17.776,0,0,1-7.295-1.549H355.3a17.991,17.991,0,0,1-8.391,2.079Z" transform="translate(-68.047 -10.057)"/><path class="b" d="M515.043,293.153l-3.5-31.807a8.876,8.876,0,0,0-8.862-8.217,8.276,8.276,0,0,0-4.808,1.477h-17.56a8.274,8.274,0,0,0-4.807-1.477,9.007,9.007,0,0,0-4.908,1.477H452.3a8.76,8.76,0,0,0-10.486,0H421.175a20.072,20.072,0,0,0-6.976-1.211H403.478a9.385,9.385,0,0,0-4.631,1.211h-8.485a25.947,25.947,0,0,0-7.372-1.211h-5.308a16.708,16.708,0,0,0-6.265,1.211H355.194a16.967,16.967,0,0,0-7.5-1.742h-5.307a16.892,16.892,0,0,0-7.5,1.742H321.52a25.974,25.974,0,0,0-7.372-1.211H308.84a16.682,16.682,0,0,0-6.253,1.211h-3.144c-.007-.013-.013-.025-.02-.037a2.382,2.382,0,0,0-2.064-1.174H274.272a8.789,8.789,0,0,0-9.032,8.5v17.535a2.221,2.221,0,0,0,.8,1.709c5.462,4.559,7.712,8.793,6.508,12.244-.017.049-.035.1-.055.15a1.722,1.722,0,0,0,1.57,2.338l.208,0h23.087a2.382,2.382,0,0,0,2.064-1.173,2.355,2.355,0,0,0,.181-.375h2.254a16.9,16.9,0,0,0,7.088,1.548h10.721a9.363,9.363,0,0,0,5.188-1.548h9.389a16.884,16.884,0,0,0,8.141,2.079h5.307a16.955,16.955,0,0,0,8.148-2.079H370.7a16.9,16.9,0,0,0,7.086,1.548H388.51a9.357,9.357,0,0,0,5.193-1.548h1.121a2.99,2.99,0,0,0,2.617,1.548h5.067a3,3,0,0,0,2.621-1.548h13.217l.469.533a3,3,0,0,0,2.248,1.015h4.1a2.994,2.994,0,0,0,1.936-.712,2.423,2.423,0,0,0,1.709.712h6.639a2.423,2.423,0,0,0,2.258-1.548h18.7a2.425,2.425,0,0,0,2.257,1.548h3.812a2.414,2.414,0,0,0,1.55-.563,2.456,2.456,0,0,0,1.559.563h6.66a2.444,2.444,0,0,0,2.282-1.548h29.138a2.443,2.443,0,0,0,2.282,1.548h6.66a2.454,2.454,0,0,0,2.439-2.722Z" transform="translate(-68.829 -10.839)"/><g transform="translate(439.215 229.493)"><path class="a" d="M711.588,244.706a7.254,7.254,0,0,1-7.2-7.239,7.273,7.273,0,0,1,7.251-7.268h.025a7.254,7.254,0,0,1-.07,14.507Z" transform="translate(-704.386 -230.199)"/><path class="b" d="M712.288,231.6h-.025a6.5,6.5,0,0,0-6.477,6.494,6.48,6.48,0,0,0,6.428,6.465h0a6.479,6.479,0,0,0,.07-12.958Z" transform="translate(-705.012 -230.825)"/><g transform="translate(1.742 1.742)"><path class="c" d="M718.544,238.819a5.5,5.5,0,1,1-5.477-5.469A5.5,5.5,0,0,1,718.544,238.819Zm-1.119.045a4.386,4.386,0,1,0-4.454,4.389A4.389,4.389,0,0,0,717.425,238.864Z" transform="translate(-707.536 -233.35)"/><path class="c" d="M714.613,243.637h-1.491v-.1q0-1.679,0-3.359,0-1.114,0-2.228c0-.056.013-.081.075-.081.85,0,1.7,0,2.551.015a2.622,2.622,0,0,1,1.065.229,1.257,1.257,0,0,1,.755,1.027,2.014,2.014,0,0,1-.04.827,1.35,1.35,0,0,1-.874.917l-.136.051c.009.009.012.016.016.017a1.524,1.524,0,0,1,.862.824c.2.384.39.775.583,1.162.1.205.2.411.306.617.01.022.02.045.033.076-.028,0-.049.008-.07.008-.479,0-.958,0-1.437,0-.069,0-.086-.04-.108-.086-.232-.473-.464-.946-.7-1.418a2.8,2.8,0,0,0-.17-.284.828.828,0,0,0-.656-.388c-.183-.013-.368,0-.563,0Zm0-3.209a.451.451,0,0,0,.053.007c.21,0,.42.01.629,0a1.915,1.915,0,0,0,.439-.082.465.465,0,0,0,.331-.377,1.757,1.757,0,0,0,.02-.479.536.536,0,0,0-.459-.5,4.633,4.633,0,0,0-1-.036s-.009.007-.015.011Z" transform="translate(-710.033 -235.37)"/></g></g><path class="c" d="M348.868,281.571v-4a1.2,1.2,0,0,0-1.2-1.2h-4.252a1.2,1.2,0,0,0-1.2,1.2V287.96a1.2,1.2,0,0,1-1.2,1.2h-9.042c-4.034,0-7.272-3.662-7.272-8.12v-9.448c0-4.459,3.184-8.121,7.165-8.121h5.308a8.13,8.13,0,0,1,5.277,2.04,1.2,1.2,0,0,0,1.541.048l4.812-3.7a1.2,1.2,0,0,0-.067-1.955,23.162,23.162,0,0,0-11.563-3.279h-5.308a15.053,15.053,0,0,0-15.127,14.968v9.448a15.111,15.111,0,0,0,15.234,14.968h10.721a7.241,7.241,0,0,0,7.484-6.953v-.905a1.189,1.189,0,0,0-.092-.457A15.964,15.964,0,0,1,348.868,281.571Z" transform="translate(-91.853 -12.521)"/><path class="c" d="M411.312,280.611v-9.448a16.051,16.051,0,0,1,.583-4.288,3.2,3.2,0,0,0-.138-2.141,15.255,15.255,0,0,0-14-9.07H392.45a15.111,15.111,0,0,0-15.234,14.968v10.51a15.111,15.111,0,0,0,15.234,14.968h5.307a15.253,15.253,0,0,0,14-9.077,3.2,3.2,0,0,0,.137-2.142A15.924,15.924,0,0,1,411.312,280.611Zm-6.283.531c0,4.458-3.238,8.12-7.272,8.12H392.45c-4.034,0-7.272-3.662-7.272-8.12v-10.51c0-4.459,3.238-8.121,7.272-8.121h5.307c4.033,0,7.272,3.662,7.272,8.121Z" transform="translate(-118.893 -12.091)"/><path class="c" d="M472.2,276.37h-4.294a1.18,1.18,0,0,0-1.18,1.18v10.432a1.18,1.18,0,0,1-1.18,1.18h-9.064c-4.035,0-7.272-3.662-7.272-8.12v-9.448c0-4.459,3.184-8.121,7.166-8.121h5.307a8.13,8.13,0,0,1,5.277,2.04,1.157,1.157,0,0,0,1.493.085l4.872-3.748a1.152,1.152,0,0,0,.4-.572l0-.012a1.185,1.185,0,0,0-.458-1.34,23.122,23.122,0,0,0-11.592-3.3h-5.307a15.053,15.053,0,0,0-15.127,14.968v9.448a15.111,15.111,0,0,0,15.234,14.968H467.2a7.684,7.684,0,0,0,5.895-2.675,1.2,1.2,0,0,0,.282-.768V277.55A1.18,1.18,0,0,0,472.2,276.37Z" transform="translate(-147.522 -12.521)"/><path class="c" d="M532.523,292.04l-5.705-6.386a1.443,1.443,0,0,1,.483-2.282,12.587,12.587,0,0,0,7.866-11.886V270c0-8.28-6.847-13.375-15.234-13.375H509.211a7.24,7.24,0,0,0-7.484,6.953v30.983a1.446,1.446,0,0,0,1.447,1.447h5.067a1.446,1.446,0,0,0,1.447-1.447V264.918a1.447,1.447,0,0,1,1.447-1.447h8.8c4.034,0,7.271,2.07,7.271,6.529v1.486c0,4.459-3.237,6.529-7.271,6.529H515.27a1.448,1.448,0,0,0-1.23.684l-2.451,3.953a1.447,1.447,0,0,0,1.23,2.21h2.85a1.446,1.446,0,0,1,1.085.49l8.955,10.165a1.447,1.447,0,0,0,1.086.49h4.1a1.447,1.447,0,0,0,1.366-.968l.546-1.557A1.447,1.447,0,0,0,532.523,292.04Z" transform="translate(-174.562 -12.521)"/><path class="c" d="M595.578,288.664a.883.883,0,0,0-.044-.385l-9.009-25.662c-1.38-3.928-3.769-6.953-7.908-6.953s-6.529,3.025-7.909,6.953l-11.162,31.8a.874.874,0,0,0,.824,1.163h6.639a.875.875,0,0,0,.826-.586l9.956-28.474a.874.874,0,0,1,1.65,0l5.511,15.8a.874.874,0,0,1-.826,1.162h-8.9a.873.873,0,0,0-.742.413l-3.162,5.1a.874.874,0,0,0,.743,1.335h15.061a.875.875,0,0,1,.824.583L589.4,295a.873.873,0,0,0,.824.583h3.812a.874.874,0,0,0,.869-.778Z" transform="translate(-200.39 -12.091)"/><path class="c" d="M653.912,290.061h-7.1a.9.9,0,0,1-.856-.61l-7.244-20.99a.905.905,0,0,0-1.757.208l-2.546,26.306a.9.9,0,0,1-.9.818h-6.66a.906.906,0,0,1-.9-1l3.5-31.8a7.332,7.332,0,0,1,7.325-6.847,6.458,6.458,0,0,1,6.21,4.194l6.521,19.047a.906.906,0,0,0,1.713,0l6.521-19.047a6.457,6.457,0,0,1,6.21-4.194,7.333,7.333,0,0,1,7.325,6.847l3.5,31.8a.9.9,0,0,1-.9,1h-6.66a.9.9,0,0,1-.9-.818l-2.546-26.307a.905.905,0,0,0-1.757-.208l-7.244,20.99A.906.906,0,0,1,653.912,290.061Z" transform="translate(-230.101 -12.306)"/><g transform="translate(111.294 228.62)"><path class="a" d="M192.687,266.579c.026-.133.1-.512.1-.512.041-.222.083-.445.121-.666.054-.314.1-.628.148-.937l.024-.162c.031-.207.061-.412.089-.619.039-.3.072-.6.1-.893l.029-.26c.02-.188.041-.375.059-.567.028-.3.048-.6.067-.89l.019-.274c.013-.184.027-.367.036-.553.014-.3.022-.594.029-.884l.009-.349c0-.153.009-.306.011-.46,0-.039,0-.092,0-.124,0-.526-.006-1.052-.025-1.561-.018-.483-.049-1-.1-1.588,0,0-.034-.437-.04-.494-.041-.433-.093-.889-.156-1.357-.009-.07-.02-.138-.028-.191l-.011-.071c-.042-.3-.085-.6-.14-.922-.015-.088-.032-.175-.049-.262l-.017-.085c-.021-.117-.044-.234-.066-.352-.106-.542-.2-1-.311-1.433l-.008-.032c-.129-.527-.278-1.057-.451-1.615-.013-.049-.029-.1-.051-.176-.043-.134-.089-.264-.144-.413-.008-.023-.017-.046-.031-.089l-.007-.022c-.086-.255-.194-.572-.309-.876-.028-.083-.057-.166-.085-.235-.051-.132-.106-.259-.168-.4-.013-.031-.027-.061-.045-.106-.109-.265-.209-.505-.312-.734-.037-.091-.075-.181-.111-.258-.061-.131-.125-.258-.182-.368l-.062-.123c-.106-.216-.212-.432-.324-.646-.042-.086-.085-.171-.125-.244-.068-.126-.139-.246-.221-.382l-.064-.108c-.109-.191-.218-.381-.328-.561-.047-.083-.1-.165-.144-.243-.077-.122-.156-.239-.245-.368l-.088-.13c-.113-.171-.227-.342-.328-.484-.05-.077-.1-.153-.156-.229-.087-.121-.179-.238-.264-.346l-.069-.087-.053-.07c-.116-.153-.232-.3-.342-.44-.052-.07-.105-.138-.161-.205-.1-.116-.2-.227-.3-.337l-.064-.07-.061-.07c-.127-.145-.254-.29-.374-.419-.054-.062-.109-.124-.169-.186-.1-.107-.208-.21-.328-.324l-.055-.053-.06-.06c-.143-.142-.285-.283-.421-.41-.062-.061-.123-.121-.182-.175-.106-.1-.215-.187-.336-.288l-.043-.035-.04-.035c-.166-.144-.339-.292-.515-.434-.067-.058-.135-.115-.209-.173-.11-.086-.223-.168-.354-.26l-.012-.008c-.158-.118-.4-.3-.638-.461-.082-.062-.166-.122-.25-.177-.253-.169-.516-.335-.781-.494l-6.843-4.108-2.375-1.214A20.752,20.752,0,0,0,168.9,229a22.744,22.744,0,0,0-4.152-.375,24.825,24.825,0,0,0-2.583.136,30.6,30.6,0,0,0-9.421,2.644c-8.007,3.623-15.37,10.425-20.733,19.153-.208.339-.416.687-.619,1.034-11.8.118-18.683,2.935-19.909,8.146-1.17,4.957,3.227,10.286,12.719,15.417-.029.906-.028,1.8,0,2.672a29.591,29.591,0,0,0,3.179,12.812,21.51,21.51,0,0,0,5.537,6.822l.009.007,9.084,5.675a20.4,20.4,0,0,0,6.795,2.558c.306.057.624.109.946.154.086.012.173.023.234.029l.121.014c.194.025.387.049.593.07.094.009.187.016.274.022l.183.014c.166.014.333.028.5.037.1.006.21.009.3.012l.193.007c.159.007.317.013.466.014h.159l.371,0c.15,0,.3,0,.462-.006l.333-.014.2-.009c.148-.006.3-.013.437-.023.123-.008.245-.018.358-.029l.181-.015c.144-.012.288-.024.433-.039l.027,0c.124-.013.249-.029.371-.044l.173-.022c.151-.018.3-.038.466-.061.122-.018.244-.038.358-.056l.192-.031c.15-.024.3-.048.452-.076.113-.021.226-.044.339-.066l.2-.04c.157-.032.314-.064.478-.1.138-.031.278-.064.412-.1l.133-.032c.156-.037.313-.075.458-.113s.269-.071.416-.112l.126-.035c.163-.045.326-.091.49-.139.148-.044.3-.09.451-.139l.033-.01c.18-.057.361-.113.541-.174.154-.051.309-.106.467-.161l.02-.007c.18-.063.359-.127.541-.194.152-.056.305-.116.45-.172l.045-.017c.177-.069.356-.139.537-.213.164-.067.328-.137.479-.2l.092-.039c.083-.034.165-.068.249-.1l.415-.185c.447-.2.918-.429,1.44-.692.111-.056.222-.114.322-.168l.3-.154c.154-.079.307-.158.46-.242.093-.051.185-.1.265-.149l.111-.064c.137-.076.273-.153.411-.232.378-.218.761-.446,1.106-.66l.322-.2c.361-.227.748-.482,1.217-.8l.4-.275c.085-.058.17-.116.248-.171.1-.068.193-.14.314-.231l.059-.044c.344-.248.663-.485.973-.722l.078-.058c.083-.06.165-.121.25-.187s.164-.13.229-.185l.066-.054c.263-.208.544-.436.858-.7l.1-.081c.1-.078.2-.157.273-.223s.14-.122.214-.188l.027-.023c.255-.22.508-.445.761-.672l.121-.106c.1-.088.2-.176.306-.272.056-.052.112-.105.169-.16l.023-.023c.23-.213.457-.432.683-.65l.141-.134c.106-.1.211-.2.309-.295.049-.048.1-.1.151-.153l.039-.04c.188-.187.373-.379.557-.568l.219-.225c.1-.1.207-.21.306-.314.052-.055.1-.112.134-.146l.045-.049c.161-.174.321-.35.479-.525l.259-.284c.1-.11.2-.219.307-.339.047-.053.092-.107.12-.14l.044-.051c.175-.2.347-.4.519-.607l.07-.084.156-.182c.09-.1.179-.208.27-.318.044-.053.087-.107.121-.152l.035-.043c.1-.121.2-.243.294-.367l.2.006c.841.024,1.677.036,2.485.036q.58,0,1.143-.008c1.076-.016,2.147-.056,3.184-.121l.446-.03c.656-.046,1.246-.1,1.805-.154a29.74,29.74,0,0,0,8.233-1.879c3.067-1.281,5-3.126,5.738-5.484.049-.156.093-.317.131-.477C206.18,276.805,202.036,271.69,192.687,266.579Z" transform="translate(-111.294 -228.62)"/><path class="b" d="M192.377,267.871c.012-.059.025-.118.038-.177.064-.3.122-.606.18-.912l.008-.046c.045-.239.09-.478.131-.717.053-.307.1-.614.144-.918l.023-.154c.03-.2.061-.406.087-.608.039-.294.071-.586.1-.875l.028-.252c.02-.184.04-.369.057-.555.027-.292.046-.584.066-.87l.019-.277c.013-.176.025-.353.034-.531.014-.29.022-.578.028-.863l.009-.328c0-.154.01-.308.011-.461,0-.033,0-.091,0-.122,0-.515-.006-1.027-.024-1.522-.017-.475-.048-.982-.093-1.547,0,0-.034-.427-.038-.479-.04-.419-.09-.86-.151-1.315-.009-.063-.018-.124-.027-.176L193,254.1c-.041-.3-.085-.6-.139-.915-.013-.08-.029-.159-.045-.239l-.018-.1q-.031-.169-.064-.34c-.1-.53-.2-.968-.3-1.378l-.01-.04c-.125-.507-.27-1.028-.445-1.591-.011-.04-.024-.084-.041-.14-.038-.121-.08-.238-.124-.359-.013-.034-.025-.069-.038-.106-.088-.259-.2-.581-.317-.9l0-.011c-.024-.069-.048-.138-.071-.2-.046-.119-.1-.234-.15-.359-.016-.037-.033-.074-.051-.118l0-.01c-.109-.265-.208-.5-.317-.745l0,.01c-.031-.076-.063-.152-.094-.218-.055-.117-.112-.231-.168-.338l-.068-.134c-.1-.212-.207-.422-.317-.631l-.007-.015c-.036-.072-.072-.145-.107-.208-.061-.114-.126-.223-.2-.345-.018-.03-.074-.127-.074-.127-.106-.185-.213-.37-.327-.557-.041-.073-.083-.144-.126-.212-.069-.109-.141-.216-.218-.327l-.064-.093-.038-.058c-.108-.164-.217-.327-.328-.484l0,0c-.042-.065-.085-.128-.132-.192-.078-.109-.16-.213-.239-.313l-.079-.1-.054-.071c-.112-.147-.224-.294-.339-.436-.044-.059-.09-.118-.138-.176-.087-.1-.176-.2-.268-.3l-.076-.083-.062-.072c-.122-.14-.244-.279-.369-.414-.046-.054-.093-.106-.144-.16-.092-.1-.187-.188-.282-.279l-.083-.08-.061-.06c-.137-.137-.275-.274-.415-.4-.053-.053-.105-.1-.156-.151-.095-.086-.192-.167-.3-.255l-.065-.054-.029-.026c-.164-.141-.332-.286-.516-.435-.058-.05-.117-.1-.18-.15-.1-.076-.2-.147-.306-.224l-.044-.03c-.181-.135-.4-.295-.628-.454-.071-.053-.143-.105-.215-.153-.238-.159-.488-.316-.743-.47l-6.83-4.1-1.671-.891h0a19.625,19.625,0,0,0-4.806-1.546,21.766,21.766,0,0,0-3.976-.359,24.022,24.022,0,0,0-2.483.13,29.665,29.665,0,0,0-9.122,2.563c-7.833,3.544-15.045,10.213-20.307,18.778-.3.488-.6.987-.885,1.491-11.644.034-18.4,2.593-19.526,7.4-1.083,4.587,3.327,9.632,12.769,14.626-.051,1.088-.059,2.161-.02,3.2a28.655,28.655,0,0,0,3.069,12.4,20.364,20.364,0,0,0,5.824,6.934h0l8.448,5.191a19.427,19.427,0,0,0,6.474,2.437c.29.054.592.1.9.148.076.011.153.019.216.027l.129.015c.185.024.369.047.562.066l.257.02.187.015c.157.013.315.025.475.034.1.005.195.008.282.011l.2.007c.149.006.3.012.441.013h.14l.374,0c.142,0,.284,0,.434-.005.107,0,.216-.008.318-.013l.2-.009c.14-.006.28-.012.416-.022.114-.007.229-.017.337-.027l.184-.015c.138-.012.275-.023.414-.038l.025,0c.118-.012.236-.027.353-.042l.177-.022c.144-.018.289-.036.441-.057.116-.017.232-.036.343-.055l.194-.032c.143-.023.286-.046.431-.073l.323-.063.2-.04c.152-.03.3-.061.458-.1.133-.029.266-.061.4-.093l.134-.032c.15-.036.3-.072.443-.109s.26-.069.4-.107l.124-.034c.158-.044.315-.088.475-.135.142-.042.285-.086.434-.134l.035-.011c.174-.055.349-.109.525-.168.149-.05.3-.1.45-.155l.022-.008c.175-.061.349-.123.525-.188.148-.055.3-.112.438-.168l.043-.017c.173-.067.346-.135.521-.206.16-.065.32-.133.472-.2l.1-.041c.076-.031.152-.062.227-.1q.2-.088.4-.18c.431-.2.889-.415,1.4-.674.106-.054.211-.109.312-.162l.3-.156c.147-.075.294-.151.439-.23.087-.048.173-.1.25-.141l.117-.066c.133-.075.267-.15.4-.227.374-.215.744-.436,1.084-.646l.31-.189c.354-.224.731-.472,1.189-.782l.4-.275c.08-.054.16-.109.234-.161s.176-.128.276-.2l.087-.065c.344-.249.661-.484.966-.717l.082-.061c.075-.054.149-.109.226-.169s.146-.116.209-.169l.08-.065c.257-.2.533-.428.84-.683l.114-.092c.089-.071.178-.143.254-.208s.124-.108.194-.17l.039-.034c.25-.215.5-.435.744-.657l.133-.117c.1-.082.19-.165.285-.253.05-.046.1-.095.158-.15l.032-.03c.226-.21.448-.424.676-.644l.145-.138c.1-.093.2-.186.292-.279.043-.043.086-.086.135-.137l.049-.051c.184-.183.365-.37.546-.557l.228-.233c.1-.1.2-.2.29-.3.045-.048.089-.1.122-.133l.052-.056c.159-.17.315-.343.472-.516l.262-.288c.1-.1.193-.21.293-.322l.109-.128.051-.06c.171-.2.339-.4.508-.594l.069-.082c.046-.056.094-.11.153-.178.089-.1.178-.207.267-.315.038-.046.076-.094.113-.142l.04-.05c.163-.2.322-.4.483-.605l.105-.133c.236.009.462.016.681.022.835.024,1.661.036,2.457.036q.572,0,1.13-.008c1.064-.015,2.118-.055,3.136-.118l.441-.03c.649-.045,1.228-.1,1.771-.151a28.8,28.8,0,0,0,7.961-1.81c2.792-1.165,4.537-2.808,5.187-4.879.041-.134.08-.272.113-.411C205.934,277.732,201.74,272.866,192.377,267.871Z" transform="translate(-112.076 -229.402)"/><path class="a" d="M168.17,305.393c-.126.013-.25.024-.375.034l-.189.016c-.1.009-.2.018-.3.024-.125.009-.25.014-.375.019l-.21.01c-.1,0-.191.009-.286.012-.127,0-.253,0-.379,0h-.217c-.088,0-.177,0-.265,0-.131,0-.262-.007-.392-.012l-.208-.007c-.083,0-.166-.006-.248-.01-.14-.007-.279-.019-.417-.03l-.206-.016-.215-.017c-.168-.017-.333-.038-.5-.059l-.147-.018-.181-.022c-.275-.039-.548-.083-.812-.133A17.5,17.5,0,0,1,156.418,303l-6.83-4.1,0,0a18.108,18.108,0,0,1-6.727-7.262,26.738,26.738,0,0,1-2.847-11.566c-.3-8.3,2.317-17.408,7.377-25.644s11.971-14.641,19.456-18.027a27.748,27.748,0,0,1,8.525-2.4,20.612,20.612,0,0,1,5.9.207,17.52,17.52,0,0,1,5.835,2.2v0l6.83,4.1c.225.135.449.276.666.421.044.029.087.06.129.092l.042.031c.2.14.4.285.585.422.033.025.069.049.1.074.071.05.143.1.212.155.036.028.071.058.106.088l.029.025c.167.134.328.273.489.412l.025.021c.036.031.074.062.111.092.074.061.148.122.219.187.032.028.063.06.094.091l.024.023c.132.122.262.251.39.379l.063.063c.036.036.074.072.111.107.074.07.148.14.218.215.03.032.058.064.086.1l.024.028c.117.125.232.255.346.386l.062.071.1.116c.071.078.142.156.21.238.029.034.055.07.082.105l.026.034c.108.132.212.27.317.408l.056.074c.033.043.066.085.1.126.065.081.129.162.19.247.027.038.054.077.08.117l.028.041c.106.149.207.3.31.457l.038.056c.03.046.06.09.091.133.057.082.114.165.168.252.026.041.051.085.076.128l.028.049c.106.171.206.347.306.523l.021.036c.027.046.054.092.081.137.051.085.1.17.15.258.024.044.046.09.068.135.009.018.018.037.027.055.1.195.2.395.3.595l.012.025c.023.048.048.1.072.142.045.088.091.176.133.268.02.044.039.09.059.137.007.018.014.035.022.053.1.223.2.455.292.686l.008.018c.021.052.044.1.066.154.04.091.08.182.117.277.016.041.03.083.044.124l.014.041c.113.3.215.6.3.866.018.052.036.1.055.155.033.091.066.181.1.275.011.036.019.067.028.1.168.541.307,1.037.426,1.523l.007.027c.093.38.181.789.279,1.289.02.106.041.212.06.318l.021.111c.013.066.026.133.038.2.05.291.092.583.132.866l.013.082c.008.048.015.1.022.143.056.421.1.837.142,1.235,0,.04.035.448.035.448.044.54.072,1.02.088,1.467.017.472.025.958.023,1.443,0,.026,0,.1,0,.1,0,.144-.006.289-.011.435l-.009.337c-.007.273-.013.546-.027.819-.008.163-.02.326-.031.489l-.02.28c-.018.276-.037.552-.062.829-.017.181-.037.363-.057.544l-.025.225c-.03.278-.061.557-.1.835-.027.2-.057.4-.087.6l-.018.122c-.044.293-.088.587-.138.881-.039.228-.082.458-.126.687l-.008.044c-.055.291-.111.582-.172.873-.051.246-.107.492-.163.737-.066.289-.133.577-.2.865-.061.246-.125.492-.19.738q-.114.431-.237.861-.1.367-.216.733c-.017.056-.033.111-.049.166-.024.082-.048.165-.074.247s-.051.157-.077.235q-.027.079-.053.158-.149.464-.308.925-.13.378-.265.754c-.112.307-.227.614-.344.921-.024.061-.046.123-.069.184-.033.09-.067.181-.1.271-.028.071-.057.142-.086.211l-.06.145c-.072.177-.144.353-.217.528q-.2.491-.42.979l-.051.115q-.083.19-.168.379l-.038.087c-.02.045-.039.09-.06.134-.03.066-.063.132-.1.2q-.032.063-.063.128c-.236.507-.484,1.016-.736,1.514-.021.042-.041.084-.061.126-.03.065-.062.13-.095.195-.025.049-.051.1-.077.143-.016.029-.032.058-.048.088-.231.444-.483.91-.749,1.385l-.065.121c-.032.061-.065.122-.1.182l-.035.06q-.483.848-.975,1.647l-.027.046c-.051.082-.1.161-.155.242-.035.054-.071.108-.106.164-.228.363-.454.719-.692,1.077l-.07.111c-.07.1-.14.2-.211.305q-.07.1-.138.2l-.051.075c-.178.261-.357.522-.54.779l-.038.056c-.022.032-.044.065-.067.1-.075.105-.152.207-.228.309l-.195.261c-.17.232-.34.463-.514.691l-.129.175c-.079.1-.16.2-.241.3-.05.062-.1.125-.151.189l-.078.1c-.155.2-.31.393-.469.587l-.054.069c-.029.037-.058.074-.088.11-.081.1-.164.195-.248.291l-.157.184-.067.08c-.164.194-.327.388-.494.579l-.059.069-.09.105c-.087.1-.175.194-.263.289-.053.058-.107.116-.159.174l-.088.1c-.161.179-.322.357-.487.532l-.059.065c-.032.035-.063.07-.1.1-.086.091-.174.18-.262.269l-.163.166-.081.083c-.176.183-.353.365-.532.544l-.061.063c-.034.035-.067.07-.1.1-.085.084-.171.165-.258.247-.055.051-.109.1-.164.155-.219.211-.433.418-.652.621-.024.022-.046.044-.07.066l-.113.108c-.08.073-.161.144-.243.215l-.158.138c-.236.212-.472.422-.712.628l-.081.071c-.045.041-.091.082-.137.121-.07.06-.144.119-.218.178-.046.037-.093.074-.139.112q-.4.333-.808.657l-.107.087c-.056.046-.112.092-.169.137s-.119.09-.179.133l-.116.086c-.289.221-.591.445-.924.686-.045.033-.09.066-.135.1-.07.053-.139.105-.211.155s-.137.1-.206.142l-.4.276c-.434.294-.794.531-1.133.745l-.065.04-.133.081-.083.05c-.339.21-.692.42-1.047.624q-.189.109-.379.215l-.128.073c-.073.042-.147.084-.22.124-.133.072-.265.14-.4.208l-.185.1-.132.07c-.095.05-.189.1-.285.148-.484.244-.917.452-1.326.637-.128.057-.255.114-.382.17l-.185.078-.113.047c-.153.065-.3.129-.456.191s-.327.131-.491.195l-.037.014c-.139.054-.277.107-.415.158-.165.061-.328.119-.492.176s-.3.105-.445.154c-.164.055-.327.106-.49.157l-.046.014c-.132.041-.264.083-.4.122-.155.046-.309.088-.462.131l-.1.028c-.121.033-.242.066-.362.1-.138.036-.276.069-.414.1l-.135.032c-.122.029-.244.059-.367.086-.141.032-.28.059-.419.087l-.167.034c-.108.022-.216.044-.323.064-.131.024-.262.045-.391.066l-.2.032c-.105.017-.21.034-.314.05-.132.019-.262.035-.393.051l-.185.023c-.1.013-.21.027-.314.038Z" transform="translate(-124.125 -230.967)"/><path class="d" d="M203.076,257.08c-.01-.074-.023-.144-.033-.217-.04-.282-.08-.564-.128-.839-.017-.1-.039-.2-.057-.3s-.038-.2-.058-.306c-.082-.42-.169-.837-.269-1.242l0-.006c-.124-.506-.264-1-.414-1.48-.01-.033-.018-.069-.028-.1-.045-.142-.1-.275-.146-.414-.094-.28-.189-.56-.292-.832-.02-.052-.036-.107-.056-.158-.055-.142-.118-.274-.176-.414-.093-.227-.187-.454-.287-.675-.027-.059-.049-.122-.076-.181-.062-.134-.132-.259-.2-.391-.1-.2-.195-.4-.3-.592-.031-.059-.059-.122-.091-.181-.07-.129-.148-.25-.22-.377-.1-.179-.2-.358-.311-.532-.034-.055-.065-.114-.1-.169-.079-.126-.165-.243-.247-.365-.109-.165-.217-.33-.331-.489-.035-.049-.066-.1-.1-.15-.088-.122-.184-.234-.274-.353-.117-.154-.233-.309-.354-.458-.035-.043-.067-.088-.1-.131-.1-.116-.2-.222-.3-.334-.128-.146-.254-.294-.386-.434-.035-.038-.068-.079-.1-.116-.1-.106-.208-.2-.311-.3-.142-.142-.283-.284-.43-.419-.038-.035-.072-.074-.111-.108-.1-.092-.209-.175-.312-.264-.16-.138-.32-.277-.484-.409-.044-.035-.084-.074-.128-.108-.1-.076-.2-.143-.3-.216-.182-.135-.364-.27-.551-.4-.055-.038-.107-.08-.163-.117q-.309-.206-.628-.4L187.4,238c.043.026.085.054.128.08a16.526,16.526,0,0,0-5.642-2.153,23.322,23.322,0,0,0-13.853,2.126c-15.115,6.839-26.877,25.982-26.265,42.755.314,8.672,3.874,15.009,9.327,18.165-.074-.043-.15-.083-.224-.128l6.83,4.1a16.551,16.551,0,0,0,5.512,2.072q.382.071.77.126c.087.012.175.02.263.031.174.022.347.045.522.062.1.01.207.015.31.024.162.013.323.027.487.037.113.006.229.008.343.012.155.006.31.013.466.016.121,0,.242,0,.363,0,.153,0,.3,0,.458,0,.125,0,.252-.011.378-.017.151-.007.3-.012.455-.023.128-.008.258-.021.387-.032.153-.013.3-.025.457-.041.132-.014.265-.032.4-.049.152-.019.3-.036.457-.059.134-.02.27-.043.405-.065.153-.025.306-.049.46-.077.137-.025.274-.054.411-.081.154-.031.309-.061.464-.1.138-.03.278-.065.417-.1.155-.037.31-.074.465-.114s.283-.076.424-.116c.156-.043.312-.086.469-.132s.285-.087.427-.132.315-.1.473-.152.288-.1.431-.149.317-.112.475-.171.292-.111.438-.168.317-.123.475-.188.3-.123.443-.186c.1-.041.193-.08.29-.122l.37-.165c.433-.2.863-.4,1.29-.62.135-.069.27-.141.405-.212.189-.1.378-.193.566-.295.114-.062.227-.129.34-.193s.247-.138.369-.208q.513-.3,1.02-.609c.07-.044.141-.085.211-.128l.063-.038c.372-.234.739-.479,1.105-.727l.269-.185c.108-.074.217-.147.324-.222s.224-.169.337-.25c.3-.219.6-.441.9-.67.1-.072.194-.14.288-.213s.18-.148.27-.219q.4-.316.79-.643c.116-.1.235-.186.35-.284.071-.061.14-.126.212-.187.234-.2.466-.407.7-.615.13-.117.263-.228.393-.347.06-.055.119-.114.179-.17.215-.2.426-.4.639-.608.137-.132.277-.259.412-.393.054-.054.106-.11.16-.164.2-.2.4-.409.6-.615.138-.143.28-.281.416-.426.051-.054.1-.111.151-.165.19-.2.377-.411.564-.618.137-.152.278-.3.413-.453.049-.056.1-.115.146-.171.186-.213.368-.43.551-.646.132-.156.268-.309.4-.467.048-.057.092-.117.139-.175.181-.222.358-.448.536-.673.127-.161.259-.319.384-.483.044-.056.085-.115.128-.172.189-.247.372-.5.556-.748.12-.164.245-.324.363-.489.035-.05.069-.1.1-.15.2-.276.388-.558.58-.838.112-.165.229-.326.341-.492.024-.036.046-.075.071-.111.232-.349.456-.7.68-1.058.083-.133.172-.263.254-.4l.028-.047q.49-.795.95-1.606c.013-.023.028-.046.041-.069.055-.1.106-.2.16-.3q.377-.676.735-1.361c.04-.076.083-.15.122-.226.054-.1.1-.211.153-.316q.374-.738.723-1.486c.05-.107.106-.213.156-.321.033-.071.063-.144.1-.216.073-.161.143-.323.215-.486q.211-.479.412-.96.108-.259.213-.518c.047-.117.1-.232.143-.349.059-.148.11-.3.168-.447.115-.3.228-.6.338-.9q.134-.369.26-.739.156-.453.3-.907c.041-.128.088-.256.128-.385s.079-.27.119-.4q.109-.36.211-.719c.081-.281.157-.562.232-.843.064-.241.126-.481.186-.722.07-.282.136-.564.2-.847.055-.241.109-.481.159-.722.06-.284.114-.569.168-.853.045-.239.09-.477.131-.715.049-.288.092-.574.135-.861.035-.236.072-.472.1-.708.038-.29.069-.579.1-.869.025-.232.053-.465.074-.7.027-.3.046-.592.066-.887.015-.223.033-.447.044-.671.015-.309.022-.616.029-.923,0-.209.014-.419.016-.628,0-.03,0-.061,0-.091q0-.7-.023-1.4c-.018-.483-.048-.956-.086-1.424-.007-.082-.012-.165-.019-.247-.006-.063-.009-.127-.015-.19Q203.156,257.67,203.076,257.08Zm-57.7,24.043c0-.05-.011-.1-.016-.151l.015.142Zm-.036-.4,0,.026,0-.044Zm-.015-.2c0,.029,0,.057.006.086-.017-.2-.033-.4-.046-.6C145.291,280.187,145.305,280.357,145.32,280.527Zm1.522-12.78q-.095.314-.185.626c-.07.245-.137.491-.2.738-.056.21-.11.419-.162.629-.061.247-.119.494-.175.742-.048.209-.095.417-.138.626-.053.249-.1.5-.147.748-.039.208-.079.415-.114.623-.043.251-.081.5-.118.753-.03.206-.062.411-.09.617-.033.254-.061.508-.088.762-.022.2-.046.4-.064.6-.024.26-.04.52-.058.78-.013.194-.029.388-.039.581-.013.271-.019.541-.025.811,0,.181-.013.363-.014.543v.03a36.292,36.292,0,0,1,1.719-10.543C146.905,267.526,146.875,267.638,146.842,267.748Zm1-2.914q-.151.393-.3.788-.116.322-.227.645-.136.395-.264.791c-.035.11-.075.219-.109.328q.456-1.458,1.023-2.9C147.928,264.6,147.887,264.719,147.844,264.833Zm1.854-4.174q-.325.643-.629,1.294c-.035.074-.072.147-.108.221q.406-.882.851-1.75C149.773,260.5,149.737,260.581,149.7,260.659Zm.881-1.658q-.328.588-.64,1.184c-.023.045-.048.09-.072.134q.4-.77.824-1.525C150.653,258.862,150.617,258.932,150.579,259Zm1.008-1.726q-.427.693-.829,1.4l-.016.026q.414-.729.854-1.444Zm1.2-1.839c-.082.119-.165.237-.247.356q.362-.541.74-1.069C153.113,254.958,152.95,255.2,152.787,255.436Zm5.946,45.764c-.16-.009-.318-.023-.476-.036h0c.16.013.319.027.48.036Zm-3.164-49.425c-.1.114-.195.227-.291.342.154-.187.313-.369.471-.552Zm6.872,49.286h-.006l.236-.03Zm1.32-.2c-.153.028-.305.052-.458.077h0c.153-.025.305-.049.459-.077Zm.455-.09.042-.009h0Zm-4-53.7c-.2.175-.406.356-.608.536-.1.086-.193.169-.289.254q.5-.459,1.017-.9Zm1.18-.973c-.232.183-.461.37-.689.56-.087.072-.176.142-.263.213q.576-.488,1.167-.949C161.538,245.978,161.468,246.038,161.4,246.1Zm1.275-.963q-.4.285-.786.583c-.08.061-.162.118-.242.18q.633-.492,1.281-.95C162.839,245.007,162.755,245.071,162.671,245.133Zm1.586-1.082q-.566.362-1.121.749c-.036.025-.074.05-.11.074q.683-.48,1.382-.923C164.357,243.984,164.307,244.019,164.257,244.051Zm.247-.161-.017.01.032-.019Zm17.609-3.35c-.182-.059-.359-.125-.544-.177.368.1.728.222,1.082.352C182.473,240.652,182.293,240.6,182.113,240.539Zm1.406.534c-.23-.1-.458-.207-.693-.3.347.132.686.279,1.02.437C183.736,241.165,183.626,241.121,183.518,241.073Zm1,.489c-.165-.09-.328-.184-.5-.269.321.157.634.327.942.508C184.813,241.72,184.663,241.643,184.515,241.563Z" transform="translate(-124.908 -231.749)"/><path class="e" d="M206.016,260.4c-.006-.062-.009-.127-.015-.189-.038-.405-.085-.8-.137-1.2-.01-.074-.023-.145-.033-.218-.04-.282-.08-.563-.127-.839-.018-.1-.039-.2-.057-.3s-.038-.2-.058-.306c-.082-.421-.17-.837-.269-1.242V256.1c-.124-.505-.264-1-.414-1.48-.01-.033-.018-.068-.029-.1-.045-.142-.1-.275-.145-.414-.095-.28-.189-.56-.292-.832-.019-.051-.035-.107-.055-.158-.055-.142-.118-.274-.176-.413-.093-.227-.187-.454-.287-.675-.027-.059-.05-.122-.077-.181-.062-.134-.132-.259-.2-.391-.1-.2-.194-.4-.3-.591-.032-.059-.059-.123-.091-.181-.07-.129-.148-.25-.22-.377-.1-.179-.2-.358-.311-.532-.034-.055-.065-.114-.1-.17-.079-.126-.166-.242-.247-.365-.109-.164-.217-.33-.33-.489-.035-.049-.066-.1-.1-.15-.088-.122-.183-.234-.274-.353-.117-.154-.233-.309-.354-.457-.035-.043-.067-.089-.1-.131-.1-.116-.2-.222-.3-.335-.128-.146-.254-.293-.386-.434-.035-.038-.068-.079-.1-.116-.1-.106-.208-.2-.311-.3-.142-.141-.283-.284-.429-.419-.038-.035-.072-.074-.111-.108-.1-.092-.209-.174-.312-.264-.16-.138-.319-.277-.484-.409-.044-.035-.085-.074-.128-.108-.1-.076-.2-.142-.3-.216-.181-.136-.363-.27-.55-.4-.055-.038-.107-.081-.163-.118q-.309-.206-.628-.4l-6.83-4.1c.27.162.531.337.791.515.186.127.368.262.55.4.144.107.288.213.428.325.164.131.323.269.482.407.143.123.286.244.425.373s.286.277.428.418.28.276.416.421.258.287.386.433.27.306.4.466.237.3.354.456.254.333.376.5.221.325.33.489.234.352.346.534.209.353.311.532.211.369.312.559.2.391.3.589.186.379.274.574c.1.22.192.446.286.672.079.19.158.379.232.574.1.27.2.55.291.829.058.172.12.342.175.518.032.1.058.212.088.315l-.057-.064c-.111-.127-.222-.256-.337-.379-.03-.033-.059-.069-.09-.1-.088-.092-.182-.176-.272-.266-.124-.123-.247-.248-.374-.365-.033-.03-.064-.064-.1-.095-.088-.08-.182-.152-.273-.23-.14-.121-.279-.242-.422-.357-.038-.03-.074-.065-.112-.095-.085-.066-.175-.124-.26-.189-.159-.118-.318-.236-.482-.348-.048-.033-.093-.07-.142-.1q-.27-.179-.547-.346h0l-6.83-4.1c-.183-.11-.375-.2-.563-.3s-.368-.21-.559-.3c-.143-.069-.293-.123-.438-.187-.245-.108-.488-.222-.741-.317-.217-.082-.442-.145-.665-.217-.19-.061-.374-.132-.567-.185q-.629-.174-1.282-.3-.333-.062-.673-.11c-.076-.01-.154-.018-.23-.028-.151-.019-.3-.039-.455-.054-.092-.009-.186-.014-.279-.022-.139-.011-.278-.024-.418-.032-.1-.006-.2-.007-.3-.011-.134,0-.269-.011-.4-.013-.106,0-.213,0-.319,0-.133,0-.265,0-.4,0-.109,0-.22.009-.33.014-.133.006-.264.011-.4.02-.112.007-.224.018-.337.028-.134.011-.267.022-.4.035-.114.012-.23.028-.345.042-.133.017-.266.033-.4.052-.117.017-.236.037-.354.056-.134.022-.267.043-.4.067s-.239.047-.359.071-.269.054-.4.084-.243.056-.365.086-.27.064-.406.1-.248.067-.372.1-.271.075-.407.115-.25.077-.376.116-.273.086-.409.132-.253.087-.38.131-.275.1-.414.148-.253.1-.38.145-.279.109-.419.166-.255.106-.383.16c-.086.037-.173.071-.259.108l-.316.141c-.378.171-.754.354-1.127.542-.116.059-.232.121-.347.182-.165.086-.331.169-.494.258-.1.055-.2.114-.3.17l-.321.182q-.452.26-.9.536c-.058.036-.117.07-.175.107l-.053.032c-.066.041-.129.088-.194.13q-.566.362-1.121.749c-.055.039-.113.073-.168.112-.1.071-.2.149-.3.221-.264.191-.526.384-.786.583-.083.064-.169.122-.251.186s-.158.13-.238.194q-.347.275-.688.56c-.1.084-.2.163-.305.248-.063.054-.124.111-.186.165-.2.176-.406.356-.608.536-.113.1-.229.2-.342.3-.053.049-.1.1-.157.149-.188.174-.373.353-.558.531-.119.114-.242.225-.359.342-.048.048-.094.1-.142.145-.176.176-.35.356-.524.536-.121.124-.244.245-.364.372-.045.048-.088.1-.133.145-.166.177-.328.358-.492.539-.119.132-.242.261-.36.4-.044.049-.085.1-.128.15-.163.186-.321.375-.48.563-.115.137-.234.27-.347.408-.041.05-.081.1-.122.153-.158.194-.312.39-.467.587-.111.141-.226.279-.336.422-.038.05-.075.1-.112.152-.164.214-.323.432-.483.65-.106.144-.215.284-.32.429-.031.044-.06.089-.091.133-.171.241-.337.484-.5.728-.1.145-.2.286-.3.432-.022.032-.041.065-.062.1-.2.305-.4.615-.594.925-.073.116-.15.229-.222.346l-.024.04q-.426.693-.829,1.4l-.036.061c-.049.087-.093.176-.142.263q-.328.587-.64,1.184c-.035.066-.073.131-.107.2-.047.091-.088.185-.134.276q-.325.643-.629,1.294c-.044.095-.093.187-.137.282-.029.064-.055.127-.084.191-.063.139-.124.279-.185.418q-.186.421-.363.845-.093.224-.184.448c-.041.1-.085.2-.126.306-.051.129-.1.261-.147.391-.1.262-.2.524-.295.788-.078.215-.153.43-.227.645q-.136.4-.264.792c-.036.112-.077.223-.112.336s-.069.236-.1.354q-.1.313-.185.626c-.07.246-.137.492-.2.738-.055.21-.11.419-.162.629-.061.248-.119.495-.175.743-.048.208-.1.417-.139.626-.052.249-.1.5-.147.747-.039.208-.079.415-.114.623-.043.251-.081.5-.118.753-.031.206-.062.411-.09.616-.034.254-.061.509-.088.762-.022.2-.046.4-.064.6-.024.26-.04.52-.058.78-.013.194-.029.388-.039.581-.013.271-.019.541-.025.811,0,.181-.012.363-.014.543,0,.026,0,.053,0,.079q0,.616.019,1.228c.019.515.054,1.02.1,1.516,0,.038,0,.077.008.114q.05.528.119,1.042c.008.061.019.12.027.181.035.25.071.5.113.745.015.088.033.172.049.259s.034.177.051.265c.071.369.148.734.236,1.089v0c.108.442.231.871.362,1.292.009.029.016.061.025.09.039.124.086.241.128.362.082.244.164.488.254.724.017.046.032.095.049.139.048.123.1.239.153.36.082.2.163.4.25.588.024.052.044.107.068.159.054.117.116.227.171.342.085.173.169.346.258.514.028.053.052.108.08.16.061.112.129.218.192.328.09.156.179.312.271.464.03.049.057.1.087.149.069.109.144.211.215.318.1.144.19.288.288.427.03.043.059.09.089.132.077.106.16.2.239.308.1.134.2.269.31.4.03.038.059.078.09.116.083.1.174.193.259.291.111.127.222.256.337.379.031.033.06.069.091.1.087.092.181.176.271.265.124.123.247.247.374.365.033.03.064.065.1.095.088.081.182.153.273.23.139.121.279.242.422.357.038.03.074.065.112.1.085.066.175.124.261.188.158.118.317.236.48.347.049.033.094.071.143.1q.269.179.546.345h0l6.83,4.1h0a14.372,14.372,0,0,0,4.241,1.676l-.083.017c-.138.028-.277.057-.414.082-.153.028-.305.052-.458.077-.135.022-.272.045-.407.065-.153.022-.3.04-.455.059-.133.017-.268.034-.4.049-.153.016-.3.028-.454.04-.13.011-.261.024-.39.033-.153.01-.3.016-.456.023-.126.006-.252.013-.377.017-.154,0-.306,0-.458,0-.122,0-.243,0-.364,0-.155,0-.309-.009-.462-.015-.116,0-.233-.006-.348-.013-.16-.009-.317-.023-.475-.035-.107-.009-.215-.015-.321-.025-.177-.017-.352-.04-.527-.062-.085-.011-.172-.019-.257-.031q-.389-.055-.771-.126a16.525,16.525,0,0,1-5.512-2.072l6.83,4.1A16.525,16.525,0,0,0,166,306.95q.382.071.77.126c.087.012.175.02.263.031.174.022.347.045.523.062.1.01.207.016.31.024.163.013.324.028.487.036.114.007.229.008.344.013.155.006.31.013.466.015.12,0,.242,0,.363,0,.153,0,.3,0,.458,0,.125,0,.252-.011.378-.017.151-.007.3-.012.456-.022.128-.009.258-.022.387-.033.152-.013.3-.024.457-.041.132-.014.265-.031.4-.048.152-.019.3-.037.457-.059.134-.019.27-.043.405-.065.153-.025.306-.049.46-.077.137-.025.274-.054.41-.081.155-.031.309-.061.464-.1.138-.03.278-.065.417-.1.155-.037.31-.074.466-.114s.282-.076.424-.115.312-.086.469-.133.285-.087.427-.132c.158-.049.315-.1.473-.151s.287-.1.431-.149.316-.112.476-.17.291-.111.438-.168.316-.124.475-.189.295-.123.443-.186c.1-.041.193-.079.29-.122.123-.054.247-.109.37-.165.433-.2.863-.4,1.29-.62.135-.069.27-.141.4-.211.189-.1.379-.193.566-.3.114-.062.226-.129.34-.192s.247-.138.369-.209q.514-.3,1.021-.609c.07-.043.141-.084.211-.128l.063-.038c.372-.234.74-.478,1.105-.727.09-.061.18-.123.269-.185.108-.075.217-.147.324-.223s.224-.169.337-.25q.454-.328.9-.67c.1-.073.193-.14.288-.213s.179-.148.27-.22c.265-.21.529-.425.79-.642.116-.1.234-.187.349-.284.072-.061.141-.126.212-.187.234-.2.466-.407.7-.614.13-.117.264-.228.393-.347.06-.055.118-.114.179-.17.215-.2.427-.4.639-.608.137-.132.277-.259.413-.393.054-.054.106-.111.16-.164.2-.2.4-.409.6-.615.138-.143.28-.281.417-.426.051-.054.1-.111.151-.165.19-.2.377-.411.563-.618.137-.151.278-.3.413-.453.05-.056.1-.115.147-.171.186-.213.368-.43.551-.646.132-.156.268-.309.4-.467.047-.057.092-.117.139-.175.181-.222.358-.448.536-.673.128-.162.259-.32.384-.483.044-.056.085-.115.128-.172.189-.247.372-.5.556-.748.12-.164.244-.323.363-.489.035-.049.069-.1.1-.15.2-.276.389-.557.581-.838.112-.165.229-.326.34-.492.024-.036.047-.074.071-.111.232-.349.456-.7.679-1.058.084-.133.172-.263.255-.4l.028-.046q.489-.795.95-1.606l.041-.07c.055-.1.106-.2.16-.3q.377-.675.735-1.361c.039-.076.083-.15.122-.226.054-.1.1-.211.153-.315q.373-.738.723-1.486c.05-.108.107-.213.156-.321.033-.072.063-.144.1-.216.073-.161.144-.323.215-.485q.211-.479.412-.961c.071-.173.143-.345.212-.518.047-.117.1-.232.144-.349.059-.148.11-.3.167-.447.116-.3.229-.6.338-.9q.134-.369.26-.74.156-.453.3-.907c.041-.128.088-.256.128-.384s.079-.27.119-.405q.109-.359.212-.719.12-.421.232-.844.1-.361.186-.721c.07-.283.135-.564.2-.847.054-.241.108-.481.159-.722.06-.285.114-.569.168-.854.045-.238.09-.477.131-.715.049-.287.092-.574.135-.861.035-.237.072-.473.1-.709.038-.29.069-.579.1-.868.025-.233.053-.465.074-.7.027-.3.046-.592.066-.887.015-.224.034-.448.045-.671.015-.309.022-.615.029-.923.006-.21.014-.419.016-.628,0-.03,0-.061,0-.091q0-.7-.022-1.4c-.018-.483-.049-.956-.086-1.424C206.029,260.561,206.023,260.478,206.016,260.4Z" transform="translate(-127.709 -233.678)"/><path class="f" d="M189.33,321.423l.195.117.074.045.173.1.236.142.033.019.574.345.271.163.137.082.874.524.067.041v1.217l-2.536-1.523c-.055.021-.107.038-.161.058Z" transform="translate(-146.156 -270.112)"/><g transform="translate(16.822 3.871)"><path class="g" d="M196.48,256.04c.608,16.772-11.15,35.916-26.269,42.754a23.306,23.306,0,0,1-13.854,2.128c-8.36-1.557-14.208-8.877-14.616-20.109-.612-16.772,11.151-35.916,26.266-42.755a23.326,23.326,0,0,1,13.853-2.125C190.221,237.489,196.07,244.808,196.48,256.04Zm-26.406,38.9c13.195-5.972,23.461-22.681,22.929-37.322-.357-9.805-5.464-16.2-12.763-17.555a20.365,20.365,0,0,0-12.1,1.856c-13.195,5.972-23.461,22.682-22.929,37.323.355,9.807,5.462,16.2,12.761,17.557a20.355,20.355,0,0,0,12.1-1.859" transform="translate(-141.719 -235.622)"/></g><path class="h" d="M195.841,261.245c.532,14.641-9.734,31.351-22.929,37.322a20.35,20.35,0,0,1-12.1,1.859c-7.3-1.36-12.405-7.75-12.761-17.557-.532-14.641,9.734-31.351,22.929-37.322a20.362,20.362,0,0,1,12.1-1.856C190.378,245.05,195.485,251.441,195.841,261.245Z" transform="translate(-127.721 -235.237)"/><path class="a" d="M137.923,301.578l-3.257-4.517,1.035-1.747,3.842-.314-.479,1.6-2.269.274,1.985,3.072-.726,1.616Z" transform="translate(-121.744 -258.298)"/><path class="c" d="M117.716,281.844c-.841,3.56,4.039,8.082,12.459,12.382.048-.5.1-1.018.12-1.248l-2.567-3.539a1.46,1.46,0,0,1,1.031-2.308l2.747-.286.233-.814c-2.314-1.754-3.476-3.414-3.145-4.811.4-1.675,2.218-2.653,6.132-3.09a5.516,5.516,0,0,0,.87-1.8C125.112,276.17,118.608,278.051,117.716,281.844Z" transform="translate(-114.124 -249.945)"/><path class="a" d="M135.867,275.384c-11.2-.166-18.145,1.987-19.067,5.907-.882,3.735,3.795,8.427,12.9,13.048.032-.341.085-.742.119-1.094-8.306-4.268-12.764-8.565-12.02-11.718.584-2.485,4.432-4.178,10.656-4.827a61.021,61.021,0,0,1,6.538-.294q-.195.367-.372.729c-4.177.506-6.513,1.694-6.946,3.53-.384,1.62.8,3.455,3.495,5.459l.3-1.061c-2.07-1.6-3.058-3.058-2.8-4.161.323-1.37,2.576-2.356,6.342-2.777l.051.131.169-.572c.26-.547.591-1.266.913-1.835l.328-.5Z" transform="translate(-113.709 -249.51)"/><g class="i" transform="translate(16.822 11.078)"><path class="j" d="M182.657,290.927a36.634,36.634,0,0,1-12.583,9.837,20.354,20.354,0,0,1-12.1,1.859c-7.3-1.36-12.406-7.751-12.761-17.557-.434-11.947,6.322-25.271,15.993-33.014l-.94-3.395c-11.188,8.845-19.029,24.213-18.527,37.984.407,11.232,6.256,18.552,14.616,20.109a23.306,23.306,0,0,0,13.853-2.128,42.165,42.165,0,0,0,14.728-11.639Z" transform="translate(-141.719 -248.657)"/></g><path class="k" d="M191.22,285.35c-22.692-6.674-26.958-28.521-26.978-28.621-.06-.464-.109-.9-.151-1.3-9.278,7.818-16.458,21.168-16.035,32.811.356,9.807,5.463,16.2,12.762,17.557a20.348,20.348,0,0,0,12.1-1.859,36.65,36.65,0,0,0,12.62-9.893c-2.011-1.809-4.883-1.069-6.533-2.859,2.583.489,9.63-1.258,9.63-1.258A35.081,35.081,0,0,0,191.22,285.35Z" transform="translate(-127.722 -240.604)"/><path class="l" d="M149.072,283.694c-.532-14.641,9.734-31.35,22.929-37.322a20.361,20.361,0,0,1,12.1-1.856,14.313,14.313,0,0,1,5.918,2.549,14.246,14.246,0,0,0-6.936-3.375,20.362,20.362,0,0,0-12.1,1.856c-13.195,5.971-23.461,22.681-22.929,37.322.249,6.859,2.824,12.044,6.845,15.008C151.464,294.821,149.3,289.955,149.072,283.694Z" transform="translate(-127.721 -235.237)"/><g transform="translate(8.93 27.776)"><path class="a" d="M211.418,303.382c-.111.4-.221.773-.311,1.046,2.343,1.723,3.472,3.284,3.194,4.462-.306,1.3-2.359,2.258-5.781,2.71-6.641.88-17.4-.195-28.77-2.878a122.883,122.883,0,0,1-17.219-5.331l-.922.735a122.71,122.71,0,0,0,17.9,5.6c11.487,2.711,22.383,3.792,29.141,2.9,3.987-.526,6.223-1.7,6.648-3.493C215.7,307.427,214.4,305.5,211.418,303.382Z" transform="translate(-142.72 -289.822)"/><path class="c" d="M209.009,300.939c-.139.534-.339,1.283-.514,1.876,2.572,1.861,3.881,3.628,3.534,5.1-.377,1.592-2.63,2.628-6.214,3.1-6.434.853-17.153-.1-28.956-2.888a146.9,146.9,0,0,1-19.226-6.042l-2.225,1.884.552,5.3a172.638,172.638,0,0,0,19.263,5.8,135.53,135.53,0,0,0,26.519,3.748c11.122.317,18.815-1.553,19.741-5.486C222.323,309.773,217.438,305.246,209.009,300.939Z" transform="translate(-139.947 -288.729)"/><path class="a" d="M210.639,300.017c-.053.208-.188.568-.3,1,8.352,4.284,12.885,8.646,12.143,11.787-.826,3.507-8.013,5.41-19.226,5.089a134.687,134.687,0,0,1-26.415-3.734,148.2,148.2,0,0,1-18.079-5.446l.1,1.134a150.016,150.016,0,0,0,17.744,5.314,135.755,135.755,0,0,0,26.622,3.761,66.243,66.243,0,0,0,8.679-.263c6.775-.707,10.879-2.65,11.578-5.619C224.37,309.276,219.82,304.679,210.639,300.017Z" transform="translate(-141.446 -288.317)"/><path class="a" d="M211.4,303.26c-.109.389-.228.813-.319,1.091,2.246,1.589,3.517,3.267,3.227,4.484-.309,1.294-2.362,2.257-5.782,2.71-6.642.876-17.4-.195-28.77-2.878a122.954,122.954,0,0,1-17.176-5.314l-.959.72a122.677,122.677,0,0,0,17.9,5.6c11.028,2.6,21.508,3.7,28.31,3q.425-.045.832-.1c3.928-.521,6.227-1.728,6.648-3.492C215.72,307.339,214.249,305.191,211.4,303.26Z" transform="translate(-142.724 -289.767)"/><path class="a" d="M210.652,300.017c-.053.208-.151.588-.266,1.02,8.351,4.283,12.848,8.626,12.107,11.767h0c-.826,3.507-8.013,5.41-19.226,5.089a134.687,134.687,0,0,1-26.415-3.734,148.253,148.253,0,0,1-18.063-5.439l.1,1.136a150.12,150.12,0,0,0,17.724,5.306,135.755,135.755,0,0,0,26.622,3.761,66.243,66.243,0,0,0,8.679-.263c6.775-.707,10.879-2.651,11.578-5.619h0C224.383,309.276,219.833,304.679,210.652,300.017Z" transform="translate(-141.459 -288.317)"/><path class="a" d="M161.433,302.986l-1.466-.607-1.062.657,1.5.643.879.016Z" transform="translate(-141.511 -289.373)"/><path class="a" d="M156.9,315.1l-2.62-.944,1.167,1.543,2.049.706Z" transform="translate(-139.444 -294.639)"/><path class="a" d="M137.588,296.126a.491.491,0,0,0-.347.777l10.413,14.359a.491.491,0,0,0,.887-.332l-.834-9.561a.49.49,0,0,1,.195-.436l7.674-5.764a.492.492,0,0,0-.347-.882Z" transform="translate(-131.783 -285.754)"/><path class="c" d="M149.21,301.959l7.674-5.865-16.151,1.684a.332.332,0,0,0-.236.524l9.491,13.225Z" transform="translate(-133.253 -286.563)"/><g transform="translate(2.71 0.994)"><path class="a" d="M136.534,288.945c-.233-.173-.465-.348-.693-.529a14.084,14.084,0,0,1-1.924-1.8,5.016,5.016,0,0,1-1.221-2.244,2.489,2.489,0,0,1,.087-1.25,2.9,2.9,0,0,1,.7-1.078,6.656,6.656,0,0,1,2.256-1.39,6.744,6.744,0,0,0-2.381,1.258,3.1,3.1,0,0,0-.814,1.117,2.785,2.785,0,0,0-.175,1.392l.06.35c.027.114.068.224.1.337a4.568,4.568,0,0,0,.27.646c.111.2.228.4.352.6s.259.383.405.559a14.627,14.627,0,0,0,1.906,1.96c.065.056.132.11.2.165Z" transform="translate(-132.346 -280.653)"/><path class="a" d="M208.163,307.109a3.086,3.086,0,0,1,.141,1.316,2.5,2.5,0,0,1-.5,1.193,3.734,3.734,0,0,1-.965.869,7.112,7.112,0,0,1-1.178.582,19.527,19.527,0,0,1-5.192,1.051,48.5,48.5,0,0,1-5.334.166c-1.781-.038-3.561-.129-5.338-.284s-3.549-.362-5.317-.6-3.531-.515-5.285-.844c-3.514-.622-7-1.4-10.45-2.308-3.458-.881-6.871-1.932-10.244-3.093s-6.691-2.484-9.928-3.974c-1.614-.752-3.2-1.564-4.746-2.442-.864-.491-1.713-1.009-2.538-1.561l-1,.1c1.008.767,2.061,1.47,3.135,2.135,1.537.953,3.131,1.8,4.742,2.612a108.218,108.218,0,0,0,20.275,7.389,113.716,113.716,0,0,0,21.288,3.52,58.1,58.1,0,0,0,10.806-.234,19.447,19.447,0,0,0,5.258-1.332,7.383,7.383,0,0,0,1.193-.676,3.9,3.9,0,0,0,.968-.978,2.632,2.632,0,0,0,.443-1.289A3.13,3.13,0,0,0,208.163,307.109Z" transform="translate(-135.897 -288.043)"/></g><path class="a" d="M131.918,289.291c-.344-.254-.684-.515-1.01-.791a12.656,12.656,0,0,1-2.151-2.266,9.152,9.152,0,0,1-.79-1.346,4.067,4.067,0,0,1-.39-1.492,2.956,2.956,0,0,1,.351-1.488,3.951,3.951,0,0,1,1-1.18,6.068,6.068,0,0,1,1.331-.822c.234-.119.482-.207.724-.306.249-.082.5-.174.749-.241a14.587,14.587,0,0,1,3.108-.5,14.6,14.6,0,0,0-3.12.46c-.255.063-.5.152-.756.232-.245.1-.5.181-.734.3a6.155,6.155,0,0,0-1.358.814,4.036,4.036,0,0,0-1.042,1.2,3.07,3.07,0,0,0-.385,1.544,4.207,4.207,0,0,0,.382,1.549,9.315,9.315,0,0,0,.787,1.384,12.951,12.951,0,0,0,2.145,2.339c.355.311.724.6,1.1.889C131.877,289.471,131.9,289.368,131.918,289.291Z" transform="translate(-127.446 -278.856)"/><path class="a" d="M209.681,309.438a5.7,5.7,0,0,0-.731-1.52,8.462,8.462,0,0,0-1.017-1.273,6.289,6.289,0,0,0-1.263-.993,8.3,8.3,0,0,1,.975,1.225c.142.217.26.44.383.668s.235.459.335.692a6.032,6.032,0,0,1,.426,1.407,2.891,2.891,0,0,1-.088,1.324,2.546,2.546,0,0,1-.687,1.056,3.38,3.38,0,0,1-.533.41l-.3.2-.314.175a10.927,10.927,0,0,1-2.754.983,39.415,39.415,0,0,1-6.114.683q-3.108.171-6.233.082a107.265,107.265,0,0,1-12.478-1.111q-6.227-.894-12.35-2.4a125.414,125.414,0,0,1-12.048-3.647,98.912,98.912,0,0,1-11.578-4.942q-1.4-.722-2.763-1.509c-.91-.527-1.818-1.057-2.7-1.621-.191-.122-.379-.246-.567-.372l.458.639c.866.573,1.752,1.111,2.638,1.646q1.356.817,2.751,1.566a99.383,99.383,0,0,0,11.548,5.172,126.216,126.216,0,0,0,12.052,3.881c4.076,1.106,8.2,2.03,12.357,2.815a91.194,91.194,0,0,0,12.622,1.561,61.94,61.94,0,0,0,6.392-.037c1.07-.066,2.112-.147,3.187-.26a21.47,21.47,0,0,0,3.22-.572,12.892,12.892,0,0,0,1.587-.538c.262-.1.516-.234.771-.354.25-.139.5-.268.741-.432l.358-.239.342-.267a4.271,4.271,0,0,0,.657-.622,3.591,3.591,0,0,0,.834-1.671A3.74,3.74,0,0,0,209.681,309.438Z" transform="translate(-131.843 -287.841)"/><path class="a" d="M159.244,300.151l-.8-.343a.1.1,0,0,1-.02-.163l5.674-4.266.975.28Z" transform="translate(-141.278 -286.243)"/><path class="a" d="M156.326,314.917l.376,4.9-.754-.344-.5-4.769a.066.066,0,0,1,.087-.068Z" transform="translate(-139.966 -294.85)"/></g></g><path class="c" d="M299.361,294.747l-1.621-2.988a.865.865,0,0,0-.1-.147,16.322,16.322,0,0,1-1.528-2.06.845.845,0,0,0-.717-.391H276.856a.854.854,0,0,1-.854-.854V280.78a.854.854,0,0,1,.854-.854H292.8a.854.854,0,0,0,.854-.854v-5.139a.854.854,0,0,0-.854-.854H276.856a.854.854,0,0,1-.854-.854v-7.9a.854.854,0,0,1,.854-.854h18.519a.846.846,0,0,0,.72-.394,16.361,16.361,0,0,1,1.584-2.135.832.832,0,0,0,.1-.148l1.579-2.909a.854.854,0,0,0-.75-1.261H275.524a7.241,7.241,0,0,0-7.484,6.953v17.535a.679.679,0,0,0,.245.52c.581.485,1.115.959,1.614,1.425,4.709,3.792,6.642,7.6,5.751,11.381-.042.176-.09.35-.143.517a7.677,7.677,0,0,1-.327.854.175.175,0,0,0,.17.2l.172,0h23.087A.854.854,0,0,0,299.361,294.747Z" transform="translate(-70.081 -12.521)"/></g></svg>