<svg xmlns="http://www.w3.org/2000/svg" width="23.842" height="29.417" viewBox="0 0 23.842 29.417"><g transform="translate(-3.381)"><path d="M27.223,21.606c-.079.223-.156.463-.244.7a18.126,18.126,0,0,1-3.185,5.344,6.9,6.9,0,0,1-.875.86,3.453,3.453,0,0,1-2.151.867,4.312,4.312,0,0,1-1.782-.325c-.414-.169-.821-.358-1.241-.51a5.551,5.551,0,0,0-4.057.1c-.483.191-.96.4-1.452.568a3.471,3.471,0,0,1-1.765.155,3.435,3.435,0,0,1-1.413-.659,7.971,7.971,0,0,1-1.392-1.377A18.809,18.809,0,0,1,3.732,19.16,14.851,14.851,0,0,1,3.4,15.192a9.4,9.4,0,0,1,1.325-4.51A7.155,7.155,0,0,1,9.321,7.35a5.843,5.843,0,0,1,3.515.274q.9.346,1.812.686a2.279,2.279,0,0,0,1.671,0q.926-.354,1.856-.7a7.451,7.451,0,0,1,1.957-.475,7.35,7.35,0,0,1,2.952.37,6.467,6.467,0,0,1,3.3,2.429c.022.032.047.068.063.093a6.5,6.5,0,0,0-3.128,6.029A6.4,6.4,0,0,0,27.223,21.606Zm-11.8-14.8a4.492,4.492,0,0,0,1.793-.331A6.528,6.528,0,0,0,21.163.539c0-.171-.015-.341-.022-.539-.27.04-.515.059-.751.119a6.565,6.565,0,0,0-4.355,3.266,5.628,5.628,0,0,0-.785,3.263C15.256,6.772,15.3,6.8,15.419,6.805Z"/></g></svg>