<svg xmlns="http://www.w3.org/2000/svg" width="119.348" height="71.684" viewBox="0 0 119.348 71.684"><defs><style>.a{fill:#252f3e;}.b{fill:#f90;fill-rule:evenodd;}</style></defs><g transform="translate(0.001 0.023)"><path class="a" d="M30.664,25.937a11.221,11.221,0,0,0,.454,3.534,18.455,18.455,0,0,0,1.289,2.841,1.838,1.838,0,0,1,.287.907,1.528,1.528,0,0,1-.764,1.17L29.542,36.06a1.982,1.982,0,0,1-1.051.358,1.647,1.647,0,0,1-1.17-.549,9.073,9.073,0,0,1-1.433-1.838,23.5,23.5,0,0,1-1.218-2.388A14.659,14.659,0,0,1,13,37.135,10.839,10.839,0,0,1,5.07,34.294a10.2,10.2,0,0,1-2.913-7.64,10.219,10.219,0,0,1,3.486-8.118,14.468,14.468,0,0,1,9.741-3.08,29.773,29.773,0,0,1,4.2.31q2.2.31,4.56.86V13.713A8.715,8.715,0,0,0,22.26,7.362a9.1,9.1,0,0,0-6.47-1.838,18.408,18.408,0,0,0-4.274.525A30.513,30.513,0,0,0,7.242,7.41a10.863,10.863,0,0,1-1.385.525H5.237q-.836,0-.836-1.242V4.808a2.6,2.6,0,0,1,.287-1.385A2.865,2.865,0,0,1,5.81,2.587,25.976,25.976,0,0,1,10.8.8,24.329,24.329,0,0,1,16.984.033,14.325,14.325,0,0,1,27.369,3.256a13.108,13.108,0,0,1,3.295,9.765Zm-16.116,6.04a12.8,12.8,0,0,0,4.107-.74A8.667,8.667,0,0,0,22.4,28.683,6.255,6.255,0,0,0,23.74,26.3a13.442,13.442,0,0,0,.382-3.438V21.186a34.262,34.262,0,0,0-3.653-.669,29.534,29.534,0,0,0-3.725-.239,9.168,9.168,0,0,0-5.9,1.6A5.587,5.587,0,0,0,8.961,26.3a5.611,5.611,0,0,0,1.456,4.2,5.73,5.73,0,0,0,4.13,1.48Zm31.874,4.3a2.388,2.388,0,0,1-1.528-.382,3.1,3.1,0,0,1-.836-1.552l-9.288-30.7a7.163,7.163,0,0,1-.358-1.6.86.86,0,0,1,.979-.979h3.892a2.388,2.388,0,0,1,1.552.382,3.342,3.342,0,0,1,.788,1.552l6.661,26.263L54.468,2.993a2.793,2.793,0,0,1,.788-1.528,2.626,2.626,0,0,1,1.6-.382h3.2a2.626,2.626,0,0,1,1.6.382,2.793,2.793,0,0,1,.764,1.552l6.231,26.6,6.876-26.6a3.319,3.319,0,0,1,.812-1.552,2.388,2.388,0,0,1,1.552-.382h3.677a.86.86,0,0,1,.979.979,3.246,3.246,0,0,1,0,.621,8.692,8.692,0,0,1-.286.979l-9.55,30.7a3.1,3.1,0,0,1-.836,1.552,2.388,2.388,0,0,1-1.528.382H66.859a2.388,2.388,0,0,1-1.6-.406,3.008,3.008,0,0,1-.764-1.6L58.312,8.723,52.2,34.27a3.008,3.008,0,0,1-.764,1.6,2.388,2.388,0,0,1-1.6.406Zm51,1.051a26.931,26.931,0,0,1-6.112-.692,17.764,17.764,0,0,1-4.584-1.6,2.388,2.388,0,0,1-1.456-2.22V30.808q0-1.242.907-1.242a2.149,2.149,0,0,1,.74.143l1,.406A20.939,20.939,0,0,0,92.286,31.5a23.35,23.35,0,0,0,4.775.478,10.7,10.7,0,0,0,5.8-1.313,4.2,4.2,0,0,0,2.053-3.748,3.844,3.844,0,0,0-1.074-2.77,10.242,10.242,0,0,0-4.154-2.1l-5.754-1.815A12.3,12.3,0,0,1,87.75,16.22a9.407,9.407,0,0,1-1.982-5.754,8.834,8.834,0,0,1,1.074-4.417,10.672,10.672,0,0,1,2.841-3.271A12.582,12.582,0,0,1,93.743.725a17.668,17.668,0,0,1,4.99-.692A21.178,21.178,0,0,1,101.407.2a24.074,24.074,0,0,1,2.579.454q1.218.287,2.268.621a10.2,10.2,0,0,1,1.671.692,3.8,3.8,0,0,1,1.17.979,2.244,2.244,0,0,1,.358,1.313V6.145q0,1.242-.907,1.242a4.2,4.2,0,0,1-1.528-.478,18.48,18.48,0,0,0-7.64-1.528A10.433,10.433,0,0,0,94.1,6.5a3.82,3.82,0,0,0-1.886,3.534,3.772,3.772,0,0,0,1.17,2.817,11.8,11.8,0,0,0,4.369,2.2l5.635,1.7a12.129,12.129,0,0,1,6.136,3.82,8.977,8.977,0,0,1,1.862,5.73,10.052,10.052,0,0,1-1.051,4.608,10.505,10.505,0,0,1-2.889,3.51,12.965,12.965,0,0,1-4.417,2.22,19.7,19.7,0,0,1-5.611.692Z" transform="translate(2.978)"/><path class="b" d="M107.894,29.473c-13.06,9.646-32.017,14.779-48.2,14.779A87.479,87.479,0,0,1,.527,21.738c-1.218-1.1-.143-2.6,1.337-1.767A118.852,118.852,0,0,0,60.955,35.657a117.539,117.539,0,0,0,45.053-9.24C108.2,25.486,110.067,27.874,107.894,29.473Z" transform="translate(0 27.406)"/><path class="b" d="M56.966,24.636c-1.671-2.149-11.054-1-15.256-.5-1.265.143-1.48-.955-.334-1.767,7.473-5.253,19.745-3.748,21.154-1.982s-.382,14.063-7.377,19.936c-1.074.907-2.1.43-1.624-.764C55.1,35.594,58.637,26.784,56.966,24.636Z" transform="translate(56.372 26.037)"/><path class="a" d="M30.664,25.937a11.221,11.221,0,0,0,.454,3.534,18.455,18.455,0,0,0,1.289,2.841,1.838,1.838,0,0,1,.287.907,1.528,1.528,0,0,1-.764,1.17L29.542,36.06a1.982,1.982,0,0,1-1.051.358,1.647,1.647,0,0,1-1.17-.549,9.073,9.073,0,0,1-1.433-1.838,23.5,23.5,0,0,1-1.218-2.388A14.659,14.659,0,0,1,13,37.135,10.839,10.839,0,0,1,5.07,34.294a10.2,10.2,0,0,1-2.913-7.64,10.219,10.219,0,0,1,3.486-8.118,14.468,14.468,0,0,1,9.741-3.08,29.773,29.773,0,0,1,4.2.31q2.2.31,4.56.86V13.713A8.715,8.715,0,0,0,22.26,7.362a9.1,9.1,0,0,0-6.47-1.838,18.408,18.408,0,0,0-4.274.525A30.513,30.513,0,0,0,7.242,7.41a10.863,10.863,0,0,1-1.385.525H5.237q-.836,0-.836-1.242V4.808a2.6,2.6,0,0,1,.287-1.385A2.865,2.865,0,0,1,5.81,2.587,25.976,25.976,0,0,1,10.8.8,24.329,24.329,0,0,1,16.984.033,14.325,14.325,0,0,1,27.369,3.256a13.108,13.108,0,0,1,3.295,9.765Zm-16.116,6.04a12.8,12.8,0,0,0,4.107-.74A8.667,8.667,0,0,0,22.4,28.683,6.255,6.255,0,0,0,23.74,26.3a13.442,13.442,0,0,0,.382-3.438V21.186a34.262,34.262,0,0,0-3.653-.669,29.534,29.534,0,0,0-3.725-.239,9.168,9.168,0,0,0-5.9,1.6A5.587,5.587,0,0,0,8.961,26.3a5.611,5.611,0,0,0,1.456,4.2,5.73,5.73,0,0,0,4.13,1.48Zm31.874,4.3a2.388,2.388,0,0,1-1.528-.382,3.1,3.1,0,0,1-.836-1.552l-9.288-30.7a7.163,7.163,0,0,1-.358-1.6.86.86,0,0,1,.979-.979h3.892a2.388,2.388,0,0,1,1.552.382,3.342,3.342,0,0,1,.788,1.552l6.661,26.263L54.468,2.993a2.793,2.793,0,0,1,.788-1.528,2.626,2.626,0,0,1,1.6-.382h3.2a2.626,2.626,0,0,1,1.6.382,2.793,2.793,0,0,1,.764,1.552l6.231,26.6,6.876-26.6a3.319,3.319,0,0,1,.812-1.552,2.388,2.388,0,0,1,1.552-.382h3.677a.86.86,0,0,1,.979.979,3.246,3.246,0,0,1,0,.621,8.692,8.692,0,0,1-.286.979l-9.55,30.7a3.1,3.1,0,0,1-.836,1.552,2.388,2.388,0,0,1-1.528.382H66.859a2.388,2.388,0,0,1-1.6-.406,3.008,3.008,0,0,1-.764-1.6L58.312,8.723,52.2,34.27a3.008,3.008,0,0,1-.764,1.6,2.388,2.388,0,0,1-1.6.406Zm51,1.051a26.931,26.931,0,0,1-6.112-.692,17.764,17.764,0,0,1-4.584-1.6,2.388,2.388,0,0,1-1.456-2.22V30.808q0-1.242.907-1.242a2.149,2.149,0,0,1,.74.143l1,.406A20.939,20.939,0,0,0,92.286,31.5a23.35,23.35,0,0,0,4.775.478,10.7,10.7,0,0,0,5.8-1.313,4.2,4.2,0,0,0,2.053-3.748,3.844,3.844,0,0,0-1.074-2.77,10.242,10.242,0,0,0-4.154-2.1l-5.754-1.815A12.3,12.3,0,0,1,87.75,16.22a9.407,9.407,0,0,1-1.982-5.754,8.834,8.834,0,0,1,1.074-4.417,10.672,10.672,0,0,1,2.841-3.271A12.582,12.582,0,0,1,93.743.725a17.668,17.668,0,0,1,4.99-.692A21.178,21.178,0,0,1,101.407.2a24.074,24.074,0,0,1,2.579.454q1.218.287,2.268.621a10.2,10.2,0,0,1,1.671.692,3.8,3.8,0,0,1,1.17.979,2.244,2.244,0,0,1,.358,1.313V6.145q0,1.242-.907,1.242a4.2,4.2,0,0,1-1.528-.478,18.48,18.48,0,0,0-7.64-1.528A10.433,10.433,0,0,0,94.1,6.5a3.82,3.82,0,0,0-1.886,3.534,3.772,3.772,0,0,0,1.17,2.817,11.8,11.8,0,0,0,4.369,2.2l5.635,1.7a12.129,12.129,0,0,1,6.136,3.82,8.977,8.977,0,0,1,1.862,5.73,10.052,10.052,0,0,1-1.051,4.608,10.505,10.505,0,0,1-2.889,3.51,12.965,12.965,0,0,1-4.417,2.22,19.7,19.7,0,0,1-5.611.692Z" transform="translate(2.978)"/><path class="b" d="M107.894,29.473c-13.06,9.646-32.017,14.779-48.2,14.779A87.479,87.479,0,0,1,.527,21.738c-1.218-1.1-.143-2.6,1.337-1.767A118.852,118.852,0,0,0,60.955,35.657a117.539,117.539,0,0,0,45.053-9.24C108.2,25.486,110.067,27.874,107.894,29.473Z" transform="translate(0 27.406)"/><path class="b" d="M56.966,24.636c-1.671-2.149-11.054-1-15.256-.5-1.265.143-1.48-.955-.334-1.767,7.473-5.253,19.745-3.748,21.154-1.982s-.382,14.063-7.377,19.936c-1.074.907-2.1.43-1.624-.764C55.1,35.594,58.637,26.784,56.966,24.636Z" transform="translate(56.372 26.037)"/></g></svg>