<svg xmlns="http://www.w3.org/2000/svg" xmlns:xlink="http://www.w3.org/1999/xlink" width="180" height="188" viewBox="0 0 180 188"><defs><style>.a{fill:none;}.b{opacity:0.33;}.c{opacity:0.69;clip-path:url(#a);}.d{fill:#255f99;}</style><clipPath id="a"><rect class="a" width="180" height="188"/></clipPath></defs><g class="b" transform="translate(-54 -1348)"><g class="c" transform="translate(54 1348)"><g transform="translate(-160 -2261)"><circle class="d" cx="2" cy="2" r="2" transform="translate(160 2261)"/></g><g transform="translate(-150 -2261)"><circle class="d" cx="2" cy="2" r="2" transform="translate(160 2261)"/></g><g transform="translate(-140 -2261)"><circle class="d" cx="2" cy="2" r="2" transform="translate(160 2261)"/></g><g transform="translate(-130 -2261)"><circle class="d" cx="2" cy="2" r="2" transform="translate(160 2261)"/></g><g transform="translate(-120 -2261)"><circle class="d" cx="2" cy="2" r="2" transform="translate(160 2261)"/></g><g transform="translate(-110 -2261)"><circle class="d" cx="2" cy="2" r="2" transform="translate(160 2261)"/></g><g transform="translate(-100 -2261)"><circle class="d" cx="2" cy="2" r="2" transform="translate(160 2261)"/></g><g transform="translate(-90 -2261)"><circle class="d" cx="2" cy="2" r="2" transform="translate(160 2261)"/></g><g transform="translate(-80 -2261)"><circle class="d" cx="2" cy="2" r="2" transform="translate(160 2261)"/></g><g transform="translate(-70 -2261)"><circle class="d" cx="2" cy="2" r="2" transform="translate(160 2261)"/></g><g transform="translate(-60 -2261)"><circle class="d" cx="2" cy="2" r="2" transform="translate(160 2261)"/></g><g transform="translate(-50 -2261)"><circle class="d" cx="2" cy="2" r="2" transform="translate(160 2261)"/></g><g transform="translate(-40 -2261)"><circle class="d" cx="2" cy="2" r="2" transform="translate(160 2261)"/></g><g transform="translate(-30 -2261)"><circle class="d" cx="2" cy="2" r="2" transform="translate(160 2261)"/></g><g transform="translate(-20 -2261)"><circle class="d" cx="2" cy="2" r="2" transform="translate(160 2261)"/></g><g transform="translate(-10 -2261)"><circle class="d" cx="2" cy="2" r="2" transform="translate(160 2261)"/></g><g transform="translate(0 -2261)"><circle class="d" cx="2" cy="2" r="2" transform="translate(160 2261)"/></g><g transform="translate(10 -2261)"><circle class="d" cx="2" cy="2" r="2" transform="translate(160 2261)"/></g><g transform="translate(-160 -2249)"><circle class="d" cx="2" cy="2" r="2" transform="translate(160 2261)"/></g><g transform="translate(-150 -2249)"><circle class="d" cx="2" cy="2" r="2" transform="translate(160 2261)"/></g><g transform="translate(-140 -2249)"><circle class="d" cx="2" cy="2" r="2" transform="translate(160 2261)"/></g><g transform="translate(-130 -2249)"><circle class="d" cx="2" cy="2" r="2" transform="translate(160 2261)"/></g><g transform="translate(-120 -2249)"><circle class="d" cx="2" cy="2" r="2" transform="translate(160 2261)"/></g><g transform="translate(-110 -2249)"><circle class="d" cx="2" cy="2" r="2" transform="translate(160 2261)"/></g><g transform="translate(-100 -2249)"><circle class="d" cx="2" cy="2" r="2" transform="translate(160 2261)"/></g><g transform="translate(-90 -2249)"><circle class="d" cx="2" cy="2" r="2" transform="translate(160 2261)"/></g><g transform="translate(-80 -2249)"><circle class="d" cx="2" cy="2" r="2" transform="translate(160 2261)"/></g><g transform="translate(-70 -2249)"><circle class="d" cx="2" cy="2" r="2" transform="translate(160 2261)"/></g><g transform="translate(-60 -2249)"><circle class="d" cx="2" cy="2" r="2" transform="translate(160 2261)"/></g><g transform="translate(-50 -2249)"><circle class="d" cx="2" cy="2" r="2" transform="translate(160 2261)"/></g><g transform="translate(-40 -2249)"><circle class="d" cx="2" cy="2" r="2" transform="translate(160 2261)"/></g><g transform="translate(-30 -2249)"><circle class="d" cx="2" cy="2" r="2" transform="translate(160 2261)"/></g><g transform="translate(-20 -2249)"><circle class="d" cx="2" cy="2" r="2" transform="translate(160 2261)"/></g><g transform="translate(-10 -2249)"><circle class="d" cx="2" cy="2" r="2" transform="translate(160 2261)"/></g><g transform="translate(0 -2249)"><circle class="d" cx="2" cy="2" r="2" transform="translate(160 2261)"/></g><g transform="translate(10 -2249)"><circle class="d" cx="2" cy="2" r="2" transform="translate(160 2261)"/></g><g transform="translate(-160 -2237)"><circle class="d" cx="2" cy="2" r="2" transform="translate(160 2261)"/></g><g transform="translate(-150 -2237)"><circle class="d" cx="2" cy="2" r="2" transform="translate(160 2261)"/></g><g transform="translate(-140 -2237)"><circle class="d" cx="2" cy="2" r="2" transform="translate(160 2261)"/></g><g transform="translate(-130 -2237)"><circle class="d" cx="2" cy="2" r="2" transform="translate(160 2261)"/></g><g transform="translate(-120 -2237)"><circle class="d" cx="2" cy="2" r="2" transform="translate(160 2261)"/></g><g transform="translate(-110 -2237)"><circle class="d" cx="2" cy="2" r="2" transform="translate(160 2261)"/></g><g transform="translate(-100 -2237)"><circle class="d" cx="2" cy="2" r="2" transform="translate(160 2261)"/></g><g transform="translate(-90 -2237)"><circle class="d" cx="2" cy="2" r="2" transform="translate(160 2261)"/></g><g transform="translate(-80 -2237)"><circle class="d" cx="2" cy="2" r="2" transform="translate(160 2261)"/></g><g transform="translate(-70 -2237)"><circle class="d" cx="2" cy="2" r="2" transform="translate(160 2261)"/></g><g transform="translate(-60 -2237)"><circle class="d" cx="2" cy="2" r="2" transform="translate(160 2261)"/></g><g transform="translate(-50 -2237)"><circle class="d" cx="2" cy="2" r="2" transform="translate(160 2261)"/></g><g transform="translate(-40 -2237)"><circle class="d" cx="2" cy="2" r="2" transform="translate(160 2261)"/></g><g transform="translate(-30 -2237)"><circle class="d" cx="2" cy="2" r="2" transform="translate(160 2261)"/></g><g transform="translate(-20 -2237)"><circle class="d" cx="2" cy="2" r="2" transform="translate(160 2261)"/></g><g transform="translate(-10 -2237)"><circle class="d" cx="2" cy="2" r="2" transform="translate(160 2261)"/></g><g transform="translate(0 -2237)"><circle class="d" cx="2" cy="2" r="2" transform="translate(160 2261)"/></g><g transform="translate(10 -2237)"><circle class="d" cx="2" cy="2" r="2" transform="translate(160 2261)"/></g><g transform="translate(-160 -2225)"><circle class="d" cx="2" cy="2" r="2" transform="translate(160 2261)"/></g><g transform="translate(-150 -2225)"><circle class="d" cx="2" cy="2" r="2" transform="translate(160 2261)"/></g><g transform="translate(-140 -2225)"><circle class="d" cx="2" cy="2" r="2" transform="translate(160 2261)"/></g><g transform="translate(-130 -2225)"><circle class="d" cx="2" cy="2" r="2" transform="translate(160 2261)"/></g><g transform="translate(-120 -2225)"><circle class="d" cx="2" cy="2" r="2" transform="translate(160 2261)"/></g><g transform="translate(-110 -2225)"><circle class="d" cx="2" cy="2" r="2" transform="translate(160 2261)"/></g><g transform="translate(-100 -2225)"><circle class="d" cx="2" cy="2" r="2" transform="translate(160 2261)"/></g><g transform="translate(-90 -2225)"><circle class="d" cx="2" cy="2" r="2" transform="translate(160 2261)"/></g><g transform="translate(-80 -2225)"><circle class="d" cx="2" cy="2" r="2" transform="translate(160 2261)"/></g><g transform="translate(-70 -2225)"><circle class="d" cx="2" cy="2" r="2" transform="translate(160 2261)"/></g><g transform="translate(-60 -2225)"><circle class="d" cx="2" cy="2" r="2" transform="translate(160 2261)"/></g><g transform="translate(-50 -2225)"><circle class="d" cx="2" cy="2" r="2" transform="translate(160 2261)"/></g><g transform="translate(-40 -2225)"><circle class="d" cx="2" cy="2" r="2" transform="translate(160 2261)"/></g><g transform="translate(-30 -2225)"><circle class="d" cx="2" cy="2" r="2" transform="translate(160 2261)"/></g><g transform="translate(-20 -2225)"><circle class="d" cx="2" cy="2" r="2" transform="translate(160 2261)"/></g><g transform="translate(-10 -2225)"><circle class="d" cx="2" cy="2" r="2" transform="translate(160 2261)"/></g><g transform="translate(0 -2225)"><circle class="d" cx="2" cy="2" r="2" transform="translate(160 2261)"/></g><g transform="translate(10 -2225)"><circle class="d" cx="2" cy="2" r="2" transform="translate(160 2261)"/></g><g transform="translate(-160 -2213)"><circle class="d" cx="2" cy="2" r="2" transform="translate(160 2261)"/></g><g transform="translate(-150 -2213)"><circle class="d" cx="2" cy="2" r="2" transform="translate(160 2261)"/></g><g transform="translate(-140 -2213)"><circle class="d" cx="2" cy="2" r="2" transform="translate(160 2261)"/></g><g transform="translate(-130 -2213)"><circle class="d" cx="2" cy="2" r="2" transform="translate(160 2261)"/></g><g transform="translate(-120 -2213)"><circle class="d" cx="2" cy="2" r="2" transform="translate(160 2261)"/></g><g transform="translate(-110 -2213)"><circle class="d" cx="2" cy="2" r="2" transform="translate(160 2261)"/></g><g transform="translate(-100 -2213)"><circle class="d" cx="2" cy="2" r="2" transform="translate(160 2261)"/></g><g transform="translate(-90 -2213)"><circle class="d" cx="2" cy="2" r="2" transform="translate(160 2261)"/></g><g transform="translate(-80 -2213)"><circle class="d" cx="2" cy="2" r="2" transform="translate(160 2261)"/></g><g transform="translate(-70 -2213)"><circle class="d" cx="2" cy="2" r="2" transform="translate(160 2261)"/></g><g transform="translate(-60 -2213)"><circle class="d" cx="2" cy="2" r="2" transform="translate(160 2261)"/></g><g transform="translate(-50 -2213)"><circle class="d" cx="2" cy="2" r="2" transform="translate(160 2261)"/></g><g transform="translate(-40 -2213)"><circle class="d" cx="2" cy="2" r="2" transform="translate(160 2261)"/></g><g transform="translate(-30 -2213)"><circle class="d" cx="2" cy="2" r="2" transform="translate(160 2261)"/></g><g transform="translate(-20 -2213)"><circle class="d" cx="2" cy="2" r="2" transform="translate(160 2261)"/></g><g transform="translate(-10 -2213)"><circle class="d" cx="2" cy="2" r="2" transform="translate(160 2261)"/></g><g transform="translate(0 -2213)"><circle class="d" cx="2" cy="2" r="2" transform="translate(160 2261)"/></g><g transform="translate(10 -2213)"><circle class="d" cx="2" cy="2" r="2" transform="translate(160 2261)"/></g><g transform="translate(-160 -2201)"><circle class="d" cx="2" cy="2" r="2" transform="translate(160 2261)"/></g><g transform="translate(-150 -2201)"><circle class="d" cx="2" cy="2" r="2" transform="translate(160 2261)"/></g><g transform="translate(-140 -2201)"><circle class="d" cx="2" cy="2" r="2" transform="translate(160 2261)"/></g><g transform="translate(-130 -2201)"><circle class="d" cx="2" cy="2" r="2" transform="translate(160 2261)"/></g><g transform="translate(-120 -2201)"><circle class="d" cx="2" cy="2" r="2" transform="translate(160 2261)"/></g><g transform="translate(-110 -2201)"><circle class="d" cx="2" cy="2" r="2" transform="translate(160 2261)"/></g><g transform="translate(-100 -2201)"><circle class="d" cx="2" cy="2" r="2" transform="translate(160 2261)"/></g><g transform="translate(-90 -2201)"><circle class="d" cx="2" cy="2" r="2" transform="translate(160 2261)"/></g><g transform="translate(-80 -2201)"><circle class="d" cx="2" cy="2" r="2" transform="translate(160 2261)"/></g><g transform="translate(-70 -2201)"><circle class="d" cx="2" cy="2" r="2" transform="translate(160 2261)"/></g><g transform="translate(-60 -2201)"><circle class="d" cx="2" cy="2" r="2" transform="translate(160 2261)"/></g><g transform="translate(-50 -2201)"><circle class="d" cx="2" cy="2" r="2" transform="translate(160 2261)"/></g><g transform="translate(-40 -2201)"><circle class="d" cx="2" cy="2" r="2" transform="translate(160 2261)"/></g><g transform="translate(-30 -2201)"><circle class="d" cx="2" cy="2" r="2" transform="translate(160 2261)"/></g><g transform="translate(-20 -2201)"><circle class="d" cx="2" cy="2" r="2" transform="translate(160 2261)"/></g><g transform="translate(-10 -2201)"><circle class="d" cx="2" cy="2" r="2" transform="translate(160 2261)"/></g><g transform="translate(0 -2201)"><circle class="d" cx="2" cy="2" r="2" transform="translate(160 2261)"/></g><g transform="translate(10 -2201)"><circle class="d" cx="2" cy="2" r="2" transform="translate(160 2261)"/></g><g transform="translate(-160 -2189)"><circle class="d" cx="2" cy="2" r="2" transform="translate(160 2261)"/></g><g transform="translate(-150 -2189)"><circle class="d" cx="2" cy="2" r="2" transform="translate(160 2261)"/></g><g transform="translate(-140 -2189)"><circle class="d" cx="2" cy="2" r="2" transform="translate(160 2261)"/></g><g transform="translate(-130 -2189)"><circle class="d" cx="2" cy="2" r="2" transform="translate(160 2261)"/></g><g transform="translate(-120 -2189)"><circle class="d" cx="2" cy="2" r="2" transform="translate(160 2261)"/></g><g transform="translate(-110 -2189)"><circle class="d" cx="2" cy="2" r="2" transform="translate(160 2261)"/></g><g transform="translate(-100 -2189)"><circle class="d" cx="2" cy="2" r="2" transform="translate(160 2261)"/></g><g transform="translate(-90 -2189)"><circle class="d" cx="2" cy="2" r="2" transform="translate(160 2261)"/></g><g transform="translate(-80 -2189)"><circle class="d" cx="2" cy="2" r="2" transform="translate(160 2261)"/></g><g transform="translate(-70 -2189)"><circle class="d" cx="2" cy="2" r="2" transform="translate(160 2261)"/></g><g transform="translate(-60 -2189)"><circle class="d" cx="2" cy="2" r="2" transform="translate(160 2261)"/></g><g transform="translate(-50 -2189)"><circle class="d" cx="2" cy="2" r="2" transform="translate(160 2261)"/></g><g transform="translate(-40 -2189)"><circle class="d" cx="2" cy="2" r="2" transform="translate(160 2261)"/></g><g transform="translate(-30 -2189)"><circle class="d" cx="2" cy="2" r="2" transform="translate(160 2261)"/></g><g transform="translate(-20 -2189)"><circle class="d" cx="2" cy="2" r="2" transform="translate(160 2261)"/></g><g transform="translate(-10 -2189)"><circle class="d" cx="2" cy="2" r="2" transform="translate(160 2261)"/></g><g transform="translate(0 -2189)"><circle class="d" cx="2" cy="2" r="2" transform="translate(160 2261)"/></g><g transform="translate(10 -2189)"><circle class="d" cx="2" cy="2" r="2" transform="translate(160 2261)"/></g><g transform="translate(-160 -2177)"><circle class="d" cx="2" cy="2" r="2" transform="translate(160 2261)"/></g><g transform="translate(-150 -2177)"><circle class="d" cx="2" cy="2" r="2" transform="translate(160 2261)"/></g><g transform="translate(-140 -2177)"><circle class="d" cx="2" cy="2" r="2" transform="translate(160 2261)"/></g><g transform="translate(-130 -2177)"><circle class="d" cx="2" cy="2" r="2" transform="translate(160 2261)"/></g><g transform="translate(-120 -2177)"><circle class="d" cx="2" cy="2" r="2" transform="translate(160 2261)"/></g><g transform="translate(-110 -2177)"><circle class="d" cx="2" cy="2" r="2" transform="translate(160 2261)"/></g><g transform="translate(-100 -2177)"><circle class="d" cx="2" cy="2" r="2" transform="translate(160 2261)"/></g><g transform="translate(-90 -2177)"><circle class="d" cx="2" cy="2" r="2" transform="translate(160 2261)"/></g><g transform="translate(-80 -2177)"><circle class="d" cx="2" cy="2" r="2" transform="translate(160 2261)"/></g><g transform="translate(-70 -2177)"><circle class="d" cx="2" cy="2" r="2" transform="translate(160 2261)"/></g><g transform="translate(-60 -2177)"><circle class="d" cx="2" cy="2" r="2" transform="translate(160 2261)"/></g><g transform="translate(-50 -2177)"><circle class="d" cx="2" cy="2" r="2" transform="translate(160 2261)"/></g><g transform="translate(-40 -2177)"><circle class="d" cx="2" cy="2" r="2" transform="translate(160 2261)"/></g><g transform="translate(-30 -2177)"><circle class="d" cx="2" cy="2" r="2" transform="translate(160 2261)"/></g><g transform="translate(-20 -2177)"><circle class="d" cx="2" cy="2" r="2" transform="translate(160 2261)"/></g><g transform="translate(-10 -2177)"><circle class="d" cx="2" cy="2" r="2" transform="translate(160 2261)"/></g><g transform="translate(0 -2177)"><circle class="d" cx="2" cy="2" r="2" transform="translate(160 2261)"/></g><g transform="translate(10 -2177)"><circle class="d" cx="2" cy="2" r="2" transform="translate(160 2261)"/></g><g transform="translate(-160 -2165)"><circle class="d" cx="2" cy="2" r="2" transform="translate(160 2261)"/></g><g transform="translate(-150 -2165)"><circle class="d" cx="2" cy="2" r="2" transform="translate(160 2261)"/></g><g transform="translate(-140 -2165)"><circle class="d" cx="2" cy="2" r="2" transform="translate(160 2261)"/></g><g transform="translate(-130 -2165)"><circle class="d" cx="2" cy="2" r="2" transform="translate(160 2261)"/></g><g transform="translate(-120 -2165)"><circle class="d" cx="2" cy="2" r="2" transform="translate(160 2261)"/></g><g transform="translate(-110 -2165)"><circle class="d" cx="2" cy="2" r="2" transform="translate(160 2261)"/></g><g transform="translate(-100 -2165)"><circle class="d" cx="2" cy="2" r="2" transform="translate(160 2261)"/></g><g transform="translate(-90 -2165)"><circle class="d" cx="2" cy="2" r="2" transform="translate(160 2261)"/></g><g transform="translate(-80 -2165)"><circle class="d" cx="2" cy="2" r="2" transform="translate(160 2261)"/></g><g transform="translate(-70 -2165)"><circle class="d" cx="2" cy="2" r="2" transform="translate(160 2261)"/></g><g transform="translate(-60 -2165)"><circle class="d" cx="2" cy="2" r="2" transform="translate(160 2261)"/></g><g transform="translate(-50 -2165)"><circle class="d" cx="2" cy="2" r="2" transform="translate(160 2261)"/></g><g transform="translate(-40 -2165)"><circle class="d" cx="2" cy="2" r="2" transform="translate(160 2261)"/></g><g transform="translate(-30 -2165)"><circle class="d" cx="2" cy="2" r="2" transform="translate(160 2261)"/></g><g transform="translate(-20 -2165)"><circle class="d" cx="2" cy="2" r="2" transform="translate(160 2261)"/></g><g transform="translate(-10 -2165)"><circle class="d" cx="2" cy="2" r="2" transform="translate(160 2261)"/></g><g transform="translate(0 -2165)"><circle class="d" cx="2" cy="2" r="2" transform="translate(160 2261)"/></g><g transform="translate(10 -2165)"><circle class="d" cx="2" cy="2" r="2" transform="translate(160 2261)"/></g><g transform="translate(-160 -2153)"><circle class="d" cx="2" cy="2" r="2" transform="translate(160 2261)"/></g><g transform="translate(-150 -2153)"><circle class="d" cx="2" cy="2" r="2" transform="translate(160 2261)"/></g><g transform="translate(-140 -2153)"><circle class="d" cx="2" cy="2" r="2" transform="translate(160 2261)"/></g><g transform="translate(-130 -2153)"><circle class="d" cx="2" cy="2" r="2" transform="translate(160 2261)"/></g><g transform="translate(-120 -2153)"><circle class="d" cx="2" cy="2" r="2" transform="translate(160 2261)"/></g><g transform="translate(-110 -2153)"><circle class="d" cx="2" cy="2" r="2" transform="translate(160 2261)"/></g><g transform="translate(-100 -2153)"><circle class="d" cx="2" cy="2" r="2" transform="translate(160 2261)"/></g><g transform="translate(-90 -2153)"><circle class="d" cx="2" cy="2" r="2" transform="translate(160 2261)"/></g><g transform="translate(-80 -2153)"><circle class="d" cx="2" cy="2" r="2" transform="translate(160 2261)"/></g><g transform="translate(-70 -2153)"><circle class="d" cx="2" cy="2" r="2" transform="translate(160 2261)"/></g><g transform="translate(-60 -2153)"><circle class="d" cx="2" cy="2" r="2" transform="translate(160 2261)"/></g><g transform="translate(-50 -2153)"><circle class="d" cx="2" cy="2" r="2" transform="translate(160 2261)"/></g><g transform="translate(-40 -2153)"><circle class="d" cx="2" cy="2" r="2" transform="translate(160 2261)"/></g><g transform="translate(-30 -2153)"><circle class="d" cx="2" cy="2" r="2" transform="translate(160 2261)"/></g><g transform="translate(-20 -2153)"><circle class="d" cx="2" cy="2" r="2" transform="translate(160 2261)"/></g><g transform="translate(-10 -2153)"><circle class="d" cx="2" cy="2" r="2" transform="translate(160 2261)"/></g><g transform="translate(0 -2153)"><circle class="d" cx="2" cy="2" r="2" transform="translate(160 2261)"/></g><g transform="translate(10 -2153)"><circle class="d" cx="2" cy="2" r="2" transform="translate(160 2261)"/></g><g transform="translate(-160 -2141)"><circle class="d" cx="2" cy="2" r="2" transform="translate(160 2261)"/></g><g transform="translate(-150 -2141)"><circle class="d" cx="2" cy="2" r="2" transform="translate(160 2261)"/></g><g transform="translate(-140 -2141)"><circle class="d" cx="2" cy="2" r="2" transform="translate(160 2261)"/></g><g transform="translate(-130 -2141)"><circle class="d" cx="2" cy="2" r="2" transform="translate(160 2261)"/></g><g transform="translate(-120 -2141)"><circle class="d" cx="2" cy="2" r="2" transform="translate(160 2261)"/></g><g transform="translate(-110 -2141)"><circle class="d" cx="2" cy="2" r="2" transform="translate(160 2261)"/></g><g transform="translate(-100 -2141)"><circle class="d" cx="2" cy="2" r="2" transform="translate(160 2261)"/></g><g transform="translate(-90 -2141)"><circle class="d" cx="2" cy="2" r="2" transform="translate(160 2261)"/></g><g transform="translate(-80 -2141)"><circle class="d" cx="2" cy="2" r="2" transform="translate(160 2261)"/></g><g transform="translate(-70 -2141)"><circle class="d" cx="2" cy="2" r="2" transform="translate(160 2261)"/></g><g transform="translate(-60 -2141)"><circle class="d" cx="2" cy="2" r="2" transform="translate(160 2261)"/></g><g transform="translate(-50 -2141)"><circle class="d" cx="2" cy="2" r="2" transform="translate(160 2261)"/></g><g transform="translate(-40 -2141)"><circle class="d" cx="2" cy="2" r="2" transform="translate(160 2261)"/></g><g transform="translate(-30 -2141)"><circle class="d" cx="2" cy="2" r="2" transform="translate(160 2261)"/></g><g transform="translate(-20 -2141)"><circle class="d" cx="2" cy="2" r="2" transform="translate(160 2261)"/></g><g transform="translate(-10 -2141)"><circle class="d" cx="2" cy="2" r="2" transform="translate(160 2261)"/></g><g transform="translate(0 -2141)"><circle class="d" cx="2" cy="2" r="2" transform="translate(160 2261)"/></g><g transform="translate(10 -2141)"><circle class="d" cx="2" cy="2" r="2" transform="translate(160 2261)"/></g><g transform="translate(-160 -2129)"><circle class="d" cx="2" cy="2" r="2" transform="translate(160 2261)"/></g><g transform="translate(-150 -2129)"><circle class="d" cx="2" cy="2" r="2" transform="translate(160 2261)"/></g><g transform="translate(-140 -2129)"><circle class="d" cx="2" cy="2" r="2" transform="translate(160 2261)"/></g><g transform="translate(-130 -2129)"><circle class="d" cx="2" cy="2" r="2" transform="translate(160 2261)"/></g><g transform="translate(-120 -2129)"><circle class="d" cx="2" cy="2" r="2" transform="translate(160 2261)"/></g><g transform="translate(-110 -2129)"><circle class="d" cx="2" cy="2" r="2" transform="translate(160 2261)"/></g><g transform="translate(-100 -2129)"><circle class="d" cx="2" cy="2" r="2" transform="translate(160 2261)"/></g><g transform="translate(-90 -2129)"><circle class="d" cx="2" cy="2" r="2" transform="translate(160 2261)"/></g><g transform="translate(-80 -2129)"><circle class="d" cx="2" cy="2" r="2" transform="translate(160 2261)"/></g><g transform="translate(-70 -2129)"><circle class="d" cx="2" cy="2" r="2" transform="translate(160 2261)"/></g><g transform="translate(-60 -2129)"><circle class="d" cx="2" cy="2" r="2" transform="translate(160 2261)"/></g><g transform="translate(-50 -2129)"><circle class="d" cx="2" cy="2" r="2" transform="translate(160 2261)"/></g><g transform="translate(-40 -2129)"><circle class="d" cx="2" cy="2" r="2" transform="translate(160 2261)"/></g><g transform="translate(-30 -2129)"><circle class="d" cx="2" cy="2" r="2" transform="translate(160 2261)"/></g><g transform="translate(-20 -2129)"><circle class="d" cx="2" cy="2" r="2" transform="translate(160 2261)"/></g><g transform="translate(-10 -2129)"><circle class="d" cx="2" cy="2" r="2" transform="translate(160 2261)"/></g><g transform="translate(0 -2129)"><circle class="d" cx="2" cy="2" r="2" transform="translate(160 2261)"/></g><g transform="translate(10 -2129)"><circle class="d" cx="2" cy="2" r="2" transform="translate(160 2261)"/></g><g transform="translate(-160 -2117)"><circle class="d" cx="2" cy="2" r="2" transform="translate(160 2261)"/></g><g transform="translate(-150 -2117)"><circle class="d" cx="2" cy="2" r="2" transform="translate(160 2261)"/></g><g transform="translate(-140 -2117)"><circle class="d" cx="2" cy="2" r="2" transform="translate(160 2261)"/></g><g transform="translate(-130 -2117)"><circle class="d" cx="2" cy="2" r="2" transform="translate(160 2261)"/></g><g transform="translate(-120 -2117)"><circle class="d" cx="2" cy="2" r="2" transform="translate(160 2261)"/></g><g transform="translate(-110 -2117)"><circle class="d" cx="2" cy="2" r="2" transform="translate(160 2261)"/></g><g transform="translate(-100 -2117)"><circle class="d" cx="2" cy="2" r="2" transform="translate(160 2261)"/></g><g transform="translate(-90 -2117)"><circle class="d" cx="2" cy="2" r="2" transform="translate(160 2261)"/></g><g transform="translate(-80 -2117)"><circle class="d" cx="2" cy="2" r="2" transform="translate(160 2261)"/></g><g transform="translate(-70 -2117)"><circle class="d" cx="2" cy="2" r="2" transform="translate(160 2261)"/></g><g transform="translate(-60 -2117)"><circle class="d" cx="2" cy="2" r="2" transform="translate(160 2261)"/></g><g transform="translate(-50 -2117)"><circle class="d" cx="2" cy="2" r="2" transform="translate(160 2261)"/></g><g transform="translate(-40 -2117)"><circle class="d" cx="2" cy="2" r="2" transform="translate(160 2261)"/></g><g transform="translate(-30 -2117)"><circle class="d" cx="2" cy="2" r="2" transform="translate(160 2261)"/></g><g transform="translate(-20 -2117)"><circle class="d" cx="2" cy="2" r="2" transform="translate(160 2261)"/></g><g transform="translate(-10 -2117)"><circle class="d" cx="2" cy="2" r="2" transform="translate(160 2261)"/></g><g transform="translate(0 -2117)"><circle class="d" cx="2" cy="2" r="2" transform="translate(160 2261)"/></g><g transform="translate(10 -2117)"><circle class="d" cx="2" cy="2" r="2" transform="translate(160 2261)"/></g><g transform="translate(-160 -2105)"><circle class="d" cx="2" cy="2" r="2" transform="translate(160 2261)"/></g><g transform="translate(-150 -2105)"><circle class="d" cx="2" cy="2" r="2" transform="translate(160 2261)"/></g><g transform="translate(-140 -2105)"><circle class="d" cx="2" cy="2" r="2" transform="translate(160 2261)"/></g><g transform="translate(-130 -2105)"><circle class="d" cx="2" cy="2" r="2" transform="translate(160 2261)"/></g><g transform="translate(-120 -2105)"><circle class="d" cx="2" cy="2" r="2" transform="translate(160 2261)"/></g><g transform="translate(-110 -2105)"><circle class="d" cx="2" cy="2" r="2" transform="translate(160 2261)"/></g><g transform="translate(-100 -2105)"><circle class="d" cx="2" cy="2" r="2" transform="translate(160 2261)"/></g><g transform="translate(-90 -2105)"><circle class="d" cx="2" cy="2" r="2" transform="translate(160 2261)"/></g><g transform="translate(-80 -2105)"><circle class="d" cx="2" cy="2" r="2" transform="translate(160 2261)"/></g><g transform="translate(-70 -2105)"><circle class="d" cx="2" cy="2" r="2" transform="translate(160 2261)"/></g><g transform="translate(-60 -2105)"><circle class="d" cx="2" cy="2" r="2" transform="translate(160 2261)"/></g><g transform="translate(-50 -2105)"><circle class="d" cx="2" cy="2" r="2" transform="translate(160 2261)"/></g><g transform="translate(-40 -2105)"><circle class="d" cx="2" cy="2" r="2" transform="translate(160 2261)"/></g><g transform="translate(-30 -2105)"><circle class="d" cx="2" cy="2" r="2" transform="translate(160 2261)"/></g><g transform="translate(-20 -2105)"><circle class="d" cx="2" cy="2" r="2" transform="translate(160 2261)"/></g><g transform="translate(-10 -2105)"><circle class="d" cx="2" cy="2" r="2" transform="translate(160 2261)"/></g><g transform="translate(0 -2105)"><circle class="d" cx="2" cy="2" r="2" transform="translate(160 2261)"/></g><g transform="translate(10 -2105)"><circle class="d" cx="2" cy="2" r="2" transform="translate(160 2261)"/></g><g transform="translate(-160 -2093)"><circle class="d" cx="2" cy="2" r="2" transform="translate(160 2261)"/></g><g transform="translate(-150 -2093)"><circle class="d" cx="2" cy="2" r="2" transform="translate(160 2261)"/></g><g transform="translate(-140 -2093)"><circle class="d" cx="2" cy="2" r="2" transform="translate(160 2261)"/></g><g transform="translate(-130 -2093)"><circle class="d" cx="2" cy="2" r="2" transform="translate(160 2261)"/></g><g transform="translate(-120 -2093)"><circle class="d" cx="2" cy="2" r="2" transform="translate(160 2261)"/></g><g transform="translate(-110 -2093)"><circle class="d" cx="2" cy="2" r="2" transform="translate(160 2261)"/></g><g transform="translate(-100 -2093)"><circle class="d" cx="2" cy="2" r="2" transform="translate(160 2261)"/></g><g transform="translate(-90 -2093)"><circle class="d" cx="2" cy="2" r="2" transform="translate(160 2261)"/></g><g transform="translate(-80 -2093)"><circle class="d" cx="2" cy="2" r="2" transform="translate(160 2261)"/></g><g transform="translate(-70 -2093)"><circle class="d" cx="2" cy="2" r="2" transform="translate(160 2261)"/></g><g transform="translate(-60 -2093)"><circle class="d" cx="2" cy="2" r="2" transform="translate(160 2261)"/></g><g transform="translate(-50 -2093)"><circle class="d" cx="2" cy="2" r="2" transform="translate(160 2261)"/></g><g transform="translate(-40 -2093)"><circle class="d" cx="2" cy="2" r="2" transform="translate(160 2261)"/></g><g transform="translate(-30 -2093)"><circle class="d" cx="2" cy="2" r="2" transform="translate(160 2261)"/></g><g transform="translate(-20 -2093)"><circle class="d" cx="2" cy="2" r="2" transform="translate(160 2261)"/></g><g transform="translate(-10 -2093)"><circle class="d" cx="2" cy="2" r="2" transform="translate(160 2261)"/></g><g transform="translate(0 -2093)"><circle class="d" cx="2" cy="2" r="2" transform="translate(160 2261)"/></g><g transform="translate(10 -2093)"><circle class="d" cx="2" cy="2" r="2" transform="translate(160 2261)"/></g><g transform="translate(-160 -2081)"><circle class="d" cx="2" cy="2" r="2" transform="translate(160 2261)"/></g><g transform="translate(-150 -2081)"><circle class="d" cx="2" cy="2" r="2" transform="translate(160 2261)"/></g><g transform="translate(-140 -2081)"><circle class="d" cx="2" cy="2" r="2" transform="translate(160 2261)"/></g><g transform="translate(-130 -2081)"><circle class="d" cx="2" cy="2" r="2" transform="translate(160 2261)"/></g><g transform="translate(-120 -2081)"><circle class="d" cx="2" cy="2" r="2" transform="translate(160 2261)"/></g><g transform="translate(-110 -2081)"><circle class="d" cx="2" cy="2" r="2" transform="translate(160 2261)"/></g><g transform="translate(-100 -2081)"><circle class="d" cx="2" cy="2" r="2" transform="translate(160 2261)"/></g><g transform="translate(-90 -2081)"><circle class="d" cx="2" cy="2" r="2" transform="translate(160 2261)"/></g><g transform="translate(-80 -2081)"><circle class="d" cx="2" cy="2" r="2" transform="translate(160 2261)"/></g><g transform="translate(-70 -2081)"><circle class="d" cx="2" cy="2" r="2" transform="translate(160 2261)"/></g><g transform="translate(-60 -2081)"><circle class="d" cx="2" cy="2" r="2" transform="translate(160 2261)"/></g><g transform="translate(-50 -2081)"><circle class="d" cx="2" cy="2" r="2" transform="translate(160 2261)"/></g><g transform="translate(-40 -2081)"><circle class="d" cx="2" cy="2" r="2" transform="translate(160 2261)"/></g><g transform="translate(-30 -2081)"><circle class="d" cx="2" cy="2" r="2" transform="translate(160 2261)"/></g><g transform="translate(-20 -2081)"><circle class="d" cx="2" cy="2" r="2" transform="translate(160 2261)"/></g><g transform="translate(-10 -2081)"><circle class="d" cx="2" cy="2" r="2" transform="translate(160 2261)"/></g><g transform="translate(0 -2081)"><circle class="d" cx="2" cy="2" r="2" transform="translate(160 2261)"/></g><g transform="translate(10 -2081)"><circle class="d" cx="2" cy="2" r="2" transform="translate(160 2261)"/></g></g></g></svg>