<svg xmlns="http://www.w3.org/2000/svg" width="27.514" height="20.682" viewBox="0 0 27.514 20.682"><defs><style>.a{fill:#255f99;}</style></defs><path class="a" d="M23.867,5.629a3.587,3.587,0,0,0-1.609.377C16.118,9.039,11.944,14.824,9.766,18.522L5.745,15.674a3.641,3.641,0,1,0-4.21,5.942L6.5,25.13a6.247,6.247,0,0,0,3.621,1.181,6.066,6.066,0,0,0,1.344-.152,6.436,6.436,0,0,0,4.154-3.193c1.586-2.858,4.979-8.015,9.869-10.43a3.642,3.642,0,0,0-1.616-6.907Zm1.728,4.226a1.812,1.812,0,0,1-.919,1.049c-5.334,2.634-8.964,8.134-10.655,11.178a4.613,4.613,0,0,1-2.966,2.3,4.364,4.364,0,0,1-3.508-.74L2.587,20.13a1.821,1.821,0,0,1,1.055-3.307,1.8,1.8,0,0,1,1.05.336l5.668,4.015.493-.887c1.895-3.407,6-9.582,12.211-12.649a1.822,1.822,0,0,1,2.531,2.216Z" transform="translate(0 -5.629)"/></svg>