<svg xmlns="http://www.w3.org/2000/svg" width="72.673" height="72.673" viewBox="0 0 72.673 72.673"><defs><style>.a{fill:#255f99;}.b{fill:#fff;}</style></defs><g transform="translate(-6409 -5330)"><g transform="translate(30)"><path class="a" d="M36.337,0A36.379,36.379,0,0,0,0,36.337V70.4a2.272,2.272,0,0,0,2.271,2.271H36.337A36.337,36.337,0,0,0,36.337,0Z" transform="translate(6379 5330)"/><g transform="translate(6398 5321.236)"><g transform="translate(0 30.548)"><path class="b" d="M4.97,60.6H2.551l1.71-1.71A5.787,5.787,0,0,0,5.914,55.47,12.2,12.2,0,0,1,0,45.188c0-7.261,6.674-14.64,17.126-14.64,11.073,0,17.01,6.79,17.01,14,0,7.262-6,14.047-17.01,14.047a23.072,23.072,0,0,1-5.738-.73A8.963,8.963,0,0,1,4.97,60.6Z" transform="translate(0 -30.548)"/></g></g></g></g></svg>