<svg xmlns="http://www.w3.org/2000/svg" width="384.683" height="335.67" viewBox="0 0 384.683 335.67"><defs><style>.a{opacity:0.75;}.b{fill:#f3cc30;}.c{fill:#edbd31;}.d{fill:#f7db5e;}.e{fill:#d49a34;}.f{fill:#e5d1bd;}.g{fill:#3b474c;}.h{fill:#4d4d4d;}.i{fill:#313c3f;}.j{fill:#534741;}.k{fill:#334c60;}.l{fill:#d7e6ed;}.m{fill:#fff;}.n{opacity:0.04;}.o{fill:#f2f2f2;}.p{fill:#e2810e;}.q{fill:#ffb93e;}.r{fill:#ffa412;}.s{fill:#c9a98d;}.t{fill:#4d6b7c;}.u{fill:#f6d738;}.v{fill:#6f8d9e;}.w{fill:#8ea8ba;}.x{fill:#2e4661;}.y{fill:#272525;opacity:0.25;}.z{opacity:0.522;}.aa{opacity:0.18;}</style></defs><g transform="translate(-52.344 -0.335)"><g class="a" transform="translate(253.619 0.963)"><g transform="translate(8.595 8.595)"><circle class="b" cx="34.087" cy="34.087" r="34.087" transform="translate(0 48.206) rotate(-45)"/></g><g transform="translate(22.743 48.614)"><path class="c" d="M658.175,124.635a34.091,34.091,0,0,1-66.442-1.058,34.089,34.089,0,1,0,66.442,1.058Z" transform="translate(-590.747 -123.577)"/></g><g transform="translate(27.053 26.362)"><path class="d" d="M609.215,82.313a30.089,30.089,0,0,1,50.466,26.443A30.092,30.092,0,1,0,601.1,95.546,29.952,29.952,0,0,1,609.215,82.313Z" transform="translate(-601.104 -70.097)"/></g><path class="e" d="M667.08,107.768l-3.146,2.993a9.141,9.141,0,0,1,1.695,4.289,13.245,13.245,0,0,1-.722,5.06l-4.727-1.466q1.225-3.856-.943-6.135a4.666,4.666,0,0,0-3.064-1.55,3.707,3.707,0,0,0-2.972,1.054,3.542,3.542,0,0,0-1.177,2.556,15.07,15.07,0,0,0,1.09,4.65,41.236,41.236,0,0,1,1.392,4.791,11.813,11.813,0,0,1,.316,3.338,9.275,9.275,0,0,1-3.01,6.319,10.463,10.463,0,0,1-6.373,2.943,10.933,10.933,0,0,1-6.917-1.678l-3.323,3.161-2.672-2.809,3.227-3.069a11.788,11.788,0,0,1-2.4-6.862,14.282,14.282,0,0,1,2.784-7.3l4.1,2.83a11.393,11.393,0,0,0-1.8,5.079,5.721,5.721,0,0,0,1.768,3.852,5.657,5.657,0,0,0,3.949,1.869,5.309,5.309,0,0,0,4.021-1.592,4.722,4.722,0,0,0,1.621-3.407,12.563,12.563,0,0,0-.346-2.469,34.849,34.849,0,0,0-1.083-3.694q-1.566-4.443-1.325-6.537a8.87,8.87,0,0,1,5.211-7.219,8.122,8.122,0,0,1,2.821-.65,9.161,9.161,0,0,1,3.047.39,12.82,12.82,0,0,1,3.145,1.442l3.147-2.993Z" transform="translate(-592.399 -64.091)"/></g><g transform="translate(129.17 113.666)"><path class="f" d="M442.467,277.861a2.986,2.986,0,0,0-.491-.172c-1.578-.4-2.655.824-4.1.87-.645.021-2.162-1.172-2.515-.161-.127.374-.664,1.6-1.125,2.86-.734.841-1.433,1.717-2.243,2.485-2.051,1.943-8.666,3.625-7.552,7.345a6.375,6.375,0,0,0,.891,2.055,5.475,5.475,0,0,0,1.383,1.2c.4.265.966.78,1.422.689.479-.095,1.268-1.043,1.656-1.361l3.325-2.733c1.087-.894,2.452-1.844,3.782-1.389a6.82,6.82,0,0,0,.863.323,2.411,2.411,0,0,0,1.029-.089,16.513,16.513,0,0,0,3.611-1.3c2.028-1.046,2.443-4.605,2.819-6.58a3.371,3.371,0,0,0,.046-1.488,3.588,3.588,0,0,0-1.574-1.8A7.227,7.227,0,0,0,442.467,277.861Z" transform="translate(-346.372 -277.609)"/><path class="g" d="M292.544,321.018a20.18,20.18,0,0,0,5.388-.074,18.064,18.064,0,0,0,4.048-1.449,86.03,86.03,0,0,0,22.171-14.765,31.957,31.957,0,0,0-7.38-10.1,137.778,137.778,0,0,1-19.915,9.212,16.664,16.664,0,0,1-4.329,1.143,17.764,17.764,0,0,1-6.35-1.028l-24.1-6.986c-4.848-1.406-9.881-2.825-14.871-2.072-13.837,2.089-13.233,19.817-.518,22.782C260.96,321.008,277.886,319.907,292.544,321.018Z" transform="translate(-236.986 -287.547)"/></g><g transform="translate(52.344 70.434)"><g transform="translate(0 131.042)"><g transform="translate(0 110.305)"><path class="f" d="M64.048,763.03a37.616,37.616,0,0,0,3.367,3.388,73.8,73.8,0,0,0,12.212-10.885c-3.164-.539-3.655-3.338-7.474-.575C70.918,755.852,66.168,761.776,64.048,763.03Z" transform="translate(-59.178 -753.758)"/><path class="h" d="M63.245,774.809a2.447,2.447,0,0,1,.754,2.3,6.5,6.5,0,0,0-.145,1.564,3.676,3.676,0,0,0,.661,1.369c1.624,2.44,5.979,7.556-.051,7.889-5.476.3-9.592-7.49-11.828-12.109a1.722,1.722,0,0,1-.285-.95,2.35,2.35,0,0,1,.443-1.019c1.246-1.764,2.758-4.019,5.057-2.594.981.608,1.061,1.847,2.1,2.486C60.81,774.265,62.475,774.151,63.245,774.809Z" transform="translate(-52.344 -763.712)"/></g><path class="i" d="M91.477,517.677c-1.227,10.622,14.672,21.73,11.462,30.279-6.716,17.883-20.417,32.926-31.712,46.795-.807.991-6.036,6.506-7.179,7.754,2.414,3.451,6.021,5.841,9.219,8.808,16.141-12.219,45.107-34.849,52.884-45.255,10.555-14.125,12.785-40.638,17.844-58.944.838-3.032,2.1-7.4.179-10.294-1.472-2.219-3.654-3.265-6.445-4.079-7.466-2.177-17.6-6.59-24.936-2.247C104.776,495.24,92.42,509.515,91.477,517.677Z" transform="translate(-59.178 -488.652)"/></g><g transform="translate(46.685 125.377)"><g transform="translate(61.273 114.145)"><path class="f" d="M318.653,766.245c1.631.337,3.273.173,4.906.351a80.286,80.286,0,0,0,2.415-17.224c-2.867,1.884-5.039.114-6.141,4.962C319.477,755.9,319.56,763.792,318.653,766.245Z" transform="translate(-315.805 -749.372)"/><path class="h" d="M320.6,783.455a2.576,2.576,0,0,1,2.094,1.3,11.736,11.736,0,0,0,.869,1.343,2.872,2.872,0,0,0,1.385.6c2.866.712,9.555,1.73,5.191,5.99-3.964,3.869-12.191.7-16.953-1.3a1.834,1.834,0,0,1-.864-.531,2.352,2.352,0,0,1-.341-1.07c-.253-2.136-.6-4.964,2.08-5.418,1.143-.193,2.1.694,3.325.475C318.387,784.665,319.576,783.454,320.6,783.455Z" transform="translate(-311.809 -769.274)"/></g><path class="i" d="M186.04,519.42c7.843,7.706,30.29,13.363,33.942,22.234,1.465,3.558,5.1,30.826,5.837,49.354.053,1.324-1.266,8.965-1.28,10.715,4.183,1.18,9.36-.142,13.868.169,3.294-21.349,7.178-62.8,7.178-62.8-4.461-18.671-25.994-40.082-37.943-56.9-1.979-2.786-4.294-6.6-7.846-7.071-2.724-.359-4.875.588-7.325,2.155-6.554,4.194-26.368,10.889-27.82,19.245C163.063,505.647,180.014,513.5,186.04,519.42Z" transform="translate(-164.546 -475.037)"/></g><path class="g" d="M163.34,287.887c-6.828,6.011-17.11,11.509-21.211,19.874-9.921,20.235-15.94,41.962-19.073,64.163q-1.374,9.74-2.749,19.48c-.9,6.388-.677,7.871,4.541,8.341,10.549.965,21.968-2.5,32.1-5.221a25.761,25.761,0,0,0,7.444-2.908c3.394-2.2,5.783-5.881,9.517-7.432a19.4,19.4,0,0,1,5.6-1.113c4.068-.4,8.622-.659,11.764,1.956,1.84,1.531,2.765,3.957,4.639,5.394,1.306-1.79-.508-7.364-.827-9.593a86.1,86.1,0,0,1-.987-10.311,192.963,192.963,0,0,1,.907-21.021c1.072-12.188,1.632-24.435,2.633-36.6.716-8.709,2.523-15.529-3.4-22.887-3.227-4.005-9.142-10.962-14.492-10.868C174.068,279.245,167.37,284.34,163.34,287.887Z" transform="translate(-91.791 -235.274)"/><g transform="translate(83.7 16.749)"><path class="f" d="M272.866,238.416c-1.977,1.872-4.465,3.093-6.714,4.627a15.283,15.283,0,0,0-4.744,5.37c-.953,1.607-2.1,2.7-4.281,2.156-4.106-1.022-1.7-3.787-1.634-6.484.072-3.083-1.225-6.067-1.763-9.063-1.556-8.657,5.187-21.784,15.384-21.031C280.263,214.813,278.866,232.733,272.866,238.416Z" transform="translate(-253.508 -213.96)"/></g><path class="j" d="M244.819,200a2.8,2.8,0,0,0-1.113,3.466c.332.631.945,1.068,1.326,1.671,1.115,1.769-.183,4.12-1.816,5.423s-3.684,2.2-4.785,3.979c-5.558-4.513-9.811-11.054-10.2-18.213a18,18,0,0,1,5.61-14.05c4.5-4.107,9.061-3.881,14.925-4.383a20.477,20.477,0,0,1,6.68.153c2,.5,3.472,1.928,5.333,2.566,3.081,1.057,8.225-.046,10.632-2.313,1.474-1.388,2.344-3.506,4.2-4.306a4.338,4.338,0,0,1,5.116,1.73,5.961,5.961,0,0,1,.253,5.626c-.525,1.162-1.351,2.171-1.85,3.344-1.051,2.473-.558,5.43-1.77,7.827-1.284,2.537-4.138,3.815-6.837,4.693-2.8.912-5.858,1.693-7.884,4,.37-1.529-2.076-4.935-3.692-5.283-2.092-.45-5.4,1.931-7.547,2.444C249.341,198.865,246.645,198.817,244.819,200Z" transform="translate(-155.034 -173.706)"/><g transform="translate(91.726 48.933)"><rect class="k" width="90.826" height="144.605" rx="7.899"/><rect class="l" width="81.261" height="123.494" transform="translate(4.689 7.672)"/><rect class="m" width="9.73" height="2.245" transform="translate(40.548 136.967)"/><path class="n" d="M280.259,355.2V461.553H361.52Z" transform="translate(-277.154 -328.618)"/></g><g transform="translate(66.393 49.188)"><path class="f" d="M275.63,495.446a3.059,3.059,0,0,0,.135-.5c.278-1.607-1.017-2.593-1.17-4.034-.069-.642,1.006-2.248-.027-2.526-.382-.1-1.64-.544-2.929-.912-.891-.672-1.815-1.3-2.638-2.057-2.085-1.906-4.25-8.394-7.868-7a6.345,6.345,0,0,0-1.979,1.044,5.493,5.493,0,0,0-1.092,1.471c-.234.417-.7,1.024-.58,1.473.131.472,1.132,1.19,1.478,1.554l2.966,3.121c.97,1.021,2.017,2.313,1.663,3.677a6.824,6.824,0,0,0-.258.886,2.426,2.426,0,0,0,.165,1.022,16.579,16.579,0,0,0,1.559,3.513c1.192,1.949,4.763,2.1,6.755,2.329a3.351,3.351,0,0,0,1.484-.065,3.587,3.587,0,0,0,1.671-1.707A7.254,7.254,0,0,0,275.63,495.446Z" transform="translate(-238.509 -400.704)"/><path class="o" d="M262.988,491.223a.825.825,0,0,0,.43-.178,27.193,27.193,0,0,0,6.221-5.75l-2.47-2.6a.555.555,0,0,0-.211-.16c-.177-.06-.358.065-.5.183l-4.736,3.864c-.707.578-1.978,1.354-1.615,2.373A7.037,7.037,0,0,0,262.988,491.223Z" transform="translate(-240.016 -403.216)"/><path class="g" d="M212.973,348.612a20.324,20.324,0,0,0,.474,5.38,18.149,18.149,0,0,0,1.742,3.939,80.51,80.51,0,0,0,15.675,20.436c3.661-2.046,6.58-5.63,9.172-8.932a117.409,117.409,0,0,1-9.653-17.789,16.768,16.768,0,0,1-1.458-4.242,17.885,17.885,0,0,1,.55-6.423l5.16-24.614c1.038-4.95,2.076-10.087.956-15.02-3.106-13.676-20.7-11.756-22.7,1.174C210.637,317.04,212.99,333.878,212.973,348.612Z" transform="translate(-211.913 -291.924)"/><path class="o" d="M271.939,476.2c-.525-.294-1.393-.059-1.441.6a.886.886,0,0,0,.926.886c.774-.055,1.232-1.049.541-1.469Z" transform="translate(-246.121 -399.453)"/><path class="o" d="M267.592,470.325c-.524-.294-1.393-.06-1.441.6a.886.886,0,0,0,.927.886c.774-.055,1.232-1.048.541-1.469Z" transform="translate(-243.582 -396.023)"/></g><g transform="translate(114 49.274)"><circle class="p" cx="38.485" cy="38.485" r="38.485" transform="translate(14.102 86.893) rotate(-81.622)"/><circle class="q" cx="38.485" cy="38.485" r="38.485" transform="translate(0 54.426) rotate(-45)"/><g transform="translate(19.362 19.817)"><path class="r" d="M884.441,1473.24a35.064,35.064,0,1,1,24.794-10.27A34.834,34.834,0,0,1,884.441,1473.24Zm0-68.036a32.972,32.972,0,1,0,32.972,32.972A33.01,33.01,0,0,0,884.441,1405.2Z" transform="translate(-849.376 -1403.112)"/></g><g transform="translate(39.069 28.985)"><path class="r" d="M958.326,1480.482a5.786,5.786,0,0,0-.083-2.036,4.227,4.227,0,0,0-.861-1.691,7.973,7.973,0,0,0-1.721-1.519,21.057,21.057,0,0,0-2.668-1.494,55.131,55.131,0,0,1-4.927-2.707,17.452,17.452,0,0,1-3.684-3,10.271,10.271,0,0,1-2.176-3.654,11.587,11.587,0,0,1,.936-8.763,9.74,9.74,0,0,1,2.717-3.018,12.161,12.161,0,0,1,3.89-1.853,16.216,16.216,0,0,1,4.858-.56l.686-5.78,4.652.552-.7,5.86a14.538,14.538,0,0,1,4.378,1.861,11,11,0,0,1,4.9,7.031,14.641,14.641,0,0,1,.192,4.966l-8.4-1a7.127,7.127,0,0,0-.864-5.019,4.952,4.952,0,0,0-3.662-2.064,6.291,6.291,0,0,0-2.3.1,4.258,4.258,0,0,0-1.674.814,3.975,3.975,0,0,0-1.079,1.392,5.854,5.854,0,0,0-.512,1.829,5.361,5.361,0,0,0,.076,1.844,3.965,3.965,0,0,0,.825,1.618,8.012,8.012,0,0,0,1.736,1.52,27.074,27.074,0,0,0,2.773,1.6q2.694,1.388,4.875,2.769a17.662,17.662,0,0,1,3.666,3.023,9.914,9.914,0,0,1,2.551,8.314,10.592,10.592,0,0,1-1.335,4.168,9.628,9.628,0,0,1-2.728,2.99,11.752,11.752,0,0,1-3.911,1.782,17.532,17.532,0,0,1-4.882.516l-.638,5.375-4.623-.549.635-5.347a19.657,19.657,0,0,1-4.541-1.606,12.455,12.455,0,0,1-3.721-2.811,11.139,11.139,0,0,1-2.334-4.18,13.558,13.558,0,0,1-.387-5.687l8.4,1a8.362,8.362,0,0,0,.158,3.264,5.4,5.4,0,0,0,1.2,2.224,5.246,5.246,0,0,0,1.921,1.323,8.963,8.963,0,0,0,2.3.588,7.5,7.5,0,0,0,2.44-.066,5.006,5.006,0,0,0,1.845-.767,3.984,3.984,0,0,0,1.221-1.348A4.852,4.852,0,0,0,958.326,1480.482Z" transform="translate(-938.142 -1444.41)"/></g></g></g><g transform="translate(302.938 77.27)"><g transform="translate(62.887 49.649)"><path class="s" d="M806.3,429.448c.122-.261.249-.5.365-.711a18.337,18.337,0,0,1,3.054-4.027,2.186,2.186,0,0,1,.721-.533,2.3,2.3,0,0,1,.735-.112,45.267,45.267,0,0,0,7.419-1.109c1.878-.39,4.8-.96,5.94,1.109a5.5,5.5,0,0,1,.766,1.946,4.573,4.573,0,0,1-.2,1.679c-.113.429-.178,1.133-.583,1.359a7.566,7.566,0,0,1-2.189.124l-4.394.25c-1.437.082-3.12.3-3.8,1.443a6.066,6.066,0,0,1-.42.761,2.445,2.445,0,0,1-.832.587,17.9,17.9,0,0,1-3.605,1.4c-1.146.292-1.8-.315-2.758-.816C805.333,432.168,805.76,430.615,806.3,429.448Z" transform="translate(-805.761 -375.513)"/><path class="t" d="M873.994,357.832a23.585,23.585,0,0,1-8.644,4.407,96.822,96.822,0,0,1-26.886,3.995,26.737,26.737,0,0,1-1.523-11.45,152.11,152.11,0,0,0,21.326-6.319c3.384-1.28,6.145-2.926,7.11-6.3a141.661,141.661,0,0,0,4.552-22.92,14.272,14.272,0,0,1,1.169-5.018c1.468-2.857,4.96-4.623,8.452-4.752a15.51,15.51,0,0,1,9.62,3.21,10.432,10.432,0,0,1,4.158,5.5c.576,2.278-.079,4.648-.812,6.887a103.821,103.821,0,0,1-14.423,28.285A23.8,23.8,0,0,1,873.994,357.832Z" transform="translate(-823.91 -309.461)"/></g><g transform="translate(18.915 7.542)"><g transform="translate(7.565 7.565)"><circle class="u" cx="37.782" cy="37.782" r="37.782"/></g><circle class="b" cx="32.065" cy="32.065" r="32.065" transform="translate(0 45.347) rotate(-45)"/><g transform="translate(13.793 26.458)"><path class="c" d="M790.74,271.851a32.07,32.07,0,0,1-57.508,24.5,32.068,32.068,0,1,0,57.508-24.5Z" transform="translate(-733.232 -271.851)"/></g><g transform="translate(16.886 16.742)"><path class="d" d="M743.561,269.719a28.3,28.3,0,0,1,53.486,3.426,28.307,28.307,0,1,0-55.4,11.049A28.18,28.18,0,0,1,743.561,269.719Z" transform="translate(-740.665 -248.501)"/></g><path class="e" d="M801.713,271.752l-1.559,3.776a8.6,8.6,0,0,1,3.1,3.038,12.458,12.458,0,0,1,1.314,4.625l-4.623.548q-.423-3.782-3.157-4.913a4.387,4.387,0,0,0-3.226-.16,3.487,3.487,0,0,0-2.152,2.043,3.335,3.335,0,0,0-.033,2.647,14.184,14.184,0,0,0,2.715,3.58,38.807,38.807,0,0,1,3.029,3.585,11.129,11.129,0,0,1,1.548,2.748,8.724,8.724,0,0,1-.171,6.582,9.843,9.843,0,0,1-4.352,4.967,10.288,10.288,0,0,1-6.586,1.2l-1.647,3.987-3.371-1.393,1.6-3.872a11.081,11.081,0,0,1-4.685-4.98,13.438,13.438,0,0,1-.4-7.335l4.6.865a10.726,10.726,0,0,0,.392,5.055,5.381,5.381,0,0,0,2.993,2.635,5.322,5.322,0,0,0,4.109.1A4.994,4.994,0,0,0,794,298.174a4.441,4.441,0,0,0,.09-3.548,11.819,11.819,0,0,0-1.242-1.99,32.728,32.728,0,0,0-2.344-2.761q-3.044-3.22-3.639-5.112a8.345,8.345,0,0,1,1.718-8.2,7.645,7.645,0,0,1,2.176-1.638,8.619,8.619,0,0,1,2.767-.83,12.059,12.059,0,0,1,3.255.037l1.559-3.775Z" transform="translate(-746.018 -244.522)"/></g><g transform="translate(8.407 -2.562)"><circle class="p" cx="38.485" cy="38.485" r="38.485" transform="translate(14.102 86.893) rotate(-81.622)"/><circle class="q" cx="38.485" cy="38.485" r="38.485" transform="translate(0 54.426) rotate(-45)"/><g transform="translate(19.362 19.817)"><path class="r" d="M884.441,1473.24a35.064,35.064,0,1,1,24.794-10.27A34.834,34.834,0,0,1,884.441,1473.24Zm0-68.036a32.972,32.972,0,1,0,32.972,32.972A33.01,33.01,0,0,0,884.441,1405.2Z" transform="translate(-849.376 -1403.112)"/></g><g transform="translate(39.069 28.985)"><path class="r" d="M958.326,1480.482a5.786,5.786,0,0,0-.083-2.036,4.227,4.227,0,0,0-.861-1.691,7.973,7.973,0,0,0-1.721-1.519,21.057,21.057,0,0,0-2.668-1.494,55.131,55.131,0,0,1-4.927-2.707,17.452,17.452,0,0,1-3.684-3,10.271,10.271,0,0,1-2.176-3.654,11.587,11.587,0,0,1,.936-8.763,9.74,9.74,0,0,1,2.717-3.018,12.161,12.161,0,0,1,3.89-1.853,16.216,16.216,0,0,1,4.858-.56l.686-5.78,4.652.552-.7,5.86a14.538,14.538,0,0,1,4.378,1.861,11,11,0,0,1,4.9,7.031,14.641,14.641,0,0,1,.192,4.966l-8.4-1a7.127,7.127,0,0,0-.864-5.019,4.952,4.952,0,0,0-3.662-2.064,6.291,6.291,0,0,0-2.3.1,4.258,4.258,0,0,0-1.674.814,3.975,3.975,0,0,0-1.079,1.392,5.854,5.854,0,0,0-.512,1.829,5.361,5.361,0,0,0,.076,1.844,3.965,3.965,0,0,0,.825,1.618,8.012,8.012,0,0,0,1.736,1.52,27.074,27.074,0,0,0,2.773,1.6q2.694,1.388,4.875,2.769a17.662,17.662,0,0,1,3.666,3.023,9.914,9.914,0,0,1,2.551,8.314,10.592,10.592,0,0,1-1.335,4.168,9.628,9.628,0,0,1-2.728,2.99,11.752,11.752,0,0,1-3.911,1.782,17.532,17.532,0,0,1-4.882.516l-.638,5.375-4.623-.549.635-5.347a19.657,19.657,0,0,1-4.541-1.606,12.455,12.455,0,0,1-3.721-2.811,11.139,11.139,0,0,1-2.334-4.18,13.558,13.558,0,0,1-.387-5.687l8.4,1a8.362,8.362,0,0,0,.158,3.264,5.4,5.4,0,0,0,1.2,2.224,5.246,5.246,0,0,0,1.921,1.323,8.963,8.963,0,0,0,2.3.588,7.5,7.5,0,0,0,2.44-.066,5.006,5.006,0,0,0,1.845-.767,3.984,3.984,0,0,0,1.221-1.348A4.852,4.852,0,0,0,958.326,1480.482Z" transform="translate(-938.142 -1444.41)"/></g></g><g transform="translate(0 54.856)"><path class="v" d="M762.734,322.35l-93.627,8.268a3.939,3.939,0,0,0-3.72,4.137l7.593,85.98a3.939,3.939,0,0,0,4.388,3.421l109.776-9.695a3.939,3.939,0,0,0,3.721-4.137L784.6,339.4C783.682,329,773.892,321.364,762.734,322.35Z" transform="translate(-660.899 -322.144)"/><path class="w" d="M752.66,322.059l-94.885,8.38a3.328,3.328,0,0,0-3.143,3.5l7.7,87.153a3.328,3.328,0,0,0,3.707,2.89l111.034-9.806a3.328,3.328,0,0,0,3.143-3.5l-6.367-72.1C772.956,328.5,763.47,321.1,752.66,322.059Z" transform="translate(-654.62 -321.976)"/><path class="x" d="M908.984,401.856l-33.134,2.926c-6.986.617-12.183,6.4-11.608,12.907l.021.238c.575,6.512,6.7,11.29,13.69,10.673l33.134-2.926Z" transform="translate(-776.998 -368.62)"/><path class="y" d="M910.011,413.479l-1.052-11.909L875.825,404.5c-6.986.617-12.182,6.4-11.607,12.908l.021.238Z" transform="translate(-776.983 -368.453)"/></g><g class="z" transform="translate(-47.853 -102.059) rotate(43)"><circle class="p" cx="38.485" cy="38.485" r="38.485" transform="translate(14.102 86.893) rotate(-81.622)"/><circle class="q" cx="38.485" cy="38.485" r="38.485" transform="translate(0 54.426) rotate(-45)"/><g transform="translate(19.362 19.817)"><path class="r" d="M884.441,1473.24a35.064,35.064,0,1,1,24.794-10.27A34.834,34.834,0,0,1,884.441,1473.24Zm0-68.036a32.972,32.972,0,1,0,32.972,32.972A33.01,33.01,0,0,0,884.441,1405.2Z" transform="translate(-849.376 -1403.112)"/></g><g transform="translate(39.069 28.985)"><path class="r" d="M958.326,1480.482a5.786,5.786,0,0,0-.083-2.036,4.227,4.227,0,0,0-.861-1.691,7.973,7.973,0,0,0-1.721-1.519,21.057,21.057,0,0,0-2.668-1.494,55.131,55.131,0,0,1-4.927-2.707,17.452,17.452,0,0,1-3.684-3,10.271,10.271,0,0,1-2.176-3.654,11.587,11.587,0,0,1,.936-8.763,9.74,9.74,0,0,1,2.717-3.018,12.161,12.161,0,0,1,3.89-1.853,16.216,16.216,0,0,1,4.858-.56l.686-5.78,4.652.552-.7,5.86a14.538,14.538,0,0,1,4.378,1.861,11,11,0,0,1,4.9,7.031,14.641,14.641,0,0,1,.192,4.966l-8.4-1a7.127,7.127,0,0,0-.864-5.019,4.952,4.952,0,0,0-3.662-2.064,6.291,6.291,0,0,0-2.3.1,4.258,4.258,0,0,0-1.674.814,3.975,3.975,0,0,0-1.079,1.392,5.854,5.854,0,0,0-.512,1.829,5.361,5.361,0,0,0,.076,1.844,3.965,3.965,0,0,0,.825,1.618,8.012,8.012,0,0,0,1.736,1.52,27.074,27.074,0,0,0,2.773,1.6q2.694,1.388,4.875,2.769a17.662,17.662,0,0,1,3.666,3.023,9.914,9.914,0,0,1,2.551,8.314,10.592,10.592,0,0,1-1.335,4.168,9.628,9.628,0,0,1-2.728,2.99,11.752,11.752,0,0,1-3.911,1.782,17.532,17.532,0,0,1-4.882.516l-.638,5.375-4.623-.549.635-5.347a19.657,19.657,0,0,1-4.541-1.606,12.455,12.455,0,0,1-3.721-2.811,11.139,11.139,0,0,1-2.334-4.18,13.558,13.558,0,0,1-.387-5.687l8.4,1a8.362,8.362,0,0,0,.158,3.264,5.4,5.4,0,0,0,1.2,2.224,5.246,5.246,0,0,0,1.921,1.323,8.963,8.963,0,0,0,2.3.588,7.5,7.5,0,0,0,2.44-.066,5.006,5.006,0,0,0,1.845-.767,3.984,3.984,0,0,0,1.221-1.348A4.852,4.852,0,0,0,958.326,1480.482Z" transform="translate(-938.142 -1444.41)"/></g></g><g transform="translate(-45.593 -73.562)"><circle class="p" cx="38.485" cy="38.485" r="38.485" transform="translate(14.102 86.893) rotate(-81.622)"/><circle class="q" cx="38.485" cy="38.485" r="38.485" transform="translate(0 54.426) rotate(-45)"/><g transform="translate(19.362 19.817)"><path class="r" d="M884.441,1473.24a35.064,35.064,0,1,1,24.794-10.27A34.834,34.834,0,0,1,884.441,1473.24Zm0-68.036a32.972,32.972,0,1,0,32.972,32.972A33.01,33.01,0,0,0,884.441,1405.2Z" transform="translate(-849.376 -1403.112)"/></g><g transform="translate(39.069 28.985)"><path class="r" d="M958.326,1480.482a5.786,5.786,0,0,0-.083-2.036,4.227,4.227,0,0,0-.861-1.691,7.973,7.973,0,0,0-1.721-1.519,21.057,21.057,0,0,0-2.668-1.494,55.131,55.131,0,0,1-4.927-2.707,17.452,17.452,0,0,1-3.684-3,10.271,10.271,0,0,1-2.176-3.654,11.587,11.587,0,0,1,.936-8.763,9.74,9.74,0,0,1,2.717-3.018,12.161,12.161,0,0,1,3.89-1.853,16.216,16.216,0,0,1,4.858-.56l.686-5.78,4.652.552-.7,5.86a14.538,14.538,0,0,1,4.378,1.861,11,11,0,0,1,4.9,7.031,14.641,14.641,0,0,1,.192,4.966l-8.4-1a7.127,7.127,0,0,0-.864-5.019,4.952,4.952,0,0,0-3.662-2.064,6.291,6.291,0,0,0-2.3.1,4.258,4.258,0,0,0-1.674.814,3.975,3.975,0,0,0-1.079,1.392,5.854,5.854,0,0,0-.512,1.829,5.361,5.361,0,0,0,.076,1.844,3.965,3.965,0,0,0,.825,1.618,8.012,8.012,0,0,0,1.736,1.52,27.074,27.074,0,0,0,2.773,1.6q2.694,1.388,4.875,2.769a17.662,17.662,0,0,1,3.666,3.023,9.914,9.914,0,0,1,2.551,8.314,10.592,10.592,0,0,1-1.335,4.168,9.628,9.628,0,0,1-2.728,2.99,11.752,11.752,0,0,1-3.911,1.782,17.532,17.532,0,0,1-4.882.516l-.638,5.375-4.623-.549.635-5.347a19.657,19.657,0,0,1-4.541-1.606,12.455,12.455,0,0,1-3.721-2.811,11.139,11.139,0,0,1-2.334-4.18,13.558,13.558,0,0,1-.387-5.687l8.4,1a8.362,8.362,0,0,0,.158,3.264,5.4,5.4,0,0,0,1.2,2.224,5.246,5.246,0,0,0,1.921,1.323,8.963,8.963,0,0,0,2.3.588,7.5,7.5,0,0,0,2.44-.066,5.006,5.006,0,0,0,1.845-.767,3.984,3.984,0,0,0,1.221-1.348A4.852,4.852,0,0,0,958.326,1480.482Z" transform="translate(-938.142 -1444.41)"/></g></g><g class="aa" transform="translate(-64.458 -88.813) rotate(50)"><circle class="p" cx="38.485" cy="38.485" r="38.485" transform="translate(14.102 86.893) rotate(-81.622)"/><circle class="q" cx="38.485" cy="38.485" r="38.485" transform="translate(0 54.426) rotate(-45)"/><g transform="translate(19.362 19.817)"><path class="r" d="M884.441,1473.24a35.064,35.064,0,1,1,24.794-10.27A34.834,34.834,0,0,1,884.441,1473.24Zm0-68.036a32.972,32.972,0,1,0,32.972,32.972A33.01,33.01,0,0,0,884.441,1405.2Z" transform="translate(-849.376 -1403.112)"/></g><g transform="translate(39.069 28.985)"><path class="r" d="M958.326,1480.482a5.786,5.786,0,0,0-.083-2.036,4.227,4.227,0,0,0-.861-1.691,7.973,7.973,0,0,0-1.721-1.519,21.057,21.057,0,0,0-2.668-1.494,55.131,55.131,0,0,1-4.927-2.707,17.452,17.452,0,0,1-3.684-3,10.271,10.271,0,0,1-2.176-3.654,11.587,11.587,0,0,1,.936-8.763,9.74,9.74,0,0,1,2.717-3.018,12.161,12.161,0,0,1,3.89-1.853,16.216,16.216,0,0,1,4.858-.56l.686-5.78,4.652.552-.7,5.86a14.538,14.538,0,0,1,4.378,1.861,11,11,0,0,1,4.9,7.031,14.641,14.641,0,0,1,.192,4.966l-8.4-1a7.127,7.127,0,0,0-.864-5.019,4.952,4.952,0,0,0-3.662-2.064,6.291,6.291,0,0,0-2.3.1,4.258,4.258,0,0,0-1.674.814,3.975,3.975,0,0,0-1.079,1.392,5.854,5.854,0,0,0-.512,1.829,5.361,5.361,0,0,0,.076,1.844,3.965,3.965,0,0,0,.825,1.618,8.012,8.012,0,0,0,1.736,1.52,27.074,27.074,0,0,0,2.773,1.6q2.694,1.388,4.875,2.769a17.662,17.662,0,0,1,3.666,3.023,9.914,9.914,0,0,1,2.551,8.314,10.592,10.592,0,0,1-1.335,4.168,9.628,9.628,0,0,1-2.728,2.99,11.752,11.752,0,0,1-3.911,1.782,17.532,17.532,0,0,1-4.882.516l-.638,5.375-4.623-.549.635-5.347a19.657,19.657,0,0,1-4.541-1.606,12.455,12.455,0,0,1-3.721-2.811,11.139,11.139,0,0,1-2.334-4.18,13.558,13.558,0,0,1-.387-5.687l8.4,1a8.362,8.362,0,0,0,.158,3.264,5.4,5.4,0,0,0,1.2,2.224,5.246,5.246,0,0,0,1.921,1.323,8.963,8.963,0,0,0,2.3.588,7.5,7.5,0,0,0,2.44-.066,5.006,5.006,0,0,0,1.845-.767,3.984,3.984,0,0,0,1.221-1.348A4.852,4.852,0,0,0,958.326,1480.482Z" transform="translate(-938.142 -1444.41)"/></g></g></g></g></svg>