<svg xmlns="http://www.w3.org/2000/svg" width="267" height="232.157" viewBox="0 0 267 232.157"><defs><style>.a{fill:rgba(37,95,153,0.2);}.b{fill:#ed975d;}.c{fill:#ffa412;}.d{fill:#e0e0e0;}.e{fill:#3b3b3b;}.f{fill:#ffb27d;}.g{fill:#ffb93e;}.h{fill:#f99746;}.i{fill:#ed7d2b;}.j{fill:#e8c6a7;}.k{fill:#c69d7b;}.l,.n{fill:#82b378;}.m{fill:#a8d29f;}.n{opacity:0.5;}.o{fill:#e2810e;}</style></defs><g transform="translate(-1877 -3139)"><rect class="a" width="267" height="232" rx="5" transform="translate(1877 3139)"/><g transform="translate(392.447 2589.469)"><g transform="translate(1499.553 589.991)"><path class="b" d="M2095.458,727.772a12.212,12.212,0,0,1,.243-4.82c.677-2.191,3.511-7.967,2.614-9.974s-4.142-7.408-6.144-7.392,2.1,5.78,1.541,7.58-.751,1.947-1.446,1.788-1.755-3.606-2.107-2.8-.147,6.139.514,7.471-.7,8.841-.7,8.841Z" transform="translate(-2000.313 -688.031)"/><path class="c" d="M1900.724,827.785s-4.431-2.517-7.858-1.456c0,0-6.8,19.589-10.547,33.994a302.64,302.64,0,0,1-11.614-35.436s-8.718,12.039-11.865,20.044,15.66,36.09,22.958,38.294c7.617,2.3,6.23,0,10.527-2.463C1893.709,878.969,1898.13,870.04,1900.724,827.785Z" transform="translate(-1803.979 -789.214)"/><path class="d" d="M2261.977,1776.561a1.318,1.318,0,0,0,.128.053h25.448c-.238-.906-1.071-2.556-3.982-3.029-3.949-.642-10.793-2.935-12.32-7.988-.048-.161-.092-.328-.13-.5-1.212-5.4-10.026,1.654-10.026,1.654s-.028.214-.064.581C2260.825,1769.316,2260.3,1775.723,2261.977,1776.561Z" transform="translate(-2145.184 -1584.916)"/><path class="e" d="M1612.088,1207.846a33.078,33.078,0,0,0-5.538,3.359,15.494,15.494,0,0,0-.849-2.923c-21.839-5.688-80.3-5.224-80.3-5.224s-12.568,3.148-8.877,21.443c3.4,16.836,59.524,9.04,77.654,3.989q.636-.177,1.232-.371c-1.442,10.727,8.659,26.029,17.5,40.112,7.29,11.609,13.494,23.36,13.494,23.36,3.661,2.271,15.952.958,15.952.958C1634.592,1270.608,1612.088,1207.846,1612.088,1207.846Z" transform="translate(-1513.373 -1109.946)"/><g transform="translate(50.52 0)"><path class="f" d="M1832.213,732.262s6.27,20.071,15.687,24.56c0,0,.891-6.09-.633-10.721,1.243-.952,2.345-1.836,3.306-2.631a61.3,61.3,0,0,0,4.808-4.359l-1.4-9.787-.95-6.64a30.256,30.256,0,0,1-4.69,4.369A24.86,24.86,0,0,1,1832.213,732.262Z" transform="translate(-1832.213 -702.532)"/><path class="b" d="M1933.283,751.455s-3.158,8.689,2.231,16.417a61.3,61.3,0,0,0,4.808-4.359l-1.4-9.787A19.692,19.692,0,0,0,1933.283,751.455Z" transform="translate(-1917.154 -726.934)"/><path class="f" d="M1947.655,677.328s-13.884-9.212-8.015-17.77,8.031-15.511,17.144-9.991,8.578,9.954,7.313,13.287S1951.417,679.5,1947.655,677.328Z" transform="translate(-1922.098 -638.848)"/><path class="e" d="M1929.461,592.784c-.061-.233-.321-.524-1.024-.919a3.231,3.231,0,0,1,1.54.275c.651-.947,2.071-2.492,4.016-2.083a2.448,2.448,0,0,0-1.83,1.074c3.028-1.108,8.066-.526,19.488,6.252,15.052,8.933,4.9,16.591,2.273,16.811s-6.1-5.611-10.026-7.158-7.365,3.647-9.02,3.78-.491-.966-1.836-2.612-2.939,1.192-3.368,3.336-4.039,3.479-4.039,3.479l-1.118-3.814c-1.118-3.815,2.079-16.085,4.34-17.927C1929.057,593.116,1929.258,592.95,1929.461,592.784Z" transform="translate(-1910.305 -589.991)"/></g><path class="g" d="M1566.967,810.934a136.162,136.162,0,0,1-8.482,17.009c-1.8,2.97-3.727,5.7-5.491,8.078l-.167.227c-3.475,4.675-8.789,5.962-8.624,7.135.332,2.352-5.608,7.994-15.4,10.5-11.365,2.9-24.536,4.3-27.865.46-1.113-1.29-1.484-3.663-1.36-6.612.243-6.213,8.063-31.231,8.063-31.231,13.377-40.482,51.685-40.482,51.685-40.482s-.751,9.7,8.652,13.064C1567.989,789.1,1570.185,803.312,1566.967,810.934Z" transform="translate(-1499.553 -747.763)"/><path class="f" d="M2091.6,1195.635a65.246,65.246,0,0,1,7.33,3.021c1.578.988,5.21,5.959,5.618,7.7s.888,6.864.59,7.721-4.7-2.428-5.68-5.521-3.494-3.925-3.4-3.759,1.384,4.126,1.112,4.3-1.444.466-2.505-1.743-3.166-3.825-2.769-6.108A18.546,18.546,0,0,0,2091.6,1195.635Z" transform="translate(-2001.69 -1103.658)"/><path class="c" d="M1694.473,979.984c.332,2.352-5.8,7.668-15.594,10.17-8.17-16.254,7.365-53.464,7.365-53.464l16.829,35.606C1699.522,977.09,1694.306,978.793,1694.473,979.984Z" transform="translate(-1649.632 -884.038)"/><path class="c" d="M1807.848,993.767c-1.8,2.97-3.727,5.7-5.491,8.078l-.167.227a13.588,13.588,0,0,1-5.755-4.3c-2.651-3.743-2.869-26.245-2.869-26.245S1804.418,984.935,1807.848,993.767Z" transform="translate(-1748.916 -913.586)"/><path class="g" d="M1775.376,865.258s-26.248-7.348-39.721-10.563c1.187-15.9,5.078-63.954-19.4-44.716,0,0-1.85,51.5,10.011,61.936,0,0,38.076.807,45.326.362a11.079,11.079,0,0,0,2.659-1.838A7.248,7.248,0,0,0,1775.376,865.258Z" transform="translate(-1683.257 -772.776)"/></g><g transform="translate(1501.091 710.292)"><rect class="h" width="67.456" height="17.725" rx="8.863" transform="translate(0.706)"/><path class="i" d="M1581.787,1460.851v1.843a3.811,3.811,0,0,1-3.8,3.8h-59.856a3.811,3.811,0,0,1-3.8-3.8v-2H1580.7A3.994,3.994,0,0,1,1581.787,1460.851Z" transform="translate(-1513.625 -1448.769)"/><g transform="translate(0 17.634)"><path class="j" d="M1524.8,1498.349l-2.7,10.22,0,0-11.233,42.536h-1.181l6.492-35.29c.006-.035.016-.07.022-.108l3.211-17.453Z" transform="translate(-1509.68 -1498.257)"/></g><path class="k" d="M1561.177,1498.349l-2.7,10.22,0,0c-.155.076-5.067,2.616-5.9,7.138l3.211-17.453Z" transform="translate(-1546.062 -1480.623)"/><g transform="translate(53.047 17.634)"><path class="j" d="M1874.1,1551.107h-1.181l-9.152-34.65v-.006l-2.081-7.879,0,0-2.7-10.22,5.39-.092,1.837,9.979,1.374,7.474c.006.038.016.073.022.108Z" transform="translate(-1858.979 -1498.257)"/></g><path class="j" d="M1838.185,1586.759c-.006,0-.013,0-.019-.013C1838.141,1586.7,1838.147,1586.712,1838.185,1586.759Z" transform="translate(-1788.267 -1555.65)"/><path class="k" d="M1866.206,1508.236a14.877,14.877,0,0,0-2.445,8.215l-2.081-7.879,0,0-2.7-10.22,5.39-.092Z" transform="translate(-1805.932 -1480.623)"/></g></g><g transform="translate(1482.055 3015.333)"><g transform="translate(608.355 173.388)"><g transform="translate(1.958 33.44)"><path class="g" d="M1104.425,868.58q-.453.294-.915.577-1,.613-2.036,1.175-.8.432-1.611.833-1.238.608-2.525,1.146-.213.091-.43.179-.375.153-.755.3h-15.878a.9.9,0,0,1-.422-.1.92.92,0,0,1-.49-.724l0-.041v-2.473a.92.92,0,0,1,.916-.869Z" transform="translate(-1079.36 -868.58)"/><g transform="translate(13.918)"><path class="c" d="M1232.7,868.58v3.732q-.214.091-.43.179V868.58Z" transform="translate(-1228.639 -868.58)"/><rect class="c" width="0.431" height="4.211"/></g></g><g transform="translate(2.864 29.228)"><path class="g" d="M1116.931,831.88l-.008.007c-.146.131-.294.262-.442.39s-.286.249-.43.37q-1.167.995-2.4,1.9-.214.16-.43.314-.883.635-1.8,1.227h-23.242a.92.92,0,0,1-.916-.87c0-.015,0-.031,0-.047V832.8c0-.016,0-.031,0-.047a.92.92,0,0,1,.807-.863.857.857,0,0,1,.109-.007Z" transform="translate(-1087.26 -831.88)"/><g transform="translate(13.918)"><path class="c" d="M1338.56,831.88v.4c-.142.125-.286.249-.43.37v-.767Z" transform="translate(-1323.258 -831.88)"/><path class="c" d="M1313.88,831.88v2.671q-.214.16-.43.314V831.88Z" transform="translate(-1301.41 -831.88)"/><rect class="c" width="0.431" height="4.211" transform="translate(7.697 0)"/><rect class="c" width="0.431" height="4.211" transform="translate(3.631 0)"/><rect class="c" width="0.43" height="4.211" transform="translate(0 0)"/></g></g><g transform="translate(0.079 25.023)"><path class="g" d="M1098.095,795.25v1.626q.489-.511.957-1.04v-.586Zm0,0v1.626q.489-.511.957-1.04c.146-.162.289-.324.43-.488l.06-.069a.3.3,0,0,0,.025-.03Zm0,0v1.626q.489-.511.957-1.04c.146-.162.289-.324.43-.488l.06-.069a.3.3,0,0,0,.025-.03Zm0,0v1.626q.489-.511.957-1.04c.146-.162.289-.324.43-.488l.06-.069a.3.3,0,0,0,.025-.03Zm0,0v1.626q.489-.511.957-1.04c.146-.162.289-.324.43-.488l.06-.069a.3.3,0,0,0,.025-.03Zm0,0v1.626q.489-.511.957-1.04c.146-.162.289-.324.43-.488l.06-.069a.3.3,0,0,0,.025-.03Zm0,0v1.626q.489-.511.957-1.04v-.586Zm-34.188,0a.876.876,0,0,0-.2.022l-.027.006a.923.923,0,0,0-.677.73c0,.024-.007.048-.009.073l0,.038c0,.016,0,.031,0,.047v2.378c0,.016,0,.032,0,.047a.585.585,0,0,0,.006.063,1.044,1.044,0,0,0,.024.123.918.918,0,0,0,.886.684h31.531l.008-.007c.256-.229.511-.462.761-.7q.219-.2.432-.411c.348-.333.691-.674,1.026-1.02q.219-.222.43-.448.489-.511.957-1.04c.146-.162.289-.324.43-.488l.06-.069a.3.3,0,0,0,.025-.03Z" transform="translate(-1062.99 -795.249)"/><path class="c" d="M1084.107,799.456h-20.294a.869.869,0,0,1-.817-.869c0-.016,0-.031,0-.047v-2.378c0-.016,0-.031,0-.047s0-.026,0-.039a.892.892,0,0,1,.635-.808l.035-.008a.729.729,0,0,1,.145-.015h17.8c0,.01,0,.02.007.03a7.536,7.536,0,0,0,2.477,4.175Z" transform="translate(-1062.994 -795.245)"/><g transform="translate(13.919 0)"><path class="c" d="M1365.56,795.25v1.626q-.212.225-.43.448V795.25Z" transform="translate(-1344.374 -795.249)"/><path class="c" d="M1352.861,795.25v3.094q-.214.208-.432.411v-3.5Z" transform="translate(-1333.132 -795.249)"/><rect class="c" width="0.431" height="4.211" transform="translate(17.551)"/><rect class="c" width="0.431" height="4.211" transform="translate(14.872)"/><rect class="c" width="0.431" height="4.211" transform="translate(12.04)"/><rect class="c" width="0.431" height="4.211" transform="translate(7.697)"/><rect class="c" width="0.431" height="4.211" transform="translate(3.631)"/><rect class="c" width="0.43" height="4.211"/><path class="c" d="M1377.65,795.25v.1c-.141.164-.285.326-.43.488v-.586Z" transform="translate(-1355.077 -795.249)"/></g></g><g transform="translate(0 20.842)"><path class="g" d="M1098.931,758.914v-.1h-.139v4.182h.164c.109-.124.216-.249.321-.375q.219-.256.43-.516v-3.186Zm2.927.3a1.021,1.021,0,0,0-.083-.1l-.008-.008-.007-.008c-.007-.008-.015-.015-.022-.022l-.03-.027c-.01-.009-.02-.018-.03-.026s-.042-.033-.065-.049a.78.78,0,0,0-.093-.055h0l-.045-.023-.023-.01-.024-.009a.841.841,0,0,0-.167-.047l-.013,0-.011,0-.017,0-.017,0h-.033a.691.691,0,0,0-.07,0h-37.881a.92.92,0,0,0-.916.87c0,.015,0,.031,0,.047V762.1c0,.016,0,.031,0,.047s0,.055.007.083a.923.923,0,0,0,.745.771l.045.008a1.027,1.027,0,0,0,.119.008h35.714a.277.277,0,0,0,.025-.03c.109-.124.216-.249.321-.375q.219-.256.43-.516c.154-.185.305-.373.454-.561s.29-.365.432-.55c.08-.1.158-.2.235-.3q.217-.284.43-.574c.057-.076.114-.153.167-.23q.22-.3.43-.6a.281.281,0,0,0,.024-.032h0Zm-2.927-.3v-.1h-.139v4.182h.164c.109-.124.216-.249.321-.375q.219-.256.43-.516v-3.186Z" transform="translate(-1062.3 -758.81)"/><path class="c" d="M1083.414,763.021h-20.294l-.048,0-.052-.005a.883.883,0,0,1-.717-.862c0-.016,0-.031,0-.047v-2.378c0-.016,0-.031,0-.047a.868.868,0,0,1,.817-.869h17.8c.008.034.016.069.025.1a7.52,7.52,0,0,0,2.431,4.078Z" transform="translate(-1062.301 -758.81)"/><g transform="translate(13.918)"><rect class="c" width="0.431" height="4.211" transform="translate(20.756 0)"/><rect class="c" width="0.431" height="4.211" transform="translate(19.299 0)"/><rect class="c" width="0.431" height="4.211" transform="translate(17.551 0)"/><rect class="c" width="0.431" height="4.211" transform="translate(14.872 0)"/><rect class="c" width="0.431" height="4.211" transform="translate(12.04 0)"/><rect class="c" width="0.431" height="4.211" transform="translate(7.697 0)"/><rect class="c" width="0.431" height="4.211" transform="translate(3.631 0)"/><rect class="c" width="0.431" height="4.211" transform="translate(0 0)"/><rect class="c" width="0.431" height="4.211" transform="translate(22.143 0)"/><path class="c" d="M1384.94,758.81v3.29q-.212.26-.43.516V758.81Z" transform="translate(-1361.45 -758.81)"/><path class="c" d="M1392.652,758.81v2.179c-.141.185-.285.367-.432.55V758.81Z" transform="translate(-1368.276 -758.81)"/><path class="c" d="M1398.46,758.825v1.286q-.214.289-.43.574V758.81h.269a.691.691,0,0,1,.07,0h.033l.017,0,.017,0h.011Z" transform="translate(-1373.419 -758.81)"/></g></g><g transform="translate(1.957 16.735)"><path class="g" d="M1119.074,723.937v.443c-.052.086-.1.172-.157.257-.141.232-.283.461-.43.69-.054.088-.11.177-.167.264q-.212.332-.43.66c-.077.118-.156.234-.235.351q-.212.317-.43.628v0h-36.947a.9.9,0,0,1-.422-.1.915.915,0,0,1-.424-.463.866.866,0,0,1-.066-.262l0-.041V723.89a.9.9,0,0,1,.07-.3.919.919,0,0,1,.846-.566h37.881a.83.83,0,0,1,.162.015.8.8,0,0,1,.167.047.919.919,0,0,1,.43.343A.9.9,0,0,1,1119.074,723.937Z" transform="translate(-1079.359 -723.02)"/><path class="c" d="M1100.468,727.231h-20.294a.739.739,0,0,1-.377-.1.926.926,0,0,1-.437-.725c0-.014,0-.027,0-.041s0-.031,0-.047v-2.378c0-.016,0-.031,0-.047a.869.869,0,0,1,.817-.869h17.8a7.6,7.6,0,0,0,2.368,4.107Z" transform="translate(-1079.355 -723.02)"/><g transform="translate(13.918)"><rect class="c" width="0.43" height="4.211" transform="translate(20.756 0)"/><rect class="c" width="0.431" height="4.211" transform="translate(19.299 0)"/><rect class="c" width="0.431" height="4.211" transform="translate(17.551 0)"/><rect class="c" width="0.43" height="4.211" transform="translate(14.872 0)"/><rect class="c" width="0.431" height="4.211" transform="translate(12.04 0)"/><rect class="c" width="0.431" height="4.211" transform="translate(7.697 0)"/><rect class="c" width="0.431" height="4.211" transform="translate(3.631 0)"/><rect class="c" width="0.431" height="4.211" transform="translate(0 0)"/><rect class="c" width="0.431" height="4.211" transform="translate(22.143 0)"/><rect class="c" width="0.431" height="4.211" transform="translate(23.06 0)"/><path class="c" d="M1409.71,723.02V726.6q-.212.317-.43.628V723.02Z" transform="translate(-1385.335 -723.02)"/><path class="c" d="M1415.51,723.035v2.556q-.212.332-.43.66V723.02h.268A.827.827,0,0,1,1415.51,723.035Z" transform="translate(-1390.469 -723.02)"/><path class="c" d="M1420.72,723.9v1.212c-.141.232-.283.461-.43.69V723.56A.92.92,0,0,1,1420.72,723.9Z" transform="translate(-1395.082 -723.498)"/></g></g><g transform="translate(5.053 12.523)"><path class="g" d="M1145.784,686.6c-.107.228-.216.454-.327.681-.055.115-.11.228-.168.342q-.212.429-.43.85c-.077.151-.155.3-.235.452-.141.271-.286.539-.431.806s-.3.537-.448.8h-36.5a.919.919,0,0,1-.916-.87c0-.015,0-.031,0-.047v-2.378c0-.016,0-.031,0-.047a.921.921,0,0,1,.807-.863.846.846,0,0,1,.109-.007h33.013s0,0,0,0h4.865a.947.947,0,0,1,.162.015.93.93,0,0,1,.168.047c.016.007.032.013.048.021a.26.26,0,0,1,.035.017.635.635,0,0,1,.093.054l.038.026a.088.088,0,0,1,.013.009l.029.023A.75.75,0,0,1,1145.784,686.6Z" transform="translate(-1106.33 -686.32)"/><path class="c" d="M1127.443,690.535h-20.295a.869.869,0,0,1-.817-.869c0-.016,0-.031,0-.047V687.24c0-.016,0-.031,0-.047a.884.884,0,0,1,.721-.863.663.663,0,0,1,.1-.007h17.8v.007A7.544,7.544,0,0,0,1127.443,690.535Z" transform="translate(-1106.33 -686.323)"/><g transform="translate(13.918)"><rect class="c" width="0.431" height="4.211" transform="translate(20.756 0.001)"/><rect class="c" width="0.43" height="4.211" transform="translate(19.299 0.001)"/><rect class="c" width="0.431" height="4.211" transform="translate(17.551 0.001)"/><rect class="c" width="0.431" height="4.211" transform="translate(14.872 0.001)"/><rect class="c" width="0.431" height="4.211" transform="translate(12.04 0.001)"/><rect class="c" width="0.431" height="4.211" transform="translate(7.697 0.001)"/><rect class="c" width="0.43" height="4.211" transform="translate(3.631 0.001)"/><rect class="c" width="0.431" height="4.211" transform="translate(0 0.001)"/><rect class="c" width="0.431" height="4.211" transform="translate(22.143 0.001)"/><rect class="c" width="0.431" height="4.211" transform="translate(23.06 0.001)"/><path class="c" d="M1436.681,686.33v2.6c-.141.271-.286.539-.431.806V686.33Z" transform="translate(-1412.306 -686.329)"/><path class="c" d="M1442.49,686.335v1.287q-.212.429-.43.85V686.32h.269A.944.944,0,0,1,1442.49,686.335Z" transform="translate(-1417.449 -686.32)"/><path class="c" d="M1447.6,687.077c-.107.228-.216.454-.327.681v-.9c.016.007.032.013.048.021a.245.245,0,0,1,.034.017.629.629,0,0,1,.093.054l.038.026a.088.088,0,0,1,.013.009l.029.023A.8.8,0,0,1,1447.6,687.077Z" transform="translate(-1422.061 -686.798)"/></g></g><g transform="translate(0.08 8.319)"><path class="g" d="M1102.708,650.6v2.378a.908.908,0,0,1-.157.512.923.923,0,0,1-.43.343.853.853,0,0,1-.168.047l-.053.008-.043,0h-37.947a.919.919,0,0,1-.915-.869c0-.016,0-.031,0-.047V650.6c0-.016,0-.031,0-.047a.919.919,0,0,1,.915-.869h37.881l.049,0a.889.889,0,0,1,.113.013.845.845,0,0,1,.168.047.792.792,0,0,1,.079.036c.016.008.032.016.047.025l.005,0,.046.029.008.005a.471.471,0,0,1,.041.03.8.8,0,0,1,.091.08.37.37,0,0,1,.026.027l0,.005.016.017,0,0,.027.033c.012.016.025.033.036.05A.907.907,0,0,1,1102.708,650.6Z" transform="translate(-1062.994 -649.686)"/><path class="c" d="M1084.107,653.9h-20.294a.869.869,0,0,1-.817-.869c0-.016,0-.031,0-.047V650.6c0-.016,0-.031,0-.047a.869.869,0,0,1,.817-.869h17.8c.007.032.015.064.023.1a7.509,7.509,0,0,0,2.461,4.107Z" transform="translate(-1062.994 -649.686)"/><g transform="translate(13.918)"><rect class="c" width="0.431" height="4.211" transform="translate(20.756 0)"/><rect class="c" width="0.431" height="4.211" transform="translate(19.299 0)"/><rect class="c" width="0.431" height="4.211" transform="translate(17.551 0)"/><rect class="c" width="0.431" height="4.211" transform="translate(14.872 0)"/><rect class="c" width="0.431" height="4.211" transform="translate(12.04 0)"/><rect class="c" width="0.431" height="4.211" transform="translate(7.697 0)"/><rect class="c" width="0.431" height="4.211" transform="translate(3.631 0)"/><rect class="c" width="0.43" height="4.211" transform="translate(0 0)"/><rect class="c" width="0.431" height="4.211" transform="translate(22.143 0)"/><rect class="c" width="0.431" height="4.211" transform="translate(23.06 0)"/><rect class="c" width="0.43" height="4.211" transform="translate(23.945 0)"/><path class="c" d="M1399.15,649.7v4.182a.9.9,0,0,1-.162.015h-.269v-4.211h.269A.884.884,0,0,1,1399.15,649.7Z" transform="translate(-1374.109 -649.686)"/><path class="c" d="M1404.363,650.568v3.4a.923.923,0,0,1-.43.343v-4.088A.922.922,0,0,1,1404.363,650.568Z" transform="translate(-1378.724 -650.163)"/></g></g><g transform="translate(2.865 4.205)"><path class="g" d="M1126.976,614.755v2.378a.907.907,0,0,1-.157.512.922.922,0,0,1-.43.343.862.862,0,0,1-.168.047.9.9,0,0,1-.162.015h-37.881a.9.9,0,0,1-.409-.1.92.92,0,0,1-.5-.735c0-.012,0-.025,0-.037s0-.031,0-.047v-2.378c0-.016,0-.031,0-.047a.92.92,0,0,1,.807-.863.846.846,0,0,1,.108-.007h37.881a.912.912,0,0,1,.162.015.871.871,0,0,1,.168.047.922.922,0,0,1,.43.343A.907.907,0,0,1,1126.976,614.755Z" transform="translate(-1087.262 -613.838)"/><path class="c" d="M1108.375,618.049H1088.08a.737.737,0,0,1-.365-.1.926.926,0,0,1-.449-.735c0-.012,0-.025,0-.037s0-.031,0-.047v-2.378c0-.016,0-.031,0-.047a.884.884,0,0,1,.72-.863.671.671,0,0,1,.1-.007h17.8l0,.007a7.587,7.587,0,0,0,2.374,4.107C1108.3,617.985,1108.335,618.017,1108.375,618.049Z" transform="translate(-1087.262 -613.838)"/><g transform="translate(13.918)"><rect class="c" width="0.431" height="4.211" transform="translate(20.756 0)"/><rect class="c" width="0.431" height="4.211" transform="translate(19.299 0)"/><rect class="c" width="0.431" height="4.211" transform="translate(17.551 0)"/><rect class="c" width="0.431" height="4.211" transform="translate(14.872 0)"/><rect class="c" width="0.431" height="4.211" transform="translate(12.04 0)"/><rect class="c" width="0.431" height="4.211" transform="translate(7.697 0)"/><rect class="c" width="0.431" height="4.211" transform="translate(3.631 0)"/><rect class="c" width="0.43" height="4.211" transform="translate(0 0)"/><rect class="c" width="0.431" height="4.211" transform="translate(22.143 0)"/><rect class="c" width="0.431" height="4.211" transform="translate(23.06 0)"/><rect class="c" width="0.431" height="4.211" transform="translate(23.945 0)"/><path class="c" d="M1423.417,613.852v4.182a.9.9,0,0,1-.162.015h-.269v-4.211h.269A.9.9,0,0,1,1423.417,613.852Z" transform="translate(-1398.375 -613.837)"/><path class="c" d="M1428.63,614.719v3.4a.924.924,0,0,1-.43.343v-4.088A.925.925,0,0,1,1428.63,614.719Z" transform="translate(-1402.991 -614.314)"/></g></g><g transform="translate(0.08 0)"><path class="g" d="M1102.708,578.116v2.378a.908.908,0,0,1-.157.512.923.923,0,0,1-.43.343.853.853,0,0,1-.168.047l-.053.008-.03,0-.03,0-.049,0h-37.881a.92.92,0,0,1-.915-.87c0-.016,0-.031,0-.047v-2.378c0-.016,0-.031,0-.047a.919.919,0,0,1,.915-.869h37.881a.9.9,0,0,1,.161.015.862.862,0,0,1,.168.047.924.924,0,0,1,.43.343A.907.907,0,0,1,1102.708,578.116Z" transform="translate(-1062.994 -577.2)"/><path class="c" d="M1084.107,581.411h-20.294a.869.869,0,0,1-.817-.87c0-.016,0-.031,0-.047v-2.378c0-.016,0-.031,0-.047a.869.869,0,0,1,.817-.869h17.8a7.546,7.546,0,0,0,2.484,4.2Z" transform="translate(-1062.994 -577.2)"/><g transform="translate(13.918)"><rect class="c" width="0.431" height="4.211" transform="translate(20.756 0)"/><rect class="c" width="0.431" height="4.211" transform="translate(19.299 0)"/><rect class="c" width="0.431" height="4.211" transform="translate(17.551 0)"/><rect class="c" width="0.431" height="4.211" transform="translate(14.872 0)"/><rect class="c" width="0.431" height="4.211" transform="translate(12.04 0)"/><rect class="c" width="0.431" height="4.211" transform="translate(7.697 0)"/><rect class="c" width="0.431" height="4.211" transform="translate(3.631 0)"/><rect class="c" width="0.431" height="4.211" transform="translate(0 0)"/><rect class="c" width="0.431" height="4.211" transform="translate(22.143 0)"/><rect class="c" width="0.431" height="4.211" transform="translate(23.06 0)"/><rect class="c" width="0.43" height="4.211" transform="translate(23.945 0)"/><path class="c" d="M1399.15,577.215V581.4a.9.9,0,0,1-.162.015h-.269V577.2h.269A.9.9,0,0,1,1399.15,577.215Z" transform="translate(-1374.108 -577.2)"/><path class="c" d="M1404.363,578.081v3.4a.922.922,0,0,1-.43.343v-4.088A.923.923,0,0,1,1404.363,578.081Z" transform="translate(-1378.724 -577.676)"/></g></g></g><g transform="translate(558.468 136.243)"><path class="i" d="M1104.054,341.924l-18.424-20.562a3.242,3.242,0,0,0-5.656,2.163v51.812s24.08,3.34,24.08,0Z" transform="translate(-1028.059 -312.617)"/><g transform="translate(0 0)"><g transform="translate(8.162)"><path class="l" d="M1005.681,402.195l8.069-1.031a42.564,42.564,0,0,1,.475-11.69,41.021,41.021,0,0,1,6.534-16.441c6.554-9.491,26.94-15.491,26.94-15.491l-.049-1.191-.744-.05a2.956,2.956,0,0,1,.726-.382l-.116-2.817a9.964,9.964,0,0,0-2.332.326,16.009,16.009,0,0,1,2.324-.517l-.061-1.481c-29.806,2.031-38.793,20.457-41.266,34.532A55.9,55.9,0,0,0,1005.681,402.195Z" transform="translate(-970.134 -340.194)"/><path class="m" d="M698.728,314.379l35.547,1.155a58.78,58.78,0,0,1,2.35-15.506,72.63,72.63,0,0,1,2.413-7.307c9.642-23.668,37-27.953,37-27.953l-31.028-11.235c-14.694,1.718-24.742,9.225-31.608,18.412C699.959,289.94,698.728,314.379,698.728,314.379Z" transform="translate(-698.728 -253.534)"/><path class="n" d="M698.728,456.406l35.547,1.155,8.069-1.031a42.564,42.564,0,0,1,.475-11.69,48.119,48.119,0,0,0-6.194-2.785q-.951-.357-1.85-.727c-22.995-9.482-21.563-25.792-21.37-27.354C699.959,431.967,698.728,456.406,698.728,456.406Z" transform="translate(-698.728 -395.561)"/><g transform="translate(2.254 1.817)"><path class="l" d="M762.271,269.37l-.094,0c-.267,0-6.62.171-14.622,4.368a45.877,45.877,0,0,0-12.7,9.937,52.816,52.816,0,0,0-4.1,5.155,60.635,60.635,0,0,0-4.016,6.621q-.974,1.857-1.857,3.828c-.052.117-.1.234-.155.351q-.668,1.513-1.281,3.089a94.07,94.07,0,0,0-4.178,13.652c-.15.708-.286,1.417-.4,2.122-.081.477-.154.953-.217,1.422a29.231,29.231,0,0,0-.274,3.488c-.008.582.008,1.144.052,1.681v.009l.279,2.789.06.6.088.889.091.9.032.321.041.413,22.518-1.368,1.859-.112.215-.013,1.219-.075,1.216-.073h.006l4.525-.275-.137-.6a41.942,41.942,0,0,1,.256-15.8c.042-.211.087-.422.134-.636q.212-.974.482-1.975c.139-.514.289-1.034.453-1.556q.263-.838.561-1.661c.024-.067.048-.134.073-.2a39.282,39.282,0,0,1,3.405-7.027c.072-.118.146-.235.219-.352a39.51,39.51,0,0,1,2.738-3.828q.537-.666,1.109-1.314.947-1.078,1.981-2.1,1.289-1.276,2.712-2.465l.013-.01a50.767,50.767,0,0,1,7.979-5.424c.247-.138.5-.273.748-.407l.006,0,.007,0a69.448,69.448,0,0,1,12.477-5.1l1.534-.468Zm18.951,9.686a65.8,65.8,0,0,0-9.386,4.282,49.477,49.477,0,0,0-10.746,7.977q-.625.62-1.219,1.258-1.3,1.394-2.451,2.881a40.393,40.393,0,0,0-6.446,12.1c-.054.157-.1.316-.154.474-.025.075-.049.149-.072.225-.314,1.008-.583,2-.809,2.971q-.12.511-.224,1.013h0c-.081.389-.156.772-.226,1.153a45.766,45.766,0,0,0-.708,9.232,37.755,37.755,0,0,0,.515,5.494l-4.616.28-1.213.073-.259.016-1.819.11-6.632.4h-.008l-14.784.9-.138-1.383-.351-3.52q-.06-.74-.047-1.592a36.849,36.849,0,0,1,.926-7.032c.352-1.635.8-3.4,1.352-5.264,1.306-4.453,2.706-7.968,2.721-8q.69-1.778,1.452-3.474.069-.155.141-.31.905-2,1.912-3.871,1.4-2.627,3-5.011a52.38,52.38,0,0,1,4.678-6.03,44.823,44.823,0,0,1,12.386-9.714,38.662,38.662,0,0,1,11.878-4.026,8.186,8.186,0,0,1,3.973.364l17.366,6.093A1.023,1.023,0,0,1,781.222,279.056Z" transform="translate(-718.373 -269.37)"/></g><path class="l" d="M858.958,416.513c.215,5.2,3.393,8.221,8.6,8.006s10.461-3.582,10.246-8.784-3.225-8.2-8.428-7.981S858.743,411.31,858.958,416.513Z" transform="translate(-840.564 -390.045)"/></g><g transform="translate(0 27.901)"><path class="h" d="M759.685,498.056v41.855q-1,.613-2.036,1.175-.8.432-1.611.833-1.238.608-2.525,1.146-.214.091-.43.179-.375.153-.755.3-.549.214-1.106.414-1.234.446-2.515.829c-.3.092-.606.179-.911.264q-1.763.5-3.606.875a18.783,18.783,0,0,1-2.868.513,62.734,62.734,0,0,1-6.951.664c-.391.017-.786.03-1.182.039q-.866.022-1.748.022-1.059,0-2.129-.024a98.467,98.467,0,0,1-18.178-2.107q-.678-.145-1.353-.3a76.581,76.581,0,0,1-15.07-5.045c-.118-.054-.235-.109-.351-.164q-1.749-.825-3.4-1.742V498.056a1.41,1.41,0,0,1,1.406-1.406h65.912c.053,0,.1,0,.155.008A1.412,1.412,0,0,1,759.685,498.056Z" transform="translate(-683.69 -496.65)"/><g transform="translate(10.67 3.828)"><path class="i" d="M723.174,530.01H722a.176.176,0,0,0,0,.352h1.172a.176.176,0,0,0,0-.352Zm2.343,0h-1.172a.176.176,0,0,0,0,.352h1.172a.176.176,0,1,0,0-.352Zm2.457.042a.173.173,0,0,0-.112-.042H726.69a.176.176,0,0,0-.007.351h1.179a.176.176,0,0,0,.176-.177A.169.169,0,0,0,727.974,530.052Zm2.231-.042h-1.172a.176.176,0,0,0,0,.352h1.172a.176.176,0,0,0,0-.352Zm2.343,0h-1.172a.176.176,0,0,0,0,.352h1.172a.176.176,0,0,0,0-.352Zm2.343,0H733.72a.176.176,0,0,0,0,.352h1.172a.176.176,0,0,0,0-.352Zm2.344,0h-1.172a.176.176,0,0,0,0,.352h1.172a.176.176,0,1,0,0-.352Zm2.345,0h-1.173a.177.177,0,0,0-.176.176.177.177,0,0,0,.176.177h1.173a.176.176,0,0,0,0-.352Zm2.343,0h-1.172a.176.176,0,0,0,0,.352h1.172a.176.176,0,0,0,0-.352Zm2.344,0H743.1a.176.176,0,0,0,0,.352h1.172a.176.176,0,0,0,0-.352Zm2.343,0h-1.172a.176.176,0,0,0,0,.352h1.172a.176.176,0,0,0,0-.352Zm2.343,0h-1.172a.176.176,0,0,0,0,.352h1.172a.176.176,0,1,0,0-.352Zm2.345,0h-1.173a.176.176,0,0,0,0,.352H751.3a.176.176,0,0,0,0-.352Zm2.344,0H752.47a.176.176,0,0,0-.176.16h0a.069.069,0,0,0,0,.015.177.177,0,0,0,.177.177h1.172a.176.176,0,0,0,0-.352Zm2.343,0h-1.172a.176.176,0,0,0,0,.352h1.172a.176.176,0,0,0,0-.352Zm2.344,0h-1.172a.176.176,0,0,0,0,.352h1.172a.176.176,0,0,0,0-.352Zm2.343,0H759.5a.176.176,0,0,0,0,.352h1.172a.176.176,0,0,0,0-.352Zm2.343,0h-1.172a.057.057,0,0,0-.02,0,.175.175,0,0,0,0,.348.058.058,0,0,0,.02,0h1.172a.176.176,0,1,0,0-.352Zm2.345,0h-1.172a.176.176,0,1,0,0,.352h1.172a.176.176,0,0,0,0-.352Zm2.344,0h-1.172a.176.176,0,0,0,0,.352H767.7a.176.176,0,0,0,0-.352Zm2.343,0h-1.172a.176.176,0,0,0,0,.352h1.172a.176.176,0,0,0,0-.352Zm2.343,0h-1.172a.176.176,0,0,0,0,.352h1.172a.176.176,0,0,0,0-.352Zm2.344,0h-1.172a.176.176,0,0,0,0,.352h1.172a.176.176,0,1,0,0-.352Zm2.345,0h-1.172a.176.176,0,1,0,0,.352h1.172a.176.176,0,0,0,0-.352Zm2.343,0h-1.172a.176.176,0,0,0,0,.352h1.172a.176.176,0,0,0,0-.352Zm1.157.557a.176.176,0,0,0-.28.212,1.04,1.04,0,0,1,.215.633v.376a.176.176,0,1,0,.351,0v-.376A1.385,1.385,0,0,0,780.579,530.567Zm-59.482-.02a.177.177,0,0,0-.247.038,1.4,1.4,0,0,0-.271.827v.4a.176.176,0,1,0,.351,0v-.4a1.035,1.035,0,0,1,.2-.619A.177.177,0,0,0,721.1,530.547Zm59.592,2.238a.176.176,0,0,0-.176.177v1.172a.176.176,0,1,0,.351,0v-1.172A.176.176,0,0,0,780.689,532.785Zm-59.934.021a.176.176,0,0,0-.176.176v1.173a.176.176,0,1,0,.351,0v-1.173A.176.176,0,0,0,720.756,532.806Zm59.934,2.324a.175.175,0,0,0-.176.176v1.172a.176.176,0,0,0,.351,0v-1.172A.175.175,0,0,0,780.689,535.13Zm-59.934.021a.175.175,0,0,0-.176.176V536.5a.176.176,0,1,0,.351,0v-1.172A.176.176,0,0,0,720.756,535.15Zm59.934,2.323a.175.175,0,0,0-.176.176v1.172a.176.176,0,1,0,.351,0v-1.172A.175.175,0,0,0,780.689,537.473Zm-59.934.021a.175.175,0,0,0-.176.176v1.172a.176.176,0,0,0,.351,0v-1.172A.176.176,0,0,0,720.756,537.494Zm59.934,2.323a.165.165,0,0,0-.048.007.175.175,0,0,0-.127.169v1.172a.175.175,0,0,0,.127.169.161.161,0,0,0,.048.007.175.175,0,0,0,.176-.176v-1.172A.176.176,0,0,0,780.689,539.817Zm-59.934.021a.175.175,0,0,0-.176.176v1.172a.176.176,0,1,0,.351,0v-1.172A.176.176,0,0,0,720.756,539.837Zm59.934,2.323a.161.161,0,0,0-.048.007.175.175,0,0,0-.127.169v1.172a.177.177,0,0,0,.127.17.161.161,0,0,0,.048.007.176.176,0,0,0,.176-.177v-1.172A.176.176,0,0,0,780.689,542.16Zm-59.934.021a.176.176,0,0,0-.176.176v1.172a.179.179,0,0,0,.176.177.177.177,0,0,0,.176-.177v-1.172A.176.176,0,0,0,720.756,542.181Zm59.934,2.323a.176.176,0,0,0-.176.176v1.173a.176.176,0,1,0,.351,0v-1.173A.176.176,0,0,0,780.689,544.5Zm-59.934.021a.176.176,0,0,0-.176.176v1.173a.176.176,0,0,0,.351,0V544.7A.176.176,0,0,0,720.756,544.524Zm59.934,2.324a.175.175,0,0,0-.176.176V548.2a.176.176,0,1,0,.351,0v-1.172A.175.175,0,0,0,780.689,546.848Zm-59.934.02a.176.176,0,0,0-.176.177v1.172a.176.176,0,1,0,.351,0v-1.172A.177.177,0,0,0,720.756,546.868Zm59.934,2.324a.175.175,0,0,0-.176.176v1.172a.176.176,0,0,0,.351,0v-1.172A.175.175,0,0,0,780.689,549.192Zm-59.87.033a.169.169,0,0,0-.064-.013.175.175,0,0,0-.176.176v1.172a.171.171,0,0,0,.023.087.176.176,0,0,0,.328-.087v-1.172A.174.174,0,0,0,720.82,549.225Zm59.87,2.31a.175.175,0,0,0-.176.176v1.172a.173.173,0,0,0,.111.163h0a.168.168,0,0,0,.063.013.175.175,0,0,0,.176-.176v-1.172A.175.175,0,0,0,780.689,551.535Zm-59.934.021a.175.175,0,0,0-.176.176V552.9a.176.176,0,0,0,.351,0v-1.172A.176.176,0,0,0,720.756,551.556Zm59.934,2.323a.176.176,0,0,0-.176.176v1.172a.176.176,0,1,0,.351,0v-1.172A.176.176,0,0,0,780.689,553.878Zm-59.934.021a.176.176,0,0,0-.176.176v1.172a.176.176,0,1,0,.351,0v-1.172A.176.176,0,0,0,720.756,553.9Zm60.107,2.473a.168.168,0,0,0-.056-.1.172.172,0,0,0-.234,0,.168.168,0,0,0-.056.1.177.177,0,0,0,0,.025v1.173a.176.176,0,1,0,.351,0V556.4A.186.186,0,0,0,780.863,556.372Zm-60.107-.13a.176.176,0,0,0-.176.176v1.173a.176.176,0,1,0,.351,0v-1.173A.176.176,0,0,0,720.756,556.243Zm59.934,2.323a.176.176,0,0,0-.176.177v1.172a.176.176,0,0,0,.351,0v-1.172A.176.176,0,0,0,780.689,558.565Zm-59.934.021a.175.175,0,0,0-.176.177v1.172a.176.176,0,0,0,.176.176.159.159,0,0,0,.053-.009.174.174,0,0,0,.123-.166v-1.172A.177.177,0,0,0,720.756,558.586Zm59.934,2.324a.175.175,0,0,0-.176.176v1.172a.176.176,0,1,0,.351,0v-1.172A.175.175,0,0,0,780.689,560.91Zm-59.79.1a.175.175,0,0,0-.319.1v1.172a.176.176,0,1,0,.351,0v-1.172A.171.171,0,0,0,720.9,561.005Zm59.79,2.248a.175.175,0,0,0-.176.176V564.6a.135.135,0,0,0,.009.053.009.009,0,0,0,0,.007.168.168,0,0,0,.116.109.163.163,0,0,0,.048.007.172.172,0,0,0,.164-.116.009.009,0,0,0,0-.007.135.135,0,0,0,.009-.053v-1.172A.175.175,0,0,0,780.689,563.253Zm-59.934.021a.175.175,0,0,0-.176.176v1.172a.176.176,0,1,0,.351,0V563.45A.176.176,0,0,0,720.756,563.274Zm59.934,2.323a.161.161,0,0,0-.048.007.175.175,0,0,0-.127.169v1.172a.175.175,0,0,0,.127.169.163.163,0,0,0,.048.007.175.175,0,0,0,.176-.176v-1.172A.176.176,0,0,0,780.689,565.6Zm-59.934.021a.176.176,0,0,0-.176.176v1.172a.176.176,0,0,0,.351,0v-1.172A.176.176,0,0,0,720.756,565.617Zm59.934,2.323a.163.163,0,0,0-.048.007.175.175,0,0,0-.127.169v1.172a.176.176,0,1,0,.351,0v-1.172A.176.176,0,0,0,780.689,567.94Zm-59.934.021a.176.176,0,0,0-.176.176v.92c.116.055.233.11.351.164v-1.085A.176.176,0,0,0,720.756,567.961Zm60.1,2.461a.175.175,0,0,0-.347.039v1.172a.176.176,0,1,0,.351,0v-1.172A.144.144,0,0,0,780.86,570.422Zm-43.583,3.81h-1.172a.173.173,0,0,0-.1.034q.675.155,1.353.3a.173.173,0,0,0,.1-.157A.175.175,0,0,0,737.277,574.232Zm2.343,0h-1.172a.176.176,0,1,0,0,.351h1.172a.176.176,0,1,0,0-.351Zm2.343,0h-1.172a.176.176,0,1,0,0,.351h1.172a.176.176,0,1,0,0-.351Zm2.345,0h-1.173a.176.176,0,0,0,0,.351h1.173a.176.176,0,1,0,0-.351Zm2.344,0H745.48a.176.176,0,1,0,0,.351h1.172a.176.176,0,0,0,0-.351Zm2.343,0h-1.172a.176.176,0,1,0,0,.351H749a.176.176,0,1,0,0-.351Zm2.343,0h-1.172a.176.176,0,1,0,0,.351h1.172a.176.176,0,1,0,0-.351Zm2.344,0H752.51a.176.176,0,1,0,0,.351h1.172a.176.176,0,0,0,0-.351Zm2.345,0h-1.173a.173.173,0,0,0-.116.045.17.17,0,0,0-.06.131.176.176,0,0,0,.176.176h1.173a.176.176,0,0,0,0-.351Zm2.343,0H757.2a.176.176,0,1,0,0,.351h1.172a.176.176,0,1,0,0-.351Zm2.344,0h-1.172a.176.176,0,0,0,0,.351h1.172a.176.176,0,0,0,0-.351Zm2.343,0h-1.172a.176.176,0,1,0,0,.351h1.172a.176.176,0,1,0,0-.351Zm2.343,0h-1.172a.176.176,0,1,0,0,.351H765.4a.176.176,0,1,0,0-.351Zm2.344,0h-1.172a.176.176,0,0,0,0,.351h1.172a.176.176,0,1,0,0-.351Zm2.345,0h-1.172a.176.176,0,1,0,0,.351h1.172a.176.176,0,0,0,0-.351Zm2.343,0H771.26a.176.176,0,1,0,0,.351h1.172a.176.176,0,1,0,0-.351Zm2.344,0H773.6a.174.174,0,0,0-.174.163.045.045,0,0,0,0,.013.175.175,0,0,0,.176.176h.412c.305-.085.609-.172.911-.264A.172.172,0,0,0,774.776,574.232Z" transform="translate(-720.58 -530.01)"/></g><path class="i" d="M3.515,0h8.906a3.515,3.515,0,0,1,3.515,3.515v0a3.516,3.516,0,0,1-3.516,3.516H3.516A3.516,3.516,0,0,1,0,3.515v0A3.515,3.515,0,0,1,3.515,0Z" transform="translate(0 20.921)"/></g><g transform="translate(33.28 35.178)"><path class="o" d="M977.073,582.869c0,.036,0,.07,0,.1a22.277,22.277,0,0,1-.491,4.078c0,.008,0,.016,0,.024s0,0,0,.006q-.152.7-.35,1.4a22.1,22.1,0,0,1-.993,2.778.009.009,0,0,1,0,.007,22.162,22.162,0,0,1-1.766,3.291q-.3.465-.628.914a21.693,21.693,0,0,1-1.408,1.752q-.8.432-1.611.833-1.238.608-2.525,1.146-.213.091-.43.179-.375.153-.755.3-.549.214-1.106.414-1.234.446-2.514.829c-.3.092-.606.179-.911.264q-1.763.5-3.606.875a18.773,18.773,0,0,1-2.868.513,62.735,62.735,0,0,1-6.951.665c-.391.017-.786.03-1.182.039a22.236,22.236,0,0,1-4.2-2.091c-.158-.1-.314-.2-.469-.306a22.382,22.382,0,0,1-9.389-14.017c-.017-.083-.034-.165-.049-.249q-.077-.4-.139-.793a22.372,22.372,0,0,1,4.508-17.24,22.033,22.033,0,0,1,3.1-3.219q.723-.613,1.507-1.168.639-.456,1.318-.868l.006,0c.153-.094.308-.186.464-.275q.184-.107.372-.21a22.351,22.351,0,0,1,3.142-1.43,21.934,21.934,0,0,1,2.244-.689,22.3,22.3,0,0,1,14.535,1.309q.539.241,1.066.512.217.11.43.227.542.293,1.067.617.816.5,1.591,1.076c.118.086.235.176.351.265.211.163.42.332.627.5q.217.179.43.367.353.31.7.636l.007.007A22.1,22.1,0,0,1,971.834,568c.147.173.29.351.43.53q.634.8,1.2,1.67c.031.048.062.1.092.145.022.032.042.064.061.1.071.11.14.22.207.332q.25.408.482.83a22.563,22.563,0,0,1,1.358,2.946.016.016,0,0,1,0,.007,22.133,22.133,0,0,1,1.409,8.312Z" transform="translate(-930.747 -560.06)"/><path class="g" d="M961.9,594.305c0,.01,0,.021,0,.03a22.367,22.367,0,0,1-1.143,4.174.017.017,0,0,1,0,.007q-.207.546-.443,1.08a22.017,22.017,0,0,1-1.2,2.332q-.208.355-.43.7c-.02.032-.04.063-.061.094a21.984,21.984,0,0,1-1.958,2.586q-1.238.608-2.525,1.146-.214.091-.43.179-.375.153-.755.3-.549.214-1.106.414-1.234.446-2.515.829c-.3.092-.606.179-.911.264q-1.763.5-3.606.875a18.788,18.788,0,0,1-2.868.513,62.7,62.7,0,0,1-6.951.664c-.391.017-.786.03-1.182.039q-.866.022-1.748.022-1.059,0-2.129-.024a22.351,22.351,0,0,1-12.042-16.3c-.024-.14-.046-.281-.065-.422q-.046-.31-.083-.622a22.29,22.29,0,0,1,9.116-20.715c.155-.111.311-.22.469-.328q.69-.472,1.426-.9c.125-.073.253-.145.38-.215.286-.158.575-.309.864-.452l.006,0c.147-.073.294-.145.442-.215s.269-.124.4-.184a22.162,22.162,0,0,1,2.657-.986l.255-.075a21.886,21.886,0,0,1,2.465-.559q.659-.112,1.32-.18a22.311,22.311,0,0,1,9.035.9q.818.256,1.615.575c.145.057.288.116.43.178q.556.234,1.1.5a22.061,22.061,0,0,1,2.1,1.173q.217.134.43.279a21.765,21.765,0,0,1,2.007,1.5l.008.007c.114.1.227.193.34.292s.2.179.3.27l.127.118.224.209q.628.6,1.214,1.248a22.161,22.161,0,0,1,1.581,1.972l0,.006h0c.021.03.042.058.062.088a22.388,22.388,0,0,1,1.314,2.1q.43.781.792,1.581c.024.053.048.106.071.158.039.088.078.178.116.266l0,.007q.236.553.441,1.111c.158.43.3.863.43,1.3q.267.893.454,1.8a22.072,22.072,0,0,1,.362,2.372c.057.578.091,1.158.1,1.735,0,.036,0,.07,0,.1A22.309,22.309,0,0,1,961.9,594.305Z" transform="translate(-917.595 -567.314)"/><path class="c" d="M976.606,607.264c0-.036,0-.07,0-.1-.008-.313-.026-.625-.051-.938a20.18,20.18,0,0,0-.508-3.17c-.06-.243-.124-.484-.192-.725a20.391,20.391,0,0,0-1.343-3.48l0-.007c-.135-.275-.278-.547-.427-.818a20.593,20.593,0,0,0-1.51-2.349c-.14-.188-.285-.375-.43-.558-.1-.129-.208-.257-.313-.382l-.081-.1c-.077-.091-.154-.18-.232-.269s-.148-.168-.224-.25c-.041-.047-.085-.093-.127-.139-.1-.107-.2-.214-.3-.318a19.92,19.92,0,0,0-3.2-2.681q-.213-.145-.43-.282l-.269-.169-.011-.007a20.287,20.287,0,0,0-2.075-1.112q-.214-.1-.43-.194a20.647,20.647,0,0,0-2.515-.907,20.426,20.426,0,0,0-5.728-.81,20.115,20.115,0,0,0-5.676.834q-.868.257-1.715.594h0a20.6,20.6,0,0,0-2.341,1.106c-.238.131-.473.266-.7.406a20.467,20.467,0,0,0-1.85,1.258q-.714.544-1.374,1.148-.4.363-.778.749a20.428,20.428,0,0,0-5.693,16.5q.045.41.108.817c.011.076.023.153.036.228a20.445,20.445,0,0,0,9.361,13.985q.293.181.592.351a20.436,20.436,0,0,0,4.465,1.887q.3.088.608.165a62.749,62.749,0,0,0,6.951-.664,19.27,19.27,0,0,1-9.277-1.388q-.4-.167-.8-.351a19.184,19.184,0,0,1-10.687-14.06c-.007-.038-.013-.076-.018-.114-.052-.309-.1-.62-.131-.931a19.221,19.221,0,0,1,4.809-15.005q.406-.448.84-.87.246-.239.5-.471a19.357,19.357,0,0,1,3.621-2.578q.585-.322,1.184-.6a18.968,18.968,0,0,1,13.354-1.02,19.37,19.37,0,0,1,2.8,1.048l.015.007a18.933,18.933,0,0,1,2.823,1.626q.217.151.43.309a18.937,18.937,0,0,1,2.457,2.172l.092.1q.5.53.955,1.1c.119.148.235.3.351.451q.325.43.627.881c.148.22.293.444.43.672q.234.379.449.77c.042.077.085.155.126.233h0l0,.006c.115.213.224.429.329.647a19.048,19.048,0,0,1,1.314,3.558,18.775,18.775,0,0,1,.6,4.107c0,.034,0,.07,0,.1a19,19,0,0,1-.322,4.078c0,.009,0,.02-.006.03q-.162.856-.4,1.7l-.021.072a19.476,19.476,0,0,1-.868,2.4l0,.007a18.907,18.907,0,0,1-2.256,3.845c-.073.1-.148.193-.224.288-.018.024-.038.048-.057.072l-.07.088q-.375.463-.78.9c-.139.155-.283.306-.43.457a19.059,19.059,0,0,1-3.2,2.62c-.073.049-.148.1-.223.142q-.5.319-1.021.606t-1.074.55c-.117.056-.235.11-.355.163a18.948,18.948,0,0,1-3.019,1.063q1.844-.379,3.606-.875c.305-.085.609-.172.911-.264q1.279-.384,2.514-.829.284-.2.561-.414.675-.515,1.3-1.081c.146-.132.289-.265.43-.4q.4-.384.78-.79c.117-.126.233-.254.347-.382q.661-.747,1.246-1.556a20.1,20.1,0,0,0,2.17-3.822c.055-.126.109-.255.162-.383,0,0,0,0,0-.007a20.806,20.806,0,0,0,.716-2.061c.083-.287.159-.575.228-.863q.151-.623.264-1.25c0-.01,0-.021.006-.03.037-.208.07-.417.1-.624q.1-.671.15-1.345A19.913,19.913,0,0,0,976.606,607.264Z" transform="translate(-933.837 -584.351)"/><g transform="translate(13.073 8.814)"><path class="c" d="M1051.149,655.067a.278.278,0,0,0,0-.03,6.643,6.643,0,0,0-.435-1.564c-.044-.11-.091-.217-.138-.321a6.029,6.029,0,0,0-1.179-1.765c-.057-.057-.115-.114-.174-.168-.084-.076-.169-.149-.256-.22l-.048-.039c-.045-.036-.089-.07-.135-.1a6.094,6.094,0,0,0-1.69-.889,10.16,10.16,0,0,0-2.707-.508q-1.492-.093-3.25-.042a15.589,15.589,0,0,1-1.856-.038,4.67,4.67,0,0,1-1.307-.286,2.287,2.287,0,0,1-.872-.591c-.008-.009-.017-.02-.024-.029-.024-.027-.048-.056-.07-.085a2.646,2.646,0,0,1-.221-.318,3.578,3.578,0,0,1-.239-.483,3.37,3.37,0,0,1-.251-1.072,2.287,2.287,0,0,1,.158-1.009,2.44,2.44,0,0,1,.6-.863.145.145,0,0,1,.018-.018h0a3.651,3.651,0,0,1,1.136-.691,2.986,2.986,0,0,1,1.889-.178,2.8,2.8,0,0,1,.549.2,4.133,4.133,0,0,1,1.842,2.306l4.546-1.845a9.084,9.084,0,0,0-1.014-1.872.026.026,0,0,1,0-.007,7.079,7.079,0,0,0-.469-.588,6.373,6.373,0,0,0-4.455-2.2,8.4,8.4,0,0,0-2.743.281l-.334-.823-.356-.876-.585-1.441-.013-.031-2.516,1.023.58,1.427.69,1.7c-.1.054-.207.109-.306.166-.131.072-.258.147-.383.224a8.806,8.806,0,0,0-1.62,1.254,7.043,7.043,0,0,0-1.455,2.029,5.636,5.636,0,0,0-.536,2.293,6.723,6.723,0,0,0,1.977,4.71,5.886,5.886,0,0,0,1.555,1.021c.185.084.376.158.573.225a8.943,8.943,0,0,0,1.257.324c.065.013.132.024.2.034a11.2,11.2,0,0,0,1.253.133,32.122,32.122,0,0,0,3.258,0,11.972,11.972,0,0,1,1.773.011,4.609,4.609,0,0,1,1.3.289,2.447,2.447,0,0,1,.91.617,3.049,3.049,0,0,1,.473.7c0,.01.009.019.015.03q.065.133.124.279a2.791,2.791,0,0,1,.217,1.078,1.927,1.927,0,0,1-.01.2,2.272,2.272,0,0,1-.232.825,2.915,2.915,0,0,1-.722.907,4.367,4.367,0,0,1-1.221.716q-.238.1-.482.169l-.023.007a5.3,5.3,0,0,1-.829.171,3.058,3.058,0,0,1-1.346-.135l-.1-.036-.018-.007a3.187,3.187,0,0,1-1.11-.752,4.827,4.827,0,0,1-.995-1.612l-4.152,1.687h0l-.389.158a7.843,7.843,0,0,0,1.787,2.778,6.814,6.814,0,0,0,1.359,1.019,6,6,0,0,0,1,.45,7.191,7.191,0,0,0,2.675.386,11.316,11.316,0,0,0,2.755-.456l.225.553.949,2.34,2.5-1.016-.538-1.324-.643-1.581a10.166,10.166,0,0,0,2.334-1.63,7.372,7.372,0,0,0,.883-.994.023.023,0,0,0,0-.007,6.378,6.378,0,0,0,.521-.838c.028-.053.054-.106.079-.161a5.626,5.626,0,0,0,.548-2.28A5.494,5.494,0,0,0,1051.149,655.067Z" transform="translate(-1031.51 -636.86)"/></g></g></g></g><path class="g" d="M639.207,696.02a1.66,1.66,0,1,1,1.66,1.66A1.66,1.66,0,0,1,639.207,696.02Z" transform="translate(-79.408 -507.526)"/></g></g></svg>