<svg xmlns="http://www.w3.org/2000/svg" width="68.177" height="57.48" viewBox="0 0 68.177 57.48"><defs><style>.a{fill:#333;}</style></defs><path class="a" d="M66.18,26.173H60.831c-.162,0-.322.007-.481.017A16.939,16.939,0,0,0,56.4,23.551a12.7,12.7,0,1,0-16.569-1.657H30.488a12.693,12.693,0,1,0-17.331,1.072,16.863,16.863,0,0,0-5.33,3.225c-.159-.01-.319-.017-.481-.017H2a2,2,0,0,0-2,2v10.7a2,2,0,0,0,2,2h.142V55.983a2,2,0,0,0,2,2h59.9a2,2,0,0,0,2-2V40.865h.142a2,2,0,0,0,2-2V28.17A2,2,0,0,0,66.18,26.173Zm-2,10.7H60.831a3.351,3.351,0,1,1,0-6.7h3.351ZM40.365,13.194a8.7,8.7,0,1,1,8.7,8.7A8.709,8.709,0,0,1,40.365,13.194Zm-19.112-8.7a8.7,8.7,0,1,1-8.7,8.7A8.709,8.709,0,0,1,21.252,4.495ZM3.995,30.168H7.346a3.351,3.351,0,1,1,0,6.7H3.995Zm2.139,10.7H7.346A7.341,7.341,0,0,0,12.09,27.917h.047a12.892,12.892,0,0,1,6.975-2.028H38.139a16.941,16.941,0,0,0-6.048,12.978V53.985h-17.4v-8.7a2,2,0,0,0-3.995,0v8.7H6.134Zm55.909,13.12H57.48v-8.7a2,2,0,0,0-3.995,0v8.7h-17.4V38.867a12.985,12.985,0,0,1,19.98-10.933,7.342,7.342,0,0,0,4.765,12.93h1.211Zm0,0" transform="translate(0 -0.5)"/></svg>