<svg xmlns="http://www.w3.org/2000/svg" xmlns:xlink="http://www.w3.org/1999/xlink" width="140" height="118" viewBox="0 0 140 118"><defs><style>.a{fill:none;}.b{opacity:0.69;clip-path:url(#a);}.c{fill:#dad9df;}</style><clipPath id="a"><rect class="a" width="140" height="118"/></clipPath></defs><g class="b"><g transform="translate(-160 -2261)"><circle class="c" cx="2" cy="2" r="2" transform="translate(160 2261)"/></g><g transform="translate(-150 -2261)"><circle class="c" cx="2" cy="2" r="2" transform="translate(160 2261)"/></g><g transform="translate(-140 -2261)"><circle class="c" cx="2" cy="2" r="2" transform="translate(160 2261)"/></g><g transform="translate(-130 -2261)"><circle class="c" cx="2" cy="2" r="2" transform="translate(160 2261)"/></g><g transform="translate(-120 -2261)"><circle class="c" cx="2" cy="2" r="2" transform="translate(160 2261)"/></g><g transform="translate(-110 -2261)"><circle class="c" cx="2" cy="2" r="2" transform="translate(160 2261)"/></g><g transform="translate(-100 -2261)"><circle class="c" cx="2" cy="2" r="2" transform="translate(160 2261)"/></g><g transform="translate(-90 -2261)"><circle class="c" cx="2" cy="2" r="2" transform="translate(160 2261)"/></g><g transform="translate(-80 -2261)"><circle class="c" cx="2" cy="2" r="2" transform="translate(160 2261)"/></g><g transform="translate(-70 -2261)"><circle class="c" cx="2" cy="2" r="2" transform="translate(160 2261)"/></g><g transform="translate(-60 -2261)"><circle class="c" cx="2" cy="2" r="2" transform="translate(160 2261)"/></g><g transform="translate(-50 -2261)"><circle class="c" cx="2" cy="2" r="2" transform="translate(160 2261)"/></g><g transform="translate(-40 -2261)"><circle class="c" cx="2" cy="2" r="2" transform="translate(160 2261)"/></g><g transform="translate(-30 -2261)"><circle class="c" cx="2" cy="2" r="2" transform="translate(160 2261)"/></g><g transform="translate(-160 -2249)"><circle class="c" cx="2" cy="2" r="2" transform="translate(160 2261)"/></g><g transform="translate(-150 -2249)"><circle class="c" cx="2" cy="2" r="2" transform="translate(160 2261)"/></g><g transform="translate(-140 -2249)"><circle class="c" cx="2" cy="2" r="2" transform="translate(160 2261)"/></g><g transform="translate(-130 -2249)"><circle class="c" cx="2" cy="2" r="2" transform="translate(160 2261)"/></g><g transform="translate(-120 -2249)"><circle class="c" cx="2" cy="2" r="2" transform="translate(160 2261)"/></g><g transform="translate(-110 -2249)"><circle class="c" cx="2" cy="2" r="2" transform="translate(160 2261)"/></g><g transform="translate(-100 -2249)"><circle class="c" cx="2" cy="2" r="2" transform="translate(160 2261)"/></g><g transform="translate(-90 -2249)"><circle class="c" cx="2" cy="2" r="2" transform="translate(160 2261)"/></g><g transform="translate(-80 -2249)"><circle class="c" cx="2" cy="2" r="2" transform="translate(160 2261)"/></g><g transform="translate(-70 -2249)"><circle class="c" cx="2" cy="2" r="2" transform="translate(160 2261)"/></g><g transform="translate(-60 -2249)"><circle class="c" cx="2" cy="2" r="2" transform="translate(160 2261)"/></g><g transform="translate(-50 -2249)"><circle class="c" cx="2" cy="2" r="2" transform="translate(160 2261)"/></g><g transform="translate(-40 -2249)"><circle class="c" cx="2" cy="2" r="2" transform="translate(160 2261)"/></g><g transform="translate(-30 -2249)"><circle class="c" cx="2" cy="2" r="2" transform="translate(160 2261)"/></g><g transform="translate(-160 -2237)"><circle class="c" cx="2" cy="2" r="2" transform="translate(160 2261)"/></g><g transform="translate(-150 -2237)"><circle class="c" cx="2" cy="2" r="2" transform="translate(160 2261)"/></g><g transform="translate(-140 -2237)"><circle class="c" cx="2" cy="2" r="2" transform="translate(160 2261)"/></g><g transform="translate(-130 -2237)"><circle class="c" cx="2" cy="2" r="2" transform="translate(160 2261)"/></g><g transform="translate(-120 -2237)"><circle class="c" cx="2" cy="2" r="2" transform="translate(160 2261)"/></g><g transform="translate(-110 -2237)"><circle class="c" cx="2" cy="2" r="2" transform="translate(160 2261)"/></g><g transform="translate(-100 -2237)"><circle class="c" cx="2" cy="2" r="2" transform="translate(160 2261)"/></g><g transform="translate(-90 -2237)"><circle class="c" cx="2" cy="2" r="2" transform="translate(160 2261)"/></g><g transform="translate(-80 -2237)"><circle class="c" cx="2" cy="2" r="2" transform="translate(160 2261)"/></g><g transform="translate(-70 -2237)"><circle class="c" cx="2" cy="2" r="2" transform="translate(160 2261)"/></g><g transform="translate(-60 -2237)"><circle class="c" cx="2" cy="2" r="2" transform="translate(160 2261)"/></g><g transform="translate(-50 -2237)"><circle class="c" cx="2" cy="2" r="2" transform="translate(160 2261)"/></g><g transform="translate(-40 -2237)"><circle class="c" cx="2" cy="2" r="2" transform="translate(160 2261)"/></g><g transform="translate(-30 -2237)"><circle class="c" cx="2" cy="2" r="2" transform="translate(160 2261)"/></g><g transform="translate(-160 -2225)"><circle class="c" cx="2" cy="2" r="2" transform="translate(160 2261)"/></g><g transform="translate(-150 -2225)"><circle class="c" cx="2" cy="2" r="2" transform="translate(160 2261)"/></g><g transform="translate(-140 -2225)"><circle class="c" cx="2" cy="2" r="2" transform="translate(160 2261)"/></g><g transform="translate(-130 -2225)"><circle class="c" cx="2" cy="2" r="2" transform="translate(160 2261)"/></g><g transform="translate(-120 -2225)"><circle class="c" cx="2" cy="2" r="2" transform="translate(160 2261)"/></g><g transform="translate(-110 -2225)"><circle class="c" cx="2" cy="2" r="2" transform="translate(160 2261)"/></g><g transform="translate(-100 -2225)"><circle class="c" cx="2" cy="2" r="2" transform="translate(160 2261)"/></g><g transform="translate(-90 -2225)"><circle class="c" cx="2" cy="2" r="2" transform="translate(160 2261)"/></g><g transform="translate(-80 -2225)"><circle class="c" cx="2" cy="2" r="2" transform="translate(160 2261)"/></g><g transform="translate(-70 -2225)"><circle class="c" cx="2" cy="2" r="2" transform="translate(160 2261)"/></g><g transform="translate(-60 -2225)"><circle class="c" cx="2" cy="2" r="2" transform="translate(160 2261)"/></g><g transform="translate(-50 -2225)"><circle class="c" cx="2" cy="2" r="2" transform="translate(160 2261)"/></g><g transform="translate(-40 -2225)"><circle class="c" cx="2" cy="2" r="2" transform="translate(160 2261)"/></g><g transform="translate(-30 -2225)"><circle class="c" cx="2" cy="2" r="2" transform="translate(160 2261)"/></g><g transform="translate(-160 -2213)"><circle class="c" cx="2" cy="2" r="2" transform="translate(160 2261)"/></g><g transform="translate(-150 -2213)"><circle class="c" cx="2" cy="2" r="2" transform="translate(160 2261)"/></g><g transform="translate(-140 -2213)"><circle class="c" cx="2" cy="2" r="2" transform="translate(160 2261)"/></g><g transform="translate(-130 -2213)"><circle class="c" cx="2" cy="2" r="2" transform="translate(160 2261)"/></g><g transform="translate(-120 -2213)"><circle class="c" cx="2" cy="2" r="2" transform="translate(160 2261)"/></g><g transform="translate(-110 -2213)"><circle class="c" cx="2" cy="2" r="2" transform="translate(160 2261)"/></g><g transform="translate(-100 -2213)"><circle class="c" cx="2" cy="2" r="2" transform="translate(160 2261)"/></g><g transform="translate(-90 -2213)"><circle class="c" cx="2" cy="2" r="2" transform="translate(160 2261)"/></g><g transform="translate(-80 -2213)"><circle class="c" cx="2" cy="2" r="2" transform="translate(160 2261)"/></g><g transform="translate(-70 -2213)"><circle class="c" cx="2" cy="2" r="2" transform="translate(160 2261)"/></g><g transform="translate(-60 -2213)"><circle class="c" cx="2" cy="2" r="2" transform="translate(160 2261)"/></g><g transform="translate(-50 -2213)"><circle class="c" cx="2" cy="2" r="2" transform="translate(160 2261)"/></g><g transform="translate(-40 -2213)"><circle class="c" cx="2" cy="2" r="2" transform="translate(160 2261)"/></g><g transform="translate(-30 -2213)"><circle class="c" cx="2" cy="2" r="2" transform="translate(160 2261)"/></g><g transform="translate(-160 -2201)"><circle class="c" cx="2" cy="2" r="2" transform="translate(160 2261)"/></g><g transform="translate(-150 -2201)"><circle class="c" cx="2" cy="2" r="2" transform="translate(160 2261)"/></g><g transform="translate(-140 -2201)"><circle class="c" cx="2" cy="2" r="2" transform="translate(160 2261)"/></g><g transform="translate(-130 -2201)"><circle class="c" cx="2" cy="2" r="2" transform="translate(160 2261)"/></g><g transform="translate(-120 -2201)"><circle class="c" cx="2" cy="2" r="2" transform="translate(160 2261)"/></g><g transform="translate(-110 -2201)"><circle class="c" cx="2" cy="2" r="2" transform="translate(160 2261)"/></g><g transform="translate(-100 -2201)"><circle class="c" cx="2" cy="2" r="2" transform="translate(160 2261)"/></g><g transform="translate(-90 -2201)"><circle class="c" cx="2" cy="2" r="2" transform="translate(160 2261)"/></g><g transform="translate(-80 -2201)"><circle class="c" cx="2" cy="2" r="2" transform="translate(160 2261)"/></g><g transform="translate(-70 -2201)"><circle class="c" cx="2" cy="2" r="2" transform="translate(160 2261)"/></g><g transform="translate(-60 -2201)"><circle class="c" cx="2" cy="2" r="2" transform="translate(160 2261)"/></g><g transform="translate(-50 -2201)"><circle class="c" cx="2" cy="2" r="2" transform="translate(160 2261)"/></g><g transform="translate(-40 -2201)"><circle class="c" cx="2" cy="2" r="2" transform="translate(160 2261)"/></g><g transform="translate(-30 -2201)"><circle class="c" cx="2" cy="2" r="2" transform="translate(160 2261)"/></g><g transform="translate(-160 -2189)"><circle class="c" cx="2" cy="2" r="2" transform="translate(160 2261)"/></g><g transform="translate(-150 -2189)"><circle class="c" cx="2" cy="2" r="2" transform="translate(160 2261)"/></g><g transform="translate(-140 -2189)"><circle class="c" cx="2" cy="2" r="2" transform="translate(160 2261)"/></g><g transform="translate(-130 -2189)"><circle class="c" cx="2" cy="2" r="2" transform="translate(160 2261)"/></g><g transform="translate(-120 -2189)"><circle class="c" cx="2" cy="2" r="2" transform="translate(160 2261)"/></g><g transform="translate(-110 -2189)"><circle class="c" cx="2" cy="2" r="2" transform="translate(160 2261)"/></g><g transform="translate(-100 -2189)"><circle class="c" cx="2" cy="2" r="2" transform="translate(160 2261)"/></g><g transform="translate(-90 -2189)"><circle class="c" cx="2" cy="2" r="2" transform="translate(160 2261)"/></g><g transform="translate(-80 -2189)"><circle class="c" cx="2" cy="2" r="2" transform="translate(160 2261)"/></g><g transform="translate(-70 -2189)"><circle class="c" cx="2" cy="2" r="2" transform="translate(160 2261)"/></g><g transform="translate(-60 -2189)"><circle class="c" cx="2" cy="2" r="2" transform="translate(160 2261)"/></g><g transform="translate(-50 -2189)"><circle class="c" cx="2" cy="2" r="2" transform="translate(160 2261)"/></g><g transform="translate(-40 -2189)"><circle class="c" cx="2" cy="2" r="2" transform="translate(160 2261)"/></g><g transform="translate(-30 -2189)"><circle class="c" cx="2" cy="2" r="2" transform="translate(160 2261)"/></g><g transform="translate(-160 -2177)"><circle class="c" cx="2" cy="2" r="2" transform="translate(160 2261)"/></g><g transform="translate(-150 -2177)"><circle class="c" cx="2" cy="2" r="2" transform="translate(160 2261)"/></g><g transform="translate(-140 -2177)"><circle class="c" cx="2" cy="2" r="2" transform="translate(160 2261)"/></g><g transform="translate(-130 -2177)"><circle class="c" cx="2" cy="2" r="2" transform="translate(160 2261)"/></g><g transform="translate(-120 -2177)"><circle class="c" cx="2" cy="2" r="2" transform="translate(160 2261)"/></g><g transform="translate(-110 -2177)"><circle class="c" cx="2" cy="2" r="2" transform="translate(160 2261)"/></g><g transform="translate(-100 -2177)"><circle class="c" cx="2" cy="2" r="2" transform="translate(160 2261)"/></g><g transform="translate(-90 -2177)"><circle class="c" cx="2" cy="2" r="2" transform="translate(160 2261)"/></g><g transform="translate(-80 -2177)"><circle class="c" cx="2" cy="2" r="2" transform="translate(160 2261)"/></g><g transform="translate(-70 -2177)"><circle class="c" cx="2" cy="2" r="2" transform="translate(160 2261)"/></g><g transform="translate(-60 -2177)"><circle class="c" cx="2" cy="2" r="2" transform="translate(160 2261)"/></g><g transform="translate(-50 -2177)"><circle class="c" cx="2" cy="2" r="2" transform="translate(160 2261)"/></g><g transform="translate(-40 -2177)"><circle class="c" cx="2" cy="2" r="2" transform="translate(160 2261)"/></g><g transform="translate(-30 -2177)"><circle class="c" cx="2" cy="2" r="2" transform="translate(160 2261)"/></g><g transform="translate(-160 -2165)"><circle class="c" cx="2" cy="2" r="2" transform="translate(160 2261)"/></g><g transform="translate(-150 -2165)"><circle class="c" cx="2" cy="2" r="2" transform="translate(160 2261)"/></g><g transform="translate(-140 -2165)"><circle class="c" cx="2" cy="2" r="2" transform="translate(160 2261)"/></g><g transform="translate(-130 -2165)"><circle class="c" cx="2" cy="2" r="2" transform="translate(160 2261)"/></g><g transform="translate(-120 -2165)"><circle class="c" cx="2" cy="2" r="2" transform="translate(160 2261)"/></g><g transform="translate(-110 -2165)"><circle class="c" cx="2" cy="2" r="2" transform="translate(160 2261)"/></g><g transform="translate(-100 -2165)"><circle class="c" cx="2" cy="2" r="2" transform="translate(160 2261)"/></g><g transform="translate(-90 -2165)"><circle class="c" cx="2" cy="2" r="2" transform="translate(160 2261)"/></g><g transform="translate(-80 -2165)"><circle class="c" cx="2" cy="2" r="2" transform="translate(160 2261)"/></g><g transform="translate(-70 -2165)"><circle class="c" cx="2" cy="2" r="2" transform="translate(160 2261)"/></g><g transform="translate(-60 -2165)"><circle class="c" cx="2" cy="2" r="2" transform="translate(160 2261)"/></g><g transform="translate(-50 -2165)"><circle class="c" cx="2" cy="2" r="2" transform="translate(160 2261)"/></g><g transform="translate(-40 -2165)"><circle class="c" cx="2" cy="2" r="2" transform="translate(160 2261)"/></g><g transform="translate(-30 -2165)"><circle class="c" cx="2" cy="2" r="2" transform="translate(160 2261)"/></g><g transform="translate(-160 -2153)"><circle class="c" cx="2" cy="2" r="2" transform="translate(160 2261)"/></g><g transform="translate(-150 -2153)"><circle class="c" cx="2" cy="2" r="2" transform="translate(160 2261)"/></g><g transform="translate(-140 -2153)"><circle class="c" cx="2" cy="2" r="2" transform="translate(160 2261)"/></g><g transform="translate(-130 -2153)"><circle class="c" cx="2" cy="2" r="2" transform="translate(160 2261)"/></g><g transform="translate(-120 -2153)"><circle class="c" cx="2" cy="2" r="2" transform="translate(160 2261)"/></g><g transform="translate(-110 -2153)"><circle class="c" cx="2" cy="2" r="2" transform="translate(160 2261)"/></g><g transform="translate(-100 -2153)"><circle class="c" cx="2" cy="2" r="2" transform="translate(160 2261)"/></g><g transform="translate(-90 -2153)"><circle class="c" cx="2" cy="2" r="2" transform="translate(160 2261)"/></g><g transform="translate(-80 -2153)"><circle class="c" cx="2" cy="2" r="2" transform="translate(160 2261)"/></g><g transform="translate(-70 -2153)"><circle class="c" cx="2" cy="2" r="2" transform="translate(160 2261)"/></g><g transform="translate(-60 -2153)"><circle class="c" cx="2" cy="2" r="2" transform="translate(160 2261)"/></g><g transform="translate(-50 -2153)"><circle class="c" cx="2" cy="2" r="2" transform="translate(160 2261)"/></g><g transform="translate(-40 -2153)"><circle class="c" cx="2" cy="2" r="2" transform="translate(160 2261)"/></g><g transform="translate(-30 -2153)"><circle class="c" cx="2" cy="2" r="2" transform="translate(160 2261)"/></g></g></svg>