<svg xmlns="http://www.w3.org/2000/svg" width="84.45" height="52.78" viewBox="0 0 84.45 52.78"><defs><style>.a{fill:#333;}</style></defs><g transform="translate(0 0)"><g transform="translate(12.311 3.737)"><g transform="translate(0 0)"><path class="a" d="M129.011,151.111c-1.657-3.455-7.587-8.252-13.315-12.886-3.2-2.583-6.214-5.025-8.139-6.95a1.759,1.759,0,0,0-1.84-.412c-1.186.429-1.918.76-2.495,1.017a5.819,5.819,0,0,1-2.361.647,1.759,1.759,0,0,0-1.288.771c-2.488,3.719-5.064,3.4-6.784,2.826-.549-.183-.647-.419-.7-.644-.369-1.545,1.485-5.141,3.888-7.544,5.718-5.722,8.667-7.154,14.895-4.37,7.066,3.16,14.145,5.634,14.216,5.658a1.76,1.76,0,1,0,1.158-3.325c-.07-.025-7.009-2.449-13.934-5.549-8.068-3.607-12.5-1.232-18.818,5.1-2.407,2.407-5.676,7.277-4.831,10.848a4.352,4.352,0,0,0,3.023,3.17c3.987,1.316,7.625.056,10.335-3.54a8.883,8.883,0,0,0,2.643-.837c.331-.148.718-.32,1.232-.528,2.013,1.89,4.729,4.089,7.59,6.4,5.173,4.184,11.038,8.927,12.358,11.672a2.062,2.062,0,0,1-.524,2.643,1.939,1.939,0,0,1-2.168.426,1.759,1.759,0,0,0-2.748,1.636,2.126,2.126,0,0,1-1.348,1.981,2.7,2.7,0,0,1-2.741.063,1.759,1.759,0,0,0-2.952,1.122,3.343,3.343,0,0,1-2.076,2.7,1.855,1.855,0,0,1-2.02-.313,1.78,1.78,0,0,0-1.608-.408,1.757,1.757,0,0,0-1.235,1.108c-.067.176-.218.6-1.865.6a10.131,10.131,0,0,1-4.31-1.474c-1.235-.813-8.98-6.591-15.669-12.193-.94-.792-2.565-2.488-4-3.987-1.274-1.33-2.439-2.537-3.037-3.044a1.76,1.76,0,1,0-2.273,2.688c.545.461,1.6,1.576,2.766,2.79,1.569,1.64,3.191,3.336,4.282,4.251,6.552,5.486,14.427,11.408,16,12.439a13.5,13.5,0,0,0,6.246,2.048,6.056,6.056,0,0,0,3.994-1.175,5.477,5.477,0,0,0,4-.042,6.931,6.931,0,0,0,3.663-3.381,6.8,6.8,0,0,0,4.416-.637,5.97,5.97,0,0,0,2.938-3.068,5.754,5.754,0,0,0,4.036-1.446A5.594,5.594,0,0,0,129.011,151.111Z" transform="translate(-74.642 -118.658)"/></g></g><g transform="translate(17.593 7.036)"><g transform="translate(0 0)"><path class="a" d="M124.26,138.663H108.425a1.759,1.759,0,0,0,0,3.519H124.26a1.759,1.759,0,1,0,0-3.519Z" transform="translate(-106.666 -138.663)"/></g></g><g transform="translate(63.471 31.665)"><path class="a" d="M393.175,288.758a1.755,1.755,0,0,0-2.442-.478l-5.144,3.455a1.76,1.76,0,0,0,1.964,2.921L392.7,291.2A1.761,1.761,0,0,0,393.175,288.758Z" transform="translate(-384.811 -287.977)"/></g><g transform="translate(47.506 29.906)"><g transform="translate(0 0)"><path class="a" d="M301.423,288.252c-1.26-.992-6.893-6.76-10.377-10.391a1.76,1.76,0,0,0-2.541,2.435c.9.943,8.881,9.258,10.736,10.722a1.752,1.752,0,0,0,1.087.377,1.778,1.778,0,0,0,1.386-.672A1.758,1.758,0,0,0,301.423,288.252Z" transform="translate(-288.016 -277.317)"/></g></g><g transform="translate(42.226 35.188)"><path class="a" d="M267.662,318.52c-2.108-1.686-7.4-7.312-8.6-8.614a1.761,1.761,0,1,0-2.593,2.382c.063.067,6.383,6.89,8.994,8.98a1.76,1.76,0,0,0,2.2-2.748Z" transform="translate(-256.005 -309.337)"/></g><g transform="translate(35.189 38.702)"><g transform="translate(0 0)"><path class="a" d="M225.034,339.856c-2.509-2.115-7.643-7.579-8.646-8.653a1.76,1.76,0,0,0-2.572,2.4c1.443,1.545,6.355,6.753,8.948,8.941a1.76,1.76,0,1,0,2.27-2.692Z" transform="translate(-213.343 -330.644)"/></g></g><g transform="translate(0 0)"><path class="a" d="M20.564,100c-3.016-2.857-15.074-3.783-18.7-4A1.758,1.758,0,0,0,0,97.762v31.669a1.76,1.76,0,0,0,1.759,1.759H12.316a1.758,1.758,0,0,0,1.671-1.214c.257-.788,6.32-19.4,7.118-28.544A1.75,1.75,0,0,0,20.564,100Zm-9.532,27.668H3.519V99.648c5.655.447,11.756,1.418,13.973,2.495C16.559,109.849,12.34,123.54,11.031,127.671Z" transform="translate(0 -96.003)"/></g><g transform="translate(59.881 3.518)"><g transform="translate(0 0)"><path class="a" d="M385.856,117.33c-13.815,0-21.479,3.536-21.8,3.684a1.75,1.75,0,0,0-.939,1.094,1.774,1.774,0,0,0,.193,1.429c2.175,3.5,8.983,22.946,10.292,27.689a1.759,1.759,0,0,0,1.7,1.291h10.556a1.76,1.76,0,0,0,1.759-1.759V119.089A1.758,1.758,0,0,0,385.856,117.33ZM384.1,149h-7.481c-1.668-5.433-6.594-19.6-9.342-25.455A57.3,57.3,0,0,1,384.1,120.87Z" transform="translate(-363.046 -117.33)"/></g></g></g></svg>