<svg xmlns="http://www.w3.org/2000/svg" width="83.763" height="83.763" viewBox="0 0 83.763 83.763"><defs><style>.a{fill:rgba(224,231,255,0.2);stroke:rgba(37,95,153,0.3);}.b{fill:#3b5999;}.c{fill:#fff;}.d{stroke:none;}.e{fill:none;}</style></defs><g transform="translate(0 0)"><g class="a" transform="translate(0 0)"><rect class="d" width="83.763" height="83.763" rx="5"/><rect class="e" x="0.5" y="0.5" width="82.763" height="82.763" rx="4.5"/></g><g transform="translate(26 26)"><path class="b" d="M27.683,0H3.955A3.958,3.958,0,0,0,0,3.955V27.683a3.959,3.959,0,0,0,3.955,3.955H27.683a3.96,3.96,0,0,0,3.955-3.955V3.955A3.959,3.959,0,0,0,27.683,0Z"/><path class="c" d="M18.887,14.387V10.432c0-1.091.886-.989,1.977-.989h1.977V4.5H18.887a5.931,5.931,0,0,0-5.932,5.932v3.955H9V19.33h3.955V30.206h5.932V19.33h2.966l1.977-4.943Z" transform="translate(2.864 1.432)"/></g></g></svg>