<svg xmlns="http://www.w3.org/2000/svg" width="83.763" height="83.763" viewBox="0 0 83.763 83.763"><defs><style>.a{fill:rgba(224,231,255,0.2);stroke:rgba(37,95,153,0.3);}.b{fill:#fbbd00;}.c{fill:#0f9d58;}.d{fill:#31aa52;}.e{fill:#3c79e6;}.f{fill:#cf2d48;}.g{fill:#eb4132;}.h{stroke:none;}.i{fill:none;}</style></defs><g transform="translate(-0.248 0)"><g class="a" transform="translate(0.248 0)"><rect class="h" width="83.763" height="83.763" rx="5"/><rect class="i" x="0.5" y="0.5" width="82.763" height="82.763" rx="4.5"/></g><g transform="translate(27.248 28)"><path class="b" d="M6.659,108.859A7.5,7.5,0,0,1,7.72,105v-4.789H2.931a14.212,14.212,0,0,0,0,17.288H7.72v-4.789A7.5,7.5,0,0,1,6.659,108.859Z" transform="translate(0 -94.654)"/><path class="c" d="M199.329,374.017,196,377.347l3.329,3.329a14.1,14.1,0,0,0,8.644-2.931v-4.784H203.19A7.545,7.545,0,0,1,199.329,374.017Z" transform="translate(-185.124 -352.266)"/><path class="d" d="M57.612,325.477l-4.789,4.789a14.431,14.431,0,0,0,1.23,1.4,14.112,14.112,0,0,0,10.044,4.16v-6.659A7.55,7.55,0,0,1,57.612,325.477Z" transform="translate(-49.892 -307.417)"/><path class="e" d="M270.2,200.58a14.325,14.325,0,0,0-.233-2.573l-.125-.682H256v6.659h6.739a7.512,7.512,0,0,1-2.879,3.087l4.784,4.784a14.432,14.432,0,0,0,1.4-1.229A14.112,14.112,0,0,0,270.2,200.58Z" transform="translate(-241.795 -186.375)"/><path class="f" d="M204.665,8.869l.589.589,4.708-4.708-.589-.589A14.112,14.112,0,0,0,199.329,0L196,3.329l3.329,3.329A7.5,7.5,0,0,1,204.665,8.869Z" transform="translate(-185.124 0)"/><path class="g" d="M64.1,6.659V0A14.112,14.112,0,0,0,54.051,4.16a14.417,14.417,0,0,0-1.229,1.4l4.789,4.789A7.55,7.55,0,0,1,64.1,6.659Z" transform="translate(-49.891 0)"/></g></g></svg>