<svg xmlns="http://www.w3.org/2000/svg" width="180" height="63.702" viewBox="0 0 180 63.702"><defs><style>.a{fill:#fd0c15;}.a,.b{fill-rule:evenodd;}.b{fill:#f3ae12;}</style></defs><g transform="translate(-11.3 -4.8)"><path class="a" d="M181.4,29.7a3.4,3.4,0,1,1,3.4,3.5,3.337,3.337,0,0,1-3.4-3.5Zm3.4,2.8a2.7,2.7,0,1,0-2.6-2.7,2.669,2.669,0,0,0,2.6,2.7Zm-.5-1.2h-.7V28.2h1.3a1.077,1.077,0,0,1,.8.2.909.909,0,0,1,.4.8.792.792,0,0,1-.5.8l.6,1.4h-.8l-.5-1.2h-.5v1.1Zm0-1.7h.4c.2,0,.3,0,.4-.1a.52.52,0,0,0,.2-.4c0-.1-.1-.3-.2-.3a.6.6,0,0,0-.4-.1h-.4v.9Z"/><path class="a" d="M132.9,6.1l-.9,6.1a10.08,10.08,0,0,0-5.1-1.5c-4.2,0-7.2,4.3-7.2,10.4,0,4.2,2,6.8,5.3,6.8a11.51,11.51,0,0,0,4.8-1.4l-1,6.4a16.616,16.616,0,0,1-5,.8c-6.1,0-9.9-4.6-9.9-12,0-10,5.2-16.9,12.8-16.9a10.319,10.319,0,0,1,2.6.3l2.4.6a4.234,4.234,0,0,1,1.2.4Z"/><path class="a" d="M114.1,10.2a1.268,1.268,0,0,0-.6-.1c-1.8,0-2.9,1-4.7,3.7l.5-3.4h-5.1L100.8,33h5.7c2.1-13.9,2.6-16.2,5.3-16.2h.4a22.226,22.226,0,0,1,2.2-6.6Z"/><path class="a" d="M80.2,32.7a12.906,12.906,0,0,1-4.1.8c-2.9,0-4.5-1.7-4.5-5a18.321,18.321,0,0,1,.2-2.1l.4-2.2.3-1.8L74.9,7h5.6l-.7,3.3h2.9L82,15.9H79.1l-1.5,9.4a3.445,3.445,0,0,0-.1.9c0,1.2.6,1.7,1.9,1.7a5.419,5.419,0,0,0,1.5-.2l-.7,5Z"/><path class="a" d="M57.8,17.5c0,2.9,1.3,4.8,4.3,6.3,2.3,1.1,2.7,1.5,2.7,2.5,0,1.4-1,2.1-3.2,2.1a16.15,16.15,0,0,1-5.1-.9l-.8,5.2.3.1,1,.2a5.419,5.419,0,0,0,1.5.2c1.3.1,2.4.2,3.1.2,6,0,8.7-2.4,8.7-7.5,0-3.1-1.1-4.9-4-6.3-2.4-1.1-2.6-1.4-2.6-2.5,0-1.2.9-1.8,2.8-1.8a35.133,35.133,0,0,1,4.1.4l.8-5.2a30.227,30.227,0,0,0-5-.5c-6.4-.1-8.6,3.3-8.6,7.5Z"/><path class="a" d="M178.1,33h-5.4l.3-2.2a6.665,6.665,0,0,1-5.2,2.5c-4.2,0-6.9-3.7-6.9-9.4,0-7.5,4.2-13.9,9.2-13.9,2.2,0,3.8,1,5.4,3.1l1.2-8h5.6L178.1,33Zm-8.3-5.3c2.7,0,4.5-3.1,4.5-7.6,0-2.9-1.1-4.5-3-4.5-2.6,0-4.4,3.2-4.4,7.6-.1,3,.9,4.5,2.9,4.5Z"/><path class="a" d="M98.2,32.5a18.994,18.994,0,0,1-5.8.9c-6.3,0-9.6-3.5-9.6-10.2,0-7.8,4.2-13.5,9.9-13.5,4.7,0,7.6,3.2,7.6,8.3a25.754,25.754,0,0,1-.7,5.6H88.2a2.252,2.252,0,0,0-.1.7c0,2.7,1.7,4,5,4A14.516,14.516,0,0,0,99,26.9l-.8,5.6ZM95,19a5.384,5.384,0,0,0,.1-1.1A2.58,2.58,0,0,0,92.4,15c-1.8,0-3.1,1.4-3.6,4.1H95V19Z"/><path class="a" d="M35.1,33H29.4l3.2-21.4L25.4,33H21.5l-.4-21.2L17.6,33H12.3L16.7,5.2h8.2l.2,17.2L30.6,5.2h8.9Z"/><path class="a" d="M49.7,22.9a6.638,6.638,0,0,0-1.3-.1c-3.2,0-4.8,1.2-4.8,3.4a2.054,2.054,0,0,0,2.1,2.3c2.2.1,3.9-2.2,4-5.6ZM53.8,33H49.1l.1-2.4c-1.4,1.9-3.3,2.7-6,2.7-3.1,0-5.2-2.5-5.2-6.2,0-5.5,3.7-8.7,10-8.7a19.525,19.525,0,0,1,2.3.2,5.05,5.05,0,0,0,.2-1.5c0-1.5-1-2.1-3.6-2.1a17.171,17.171,0,0,0-4.7.7l-.8.3-.5.2.8-5.1a20.755,20.755,0,0,1,6.8-1.2c4.9,0,7.4,2.3,7.4,6.6a27.61,27.61,0,0,1-.5,4.5l-1.1,8-.2,1.4-.2,1.1-.1.8V33Z"/><path class="a" d="M142.7,22.9a6.638,6.638,0,0,0-1.3-.1c-3.2,0-4.9,1.2-4.9,3.4a2.054,2.054,0,0,0,2.1,2.3c2.3.1,4-2.2,4.1-5.6ZM146.8,33h-4.7l.1-2.4c-1.4,1.9-3.3,2.7-6,2.7-3.1,0-5.2-2.5-5.2-6.2,0-5.5,3.7-8.7,10-8.7a21.505,21.505,0,0,1,2.3.2,5.05,5.05,0,0,0,.2-1.5c0-1.5-1-2.1-3.6-2.1a17.171,17.171,0,0,0-4.7.7l-.8.2-.5.2.8-5.1a20.755,20.755,0,0,1,6.8-1.2c4.9,0,7.4,2.3,7.4,6.6a27.611,27.611,0,0,1-.5,4.5l-1.2,8-.2,1.4-.2,1.1-.1.8.1.8Z"/><path class="a" d="M162.7,10.2a1.268,1.268,0,0,0-.6-.1c-1.8,0-2.9,1-4.7,3.7l.5-3.4h-5.1L149.3,33H155c2.1-13.9,2.6-16.2,5.3-16.2h.4a22.226,22.226,0,0,1,2.2-6.6Z"/><path class="b" d="M138.9,55c0,5.1-1.6,8.2-4.1,8.2-1.8.1-2.9-2-2.9-5,0-3.6,1.6-7.7,4.2-7.7,2.1-.1,2.8,2.1,2.8,4.5Zm5.6,0c0-5.7-2.8-10.2-8.1-10.2-6.1,0-10.1,5.4-10.1,13.3,0,5.7,2.4,10.4,8.1,10.4,5.8.1,10.1-4,10.1-13.5Z"/><path class="b" d="M128.1,40.9l-.9,6.1a8.833,8.833,0,0,0-4.7-1.5c-3.9,0-6.7,4.3-6.7,10.4,0,4.2,1.8,6.8,4.9,6.8a10.032,10.032,0,0,0,4.5-1.4l-.9,6.4a14.461,14.461,0,0,1-4.7.8c-5.7,0-9.3-4.6-9.3-12,0-10,4.9-16.9,12-16.9a8.751,8.751,0,0,1,2.4.3l2.2.6a4.234,4.234,0,0,1,1.2.4Z"/><path class="b" d="M93.1,45h-.6c-1.7,0-2.7,1-4.4,3.7l.5-3.4H83.8L80.6,67.9h5.3c1.9-13.9,2.4-16.2,4.9-16.2a.6.6,0,0,1,.4.1,25.773,25.773,0,0,1,2-6.6l-.1-.2Z"/><path class="b" d="M162.2,67.7h-5l.3-2.2a6.108,6.108,0,0,1-4.9,2.5c-3.8,0-6.4-3.7-6.4-9.4,0-7.5,4-13.9,8.6-13.9,2.1,0,3.6,1,5.1,3.1l1.2-8h5.2l-4.1,27.9Zm-7.8-5.4c2.5,0,4.2-3.1,4.2-7.6,0-2.9-1-4.4-2.8-4.4-2.4,0-4.1,3.1-4.1,7.6,0,2.9.9,4.4,2.7,4.4Z"/><path class="b" d="M43.4,67.6a16.538,16.538,0,0,1-5.4.9c-5.9,0-9-3.5-9-10.2,0-7.7,3.9-13.5,9.2-13.5,4.4,0,7.1,3.2,7.1,8.3a25.754,25.754,0,0,1-.7,5.6H34.2a2.252,2.252,0,0,0-.1.7c0,2.6,1.6,3.9,4.7,3.9a12.463,12.463,0,0,0,5.5-1.4l-.9,5.7Zm-3-13.5c0-.5.1-.9.1-1.1,0-1.8-.9-2.9-2.5-2.9-1.7,0-2.9,1.4-3.4,4.1h5.8v-.1Z"/><path class="b" d="M106.4,67.6a16.538,16.538,0,0,1-5.4.9c-6,0-9-3.5-9-10.2,0-7.7,3.9-13.5,9.2-13.5,4.4,0,7.2,3.2,7.2,8.3a25.754,25.754,0,0,1-.7,5.6H97.2a2.252,2.252,0,0,0-.1.7c0,2.6,1.6,3.9,4.7,3.9a12.463,12.463,0,0,0,5.5-1.4l-.9,5.7Zm-3-13.5a5.384,5.384,0,0,0,.1-1.1c0-1.8-.9-2.9-2.5-2.9-1.7,0-2.9,1.4-3.4,4.1h5.8v-.1Z"/><path class="b" d="M180.3,67.6a16.988,16.988,0,0,1-5.4.9c-5.9,0-9-3.5-9-10.2,0-7.7,4-13.5,9.3-13.5,4.4,0,7.1,3.2,7.1,8.3a25.754,25.754,0,0,1-.7,5.6H171a2.252,2.252,0,0,0-.1.7c0,2.6,1.6,3.9,4.7,3.9a12.463,12.463,0,0,0,5.5-1.4l-.8,5.7Zm-3-13.5c0-.5.1-.9.1-1.1,0-1.8-.9-2.9-2.5-2.9-1.7,0-2.9,1.4-3.4,4.1h5.8v-.1Z"/><path class="b" d="M27.7,46.1a7.663,7.663,0,0,0-4.4-1.3c-2.2,0-3.8.5-3.8,2.7,0,4,7.8,2.5,7.8,11.1,0,7.8-5.1,9.9-9.8,9.9A15.716,15.716,0,0,1,11.3,67l1.3-5.7a8.079,8.079,0,0,0,5,1.6c1.7,0,4.3-.5,4.3-3.4,0-4.6-7.8-2.9-7.8-10.9,0-7.3,4.6-9.5,9-9.5a12.166,12.166,0,0,1,6.2,1.3l-1.6,5.7Z"/><path class="b" d="M58.9,67.6a11.154,11.154,0,0,1-4.7.9c-4.6,0-7.5-4.6-7.5-10.3C46.7,50.8,50.9,45,57,45a11.783,11.783,0,0,1,5,1.5l-1.2,5.4a5.924,5.924,0,0,0-3.5-1.2c-2.8,0-4.9,2.6-4.9,7.2,0,2.7,1.5,4.9,3.8,4.9a5.986,5.986,0,0,0,3.5-1l-.8,5.8Z"/><path class="b" d="M78.7,61.9c-.3,1.9-.5,3.8-.7,5.8H73l.4-3.6h-.1c-1.6,2.5-3.2,4.2-6.2,4.2-3.2,0-4.9-3.4-4.9-7.7a31.591,31.591,0,0,1,.4-4.7L64,45.4h5.7L68.2,55.9a19.7,19.7,0,0,0-.4,3.4c0,1.3.6,2.7,2.2,2.6,2.3,0,3.7-2.8,4.1-6.2l1.6-10.4h5.5L78.7,61.9Z"/><path class="b" d="M185.6,67.5h-.9V63.7h-1.2v-.8h3.3v.8h-1.2Z"/><path class="b" d="M191.3,67.5h-.9V63.7h0l-.7,3.8h-.9l-.7-3.8h0v3.8h-.8V62.9h1.2l.8,3.6h0l.7-3.6h1.3Z"/></g></svg>