<svg xmlns="http://www.w3.org/2000/svg" viewBox="0 0 1200 1006" width="1200" height="1006">
	<style>
		tspan { white-space:pre }
		.shp0 { fill: #f3cc30 } 
		.shp1 { fill: #edbd31 } 
		.shp2 { fill: #f7db5e } 
		.shp3 { fill: #d49a34 } 
		.shp4 { fill: #e5d1bd } 
		.shp5 { fill: #3b474c } 
		.shp6 { fill: #4d4d4d } 
		.shp7 { fill: #313c3f } 
		.shp8 { fill: #534741 } 
		.shp9 { fill: #334c60 } 
		.shp10 { fill: #d7e6ed } 
		.shp11 { fill: #ffffff } 
		.shp12 { opacity: 0.039;fill: #000000 } 
		.shp13 { fill: #f2f2f2 } 
		.shp14 { fill: #e2810e } 
		.shp15 { fill: #ffb93e } 
		.shp16 { fill: #ffa412 } 
		.shp17 { fill: #c9a98d } 
		.shp18 { fill: #4d6b7c } 
		.shp19 { fill: #f6d738 } 
		.shp20 { fill: #6f8d9e } 
		.shp21 { fill: #8ea8ba } 
		.shp22 { fill: #2e4661 } 
		.shp23 { opacity: 0.251;fill: #272525 } 
	</style>
	<g id="Group 16133">
		<g id="Group 16095" style="opacity: 0.749">
			<g id="Group 16094">
				<g id="Group 16091">
					<path id="Ellipse 107" class="shp0" d="M879.94 212.88C838.38 254.45 771.18 254.45 729.62 212.88C688.05 171.3 688.05 104.08 729.62 62.5C771.18 20.92 838.38 20.92 879.94 62.5C921.51 104.08 921.51 171.3 879.94 212.88Z" />
				</g>
				<g id="Group 16092">
					<path id="Path 10559" class="shp1" d="M908.85 115.45C904.17 134.52 894.16 152.51 878.89 167.05C836.35 207.52 769.07 205.83 728.61 163.28C714.56 148.51 705.59 130.74 701.65 112.15C693.3 146.18 701.92 183.61 727.85 210.88C768.31 253.44 835.59 255.12 878.13 214.65C905.89 188.23 916.25 150.39 908.85 115.45Z" />
				</g>
				<g id="Group 16093">
					<path id="Path 10560" class="shp2" d="M737.31 80.85C774.86 45.12 834.25 46.61 869.96 84.17C890.84 106.12 899 135.54 894.68 163.33C903.9 132.2 896.69 97.13 872.71 71.91C837 34.35 777.6 32.86 740.05 68.59C724.45 83.44 715.08 102.37 712.02 122.12C716.53 106.88 724.97 92.59 737.31 80.85Z" />
				</g>
				<path id="Path 10561" class="shp3" d="M860.54 96.75L850.73 106.09C853.84 110.63 855.6 115.09 856.01 119.47C856.42 123.84 855.67 129.11 853.76 135.25L839.02 130.68C841.57 122.66 840.58 116.28 836.08 111.54C833.28 108.6 830.1 106.99 826.52 106.7C822.95 106.42 819.86 107.51 817.25 109.99C814.88 112.25 813.66 114.9 813.58 117.97C813.51 120.96 814.64 125.8 816.98 132.47C818.99 138.26 820.44 143.24 821.32 147.42C822.21 151.59 822.54 155.06 822.31 157.83C821.83 165.48 818.7 172.05 812.92 177.54C807.25 182.94 800.62 186 793.05 186.72C785.54 187.45 778.35 185.7 771.48 181.49L761.12 191.35L752.78 182.58L762.85 173.01C757.69 165.45 755.2 158.32 755.37 151.61C755.53 144.9 758.43 137.31 764.05 128.85L776.83 137.67C773.18 144 771.31 149.28 771.2 153.52C771.29 157.76 773.13 161.76 776.72 165.54C780.21 169.21 784.31 171.15 789.03 171.37C793.69 171.58 797.87 169.93 801.57 166.4C804.87 163.26 806.56 159.72 806.63 155.77C806.61 153.82 806.25 151.25 805.55 148.07C804.84 144.89 803.72 141.05 802.17 136.55C798.92 127.31 797.54 120.51 798.04 116.16C798.6 109.46 801.41 103.69 806.49 98.87C808.89 96.58 811.49 94.84 814.29 93.64C817.09 92.44 820.02 91.76 823.09 91.61C826.15 91.46 829.32 91.86 832.59 92.82C835.85 93.79 839.12 95.29 842.39 97.32L852.21 87.99L860.54 96.75Z" />
			</g>
		</g>
		<g id="Group 16096">
			<path id="Path 10562" class="shp4" d="M539.24 312.86C538.74 312.64 538.23 312.45 537.7 312.32C532.78 311.08 529.42 314.89 524.92 315.03C522.91 315.1 518.18 311.38 517.08 314.53C516.68 315.7 515.01 319.52 513.57 323.45C511.28 326.08 509.1 328.81 506.57 331.2C500.18 337.27 479.55 342.51 483.02 354.12C483.7 356.36 484.39 358.66 485.8 360.53C486.96 362.06 488.52 363.21 490.12 364.27C491.35 365.1 493.13 366.71 494.55 366.42C496.05 366.13 498.5 363.17 499.71 362.18C503.17 359.34 506.63 356.49 510.08 353.65C513.47 350.86 517.73 347.9 521.88 349.32C522.79 349.63 523.63 350.14 524.57 350.33C525.63 350.54 526.72 350.31 527.78 350.05C531.63 349.1 535.5 347.82 539.04 346C545.36 342.74 546.65 331.64 547.83 325.48C548.12 323.94 548.37 322.34 547.97 320.83C547.32 318.38 545.12 316.71 543.06 315.23C541.84 314.35 540.59 313.47 539.24 312.86Z" />
			<path id="Path 10563" class="shp5" d="M412.82 416.48C418.43 416.91 424.11 417.33 429.62 416.25C434.02 415.39 438.18 413.61 442.25 411.73C467.49 400.1 490.91 384.5 511.39 365.67C505.89 353.79 498.02 343.01 488.38 334.16C468.48 345.37 447.69 354.99 426.27 362.9C421.89 364.52 417.42 366.08 412.77 366.46C406.07 367.03 399.43 365.13 392.97 363.26C367.92 355.99 342.86 348.73 317.81 341.47C302.69 337.08 286.99 332.65 271.43 335C228.28 341.52 230.16 396.82 269.81 406.07C314.33 416.45 367.12 413.02 412.82 416.48Z" />
		</g>
		<g id="Group 16113">
			<g id="Group 16102">
				<g id="Group 16098">
					<g id="Group 16097">
						<path id="Path 10564" class="shp4" d="M15.19 959C18.25 963 22.2 966.03 25.69 969.57C39.55 959.29 52.28 948.82 63.77 935.61C53.9 933.93 52.37 925.2 40.46 933.82C36.61 936.61 21.8 955.09 15.19 959Z" />
						<path id="Path 10565" class="shp6" d="M33.99 964.69C36.39 966.75 36.49 969.05 36.35 971.86C36.26 973.49 35.58 975.11 35.89 976.74C36.21 978.36 36.99 979.56 37.95 981.01C43.02 988.62 56.6 1004.58 37.79 1005.61C20.72 1006.56 7.88 982.25 0.91 967.84C0.45 966.89 -0.11 965.96 0.02 964.88C0.16 963.8 0.7 962.69 1.4 961.7C5.29 956.19 10 949.16 17.17 953.61C20.23 955.5 20.48 959.37 23.73 961.36C26.4 962.99 31.59 962.64 33.99 964.69Z" />
					</g>
					<path id="Path 10566" class="shp7" d="M100.72 676.53C96.89 709.66 146.47 744.31 136.46 770.98C115.52 826.77 72.79 873.69 37.57 916.95C35.06 920.05 18.75 937.25 15.19 941.14C22.71 951.91 33.96 959.36 43.93 968.62C94.27 930.5 184.6 859.91 208.85 827.45C241.76 783.39 248.71 700.69 264.49 643.58C267.1 634.12 271.03 620.49 265.05 611.47C260.46 604.55 253.65 601.28 244.95 598.75C221.67 591.95 190.07 578.19 167.19 591.74C142.19 606.54 103.66 651.07 100.72 676.53Z" />
				</g>
				<g id="Group 16100">
					<g id="Group 16099">
						<path id="Path 10567" class="shp4" d="M345.54 977.02C350.62 978.07 355.74 977.56 360.84 978.11C364.92 960.33 368.15 942.89 368.37 924.38C359.43 930.26 352.65 924.74 349.22 939.86C348.11 944.76 348.36 969.36 345.54 977.02Z" />
						<path id="Path 10568" class="shp6" d="M364.06 968.62C367.24 968.62 368.83 970.48 370.59 972.67C371.61 973.94 372.11 975.74 373.3 976.85C374.49 977.97 375.92 978.31 377.62 978.74C386.55 980.96 407.42 984.13 393.8 997.42C381.44 1009.49 355.79 999.61 340.94 993.37C339.96 992.96 338.89 992.61 338.25 991.71C337.6 990.81 337.32 989.57 337.18 988.37C336.39 981.71 335.31 972.89 343.67 971.47C347.24 970.87 350.22 973.63 354.04 972.95C357.17 972.39 360.88 968.62 364.06 968.62Z" />
					</g>
					<path id="Path 10569" class="shp7" d="M212.61 706.77C237.07 730.8 307.06 748.45 318.45 776.12C323.02 787.22 334.37 872.28 336.65 930.08C336.82 934.21 332.71 958.04 332.66 963.5C345.71 967.18 361.85 963.06 375.91 964.03C386.18 897.43 398.29 768.12 398.29 768.12C384.38 709.88 317.23 643.09 279.97 590.61C273.8 581.92 266.58 570.02 255.5 568.56C247.01 567.43 240.3 570.39 232.66 575.28C212.23 588.36 150.44 609.25 145.91 635.31C140.96 663.8 193.82 688.3 212.61 706.77Z" />
				</g>
				<path id="Path 10570" class="shp5" d="M223.12 341.34C201.83 360.09 169.77 377.24 156.98 403.33C126.04 466.45 107.27 534.23 97.5 603.48C94.64 623.74 91.78 643.99 88.92 664.25C86.11 684.18 86.81 688.8 103.09 690.27C135.98 693.28 171.59 682.47 203.19 673.98C211.25 671.82 219.41 669.45 226.41 664.91C236.99 658.05 244.44 646.56 256.09 641.73C261.59 639.44 267.62 638.83 273.55 638.25C286.23 637.01 300.43 636.2 310.23 644.36C315.97 649.13 318.85 656.7 324.7 661.18C328.77 655.6 323.11 638.21 322.12 631.26C320.6 620.59 319.27 609.88 319.04 599.09C318.57 577.19 319.96 555.27 321.87 533.52C325.21 495.5 326.96 457.3 330.08 419.36C332.32 392.2 337.95 370.92 319.47 347.97C309.41 335.48 290.96 313.78 274.28 314.07C256.57 314.38 235.69 330.27 223.12 341.34Z" />
				<g id="Group 16101">
					<path id="Path 10571" class="shp4" d="M321.38 305.75C315.21 311.59 307.45 315.4 300.44 320.18C293.62 324.84 289.76 330 285.65 336.94C282.68 341.95 279.09 345.35 272.3 343.66C259.5 340.47 267.01 331.85 267.2 323.44C267.43 313.82 263.38 304.51 261.71 295.16C256.85 268.16 277.88 227.21 309.68 229.56C344.44 232.12 340.09 288.02 321.38 305.75Z" />
				</g>
				<path id="Path 10572" class="shp8" d="M279.99 259.23C276.5 261.48 274.58 266.36 276.52 270.04C277.55 272.01 279.46 273.37 280.65 275.25C284.13 280.77 280.08 288.11 274.99 292.17C269.89 296.23 263.5 299.04 260.07 304.58C242.73 290.5 229.47 270.1 228.26 247.77C227.39 231.65 233.78 214.86 245.75 203.94C259.8 191.13 274.01 191.83 292.29 190.27C299.2 189.68 306.32 189.06 313.13 190.75C319.35 192.3 323.95 196.76 329.75 198.75C339.36 202.05 355.41 198.61 362.91 191.54C367.51 187.21 370.22 180.6 376.02 178.11C381.62 175.7 388.62 178.4 391.97 183.5C395.32 188.61 395.28 195.49 392.76 201.06C391.12 204.68 388.55 207.83 386.99 211.49C383.72 219.2 385.25 228.43 381.47 235.9C377.47 243.82 368.57 247.8 360.15 250.54C351.41 253.39 341.89 255.82 335.57 263.02C336.72 258.25 329.09 247.62 324.05 246.54C317.53 245.13 307.2 252.56 300.52 254.16C294.09 255.7 285.68 255.55 279.99 259.23Z" />
			</g>
			<g id="Group 16104">
				<g id="Group 16103">
					<path id="Rectangle 6237" class="shp9" d="M310.67 329.86L544.64 329.86C558.26 329.86 569.27 340.87 569.27 354.5L569.27 756.3C569.27 769.92 558.26 780.94 544.64 780.94L310.67 780.94C297.05 780.94 286.04 769.92 286.04 756.3L286.04 354.5C286.04 340.87 297.05 329.86 310.67 329.86Z" />
					<path id="Rectangle 6238" class="shp10" d="M300.66 353.79L554.06 353.79L554.06 739.02L300.66 739.02L300.66 353.79Z" />
					<path id="Rectangle 6239" class="shp11" d="M412.48 757.11L442.83 757.11L442.83 764.12L412.48 764.12L412.48 757.11Z" />
				</g>
				<path id="Path 10573" class="shp12" d="M295.72 412.78L295.72 744.54L549.12 744.54L295.72 412.78Z" />
			</g>
			<g id="Group 16112">
				<path id="Path 10577" class="shp4" d="M322.8 626.19C322.98 625.68 323.12 625.16 323.22 624.62C324.08 619.61 320.05 616.53 319.57 612.04C319.35 610.03 322.71 605.03 319.49 604.16C318.29 603.85 314.37 602.46 310.35 601.31C307.57 599.22 304.69 597.24 302.12 594.9C295.62 588.95 288.87 568.71 277.59 573.05C275.41 573.89 273.17 574.76 271.42 576.31C269.98 577.57 268.95 579.22 268.01 580.89C267.28 582.2 265.82 584.09 266.2 585.49C266.61 586.96 269.73 589.2 270.81 590.34L280.06 600.07C283.08 603.26 286.35 607.29 285.24 611.54C285 612.47 284.55 613.35 284.44 614.31C284.31 615.39 284.62 616.46 284.96 617.5C286.18 621.28 287.74 625.05 289.82 628.46C293.54 634.54 304.67 635.01 310.89 635.72C312.43 635.9 314.04 636.03 315.51 635.52C317.9 634.68 319.4 632.36 320.72 630.19C321.5 628.91 322.29 627.6 322.8 626.19Z" />
				<g id="Group 16111">
					<path id="Path 10578" class="shp13" d="M278.68 605.18C279.17 605.18 279.61 604.9 280.02 604.62C287.37 599.71 293.94 593.63 299.41 586.69C296.85 583.98 294.28 581.28 291.71 578.58C291.52 578.37 291.32 578.17 291.06 578.08C290.5 577.89 289.94 578.28 289.49 578.65C284.57 582.67 279.64 586.69 274.72 590.7C272.52 592.5 268.55 594.93 269.69 598.1C270.29 599.8 276.98 605.2 278.68 605.18Z" />
					<path id="Path 10579" class="shp5" d="M210.35 507.49C210.34 513.12 210.34 518.83 211.82 524.27C213 528.6 215.09 532.63 217.26 536.56C230.7 560.93 245.89 581.23 266.14 600.31C277.55 593.92 286.66 582.74 294.74 572.45C282.11 553.38 274.09 537.78 264.64 516.95C262.7 512.69 260.82 508.34 260.09 503.72C259.03 497.06 260.42 490.28 261.81 483.68C267.17 458.09 272.53 432.49 277.9 406.9C281.14 391.46 284.37 375.43 280.88 360.05C271.2 317.39 216.33 323.38 210.08 363.71C203.06 409 210.4 461.52 210.35 507.49Z" />
					<path id="Path 10580" class="shp13" d="M287.55 570.05C285.92 569.14 283.21 569.87 283.06 571.92C282.95 573.43 284.44 574.79 285.94 574.68C288.36 574.51 289.79 571.41 287.63 570.1C287.61 570.09 287.58 570.07 287.55 570.05Z" />
					<path id="Path 10581" class="shp13" d="M281.91 562.43C280.28 561.51 277.57 562.24 277.42 564.3C277.31 565.8 278.8 567.17 280.31 567.06C282.72 566.89 284.15 563.79 281.99 562.48C281.97 562.46 281.94 562.45 281.91 562.43Z" />
				</g>
			</g>
			<g id="Group 43">
				<path id="Ellipse 8" class="shp14" d="M654.42 518.19C644.75 583.87 583.86 629.14 518.2 619.47C452.55 609.8 407.29 548.89 416.96 483.21C426.63 417.53 487.52 372.26 553.18 381.93C618.84 391.6 664.09 452.51 654.42 518.19Z" />
				<path id="Ellipse 9" class="shp15" d="M610.08 585.59C563.15 632.53 487.29 632.53 440.36 585.59C393.43 538.65 393.43 462.75 440.36 415.81C487.29 368.87 563.15 368.87 610.08 415.81C657.01 462.75 657.01 538.65 610.08 585.59Z" />
				<g id="Group 41">
					<path id="Path 274" fill-rule="evenodd" class="shp16" d="M525.22 611.5C496.01 611.5 468.56 600.12 447.9 579.46C427.25 558.8 415.88 531.33 415.88 502.12C415.88 472.9 427.25 445.43 447.9 424.78C468.56 404.12 496.01 392.74 525.22 392.74C554.43 392.74 581.89 404.12 602.54 424.78C623.19 445.43 634.57 472.9 634.57 502.12C634.57 531.33 623.19 558.8 602.54 579.46C581.89 600.12 554.43 611.5 525.22 611.5ZM525.22 399.26C468.53 399.26 422.4 445.41 422.4 502.12C422.4 558.83 468.53 604.97 525.22 604.97C581.92 604.97 628.04 558.83 628.04 502.12C628.04 445.41 581.92 399.26 525.22 399.26Z" />
				</g>
				<g id="Group 42">
					<path id="Path 275" class="shp16" d="M540.27 533.86C540.55 531.51 540.47 529.39 540.02 527.51C539.56 525.64 538.67 523.88 537.33 522.24C535.99 520.6 534.2 519.02 531.96 517.5C529.72 515.98 526.95 514.43 523.64 512.84C517.97 510.06 512.85 507.24 508.28 504.4C503.71 501.55 499.89 498.43 496.79 495.04C493.7 491.66 491.44 487.86 490.01 483.65C488.58 479.43 488.19 474.57 488.84 469.07C489.41 464.3 490.77 460.04 492.93 456.31C495.09 452.58 497.91 449.44 501.4 446.9C504.89 444.35 508.94 442.42 513.53 441.12C518.13 439.81 523.18 439.23 528.68 439.37L530.82 421.34L545.33 423.06L543.16 441.34C548.28 442.63 552.83 444.57 556.81 447.15C560.8 449.73 564.07 452.85 566.64 456.52C569.21 460.18 571.03 464.37 572.09 469.08C573.16 473.79 573.36 478.96 572.69 484.57L546.49 481.46C547.29 474.72 546.39 469.51 543.8 465.81C541.2 462.11 537.39 459.97 532.38 459.37C529.66 459.05 527.27 459.15 525.22 459.68C523.16 460.2 521.42 461.05 520 462.22C518.57 463.39 517.45 464.83 516.63 466.56C515.81 468.28 515.28 470.19 515.03 472.26C514.79 474.34 514.87 476.26 515.27 478.01C515.68 479.77 516.53 481.45 517.85 483.06C519.16 484.67 520.96 486.25 523.26 487.8C525.56 489.36 528.44 491.03 531.91 492.8C537.51 495.69 542.58 498.57 547.11 501.44C551.64 504.32 555.45 507.46 558.54 510.87C561.63 514.29 563.89 518.1 565.32 522.31C566.75 526.53 567.14 531.36 566.5 536.81C565.91 541.75 564.52 546.09 562.33 549.81C560.14 553.54 557.31 556.65 553.83 559.14C550.34 561.63 546.28 563.48 541.63 564.7C536.98 565.91 531.9 566.45 526.41 566.31L524.42 583.07L510 581.36L511.98 564.68C507.02 563.58 502.3 561.91 497.82 559.67C493.33 557.43 489.47 554.5 486.22 550.9C482.97 547.3 480.54 542.95 478.94 537.86C477.33 532.77 476.93 526.86 477.73 520.12L503.93 523.23C503.46 527.22 503.62 530.61 504.43 533.41C505.23 536.21 506.47 538.53 508.15 540.35C509.84 542.17 511.83 543.55 514.15 544.48C516.46 545.41 518.85 546.02 521.33 546.31C524.17 546.65 526.71 546.58 528.94 546.1C531.17 545.63 533.09 544.83 534.69 543.71C536.3 542.59 537.57 541.19 538.5 539.51C539.44 537.82 540.03 535.94 540.27 533.86Z" />
				</g>
			</g>
		</g>
		<g id="Group 16132">
			<g id="Group 16114">
				<path id="Path 10582" class="shp17" d="M979.25 521.66C979.63 520.85 980.02 520.09 980.39 519.44C982.96 514.84 986.18 510.6 989.91 506.88C990.58 506.22 991.28 505.56 992.16 505.22C992.88 504.94 993.68 504.91 994.45 504.87C1002.45 504.53 1009.76 503.04 1017.59 501.41C1023.44 500.2 1032.57 498.42 1036.11 504.87C1037.17 506.81 1038.25 508.8 1038.5 510.94C1038.7 512.7 1038.34 514.46 1037.88 516.18C1037.53 517.52 1037.33 519.72 1036.07 520.42C1034.74 521.16 1030.84 520.72 1029.24 520.81C1024.67 521.07 1020.11 521.33 1015.54 521.59C1011.06 521.84 1005.81 522.52 1003.69 526.09C1003.23 526.87 1002.96 527.75 1002.38 528.46C1001.73 529.27 1000.76 529.8 999.79 530.29C996.25 532.08 992.46 533.65 988.55 534.65C984.97 535.56 982.93 533.67 979.95 532.1C976.22 530.15 977.55 525.3 979.25 521.66Z" />
				<path id="Path 10583" class="shp18" d="M1133.74 504.3C1126.34 510.46 1117.71 514.79 1106.78 518.05C1079.79 526.09 1051.39 530.31 1022.94 530.51C1018.77 519.04 1017.15 506.82 1018.19 494.79C1040.9 489.83 1063.16 483.23 1084.7 475.08C1095.25 471.09 1103.86 465.96 1106.87 455.42C1113.58 431.95 1118.32 408.03 1121.06 383.92C1121.67 378.59 1122.21 373.13 1124.71 368.27C1129.29 359.35 1140.18 353.84 1151.07 353.44C1161.96 353.04 1172.64 357.21 1181.07 363.45C1187.11 367.93 1192.29 373.74 1194.03 380.61C1195.83 387.72 1193.79 395.11 1191.5 402.1C1181.32 433.26 1166.12 463.08 1146.53 490.33C1142.57 495.83 1138.4 500.43 1133.74 504.3Z" />
			</g>
			<g id="Group 16120">
				<g id="Group 16119">
					<g id="Group 16115">
						<path id="Ellipse 110" class="shp19" d="M981.85 481.38C916.69 481.38 864.03 428.7 864.03 363.52C864.03 298.35 916.69 245.66 981.85 245.66C1047 245.66 1099.67 298.35 1099.67 363.52C1099.67 428.7 1047 481.38 981.85 481.38Z" />
					</g>
					<g id="Group 16116">
						<path id="Ellipse 111" class="shp0" d="M1052.55 434.25C1013.45 473.36 950.24 473.36 911.14 434.25C872.04 395.14 872.04 331.91 911.14 292.79C950.24 253.68 1013.45 253.68 1052.55 292.79C1091.65 331.91 1091.65 395.14 1052.55 434.25Z" />
					</g>
					<g id="Group 16117">
						<path id="Path 10584" class="shp1" d="M1062.78 304.6C1066.05 322.78 1064.33 342.07 1056.76 360.4C1035.68 411.46 977.21 435.75 926.17 414.66C908.44 407.34 893.94 395.5 883.45 381.03C889.28 413.47 911.01 442.34 943.72 455.86C994.76 476.95 1053.23 452.66 1074.31 401.6C1088.07 368.28 1082.5 331.79 1062.78 304.6Z" />
					</g>
					<g id="Group 16118">
						<path id="Path 10585" class="shp2" d="M902.13 340.48C920.74 295.41 972.35 273.97 1017.41 292.59C1043.74 303.47 1062 325.63 1068.92 351.17C1064.93 320.88 1045.33 293.5 1015.08 281C970.03 262.39 918.41 283.83 899.8 328.9C892.07 347.63 891.25 367.48 896.17 385.64C894.22 370.81 896.01 355.29 902.13 340.48Z" />
					</g>
					<path id="Path 10586" class="shp3" d="M1014.12 307.01L1009.25 318.78C1013.66 321.5 1016.88 324.66 1018.91 328.26C1020.94 331.87 1022.3 336.67 1023.01 342.69L1008.59 344.4C1007.71 336.53 1004.43 331.42 998.75 329.07C995.22 327.62 991.87 327.45 988.69 328.57C985.5 329.7 983.27 331.82 981.98 334.95C980.8 337.79 980.77 340.54 981.87 343.2C982.95 345.81 985.77 349.53 990.34 354.37C994.27 358.58 997.42 362.3 999.79 365.55C1002.15 368.8 1003.76 371.66 1004.61 374.13C1007.12 380.88 1006.94 387.73 1004.08 394.66C1001.27 401.47 996.75 406.63 990.51 410.15C984.33 413.65 977.49 414.9 969.97 413.91L964.84 426.34L954.32 422L959.31 409.92C951.99 405.4 947.12 400.22 944.7 394.39C942.28 388.56 941.87 380.93 943.46 371.51L957.82 374.2C957.11 381.04 957.51 386.29 959.04 389.97C960.74 393.58 963.85 396.32 968.38 398.19C972.78 400.01 977.05 400.11 981.19 398.49C985.27 396.9 988.23 393.88 990.07 389.43C991.7 385.46 991.8 381.77 990.35 378.36C989.59 376.69 988.29 374.62 986.48 372.15C984.66 369.69 982.22 366.82 979.17 363.54C972.84 356.85 969.06 351.53 967.82 347.6C965.74 341.63 965.96 335.6 968.47 329.51C969.66 326.62 971.23 324.13 973.18 322.03C975.12 319.92 977.39 318.22 979.96 316.92C982.54 315.61 985.42 314.75 988.59 314.33C991.77 313.9 995.15 313.94 998.74 314.44L1003.6 302.66L1014.12 307.01Z" />
				</g>
			</g>
			<g id="Group 16135">
				<path id="Ellipse 8" class="shp14" d="M1106.59 377.82C1096.92 443.5 1036.03 488.77 970.38 479.1C904.72 469.42 859.46 408.51 869.13 342.84C878.8 277.16 939.69 231.88 1005.35 241.56C1071.01 251.23 1116.26 312.14 1106.59 377.82Z" />
				<path id="Ellipse 9" class="shp15" d="M1062.25 445.22C1015.33 492.16 939.46 492.16 892.53 445.22C845.6 398.27 845.6 322.38 892.53 275.44C939.46 228.49 1015.33 228.49 1062.25 275.44C1109.18 322.38 1109.18 398.27 1062.25 445.22Z" />
				<g id="Group 41">
					<path id="Path 274" fill-rule="evenodd" class="shp16" d="M977.39 471.12C948.19 471.12 920.73 459.75 900.07 439.09C879.42 418.43 868.05 390.96 868.05 361.74C868.05 332.53 879.42 305.06 900.07 284.4C920.73 263.74 948.19 252.37 977.39 252.37C1006.6 252.37 1034.06 263.74 1054.71 284.4C1075.36 305.06 1086.74 332.53 1086.74 361.74C1086.74 390.96 1075.36 418.43 1054.71 439.09C1034.06 459.75 1006.6 471.12 977.39 471.12ZM977.39 258.89C920.7 258.89 874.57 305.03 874.57 361.74C874.57 418.46 920.7 464.6 977.39 464.6C1034.09 464.6 1080.21 418.46 1080.21 361.74C1080.21 305.03 1034.09 258.89 977.39 258.89Z" />
				</g>
				<g id="Group 42">
					<path id="Path 275" class="shp16" d="M992.45 393.49C992.72 391.13 992.64 389.02 992.19 387.14C991.74 385.26 990.84 383.51 989.5 381.87C988.16 380.23 986.38 378.65 984.13 377.13C981.89 375.61 979.12 374.06 975.82 372.47C970.14 369.69 965.02 366.87 960.45 364.02C955.89 361.17 952.06 358.06 948.97 354.67C945.87 351.28 943.61 347.49 942.18 343.27C940.75 339.06 940.36 334.2 941.01 328.69C941.58 323.92 942.94 319.67 945.1 315.94C947.26 312.21 950.08 309.07 953.57 306.52C957.06 303.97 961.11 302.05 965.71 300.74C970.3 299.44 975.35 298.85 980.85 299L982.99 280.97L997.5 282.69L995.33 300.97C1000.45 302.26 1005 304.2 1008.98 306.78C1012.97 309.36 1016.24 312.48 1018.81 316.14C1021.38 319.81 1023.2 324 1024.26 328.71C1025.33 333.42 1025.53 338.59 1024.86 344.2L998.66 341.09C999.46 334.35 998.56 329.13 995.97 325.44C993.37 321.74 989.57 319.59 984.55 319C981.83 318.67 979.44 318.78 977.39 319.3C975.33 319.82 973.59 320.67 972.17 321.84C970.74 323.01 969.62 324.46 968.8 326.18C967.98 327.91 967.45 329.81 967.21 331.89C966.96 333.97 967.04 335.88 967.44 337.64C967.85 339.4 968.7 341.08 970.02 342.69C971.33 344.3 973.13 345.88 975.43 347.43C977.73 348.99 980.61 350.65 984.08 352.43C989.68 355.32 994.75 358.2 999.28 361.07C1003.81 363.94 1007.62 367.09 1010.71 370.5C1013.8 373.91 1016.06 377.73 1017.49 381.94C1018.92 386.16 1019.31 390.99 1018.67 396.43C1018.08 401.38 1016.69 405.71 1014.5 409.44C1012.31 413.16 1009.48 416.27 1006 418.76C1002.51 421.26 998.45 423.11 993.8 424.32C989.15 425.54 984.08 426.07 978.58 425.93L976.59 442.7L962.17 440.99L964.15 424.31C959.19 423.2 954.47 421.53 949.99 419.29C945.5 417.05 941.64 414.13 938.39 410.53C935.14 406.92 932.71 402.58 931.11 397.49C929.5 392.4 929.1 386.49 929.9 379.75L956.1 382.86C955.63 386.84 955.79 390.24 956.6 393.04C957.4 395.84 958.64 398.15 960.32 399.97C962.01 401.8 964 403.17 966.32 404.1C968.63 405.03 971.02 405.64 973.5 405.94C976.34 406.27 978.88 406.21 981.11 405.73C983.34 405.25 985.26 404.46 986.86 403.34C988.47 402.22 989.74 400.82 990.67 399.13C991.61 397.45 992.2 395.57 992.45 393.49Z" />
				</g>
			</g>
			<g id="Group 16130">
				<path id="Path 10598" class="shp20" d="M1099.02 370.3L807.05 396.09C800.07 396.71 794.87 402.49 795.45 409L819.13 677.2C819.7 683.71 825.83 688.49 832.81 687.87L1175.14 657.63C1182.12 657.02 1187.31 651.24 1186.74 644.73L1167.21 423.48C1164.34 391.03 1133.81 367.22 1099.02 370.3Z" />
				<path id="Path 10599" class="shp21" d="M1087.18 369.92L791.29 396.06C785.39 396.58 781 401.46 781.49 406.96L805.49 678.82C805.98 684.32 811.15 688.36 817.05 687.84L1163.3 657.25C1169.2 656.73 1173.59 651.85 1173.1 646.35L1153.25 421.44C1150.47 390.01 1120.89 366.94 1087.18 369.92Z" />
				<path id="Path 10600" class="shp22" d="M1193.04 473.34L1089.71 482.46C1067.93 484.39 1051.72 502.41 1053.52 522.73L1053.58 523.47C1055.38 543.78 1074.49 558.69 1096.27 556.76L1199.6 547.64L1193.04 473.34Z" />
				<path id="Path 10601" class="shp23" d="M1196.29 510.11L1193.01 472.96L1089.68 482.09C1067.9 484.02 1051.69 502.04 1053.48 522.35L1053.55 523.1L1196.29 510.11Z" />
			</g>
			<g id="Group 16137" style="opacity: 0.522">
				<path id="Ellipse 8" class="shp14" d="M723.17 221.07C671.32 262.51 595.92 254.08 554.5 202.21C513.07 150.34 521.5 74.92 573.35 33.48C625.2 -7.96 700.6 0.47 742.02 52.34C783.45 104.21 775.02 179.63 723.17 221.07Z" />
				<path id="Ellipse 9" class="shp15" d="M644.79 240.11C578.47 242.43 522.98 190.67 520.67 124.32C518.35 57.97 570.09 2.47 636.42 0.15C702.74 -2.16 758.23 49.59 760.54 115.94C762.86 182.29 711.12 237.79 644.79 240.11Z" />
				<g id="Group 41">
					<path id="Path 274" fill-rule="evenodd" class="shp16" d="M565.06 201.16C543.7 181.24 531.38 154.18 530.36 124.99C529.34 95.79 539.75 67.94 559.67 46.57C579.59 25.2 606.63 12.88 635.82 11.86C665.01 10.84 692.85 21.25 714.21 41.17C735.57 61.1 747.9 88.15 748.91 117.35C749.93 146.55 739.53 174.4 719.61 195.77C699.69 217.13 672.64 229.46 643.45 230.48C614.26 231.5 586.43 221.09 565.06 201.16ZM709.76 45.95C668.3 7.27 603.1 9.54 564.44 51.02C525.77 92.5 528.05 157.71 569.51 196.39C610.98 235.07 676.17 232.79 714.84 191.32C753.5 149.84 751.23 84.62 709.76 45.95Z" />
				</g>
				<g id="Group 42">
					<path id="Path 275" class="shp16" d="M629 154.66C630.82 153.12 632.19 151.51 633.14 149.83C634.09 148.15 634.64 146.26 634.78 144.15C634.92 142.03 634.68 139.66 634.08 137.02C633.48 134.38 632.51 131.35 631.17 127.93C628.92 122.03 627.09 116.47 625.7 111.28C624.3 106.08 623.62 101.19 623.67 96.6C623.72 92.02 624.65 87.69 626.48 83.64C628.31 79.58 631.33 75.76 635.57 72.18C639.23 69.08 643.13 66.89 647.25 65.64C651.37 64.38 655.58 64.01 659.87 64.53C664.16 65.05 668.43 66.4 672.68 68.58C676.93 70.76 681.02 73.78 684.95 77.64L698.81 65.91L708.24 77.07L694.19 88.96C697.05 93.39 699.06 97.91 700.22 102.52C701.37 107.12 701.64 111.64 701.02 116.08C700.4 120.51 698.87 124.81 696.44 128.98C694.01 133.16 690.63 137.07 686.32 140.72L669.27 120.57C674.45 116.19 677.35 111.76 677.98 107.29C678.6 102.81 677.28 98.65 674.02 94.79C672.25 92.7 670.43 91.14 668.57 90.12C666.71 89.11 664.86 88.54 663.02 88.42C661.18 88.3 659.37 88.6 657.6 89.3C655.82 90 654.14 91.03 652.54 92.38C650.94 93.74 649.69 95.19 648.79 96.75C647.89 98.31 647.37 100.13 647.23 102.2C647.1 104.27 647.34 106.66 647.96 109.36C648.58 112.07 649.55 115.25 650.88 118.92C653.01 124.85 654.75 130.41 656.11 135.61C657.46 140.8 658.1 145.7 658.04 150.3C657.97 154.91 657.02 159.24 655.19 163.29C653.37 167.35 650.36 171.15 646.17 174.7C642.38 177.91 638.4 180.14 634.26 181.37C630.12 182.6 625.93 182.94 621.68 182.38C617.44 181.83 613.2 180.41 608.97 178.13C604.75 175.84 600.67 172.77 596.74 168.92L583.86 179.82L574.48 168.74L587.3 157.89C584.42 153.7 582.11 149.26 580.36 144.56C578.61 139.86 577.77 135.09 577.85 130.23C577.93 125.38 579.12 120.55 581.42 115.73C583.71 110.92 587.45 106.32 592.63 101.94L609.67 122.08C606.61 124.68 604.42 127.27 603.09 129.87C601.77 132.46 601.1 135 601.09 137.48C601.08 139.97 601.6 142.34 602.66 144.59C603.71 146.85 605.05 148.93 606.66 150.83C608.51 153.02 610.41 154.7 612.37 155.87C614.32 157.05 616.27 157.77 618.21 158.05C620.14 158.32 622.03 158.17 623.86 157.57C625.69 156.98 627.4 156.01 629 154.66Z" />
				</g>
			</g>
			<g id="Group 16136">
				<path id="Ellipse 8" class="shp14" d="M938.2 156.34C928.53 222.02 867.64 267.29 801.98 257.62C736.32 247.95 691.07 187.04 700.74 121.36C710.41 55.68 771.29 10.41 836.95 20.08C902.61 29.75 947.87 90.66 938.2 156.34Z" />
				<path id="Ellipse 9" class="shp15" d="M893.86 223.74C846.93 270.68 771.06 270.68 724.14 223.74C677.21 176.79 677.21 100.9 724.14 53.96C771.06 7.02 846.93 7.02 893.86 53.96C940.79 100.9 940.79 176.79 893.86 223.74Z" />
				<g id="Group 41">
					<path id="Path 274" fill-rule="evenodd" class="shp16" d="M809 249.65C779.79 249.65 752.33 238.27 731.68 217.61C711.03 196.95 699.65 169.48 699.65 140.27C699.65 111.05 711.03 83.58 731.68 62.92C752.33 42.26 779.79 30.89 809 30.89C838.21 30.89 865.66 42.26 886.32 62.92C906.97 83.58 918.34 111.05 918.34 140.27C918.34 169.48 906.97 196.95 886.32 217.61C865.66 238.27 838.21 249.65 809 249.65ZM809 37.41C752.3 37.41 706.18 83.55 706.18 140.27C706.18 196.98 752.3 243.12 809 243.12C865.69 243.12 911.82 196.98 911.82 140.27C911.82 83.55 865.69 37.41 809 37.41Z" />
				</g>
				<g id="Group 42">
					<path id="Path 275" class="shp16" d="M824.05 172.01C824.33 169.65 824.24 167.54 823.79 165.66C823.34 163.78 822.45 162.03 821.11 160.39C819.77 158.75 817.98 157.17 815.74 155.65C813.5 154.13 810.73 152.58 807.42 150.99C801.74 148.21 796.62 145.39 792.06 142.54C787.49 139.69 783.66 136.58 780.57 133.19C777.48 129.81 775.22 126.01 773.79 121.79C772.36 117.58 771.97 112.72 772.62 107.22C773.19 102.44 774.55 98.19 776.71 94.46C778.87 90.73 781.69 87.59 785.18 85.04C788.67 82.5 792.71 80.57 797.31 79.26C801.91 77.96 806.96 77.37 812.46 77.52L814.6 59.49L829.1 61.21L826.94 79.49C832.05 80.78 836.6 82.72 840.59 85.3C844.57 87.88 847.85 91 850.42 94.67C852.99 98.33 854.8 102.52 855.87 107.23C856.93 111.94 857.13 117.11 856.47 122.72L830.27 119.61C831.07 112.87 830.17 107.65 827.57 103.96C824.98 100.26 821.17 98.11 816.15 97.52C813.43 97.2 811.05 97.3 808.99 97.82C806.94 98.35 805.2 99.19 803.77 100.36C802.35 101.53 801.22 102.98 800.41 104.71C799.59 106.43 799.06 108.33 798.81 110.41C798.57 112.49 798.64 114.41 799.05 116.16C799.45 117.92 800.31 119.6 801.62 121.21C802.93 122.82 804.74 124.4 807.04 125.95C809.33 127.51 812.22 129.17 815.68 130.95C821.28 133.84 826.35 136.72 830.89 139.59C835.42 142.47 839.23 145.61 842.32 149.02C845.4 152.44 847.66 156.25 849.1 160.46C850.53 164.68 850.92 169.51 850.27 174.96C849.69 179.9 848.3 184.23 846.11 187.96C843.92 191.69 841.08 194.79 837.6 197.29C834.12 199.78 830.05 201.63 825.4 202.84C820.76 204.06 815.68 204.59 810.18 204.45L808.19 221.22L793.78 219.51L795.76 202.83C790.8 201.73 786.08 200.05 781.59 197.82C777.11 195.57 773.24 192.65 769.99 189.05C766.74 185.44 764.32 181.1 762.71 176.01C761.11 170.92 760.71 165.01 761.51 158.27L787.71 161.38C787.24 165.37 787.4 168.76 788.2 171.56C789 174.36 790.25 176.67 791.93 178.5C793.61 180.32 795.61 181.7 797.92 182.62C800.23 183.55 802.63 184.16 805.11 184.46C807.95 184.8 810.48 184.73 812.72 184.25C814.95 183.78 816.87 182.98 818.47 181.86C820.07 180.74 821.34 179.34 822.28 177.65C823.21 175.97 823.8 174.09 824.05 172.01Z" />
				</g>
			</g>
			<g id="Group 16138" style="opacity: 0.18">
				<path id="Ellipse 8" class="shp14" d="M629.18 270.93C572.67 305.74 498.86 288.18 464.06 231.65C429.27 175.12 446.82 101.29 503.33 66.48C559.85 31.67 633.65 49.23 668.45 105.76C703.25 162.29 685.69 236.12 629.18 270.93Z" />
				<path id="Ellipse 9" class="shp15" d="M549.07 280.28C482.95 274.49 434.19 216.36 439.97 150.22C445.76 84.09 503.87 35.3 569.99 41.09C636.1 46.88 684.87 105.01 679.08 171.15C673.3 237.28 615.18 286.06 549.07 280.28Z" />
				<g id="Group 41">
					<path id="Path 274" fill-rule="evenodd" class="shp16" d="M474.68 231.9C455.9 209.52 446.97 181.17 449.51 152.06C452.06 122.96 465.78 96.59 488.16 77.81C510.53 59.03 538.87 50.09 567.97 52.63C597.07 55.18 623.43 68.91 642.2 91.29C660.98 113.67 669.91 142.02 667.37 171.13C664.82 200.23 651.1 226.61 628.73 245.39C606.35 264.17 578.01 273.11 548.91 270.56C519.82 268.01 493.45 254.28 474.68 231.9ZM637.21 95.48C600.76 52.04 535.78 46.35 492.35 82.8C448.92 119.26 443.23 184.26 479.68 227.71C516.12 271.15 581.1 276.84 624.53 240.39C667.96 203.93 673.65 138.93 637.21 95.48Z" />
				</g>
				<g id="Group 42">
					<path id="Path 275" class="shp16" d="M543.81 193.54C545.79 192.23 547.36 190.81 548.5 189.26C549.65 187.7 550.42 185.89 550.82 183.81C551.21 181.73 551.27 179.34 550.99 176.65C550.72 173.96 550.12 170.83 549.22 167.28C547.7 161.14 546.56 155.41 545.81 150.08C545.05 144.75 544.98 139.81 545.59 135.27C546.19 130.72 547.65 126.54 549.95 122.74C552.26 118.93 555.73 115.51 560.37 112.47C564.39 109.84 568.52 108.15 572.76 107.41C577.01 106.66 581.23 106.81 585.42 107.85C589.61 108.88 593.69 110.74 597.64 113.43C601.6 116.11 605.29 119.61 608.72 123.91L623.9 113.96L631.91 126.19L616.51 136.28C618.81 141.03 620.26 145.76 620.84 150.47C621.43 155.18 621.14 159.7 619.99 164.02C618.83 168.35 616.79 172.43 613.87 176.28C610.94 180.12 607.12 183.6 602.39 186.69L587.93 164.62C593.6 160.9 597.02 156.86 598.19 152.49C599.35 148.13 598.55 143.83 595.78 139.6C594.28 137.31 592.66 135.54 590.94 134.31C589.22 133.07 587.45 132.28 585.64 131.94C583.83 131.6 582 131.67 580.15 132.15C578.3 132.64 576.51 133.45 574.76 134.6C573.01 135.75 571.59 137.04 570.5 138.48C569.42 139.92 568.68 141.66 568.29 143.69C567.9 145.73 567.85 148.13 568.14 150.89C568.43 153.65 569 156.93 569.87 160.73C571.26 166.88 572.31 172.61 573.03 177.93C573.74 183.25 573.78 188.19 573.15 192.75C572.52 197.32 571.06 201.5 568.75 205.3C566.44 209.11 562.99 212.52 558.41 215.52C554.25 218.25 550.03 219.97 545.77 220.69C541.51 221.41 537.31 221.23 533.16 220.17C529.02 219.1 524.98 217.17 521.06 214.39C517.15 211.61 513.48 208.07 510.05 203.76L495.93 213.01L487.97 200.87L502.02 191.66C499.68 187.15 497.92 182.46 496.76 177.59C495.59 172.71 495.34 167.87 496.01 163.06C496.68 158.26 498.45 153.6 501.32 149.1C504.18 144.6 508.45 140.49 514.13 136.78L528.59 158.85C525.23 161.05 522.74 163.36 521.11 165.77C519.48 168.19 518.51 170.63 518.19 173.09C517.88 175.55 518.11 177.97 518.88 180.34C519.66 182.7 520.73 184.93 522.1 187.02C523.67 189.41 525.35 191.31 527.15 192.72C528.95 194.12 530.79 195.08 532.68 195.59C534.57 196.1 536.46 196.17 538.35 195.8C540.24 195.44 542.05 194.69 543.81 193.54Z" />
				</g>
			</g>
		</g>
	</g>
</svg>