<svg xmlns="http://www.w3.org/2000/svg" width="31.843" height="40.243" viewBox="0 0 31.843 40.243"><path d="M84.62,32.025a6.253,6.253,0,0,1-1.9-2.587c-1.637-3.465-1.981-8.346-1.981-11.83,0-.015,0-.03,0-.045A11.418,11.418,0,0,0,74.017,7.207V4.483A4.484,4.484,0,0,0,69.541,0H69.17a4.484,4.484,0,0,0-4.476,4.483V7.207a11.418,11.418,0,0,0-6.722,10.4c0,3.484-.344,8.365-1.981,11.83a6.252,6.252,0,0,1-1.9,2.587,1.146,1.146,0,0,0-.63,1.3,1.2,1.2,0,0,0,1.182.921h8.642a6.07,6.07,0,0,0,12.139,0h8.642a1.2,1.2,0,0,0,1.182-.921A1.146,1.146,0,0,0,84.62,32.025ZM67.053,4.483A2.122,2.122,0,0,1,69.17,2.362h.371a2.122,2.122,0,0,1,2.118,2.121V6.441a11.419,11.419,0,0,0-4.606,0V4.483Zm2.3,33.4a3.72,3.72,0,0,1-3.712-3.63h7.423A3.72,3.72,0,0,1,69.356,37.881ZM74.1,31.889H57.331a12.358,12.358,0,0,0,.618-1.085c1.58-3.116,2.381-7.556,2.381-13.2a9.025,9.025,0,1,1,18.05,0c0,.015,0,.029,0,.043,0,5.618.806,10.041,2.381,13.149a12.371,12.371,0,0,0,.618,1.085Z" transform="translate(-53.434 0)"/></svg>