<svg xmlns="http://www.w3.org/2000/svg" width="640.128" height="695.816" viewBox="0 0 640.128 695.816"><defs><style>.a{fill:#ff7c7c;}.b,.e,.g,.q,.r,.s,.t,.u{fill:none;}.b{stroke:#fff;stroke-linecap:round;stroke-linejoin:round;stroke-width:2.154px;}.c{fill:#bdf3ff;}.d{fill:#2bcc9b;}.e{stroke:#2bcc9b;stroke-width:0.64px;}.e,.g,.q,.r,.s,.t,.u{stroke-miterlimit:10;}.f{fill:#333;}.g{stroke:#4832b7;stroke-width:0.3px;}.h{fill:#cc7264;}.i{fill:#0a0a0a;}.j{fill:#ff7d51;}.k{fill:#db8976;}.l{fill:#27255e;}.m{fill:#0d053d;}.n{fill:#e8a38c;}.o{fill:#ff8b6c;}.p{fill:#e37049;}.q{stroke:#ff7d51;stroke-width:0.4px;}.r,.u{stroke:#db8976;}.r{stroke-width:0.17px;}.s{stroke:#0d053d;stroke-width:0.211px;}.t{stroke:#f9765d;stroke-width:0.243px;}.u{stroke-width:0.2px;}.v{fill:#e48873;}</style></defs><g transform="translate(-209.515 -128.513)"><g transform="translate(323.608 128.833)"><g transform="translate(256.579 168.446)"><path class="a" d="M487.92,226.451a32.276,32.276,0,1,1-32.427-32.124A32.277,32.277,0,0,1,487.92,226.451Z" transform="translate(-423.369 -194.327)"/><path class="a" d="M431.044,214l-6.578,21.869,17.743-13.587" transform="translate(-421.644 -163.408)"/><path class="b" d="M430.4,214.048l12.769,12.262,16.867-22.993" transform="translate(-412.319 -182.203)"/></g><g transform="translate(33.497 82.212)"><g transform="translate(5.697)"><path class="c" d="M340.462,175.419a1.615,1.615,0,0,1-1.615-1.615V162.413a1.615,1.615,0,0,1,3.23,0V173.8A1.616,1.616,0,0,1,340.462,175.419Z" transform="translate(-338.847 -160.798)"/></g><g transform="translate(0 5.694)"><path class="c" d="M349.643,166.242h-11.4a1.615,1.615,0,1,1,0-3.23h11.4a1.615,1.615,0,0,1,0,3.23Z" transform="translate(-336.632 -163.012)"/></g></g><g transform="translate(310.258 32.903)"><g transform="translate(5.697)"><path class="c" d="M448.07,156.247a1.615,1.615,0,0,1-1.615-1.615V143.241a1.615,1.615,0,0,1,3.23,0v11.391A1.616,1.616,0,0,1,448.07,156.247Z" transform="translate(-446.455 -141.626)"/></g><g transform="translate(0 5.694)"><path class="c" d="M457.249,147.07H445.855a1.615,1.615,0,1,1,0-3.23h11.394a1.615,1.615,0,1,1,0,3.23Z" transform="translate(-444.24 -143.84)"/></g></g><g transform="translate(135.511)"><path class="d" d="M416.349,154.259h-.18v-7.086a14.6,14.6,0,0,0-29.194,0v7.086h-.232a2.524,2.524,0,0,0-2.52,2.531V176.6a2.521,2.521,0,0,0,2.52,2.52h29.606a2.521,2.521,0,0,0,2.521-2.52V156.79A2.524,2.524,0,0,0,416.349,154.259ZM391.5,147.174a10.076,10.076,0,1,1,20.151,0v7.086H391.5Zm12.163,19.336,1.232,6.011a.791.791,0,0,1-.779.949h-5.074a.785.785,0,0,1-.779-.949l1.209-5.954a1.642,1.642,0,0,0-.476-1.492,3.548,3.548,0,1,1,5.144-.057A1.714,1.714,0,0,0,403.659,166.51Z" transform="translate(-363.836 -122.946)"/><rect class="e" width="75.421" height="65.805" rx="0.712"/></g><g transform="translate(457.767 123.677)"><g transform="translate(5.697)"><path class="c" d="M448.07,156.247a1.615,1.615,0,0,1-1.615-1.615V143.241a1.615,1.615,0,0,1,3.23,0v11.391A1.616,1.616,0,0,1,448.07,156.247Z" transform="translate(-446.455 -141.626)"/></g><g transform="translate(0 5.694)"><path class="c" d="M457.249,147.07H445.855a1.615,1.615,0,1,1,0-3.23h11.394a1.615,1.615,0,1,1,0,3.23Z" transform="translate(-444.24 -143.84)"/></g></g><g transform="translate(-86.503 142.212)"><g transform="translate(5.697)"><path class="c" d="M340.462,175.419a1.615,1.615,0,0,1-1.615-1.615V162.413a1.615,1.615,0,0,1,3.23,0V173.8A1.616,1.616,0,0,1,340.462,175.419Z" transform="translate(-338.847 -160.798)"/></g><g transform="translate(0 5.694)"><path class="c" d="M349.643,166.242h-11.4a1.615,1.615,0,1,1,0-3.23h11.4a1.615,1.615,0,0,1,0,3.23Z" transform="translate(-336.632 -163.012)"/></g></g><path class="c" d="M336.033,232.018a5.064,5.064,0,1,1-5.064-5.064A5.066,5.066,0,0,1,336.033,232.018Z" transform="translate(-439.998 75.408)"/><path class="c" d="M336.033,232.018a5.064,5.064,0,1,1-5.064-5.064A5.066,5.066,0,0,1,336.033,232.018Z" transform="translate(190.002 75.408)"/><g transform="translate(100.234 134.473)"><path class="f" d="M410.315,196.36s-3.362-18.379-20.619-14.773c-12.2,2.549-18.387,15.506-11.872,26.278,7.579,12.528,22.787,6.854,22.787,6.854" transform="translate(-342.755 -181.118)"/><path class="g" d="M383.579,192.429c-1.662.905-3.668,6.71-4.023,8.567a17.2,17.2,0,0,0,.129,5.645c.437,3.086,5.362,17.806,13.708,20.179" transform="translate(-336.186 -163.337)"/><path class="h" d="M430.814,278.9l-4.655,15.331c-5.856.005-16.363-15.879-17.242-18.5-6.24-18.757,2.443-28.464,2.443-28.464l19.153-9.064Z" transform="translate(-293.288 -91.381)"/><g transform="translate(0 229.33)"><path class="i" d="M403.855,354.759c3.377,6.636,17.8,78.843,21.453,87.621.517,1.271,7.5,7.541,9.207,9.568a16.011,16.011,0,0,0,2.5,2.423c11.4,9.413,26.054-2.662,26.373-15.331V438.8c.278-22.687-1.921-75.6-5.473-115.4-1.5-16.777-4.8-31.4-5.728-40.166l-55.922-12.947C369.183,327.793,397.34,342.051,403.855,354.759Z" transform="translate(-327.788 -270.284)"/><path class="j" d="M388.605,392.972s-13.613-.072-15.591-10.411a27.233,27.233,0,0,0-9.863,9.953,4.431,4.431,0,0,0-.147,4.064,103.509,103.509,0,0,1,5.779,14.457c2.124,7.371,12.626,14.3,22.919,14.447h15.357s8.06-1.705-8.169-12.052C391.746,408.872,388.605,392.972,388.605,392.972Z" transform="translate(-362.58 -93.791)"/><path class="j" d="M409.8,391.871s3.511,2.235,12.255,1.564a65.126,65.126,0,0,0,8.41-1.564s34.487,13.017,34.657,16.2-4.218,2.755-4.218,2.755l-52.138.018S402.3,402.529,409.8,391.871Z" transform="translate(-294.048 -79.156)"/><path class="i" d="M401.271,389.188c2.459,19.791,11.692,51.783,14.611,71.248a207.784,207.784,0,0,1,2.477,26.679s14.511,1.515,21.813-1.865c0,0-.3-118.659-.815-143.959-.08-2.145-.159-3.614-.278-4.329-1.669-9.85-19.1-1.191-28.08,4.01-3.176,1.788-9.272,2.528-9.272,2.528s-.08.676-.239,1.867A177.224,177.224,0,0,0,401.271,389.188Z" transform="translate(-303.754 -172.535)"/><path class="i" d="M412.112,430.608c-2.75,11.082-40.03-.355-38.9-10.236,1.294-11.286,0-39.1,0-68.851,0-6.991.689-31.83,1.042-35.961a73.343,73.343,0,0,1,7.075-26.918c3.516-7.693,5.046-11.988,5.046-11.988l48.476-2.834s-1.9,39.016-7.443,77.734A776.95,776.95,0,0,1,412.112,430.608Z" transform="translate(-345.9 -264.726)"/><path class="i" d="M389.594,328.466s-8.359,9.1-11.587,27.97c-2.395,14-4.56,52.349-8.189,82.338-2.186,18.083-4.987,32.347-4.987,32.347s10.751,8.629,20.236,6.978c0,0,38.34-120.056,41.321-137.9C428.613,326.874,389.594,328.466,389.594,328.466Z" transform="translate(-359.042 -178.918)"/></g><path class="j" d="M472.977,350.823s2.947,14.213,2.947,15.91-.566,3.279-1.484,3.5c-10.874,2.752-23.407,3.436-41.447,3.318-25.519-.175-46.583-2.968-47.949-4.84-1.348-1.854,4.138-14.76,5.015-17.883,0,0,6.484-17.142-2.791-39.379a221.424,221.424,0,0,1-8.374-25.069c-6.247-22.628-10.6-48.924-5.566-57.084,6.834-11.07,19.308-12.5,25.321-11.988l51.151,3.143s15.956.892,21.535,9.956c2.947,4.789,10.092,22.793,15.079,43.651-9.038,3.143-19.238,6.777-19.238,6.777l.586,24.073s1.093,16.126,2.459,25.732C470.945,335.693,472.977,350.823,472.977,350.823Z" transform="translate(-349.141 -124.373)"/><path class="j" d="M383.62,214.036c-2.767.9-3.5-2.235-3.5-2.235s-1.662-6.528,3.878-15.946c6.175-10.493,14.6-12.4,14.6-12.4s2.394-.687,2.456,1.705" transform="translate(-335.368 -177.591)"/><path class="k" d="M410.946,236.235s-1.589,49.8,1.631,58.625c5.368,14.706,21.638,11.126,23.59-3.027,2.469-17.9-17.548-58.532-17.548-58.532" transform="translate(-287.169 -99.09)"/><path class="l" d="M425.331,268.385h-20.91l13.2-37.2a3.092,3.092,0,0,1,2.914-2.06h16.52a1.56,1.56,0,0,1,1.471,2.081Z" transform="translate(-296.809 -105.655)"/><path class="l" d="M417.561,229.327l2.006,2.067-1.932.1Z" transform="translate(-276.153 -105.335)"/><path class="m" d="M426.128,269.2h-20.91l13.2-37.2a3.093,3.093,0,0,1,2.914-2.058h16.52a1.559,1.559,0,0,1,1.469,2.081Z" transform="translate(-295.556 -104.366)"/><path class="n" d="M412.665,248.47a31.216,31.216,0,0,0,3.848-4.763c1.641-2.809,2.253-6.468.064-7.243s-2.446,3.894-7.6,7.371c-2.605,1.759-6.985,10.812-6.985,10.812l-.481,3.413" transform="translate(-301.375 -94.25)"/><path class="n" d="M381.828,248.2c11.677,24.079,30.555,24.932,30.555,24.932,22.656,2.41,20.6-21.792,20.6-21.792l-6.312-1.42a10.177,10.177,0,0,1-7.826-8.724c-.041-.319-.075-.628-.1-.946a80.266,80.266,0,0,1-.219-12.091c.1-1.957.229-3.192.229-3.192l1.872-15.851s-34.675-24.377-27.476-2.317a89.412,89.412,0,0,1,4.347,28.168,13.044,13.044,0,0,1-12.019,12.955Z" transform="translate(-332.324 -155.265)"/><path class="k" d="M403.841,223.5a80.268,80.268,0,0,1-.219-12.091L391.3,208.22A17.852,17.852,0,0,0,403.841,223.5Z" transform="translate(-317.426 -138.514)"/><path class="n" d="M437.416,200.549c2.322,12.461,1.312,45.919-12.374,51.238-12.608,4.9-27.378-8.891-37.71-24.117s1.363-35.83,15.154-39.5S434.394,184.322,437.416,200.549Z" transform="translate(-329.873 -173.221)"/><path class="n" d="M396.588,237.885l10.926,40.783s-12.659,6.939-24.253,6.63l-12.137-39.762" transform="translate(-349.151 -91.883)"/><path class="o" d="M398.342,243.687s-8.721,6.013-24.809,8.567l-1.811-5.741,25.745-5.918Z" transform="translate(-348.21 -87.623)"/><path class="j" d="M406.205,252.682l4.465,20.583a124.19,124.19,0,0,1-39.976,9.647s-7.742-55.227,14.323-64.162C385.018,218.75,397.111,216.649,406.205,252.682Z" transform="translate(-351.894 -121.998)"/><path class="n" d="M395.377,267.417c13.981-7.253,48.468-23.935,48.468-23.935l7.723,8.037S411.1,289.993,392.54,295.626c-10.28,3.117-17.646-27.111-17.646-27.111" transform="translate(-343.224 -83.085)"/><path class="n" d="M405.054,259.941c3.418-2.307,14.3-2.14,20.491-5.26-2.086-3.858-6.188-10.211-12.217-14.251-1.209.316-2.2.615-2.85.851-3.259,1.173-3.462,3.207-5.283,5.836s-3.462,2.955-3.462,2.955S400.988,262.675,405.054,259.941Z" transform="translate(-301.117 -87.882)"/><path class="n" d="M409.888,247.506l7.6-1.533a59.853,59.853,0,0,0,7.739-4.311c2.847-2.045,2.328-3.488,0-3.212-1.469.172-9.56,3.534-9.56,3.534s-4.984,1.072-6.522.836-1.052-1.44-1.052-1.44l-2.449,1.371-.63,2.135" transform="translate(-295.88 -91.047)"/><path class="n" d="M408.473,245.7l9.187-1.137s6.875-3.2,8.341-3.374c2.328-.273,2.85,1.17,0,3.215a31.554,31.554,0,0,1-7.739,4.308c-1.842.6-7.6,1.533-7.6,1.533" transform="translate(-290.439 -86.739)"/><path class="n" d="M408.948,246.351l7.166-.355s6.45-2.356,7.726-2.505c2.022-.239,2.474,1.016,0,2.793a27.424,27.424,0,0,1-6.728,3.745c-1.6.522-8.413,1.811-8.413,1.811" transform="translate(-290.084 -83.117)"/><path class="n" d="M407.568,245.67l9.421-1.535,5.874-2.9s4.094-2.847,5.82-2.325c1.528.46-.466,3.094-2.492,4.792a51.271,51.271,0,0,1-6.9,4.19l-10.077,2.438" transform="translate(-291.862 -90.378)"/><path class="f" d="M432.484,204.974s-.478,15.2-17.327,20.645c-11.528,3.722-22.075,14.148-22.075,14.148a54.237,54.237,0,0,1-9.858-18.091c-4.331-14.287-1.888-33.9,23.014-38.556,20.645-3.863,36.722,8.017,37.949,23.618a41.744,41.744,0,0,1-2.958,18.083S442.885,210.313,432.484,204.974Z" transform="translate(-332.855 -179.125)"/><path class="f" d="M402.693,222.056s-2.706.967-2.42,6.823a93.428,93.428,0,0,1-.252,12.392l-2.729-1.947s-2.816-4.722-7.271-13.338c-8.778-5.489-12.61-19.148-7.554-30.47,5.594-12.518,17.613,14.655,17.613,14.655Z" transform="translate(-334.869 -163.665)"/><path class="p" d="M409.678,239.315s-4.252,17.857-19.683,19.043C389.995,258.358,413.539,259.5,409.678,239.315Z" transform="translate(-319.486 -89.635)"/><path class="n" d="M397.985,205.476s-.64-8.5-7.778-6.183c-3.7,1.2-4.123,6.054-3.112,10.239,1,4.118,3.372,7.59,6.638,6.168" transform="translate(-324.786 -153.177)"/><path class="q" d="M415.446,190.885c.926,6.368-1.484,22.741-22.965,22.623" transform="translate(-315.578 -165.764)"/><path class="m" d="M402.351,203.447c-.152,1.427.342,2.652,1.1,2.731s1.5-1.011,1.651-2.441-.342-2.652-1.1-2.731S402.5,202.02,402.351,203.447Z" transform="translate(-300.106 -149.86)"/><path class="m" d="M397.037,203.029c-.141,1.43.36,2.652,1.121,2.726s1.492-1.024,1.633-2.451-.36-2.652-1.121-2.726S397.178,201.6,397.037,203.029Z" transform="translate(-308.454 -150.533)"/><path class="r" d="M402.042,203.543c.224,2.456,1.991,6.53-2.76,6.288" transform="translate(-304.887 -145.866)"/><path class="s" d="M402.229,201.334c.681-1.211,3.04-2.69,3.742.1" transform="translate(-300.255 -151.687)"/><path class="s" d="M396.907,201.008c.674-1.217,3.1-2.834,3.817-.051" transform="translate(-308.62 -152.344)"/><path class="t" d="M403.123,209.176a13.764,13.764,0,0,1-5.3-1.093" transform="translate(-307.174 -138.73)"/><path class="u" d="M389.82,200.658a3.763,3.763,0,0,1,1.031,2.983,3.723,3.723,0,0,1-1.716,3.344" transform="translate(-320.836 -150.402)"/><path class="u" d="M388.678,201.3c1.638-.023,2.526,1.777,2.713,2.7" transform="translate(-321.556 -149.391)"/><path class="v" d="M394.284,204.354c-.2,1.237,1.091,2.469,2.873,2.752s3.387-.489,3.585-1.726-1.091-2.469-2.873-2.755S394.482,203.117,394.284,204.354Z" transform="translate(-312.775 -147.4)"/><path class="v" d="M402.1,205.031c-.134.846.746,1.69,1.962,1.883s2.317-.334,2.451-1.181-.746-1.69-1.962-1.883S402.231,204.185,402.1,205.031Z" transform="translate(-300.483 -145.446)"/></g></g></g></svg>