<svg xmlns="http://www.w3.org/2000/svg" width="248.908" height="75.4" viewBox="0 0 248.908 75.4"><defs><style>.a{fill:#02797e;}.b{fill:#fff;}</style></defs><path class="a" d="M110.751,31.921a4.991,4.991,0,0,0,2.646.772c1.543,0,2.425-.772,2.425-1.984,0-1.1-.661-1.654-2.2-2.315-1.874-.661-3.087-1.654-3.087-3.307,0-1.764,1.543-3.087,3.748-3.087a4.8,4.8,0,0,1,2.535.551l-.441,1.213a4.15,4.15,0,0,0-2.2-.551c-1.543,0-2.2.992-2.2,1.764,0,1.1.661,1.654,2.315,2.2,1.984.772,2.866,1.654,2.866,3.417s-1.323,3.307-3.968,3.307a5.93,5.93,0,0,1-2.976-.772l.551-1.213" transform="translate(11.278 2.251)"/><path class="a" d="M119.433,29.53A2.658,2.658,0,0,0,122.3,32.4a5.706,5.706,0,0,0,2.315-.441l.22,1.1a6.978,6.978,0,0,1-2.756.551A3.85,3.85,0,0,1,118,29.42c0-2.535,1.543-4.52,3.858-4.52,2.646,0,3.417,2.425,3.417,3.858v.772h-5.842m4.409-.992a2.151,2.151,0,0,0-2.094-2.425,2.493,2.493,0,0,0-2.315,2.425Z" transform="translate(12.076 2.548)"/><path class="a" d="M132.3,33.157a5.9,5.9,0,0,1-2.425.441,3.85,3.85,0,0,1-4.079-4.189A4.225,4.225,0,0,1,130.209,25a4.949,4.949,0,0,1,2.094.441l-.331,1.1a3.115,3.115,0,0,0-1.764-.441,2.954,2.954,0,0,0-2.976,3.2,2.841,2.841,0,0,0,2.866,3.087,3.891,3.891,0,0,0,1.874-.441l.331,1.213" transform="translate(12.874 2.558)"/><path class="a" d="M140.145,31.173a12.7,12.7,0,0,0,.11,2.2h-1.323l-.11-1.323h0a3.13,3.13,0,0,1-2.756,1.543c-1.323,0-2.866-.772-2.866-3.638V25.11h1.543v4.52c0,1.543.551,2.646,1.874,2.646a2.051,2.051,0,0,0,1.984-1.433,1.635,1.635,0,0,0,.11-.772V25h1.543v6.173" transform="translate(13.632 2.558)"/><path class="a" d="M141.81,27.746a17.882,17.882,0,0,0-.11-2.535h1.323l.11,1.654h0a2.447,2.447,0,0,1,2.315-1.764h.441v1.433h-.551a2.027,2.027,0,0,0-1.984,1.874v5.181H141.81V27.746" transform="translate(14.501 2.569)"/><path class="a" d="M147.692,23.984a.992.992,0,1,1,.992-.992.925.925,0,0,1-.992.992h0m.772,9.811h-1.433V25.527h1.543V33.8Z" transform="translate(15.013 2.251)"/><path class="a" d="M152.456,23.4v1.984h2.2v1.1h-2.2v4.52c0,.992.331,1.654,1.1,1.654a1.9,1.9,0,0,0,.882-.11l.11,1.1a4.111,4.111,0,0,1-1.323.22,2.243,2.243,0,0,1-1.654-.661,3.114,3.114,0,0,1-.551-2.2v-4.52H149.7v-1.1h1.323V23.841l1.433-.441" transform="translate(15.32 2.395)"/><path class="a" d="M156.574,25.21l1.764,4.85a14.486,14.486,0,0,1,.551,1.654h0c.11-.441.331-1.1.551-1.764l1.654-4.85h1.543l-2.315,5.953c-1.1,2.866-1.764,4.3-2.866,5.181a4.405,4.405,0,0,1-1.874.992l-.331-1.213a3.386,3.386,0,0,0,1.323-.772,4.03,4.03,0,0,0,1.213-1.654.551.551,0,0,0,0-.661L154.7,25.32h1.874" transform="translate(15.832 2.569)"/><path class="a" d="M110.751,47.421a4.991,4.991,0,0,0,2.646.772c1.543,0,2.425-.772,2.425-1.984,0-1.1-.661-1.654-2.2-2.315-1.874-.661-3.087-1.654-3.087-3.307,0-1.764,1.543-3.087,3.748-3.087a4.8,4.8,0,0,1,2.535.551l-.441,1.213a4.15,4.15,0,0,0-2.2-.551c-1.543,0-2.2.992-2.2,1.764,0,1.1.661,1.654,2.315,2.2,1.984.772,2.866,1.654,2.866,3.417s-1.323,3.307-3.968,3.307a5.93,5.93,0,0,1-2.976-.772l.551-1.213" transform="translate(11.278 3.838)"/><path class="a" d="M120.256,38.9v1.984h2.2v1.1h-2.2V46.4c0,.992.331,1.654,1.1,1.654a1.9,1.9,0,0,0,.882-.11l.11,1.1a4.111,4.111,0,0,1-1.323.22,2.243,2.243,0,0,1-1.654-.661,3.114,3.114,0,0,1-.551-2.2v-4.52H117.5v-1.1h1.323V39.231l1.433-.331" transform="translate(12.025 3.981)"/><path class="a" d="M129.394,46.994a10.718,10.718,0,0,0,.11,1.984h-1.323l-.11-.992h0a2.976,2.976,0,0,1-2.535,1.213A2.4,2.4,0,0,1,123,46.773c0-1.984,1.764-3.087,4.961-3.087v-.22a1.661,1.661,0,0,0-1.874-1.874,3.975,3.975,0,0,0-2.2.661l-.331-.992a5.1,5.1,0,0,1,2.756-.661c2.535,0,3.2,1.764,3.2,3.417v2.976m-1.543-2.2c-1.654,0-3.527.22-3.527,1.874a1.329,1.329,0,0,0,1.433,1.433,1.954,1.954,0,0,0,1.984-1.433c0-.11.11-.331.11-.441Z" transform="translate(12.588 4.155)"/><path class="a" d="M131.01,42.925a13.362,13.362,0,0,0-.11-2.2h1.323l.11,1.323h0a3.056,3.056,0,0,1,2.756-1.543c1.1,0,2.976.661,2.976,3.527v4.961h-1.543v-4.74c0-1.323-.551-2.425-1.874-2.425a2.019,2.019,0,0,0-1.984,1.543,1.4,1.4,0,0,0-.11.661v4.961H131.01V42.925" transform="translate(13.396 4.145)"/><path class="a" d="M146.806,37.2V47.231a12,12,0,0,0,.11,2.094h-1.323l-.11-1.433h0a3.06,3.06,0,0,1-2.756,1.654c-1.984,0-3.527-1.654-3.527-4.189,0-2.756,1.764-4.409,3.748-4.409a2.834,2.834,0,0,1,2.535,1.213h0V37.2h1.323m-1.543,7.165a1.4,1.4,0,0,0-.11-.661,2.164,2.164,0,0,0-2.2-1.764c-1.543,0-2.535,1.323-2.535,3.2,0,1.654.882,3.087,2.425,3.087a2.321,2.321,0,0,0,2.2-1.764,1.4,1.4,0,0,0,.11-.661V44.365Z" transform="translate(14.246 3.807)"/><path class="a" d="M154.294,46.994a10.716,10.716,0,0,0,.11,1.984h-1.323l-.11-.992h0a2.976,2.976,0,0,1-2.535,1.213,2.4,2.4,0,0,1-2.535-2.425c0-1.984,1.764-3.087,4.961-3.087v-.22a1.661,1.661,0,0,0-1.874-1.874,3.975,3.975,0,0,0-2.2.661l-.331-.992a5.1,5.1,0,0,1,2.756-.661c2.535,0,3.2,1.764,3.2,3.417v2.976m-1.653-2.2c-1.654,0-3.527.22-3.527,1.874a1.329,1.329,0,0,0,1.433,1.433,1.954,1.954,0,0,0,1.984-1.433c0-.11.11-.331.11-.441V44.789Z" transform="translate(15.136 4.155)"/><path class="a" d="M155.91,43.246a17.884,17.884,0,0,0-.11-2.535h1.323l.11,1.654h.11a2.447,2.447,0,0,1,2.315-1.764h.441v1.433h-.551a2.027,2.027,0,0,0-1.984,1.874v5.181H156.02l-.11-5.842" transform="translate(15.944 4.155)"/><path class="a" d="M168.016,37.2V47.231a12,12,0,0,0,.11,2.094H166.8l-.11-1.433h0a3.111,3.111,0,0,1-2.866,1.654c-1.984,0-3.527-1.654-3.527-4.189,0-2.756,1.654-4.409,3.748-4.409a2.834,2.834,0,0,1,2.535,1.213h0V37.2h1.433m-1.433,7.165a1.4,1.4,0,0,0-.11-.661,2.252,2.252,0,0,0-2.2-1.764c-1.543,0-2.425,1.323-2.425,3.2,0,1.654.882,3.087,2.425,3.087a2.23,2.23,0,0,0,2.2-1.764c0-.22.11-.441.11-.661Z" transform="translate(16.405 3.807)"/><path class="a" d="M169.431,47.445a3.525,3.525,0,0,0,1.984.551c1.1,0,1.543-.551,1.543-1.213,0-.772-.441-1.1-1.543-1.543-1.543-.551-2.2-1.323-2.2-2.315a2.575,2.575,0,0,1,2.866-2.425,3.273,3.273,0,0,1,1.984.551l-.331,1.1a2.975,2.975,0,0,0-1.654-.441,1.172,1.172,0,0,0-1.323,1.1c0,.661.441.992,1.543,1.433,1.433.551,2.2,1.213,2.2,2.535,0,1.433-1.1,2.535-3.087,2.535a4.786,4.786,0,0,1-2.315-.551l.331-1.323" transform="translate(17.306 4.145)"/><path class="a" d="M187.219,48.954a8.536,8.536,0,0,1-3.087.551,5.466,5.466,0,0,1-5.732-5.842,5.728,5.728,0,0,1,6.063-6.063,6.1,6.1,0,0,1,2.756.551l-.331,1.213a6.151,6.151,0,0,0-2.315-.441c-2.756,0-4.52,1.764-4.52,4.74,0,2.866,1.654,4.63,4.409,4.63a7.333,7.333,0,0,0,2.425-.441l.331,1.1" transform="translate(18.257 3.848)"/><path class="a" d="M191.268,49.208a3.974,3.974,0,0,1-3.968-4.3,4.09,4.09,0,0,1,4.079-4.409,3.88,3.88,0,0,1,3.968,4.189c0,3.087-2.094,4.52-4.079,4.52h0m0-1.213c1.433,0,2.535-1.323,2.535-3.2,0-1.433-.661-3.2-2.535-3.2-1.764,0-2.535,1.654-2.535,3.2.11,1.874,1.1,3.2,2.535,3.2Z" transform="translate(19.168 4.145)"/><path class="a" d="M203.245,46.673a12.7,12.7,0,0,0,.11,2.2h-1.323l-.11-1.323h0a3.13,3.13,0,0,1-2.756,1.543c-1.323,0-2.866-.772-2.866-3.638V40.61h1.543v4.52c0,1.543.441,2.646,1.874,2.646a2.16,2.16,0,0,0,1.984-1.433,1.634,1.634,0,0,0,.11-.772V40.5h1.543v6.173" transform="translate(20.089 4.145)"/><path class="a" d="M204.91,42.925a13.364,13.364,0,0,0-.11-2.2h1.323l.11,1.323h0a3.056,3.056,0,0,1,2.756-1.543c1.1,0,2.976.661,2.976,3.527v4.961h-1.543v-4.74c0-1.323-.551-2.425-1.874-2.425a2.019,2.019,0,0,0-1.984,1.543,1.4,1.4,0,0,0-.11.661v4.961H204.91V42.925" transform="translate(20.959 4.145)"/><path class="a" d="M219.5,48.657a5.505,5.505,0,0,1-2.425.441A3.85,3.85,0,0,1,213,44.909a4.225,4.225,0,0,1,4.409-4.409,4.949,4.949,0,0,1,2.094.441l-.331,1.1a3.115,3.115,0,0,0-1.764-.441,2.954,2.954,0,0,0-2.976,3.2,2.841,2.841,0,0,0,2.866,3.087,3.891,3.891,0,0,0,1.874-.441l.331,1.213" transform="translate(21.798 4.145)"/><path class="a" d="M221.192,39.484a.992.992,0,1,1,.992-.992.925.925,0,0,1-.992.992h0m.772,9.811H220.42V41.027h1.543Z" transform="translate(22.535 3.838)"/><rect class="a" width="1.543" height="12.126" transform="translate(247.034 41.007)"/><path class="a" d="M114.313,47.621,25.795,75.4,0,5.181,92.927,0l21.385,47.621"/><path class="b" d="M45.753,31.352a9.408,9.408,0,0,1-4.52,8.157,16.925,16.925,0,0,1-5.181,1.984,30.878,30.878,0,0,1-6.724.661H27.564v9.039H16.1V21.1H29.549c5.071,0,9.039.882,11.905,2.535a8.365,8.365,0,0,1,4.3,7.716m-11.023.11c0-2.646-1.984-3.968-5.842-3.968H27.454v8.047h1.323a8.164,8.164,0,0,0,4.409-.992A3.322,3.322,0,0,0,34.73,31.462Z" transform="translate(1.648 2.159)"/><path class="b" d="M71.236,51.235a32.514,32.514,0,0,1-6.063.551,28.312,28.312,0,0,1-8.488-1.1A20.308,20.308,0,0,1,50.291,47.6a12.881,12.881,0,0,1-3.968-4.85A15.439,15.439,0,0,1,45,36.353a13.948,13.948,0,0,1,1.433-6.394A15.852,15.852,0,0,1,50.512,25,21.061,21.061,0,0,1,56.8,21.8a26.074,26.074,0,0,1,7.937-1.1,36.141,36.141,0,0,1,6.173.441,17.027,17.027,0,0,1,3.307.992V30.18a13.455,13.455,0,0,0-3.858-1.543,15.462,15.462,0,0,0-4.52-.661,9.9,9.9,0,0,0-6.394,2.094c-1.654,1.433-2.425,3.417-2.425,6.173a7.987,7.987,0,0,0,.772,3.638,7.829,7.829,0,0,0,2.094,2.535,9.021,9.021,0,0,0,3.087,1.543,14,14,0,0,0,3.748.551,17.123,17.123,0,0,0,4.079-.441,22.822,22.822,0,0,0,4.189-1.323v7.606c-1.764.441-1.984.551-3.748.882" transform="translate(4.605 2.118)"/><rect class="b" width="11.575" height="30.204" transform="translate(84.329 23.259)"/><path class="b" d="M89.389,13.114a5.922,5.922,0,0,1-1.984,4.74,7.559,7.559,0,0,1-4.961,1.764,7.023,7.023,0,0,1-4.961-1.764,5.922,5.922,0,0,1-1.984-4.74,6.156,6.156,0,0,1,1.984-4.85,7.858,7.858,0,0,1,9.921,0,6,6,0,0,1,1.984,4.85" transform="translate(7.727 0.665)"/><g transform="translate(241.853 23.59)"><path class="a" d="M226.455,24.817a3.529,3.529,0,1,1-3.527-3.417A3.459,3.459,0,0,1,226.455,24.817Zm-5.953,0a2.472,2.472,0,0,0,2.425,2.535,2.4,2.4,0,0,0,2.425-2.535,2.5,2.5,0,0,0-2.535-2.535A2.384,2.384,0,0,0,220.5,24.817Zm1.984,1.654h-.992v-3.2c.22,0,.772-.11,1.433-.11a2.571,2.571,0,0,1,1.213.22.667.667,0,0,1,.331.661c0,.331-.331.551-.772.661h0a.967.967,0,0,1,.661.772c.11.441.11.661.22.772h-1.1c-.11-.11-.11-.441-.22-.661-.11-.331-.22-.441-.551-.441h-.331v1.323Zm.11-1.764h.331c.331,0,.551-.11.551-.331a.5.5,0,0,0-.551-.441H222.6Z" transform="translate(-219.4 -21.4)"/></g></svg>