<svg xmlns="http://www.w3.org/2000/svg" width="24.934" height="28" viewBox="0 0 24.934 28"><g transform="translate(-0.5 0)"><path d="M1.016,18.855A2.561,2.561,0,0,0,.5,20.409v22.83A2.566,2.566,0,0,0,.948,44.7L13.37,31.742Zm0,0" transform="translate(0 -17.825)"/><path d="M47.243,12.731l4.03-4.2L37.107.349A2.552,2.552,0,0,0,35.129.095Zm0,0" transform="translate(-32.735 0)"/><path d="M45.127,276.18,32.891,288.943a2.54,2.54,0,0,0,.81.133,2.576,2.576,0,0,0,1.291-.35l14.267-8.237Zm0,0" transform="translate(-30.619 -261.076)"/><path d="M285.936,173.786l-4.141-2.391-4.357,4.544,4.458,4.651,4.04-2.332a2.581,2.581,0,0,0,0-4.471Zm0,0" transform="translate(-261.792 -162.022)"/></g></svg>