<svg xmlns="http://www.w3.org/2000/svg" width="425.7" height="326.104" viewBox="0 0 425.7 326.104"><defs><style>.a{fill:#cfe7ff;}.b{fill:#c0d8fb;}.c{fill:#dceaff;}.d{fill:#ed7d2b;}.e{fill:#f99746;}.f{fill:#2b478b;}.g{fill:#ffb93e;}.h{fill:#ffa412;}.i{fill:#ffeddc;}.j{fill:#db6a1d;}.k{fill:#e5c1a1;}.l{fill:#f9ddbf;}.m,.n{fill:#e2810e;}.m{opacity:0.5;}.o{fill:#233862;}.p{fill:#ffb27d;}.q{fill:#ed975d;}.r{fill:#2c3a64;}.s{fill:#1e3d70;}.t{fill:#2a4e96;}</style></defs><g transform="translate(-566.996 -224.028)"><g transform="translate(566.996 283.847)"><path class="a" d="M744.331,635.794l-58.178,62.884L602.32,621.117v0L567,588.435l58.177-62.882,65.955,61.019Z" transform="translate(-566.996 -525.553)"/><g transform="translate(11.75 11.881)"><path class="b" d="M778.491,684.529l-45.167,48.819-107.1-99.088,45.167-48.82Zm-41.113,41.453,34.062-36.817a6.164,6.164,0,0,0-.339-8.711l-95-87.888a6.275,6.275,0,0,0-8.868.345l-33.926,36.67a6.223,6.223,0,0,0,.342,8.794l95.057,87.945A6.133,6.133,0,0,0,737.378,725.982Z" transform="translate(-626.222 -585.44)"/></g><circle class="b" cx="17.894" cy="17.894" r="17.894" transform="translate(69.643 68.295) rotate(-1.119)"/></g><g transform="translate(647.801 224.028)"><path class="c" d="M1093.656,382.365l-83.56,18.891-25.182-111.4v0L974.3,242.917l83.558-18.889,19.813,87.64Z" transform="translate(-974.303 -224.028)"/><g transform="translate(10.92 9.079)"><path class="b" d="M1126.39,412.111l-64.871,14.665-32.173-142.318,64.871-14.665ZM1069.031,423l48.923-11.06a6.165,6.165,0,0,0,4.654-7.372l-28.536-126.23a6.275,6.275,0,0,0-7.5-4.737l-48.727,11.016a6.223,6.223,0,0,0-4.7,7.442L1061.7,418.37A6.134,6.134,0,0,0,1069.031,423Z" transform="translate(-1029.346 -269.793)"/></g><circle class="b" cx="17.894" cy="17.894" r="17.894" transform="translate(34.135 87.571) rotate(-45)"/></g><g transform="translate(844.378 274.515)"><path class="c" d="M2054.272,678.6l-89.1-31.25,41.664-118.787v0l17.554-50.05,89.1,31.25-32.776,93.453Z" transform="translate(-1965.17 -478.515)"/><g transform="translate(13.352 10.924)"><path class="b" d="M2101.644,709.6l-69.173-24.262L2085.7,533.581l69.174,24.262ZM2041.7,686.206l52.167,18.3a6.8,6.8,0,0,0,8.661-4.163l47.21-134.6a6.917,6.917,0,0,0-4.238-8.816L2093.537,538.7a6.859,6.859,0,0,0-8.743,4.2l-47.24,134.689A6.76,6.76,0,0,0,2041.7,686.206Z" transform="translate(-2032.47 -533.581)"/></g><path class="b" d="M2242.625,890.958a19.722,19.722,0,1,1,12.083,25.138A19.722,19.722,0,0,1,2242.625,890.958Z" transform="translate(-2186.686 -798.553)"/></g><g transform="translate(642.78 286.604)"><path class="d" d="M984.927,1104.729v25.434a8.881,8.881,0,0,1-8.854,8.854H957.848a8.881,8.881,0,0,1-8.854-8.854v-25.434a8.881,8.881,0,0,1,8.854-8.854h18.226A8.881,8.881,0,0,1,984.927,1104.729Z" transform="translate(-948.994 -985.488)"/><path class="e" d="M984.927,1104.729v14.17a8.882,8.882,0,0,1-8.854,8.854H957.848a8.882,8.882,0,0,1-8.854-8.854v-14.17a8.881,8.881,0,0,1,8.854-8.854h18.226A8.881,8.881,0,0,1,984.927,1104.729Z" transform="translate(-948.994 -985.488)"/><path class="d" d="M1273.774,822.156a93.762,93.762,0,0,1-7.469,36.751,94.987,94.987,0,0,1-87.181,57.9h-27.061a94.849,94.849,0,0,1-81.451-46.588,94.13,94.13,0,0,1-5.73-84.815,94.987,94.987,0,0,1,87.181-57.9h27.061a94.881,94.881,0,0,1,82.794,48.928A93.812,93.812,0,0,1,1273.774,822.156Z" transform="translate(-1035.904 -690.198)"/><path class="e" d="M1261.918,776.434c2.246,10.917.479,26.52-2.393,34.782-19.1,54.939-64,64.857-109.9,69.035-32.634,2.97-79.017-10.03-79.017-10.03a94.13,94.13,0,0,1-5.73-84.815,94.987,94.987,0,0,1,87.181-57.9h27.061A94.881,94.881,0,0,1,1261.918,776.434Z" transform="translate(-1035.904 -690.198)"/><path class="e" d="M1300.37,600.472h-37.228c-3.754,0-6.8-2.279-6.8-5.091v-50.83a4.092,4.092,0,0,1,.744-2.342c1.82-2.642,6.6-3.732,10.166-1.714,14.135,8.012,37.292,25.425,39.9,54.54C1307.417,597.976,1304.3,600.472,1300.37,600.472Z" transform="translate(-1195.37 -539.452)"/><path class="d" d="M1264.656,611.614h-1.514c-3.754,0-6.8-2.279-6.8-5.091v-50.83a4.092,4.092,0,0,1,.744-2.342,4.826,4.826,0,0,1,.459.449c8.087,9,19.743,26.689,16.459,51.464C1273.53,608.867,1269.489,611.614,1264.656,611.614Z" transform="translate(-1195.37 -550.594)"/><path class="f" d="M1199.333,995.9a5.547,5.547,0,1,1,5.547,5.547A5.547,5.547,0,0,1,1199.333,995.9Z" transform="translate(-1149.669 -900.898)"/><path class="d" d="M1715.015,1426.577l-8.829,57.328a7,7,0,0,0,6.77,8.789h23.2a13.284,13.284,0,0,0,11.808-7.2l36.061-71.929Z" transform="translate(-1555.778 -1240.151)"/><path class="d" d="M1195.641,1454.262l7.083,56.344a7,7,0,0,1-6.77,8.789h-23.2a13.284,13.284,0,0,1-11.808-7.2l-37-65.322Z" transform="translate(-1089.235 -1266.851)"/><g transform="translate(224.48 106.231)"><path class="d" d="M2116.446,1126.376a6.247,6.247,0,0,1-1.6-.208c-4.114-1.083-6.468-5.995-6.144-12.819a34.172,34.172,0,0,1,7.683-19.38,34.928,34.928,0,0,1,6.957-6.512,19.88,19.88,0,0,0-5.117-5.641,13.177,13.177,0,0,0-11.976-2.505c-11.471,3.114-21.193,19.51-21.98,21.353a1.94,1.94,0,0,1-3.664-1.276,56.279,56.279,0,0,1,7.145-10.763c6.907-8.448,12.925-11.649,16.757-12.846a17.052,17.052,0,0,1,16.047,2.934,23.847,23.847,0,0,1,6.078,6.674,40.431,40.431,0,0,1,13.194-4.506,1.94,1.94,0,0,1,.628,3.828,36.506,36.506,0,0,0-12.062,4.142,29.335,29.335,0,0,1,2.072,8.733,38.359,38.359,0,0,1-3.578,19.455C2124,1123.015,2120.189,1126.376,2116.446,1126.376Zm8.618-35.372a31,31,0,0,0-5.664,5.409,30.217,30.217,0,0,0-6.82,17.119c-.221,4.668,1.117,8.321,3.257,8.884,2.162.567,5.27-2.337,7.557-7.067a34.865,34.865,0,0,0,3.206-17.43A26,26,0,0,0,2125.064,1091Zm-40.776,9.61-.012.034Z" transform="translate(-2080.508 -1074.921)"/></g></g><g transform="translate(665.296 465.944)"><g transform="translate(7.486 64.828)"><path class="g" d="M1173.643,1771.627v3.693a1.258,1.258,0,0,1-.291.794,1.688,1.688,0,0,1-.794.532,1.651,1.651,0,0,1-.311.074,1.944,1.944,0,0,1-.3.022h-70.03a1.64,1.64,0,0,1-1.678-1.21,1.4,1.4,0,0,1-.015-.14c0-.024,0-.048,0-.072v-3.693c0-.024,0-.048,0-.072a1.4,1.4,0,0,1,.015-.14,1.64,1.64,0,0,1,1.678-1.21h70.03a1.944,1.944,0,0,1,.3.022,1.865,1.865,0,0,1,.311.074,1.691,1.691,0,0,1,.794.532A1.259,1.259,0,0,1,1173.643,1771.627Z" transform="translate(-1100.222 -1770.205)"/><path class="h" d="M1139.255,1776.742h-37.519a1.5,1.5,0,0,1-1.455-1.053,1.233,1.233,0,0,1-.041-.157,1.4,1.4,0,0,1-.015-.14c0-.024,0-.048,0-.072v-3.693c0-.024,0-.048,0-.072a1.4,1.4,0,0,1,.015-.14,1.215,1.215,0,0,1,.041-.157,1.5,1.5,0,0,1,1.455-1.053h32.912A11.455,11.455,0,0,0,1139.255,1776.742Z" transform="translate(-1100.222 -1770.205)"/><g transform="translate(25.732)"><rect class="h" width="0.796" height="6.538" transform="translate(38.372 0)"/><rect class="h" width="0.796" height="6.538" transform="translate(35.677 0)"/><rect class="h" width="0.796" height="6.538" transform="translate(32.447 0)"/><rect class="h" width="0.796" height="6.538" transform="translate(27.494 0)"/><rect class="h" width="0.796" height="6.538" transform="translate(22.257 0)"/><rect class="h" width="0.796" height="6.538" transform="translate(14.229 0)"/><rect class="h" width="0.796" height="6.538" transform="translate(6.712 0)"/><rect class="h" width="0.796" height="6.538" transform="translate(0 0)"/><rect class="h" width="0.796" height="6.538" transform="translate(40.936 0)"/><rect class="h" width="0.796" height="6.538" transform="translate(42.631 0)"/><rect class="h" width="0.796" height="6.538" transform="translate(44.267 0)"/><path class="h" d="M1460.055,1770.226v6.492a1.974,1.974,0,0,1-.3.023h-.5V1770.2h.5A1.974,1.974,0,0,1,1460.055,1770.226Z" transform="translate(-1413.762 -1770.203)"/><path class="h" d="M1465.63,1771.22v5.281a1.686,1.686,0,0,1-.8.532v-6.346A1.689,1.689,0,0,1,1465.63,1771.22Z" transform="translate(-1418.231 -1770.592)"/></g></g><g transform="translate(0 58.289)"><path class="g" d="M1135.906,1738.669v3.69a1.27,1.27,0,0,1-.289.8,1.688,1.688,0,0,1-.16.168,1.755,1.755,0,0,1-.637.363,1.774,1.774,0,0,1-.311.072,1.908,1.908,0,0,1-.3.024H1064.18a1.64,1.64,0,0,1-1.676-1.212c-.006-.046-.013-.092-.015-.138,0-.024,0-.048,0-.074v-3.69c0-.024,0-.05,0-.074,0-.046.009-.092.015-.138a1.64,1.64,0,0,1,1.676-1.212h70.032c.044,0,.09,0,.133.006a.325.325,0,0,1,.048,0,.007.007,0,0,1,.009,0,.322.322,0,0,1,.064.007l.043.006a1.774,1.774,0,0,1,.311.072c.059.02.116.042.171.065h0l.109.053.061.035a.475.475,0,0,1,.057.035,1.256,1.256,0,0,1,.206.151c.022.017.039.037.059.055s.024.022.035.033a.131.131,0,0,1,.017.019l.015.016a.632.632,0,0,1,.063.072A1.263,1.263,0,0,1,1135.906,1738.669Z" transform="translate(-1062.487 -1737.245)"/><path class="h" d="M1101.518,1743.784H1064a1.5,1.5,0,0,1-1.454-1.056,1.257,1.257,0,0,1-.041-.156c-.006-.046-.013-.092-.015-.138,0-.024,0-.048,0-.074v-3.69c0-.024,0-.05,0-.074,0-.046.009-.092.015-.138a1.246,1.246,0,0,1,.041-.156,1.5,1.5,0,0,1,1.454-1.056h32.912c.013.055.028.107.046.162A11.433,11.433,0,0,0,1101.518,1743.784Z" transform="translate(-1062.487 -1737.245)"/><g transform="translate(25.73 0.001)"><rect class="h" width="0.796" height="6.538" transform="translate(38.372 0)"/><rect class="h" width="0.796" height="6.538" transform="translate(35.678 0)"/><rect class="h" width="0.796" height="6.538" transform="translate(32.447 0)"/><rect class="h" width="0.796" height="6.538" transform="translate(27.494 0)"/><rect class="h" width="0.796" height="6.538" transform="translate(22.258 0)"/><rect class="h" width="0.796" height="6.538" transform="translate(14.229 0)"/><rect class="h" width="0.796" height="6.538" transform="translate(6.712 0)"/><rect class="h" width="0.796" height="6.538" transform="translate(0 0)"/><rect class="h" width="0.796" height="6.538" transform="translate(40.936 0)"/><rect class="h" width="0.796" height="6.538" transform="translate(42.631 0)"/><rect class="h" width="0.796" height="6.538" transform="translate(44.267 0)"/><path class="h" d="M1422.313,1737.271v6.492a1.986,1.986,0,0,1-.3.023h-.5v-6.538h.5A1.955,1.955,0,0,1,1422.313,1737.271Z" transform="translate(-1376.02 -1737.248)"/><path class="h" d="M1427.888,1738.264v5.281a1.688,1.688,0,0,1-.8.532v-6.346A1.691,1.691,0,0,1,1427.888,1738.264Z" transform="translate(-1380.489 -1737.635)"/></g></g><g transform="translate(3.618 51.913)"><path class="g" d="M1154.145,1706.533v3.693a1.26,1.26,0,0,1-.291.794,1.678,1.678,0,0,1-.794.531,2.01,2.01,0,0,1-.311.074,2.209,2.209,0,0,1-.3.022h-70.032a1.948,1.948,0,0,1-.781-.162,1.478,1.478,0,0,1-.893-1.033c-.007-.031-.009-.061-.013-.092a.576.576,0,0,1,0-.063c0-.024,0-.048,0-.072v-3.693c0-.024,0-.048,0-.072a.911.911,0,0,1,.016-.138,1.638,1.638,0,0,1,1.676-1.212h70.032a1.9,1.9,0,0,1,.3.022,1.783,1.783,0,0,1,.311.072,1.7,1.7,0,0,1,.794.534A1.258,1.258,0,0,1,1154.145,1706.533Z" transform="translate(-1080.726 -1705.11)"/><path class="h" d="M1119.757,1711.648h-37.519a1.566,1.566,0,0,1-.7-.162,1.434,1.434,0,0,1-.8-1.033c-.007-.031-.009-.061-.013-.092a.576.576,0,0,1,0-.063c0-.024,0-.048,0-.072v-3.693c0-.024,0-.048,0-.072a.911.911,0,0,1,.016-.138,1.2,1.2,0,0,1,.039-.153,1.5,1.5,0,0,1,1.455-1.06h32.911a11.477,11.477,0,0,0,4.378,6.375C1119.6,1711.541,1119.678,1711.6,1119.757,1711.648Z" transform="translate(-1080.726 -1705.11)"/><g transform="translate(25.73)"><rect class="h" width="0.796" height="6.538" transform="translate(38.372 0)"/><rect class="h" width="0.796" height="6.538" transform="translate(35.678 0)"/><rect class="h" width="0.796" height="6.538" transform="translate(32.447 0)"/><rect class="h" width="0.796" height="6.538" transform="translate(27.494 0)"/><rect class="h" width="0.796" height="6.538" transform="translate(22.258 0)"/><rect class="h" width="0.796" height="6.538" transform="translate(14.229 0)"/><rect class="h" width="0.796" height="6.538" transform="translate(6.712 0)"/><rect class="h" width="0.796" height="6.538" transform="translate(0 0)"/><rect class="h" width="0.796" height="6.538" transform="translate(40.936 0)"/><rect class="h" width="0.796" height="6.538" transform="translate(42.631 0)"/><rect class="h" width="0.796" height="6.538" transform="translate(44.267 0)"/><path class="h" d="M1440.552,1705.129v6.492a1.945,1.945,0,0,1-.3.023h-.5v-6.538h.5A1.976,1.976,0,0,1,1440.552,1705.129Z" transform="translate(-1394.259 -1705.106)"/><path class="h" d="M1446.127,1706.122v5.281a1.684,1.684,0,0,1-.8.533v-6.346A1.685,1.685,0,0,1,1446.127,1706.122Z" transform="translate(-1398.728 -1705.494)"/></g></g><g transform="translate(5.296 45.375)"><path class="g" d="M1162.6,1673.574v3.691a1.253,1.253,0,0,1-.291.794c-.024.031-.05.059-.077.088a1.638,1.638,0,0,1-.484.352,2.009,2.009,0,0,1-.234.094,1.85,1.85,0,0,1-.311.072c-.048.006-.1.013-.147.017s-.1.007-.153.007h-70.03a1.641,1.641,0,0,1-1.678-1.212c-.007-.046-.013-.092-.015-.138v-3.84a1.563,1.563,0,0,1,1.492-1.339c.065-.007.133-.011.2-.011h70.03c.05,0,.1,0,.153.007s.1.009.147.018a1.827,1.827,0,0,1,.311.072,1.688,1.688,0,0,1,.794.531A1.259,1.259,0,0,1,1162.6,1673.574Z" transform="translate(-1089.184 -1672.15)"/><path class="h" d="M1128.215,1678.689H1090.7a1.5,1.5,0,0,1-1.456-1.055,1.179,1.179,0,0,1-.041-.156c-.007-.046-.013-.092-.015-.138v-3.84a1.472,1.472,0,0,1,1.332-1.339,1.608,1.608,0,0,1,.18-.011h32.911s0,.007,0,.011A11.465,11.465,0,0,0,1128.215,1678.689Z" transform="translate(-1089.184 -1672.15)"/><g transform="translate(25.73)"><rect class="h" width="0.796" height="6.538" transform="translate(38.372 0)"/><rect class="h" width="0.796" height="6.538" transform="translate(35.677 0)"/><rect class="h" width="0.796" height="6.538" transform="translate(32.447 0)"/><rect class="h" width="0.796" height="6.538" transform="translate(27.494 0)"/><rect class="h" width="0.796" height="6.538" transform="translate(22.258 0)"/><rect class="h" width="0.796" height="6.538" transform="translate(14.229 0)"/><rect class="h" width="0.796" height="6.538" transform="translate(6.712 0)"/><rect class="h" width="0.796" height="6.538" transform="translate(0 0)"/><rect class="h" width="0.796" height="6.538" transform="translate(40.936 0)"/><rect class="h" width="0.796" height="6.538" transform="translate(42.631 0)"/><rect class="h" width="0.796" height="6.538" transform="translate(44.267 0)"/><path class="h" d="M1449.008,1672.173v6.492a2.008,2.008,0,0,1-.3.023h-.5v-6.538h.5A1.945,1.945,0,0,1,1449.008,1672.173Z" transform="translate(-1402.715 -1672.15)"/><path class="h" d="M1454.583,1673.167v5.281a1.687,1.687,0,0,1-.8.532v-6.346A1.687,1.687,0,0,1,1454.583,1673.167Z" transform="translate(-1407.184 -1672.539)"/></g></g><g transform="translate(0.147 38.847)"><path class="g" d="M1136.645,1640.669v3.691a1.252,1.252,0,0,1-.289.794,1.674,1.674,0,0,1-.8.534,1.821,1.821,0,0,1-.308.072.751.751,0,0,1-.1.013h-.013a.379.379,0,0,1-.052,0l-.046,0-.09,0h-70.03a1.6,1.6,0,0,1-1.693-1.35c0-.024,0-.048,0-.074v-3.691c0-.024,0-.05,0-.074a.539.539,0,0,1,0-.059,1.533,1.533,0,0,1,1.271-1.245.337.337,0,0,1,.05-.011,1.994,1.994,0,0,1,.368-.035h70.03c.052,0,.1,0,.151.007l.064.006h.006c.026,0,.053.007.079.011a1.809,1.809,0,0,1,.308.072,1.675,1.675,0,0,1,.8.534A1.251,1.251,0,0,1,1136.645,1640.669Z" transform="translate(-1063.226 -1639.245)"/><path class="h" d="M1102.257,1645.784H1064.74a1.481,1.481,0,0,1-1.512-1.35c0-.024,0-.048,0-.074v-3.691c0-.024,0-.05,0-.074a.539.539,0,0,1,0-.059,1.459,1.459,0,0,1,1.175-1.253.3.3,0,0,1,.063-.013,1.551,1.551,0,0,1,.269-.024h32.909c0,.018.009.031.013.048a11.46,11.46,0,0,0,4.579,6.48S1102.252,1645.78,1102.257,1645.784Z" transform="translate(-1063.226 -1639.245)"/><g transform="translate(25.731 0.001)"><rect class="h" width="0.796" height="6.538" transform="translate(38.372 0)"/><rect class="h" width="0.796" height="6.538" transform="translate(35.678 0)"/><rect class="h" width="0.796" height="6.538" transform="translate(32.447 0)"/><rect class="h" width="0.796" height="6.538" transform="translate(27.494 0)"/><rect class="h" width="0.796" height="6.538" transform="translate(22.258 0)"/><rect class="h" width="0.796" height="6.538" transform="translate(14.229 0)"/><rect class="h" width="0.796" height="6.538" transform="translate(6.712 0)"/><rect class="h" width="0.796" height="6.538" transform="translate(0 0)"/><rect class="h" width="0.796" height="6.538" transform="translate(40.936 0)"/><rect class="h" width="0.796" height="6.538" transform="translate(42.631 0)"/><rect class="h" width="0.796" height="6.538" transform="translate(44.267 0)"/><path class="h" d="M1423.055,1639.271v6.492a1.975,1.975,0,0,1-.3.023h-.5v-6.538h.5A1.975,1.975,0,0,1,1423.055,1639.271Z" transform="translate(-1376.762 -1639.248)"/><path class="h" d="M1428.63,1640.265v5.281a1.688,1.688,0,0,1-.8.533v-6.346A1.688,1.688,0,0,1,1428.63,1640.265Z" transform="translate(-1381.231 -1639.636)"/></g></g><g transform="translate(0 32.356)"><path class="g" d="M1135.906,1607.951v3.691a1.265,1.265,0,0,1-.289.794,2.005,2.005,0,0,1-.16.17,1.76,1.76,0,0,1-.637.363,1.882,1.882,0,0,1-.241.061h-.007a.563.563,0,0,1-.064.011,1.922,1.922,0,0,1-.3.024H1064.18a1.83,1.83,0,0,1-.219-.013c-.028,0-.057-.006-.083-.011a1.575,1.575,0,0,1-1.376-1.2,1.2,1.2,0,0,1-.013-.122c0-.026,0-.051,0-.075v-3.691c0-.026,0-.05,0-.074,0-.046.009-.092.015-.138a1.64,1.64,0,0,1,1.676-1.212h70.032c.044,0,.09,0,.133,0l.018,0a.234.234,0,0,0,.039,0c.02,0,.042,0,.064.009a.158.158,0,0,1,.043.007,1.8,1.8,0,0,1,.311.073,1.767,1.767,0,0,1,.171.066h0a1.7,1.7,0,0,1,.56.394c.022.024.044.048.063.072A1.271,1.271,0,0,1,1135.906,1607.951Z" transform="translate(-1062.487 -1606.527)"/><path class="h" d="M1101.518,1613.066H1064l-.088,0-.1-.009a1.48,1.48,0,0,1-1.313-1.216,1.2,1.2,0,0,1-.013-.122c0-.026,0-.051,0-.075v-3.691c0-.026,0-.05,0-.074,0-.046.009-.092.015-.138a1.223,1.223,0,0,1,.041-.156,1.5,1.5,0,0,1,1.454-1.056h32.912c.013.055.028.107.046.162a11.437,11.437,0,0,0,4.493,6.329C1101.472,1613.036,1101.5,1613.048,1101.518,1613.066Z" transform="translate(-1062.487 -1606.527)"/><g transform="translate(25.73 0)"><rect class="h" width="0.796" height="6.538" transform="translate(38.372 0)"/><rect class="h" width="0.796" height="6.538" transform="translate(35.678 0)"/><rect class="h" width="0.796" height="6.538" transform="translate(32.447 0)"/><rect class="h" width="0.796" height="6.538" transform="translate(27.494 0)"/><rect class="h" width="0.796" height="6.538" transform="translate(22.258 0)"/><rect class="h" width="0.796" height="6.538" transform="translate(14.229 0)"/><rect class="h" width="0.796" height="6.538" transform="translate(6.712 0)"/><rect class="h" width="0.796" height="6.538" transform="translate(0 0)"/><rect class="h" width="0.796" height="6.538" transform="translate(40.936 0)"/><rect class="h" width="0.796" height="6.538" transform="translate(42.631 0)"/><rect class="h" width="0.796" height="6.538" transform="translate(44.267 0)"/><path class="h" d="M1422.313,1606.552v6.492a1.986,1.986,0,0,1-.3.023h-.5v-6.538h.5A1.939,1.939,0,0,1,1422.313,1606.552Z" transform="translate(-1376.02 -1606.529)"/><path class="h" d="M1427.888,1607.546v5.281a1.688,1.688,0,0,1-.8.532v-6.346A1.69,1.69,0,0,1,1427.888,1607.546Z" transform="translate(-1380.489 -1606.917)"/></g></g><g transform="translate(3.618 25.979)"><path class="g" d="M1154.145,1575.807v3.691a1.26,1.26,0,0,1-.291.8,1.677,1.677,0,0,1-.794.531,1.805,1.805,0,0,1-.311.072,1.9,1.9,0,0,1-.3.024h-70.032a1.945,1.945,0,0,1-.781-.162,1.478,1.478,0,0,1-.893-1.032c-.007-.031-.009-.061-.013-.092a.616.616,0,0,1,0-.064c0-.024,0-.048,0-.074v-3.691c0-.024,0-.05,0-.074a.949.949,0,0,1,.016-.138,1.64,1.64,0,0,1,1.676-1.212h70.032a1.915,1.915,0,0,1,.3.024,1.783,1.783,0,0,1,.311.072,1.664,1.664,0,0,1,.794.534A1.253,1.253,0,0,1,1154.145,1575.807Z" transform="translate(-1080.726 -1574.383)"/><path class="h" d="M1119.757,1580.922h-37.519a1.563,1.563,0,0,1-.7-.162,1.434,1.434,0,0,1-.8-1.032c-.007-.031-.009-.061-.013-.092a.616.616,0,0,1,0-.064c0-.024,0-.048,0-.074v-3.691c0-.024,0-.05,0-.074a.949.949,0,0,1,.016-.138,1.185,1.185,0,0,1,.039-.152,1.5,1.5,0,0,1,1.455-1.06h32.911a11.475,11.475,0,0,0,4.378,6.377C1119.6,1580.815,1119.678,1580.867,1119.757,1580.922Z" transform="translate(-1080.726 -1574.383)"/><g transform="translate(25.73 0.001)"><rect class="h" width="0.796" height="6.538" transform="translate(38.372 0)"/><rect class="h" width="0.796" height="6.538" transform="translate(35.678 0)"/><rect class="h" width="0.796" height="6.538" transform="translate(32.447 0)"/><rect class="h" width="0.796" height="6.538" transform="translate(27.494 0)"/><rect class="h" width="0.796" height="6.538" transform="translate(22.258 0)"/><rect class="h" width="0.796" height="6.538" transform="translate(14.229 0)"/><rect class="h" width="0.796" height="6.538" transform="translate(6.712 0)"/><rect class="h" width="0.796" height="6.538" transform="translate(0 0)"/><rect class="h" width="0.796" height="6.538" transform="translate(40.936 0)"/><rect class="h" width="0.796" height="6.538" transform="translate(42.631 0)"/><rect class="h" width="0.796" height="6.538" transform="translate(44.267 0)"/><path class="h" d="M1440.552,1574.411v6.492a1.976,1.976,0,0,1-.3.023h-.5v-6.538h.5A1.976,1.976,0,0,1,1440.552,1574.411Z" transform="translate(-1394.259 -1574.388)"/><path class="h" d="M1446.127,1575.4v5.281a1.687,1.687,0,0,1-.8.532v-6.346A1.685,1.685,0,0,1,1446.127,1575.4Z" transform="translate(-1398.728 -1574.775)"/></g></g><g transform="translate(9.342 19.442)"><path class="g" d="M1182.993,1542.856v3.693a1.263,1.263,0,0,1-.289.792l0,0c-.024.031-.05.059-.077.088a1.6,1.6,0,0,1-.374.293,1.829,1.829,0,0,1-.223.107s0,0,0,0c-.037.015-.077.031-.118.043a1.779,1.779,0,0,1-.311.072,1.9,1.9,0,0,1-.3.022h-70.032a1.638,1.638,0,0,1-1.676-1.21.991.991,0,0,1-.015-.14c0-.024,0-.048,0-.072v-3.693c0-.024,0-.048,0-.072a1.561,1.561,0,0,1,1.492-1.339,1.513,1.513,0,0,1,.2-.011H1181.3a2.266,2.266,0,0,1,.3.022,2.048,2.048,0,0,1,.311.074,1.721,1.721,0,0,1,.718.444c.026.029.052.057.077.088l0,0A1.264,1.264,0,0,1,1182.993,1542.856Z" transform="translate(-1109.574 -1541.434)"/><path class="h" d="M1148.6,1547.971h-37.519a1.5,1.5,0,0,1-1.455-1.058,1.235,1.235,0,0,1-.039-.152.991.991,0,0,1-.015-.14c0-.024,0-.048,0-.072v-3.693c0-.024,0-.048,0-.072a1.468,1.468,0,0,1,1.33-1.339,1.226,1.226,0,0,1,.179-.011H1144a.1.1,0,0,1,0,.011A11.454,11.454,0,0,0,1148.6,1547.971Z" transform="translate(-1109.574 -1541.434)"/><g transform="translate(25.73)"><rect class="h" width="0.796" height="6.538" transform="translate(38.372 0)"/><rect class="h" width="0.796" height="6.538" transform="translate(35.678 0)"/><rect class="h" width="0.796" height="6.538" transform="translate(32.447 0)"/><rect class="h" width="0.796" height="6.538" transform="translate(27.494 0)"/><rect class="h" width="0.796" height="6.538" transform="translate(22.258 0)"/><rect class="h" width="0.796" height="6.538" transform="translate(14.229 0)"/><rect class="h" width="0.796" height="6.538" transform="translate(6.712 0)"/><rect class="h" width="0.796" height="6.538" transform="translate(0 0)"/><rect class="h" width="0.796" height="6.538" transform="translate(40.936 0)"/><rect class="h" width="0.796" height="6.538" transform="translate(42.631 0)"/><rect class="h" width="0.796" height="6.538" transform="translate(44.267 0)"/><path class="h" d="M1469.4,1541.456v6.492a1.972,1.972,0,0,1-.3.023h-.5v-6.538h.5A1.973,1.973,0,0,1,1469.4,1541.456Z" transform="translate(-1423.107 -1541.433)"/><path class="h" d="M1474.976,1542.448v5.281a1.69,1.69,0,0,1-.8.532v-6.346A1.69,1.69,0,0,1,1474.976,1542.448Z" transform="translate(-1427.577 -1541.82)"/></g></g><g transform="translate(0.147 12.914)"><path class="g" d="M1136.645,1509.951v3.691a1.252,1.252,0,0,1-.289.794,1.674,1.674,0,0,1-.8.534,1.8,1.8,0,0,1-.308.072l-.1.013h-.013c-.022,0-.044,0-.066.007l-.039,0-.083,0h-70.03a1.781,1.781,0,0,1-1.442-.678,1.252,1.252,0,0,1-.252-.671c0-.026,0-.05,0-.074v-3.691c0-.026,0-.05,0-.074a1.5,1.5,0,0,1,1.2-1.286,1.918,1.918,0,0,1,.492-.064h70.03l.09,0a.3.3,0,0,1,.044,0,1.37,1.37,0,0,1,.166.018,1.821,1.821,0,0,1,.308.072,1.031,1.031,0,0,1,.144.055h0a1.653,1.653,0,0,1,.49.308.026.026,0,0,1,.006.009c.007.007.013.011.02.018a1.361,1.361,0,0,1,.134.142A1.258,1.258,0,0,1,1136.645,1509.951Z" transform="translate(-1063.226 -1508.527)"/><path class="h" d="M1102.257,1515.066H1064.74a1.538,1.538,0,0,1-1.264-.645,1.34,1.34,0,0,1-.247-.7c0-.026,0-.05,0-.074v-3.691c0-.026,0-.05,0-.074a1.459,1.459,0,0,1,1.205-1.319,1.558,1.558,0,0,1,.306-.031h32.909c.013.05.029.1.044.151a11.435,11.435,0,0,0,4.548,6.377Z" transform="translate(-1063.226 -1508.527)"/><g transform="translate(25.731 0)"><rect class="h" width="0.796" height="6.538" transform="translate(38.372 0)"/><rect class="h" width="0.796" height="6.538" transform="translate(35.678 0)"/><rect class="h" width="0.796" height="6.538" transform="translate(32.447 0)"/><rect class="h" width="0.796" height="6.538" transform="translate(27.494 0)"/><rect class="h" width="0.796" height="6.538" transform="translate(22.258 0)"/><rect class="h" width="0.796" height="6.538" transform="translate(14.229 0)"/><rect class="h" width="0.796" height="6.538" transform="translate(6.712 0)"/><rect class="h" width="0.796" height="6.538" transform="translate(0 0)"/><rect class="h" width="0.796" height="6.538" transform="translate(40.936 0)"/><rect class="h" width="0.796" height="6.538" transform="translate(42.631 0)"/><rect class="h" width="0.796" height="6.538" transform="translate(44.267 0)"/><path class="h" d="M1423.055,1508.552v6.492a1.975,1.975,0,0,1-.3.023h-.5v-6.538h.5A1.944,1.944,0,0,1,1423.055,1508.552Z" transform="translate(-1376.762 -1508.529)"/><path class="h" d="M1428.63,1509.546v5.281a1.685,1.685,0,0,1-.8.532v-6.346A1.686,1.686,0,0,1,1428.63,1509.546Z" transform="translate(-1381.231 -1508.918)"/></g></g><g transform="translate(5.295 6.527)"><path class="g" d="M1162.6,1477.759v3.692a1.258,1.258,0,0,1-.29.794,1.69,1.69,0,0,1-.8.532,1.8,1.8,0,0,1-.31.073,1.969,1.969,0,0,1-.3.023h-70.031a1.934,1.934,0,0,1-.757-.151,1.456,1.456,0,0,1-.931-1.141c0-.019,0-.038,0-.058s0-.049,0-.073v-3.692c0-.024,0-.049,0-.073a1.561,1.561,0,0,1,1.492-1.34,1.86,1.86,0,0,1,.2-.01H1160.9a1.969,1.969,0,0,1,.3.023,1.8,1.8,0,0,1,.31.073,1.689,1.689,0,0,1,.8.532A1.257,1.257,0,0,1,1162.6,1477.759Z" transform="translate(-1089.179 -1476.336)"/><path class="h" d="M1128.21,1482.874h-37.518a1.566,1.566,0,0,1-.675-.151,1.432,1.432,0,0,1-.831-1.141c0-.019,0-.038,0-.058s0-.049,0-.073v-3.692c0-.024,0-.049,0-.073a1.468,1.468,0,0,1,1.332-1.34,1.484,1.484,0,0,1,.179-.01H1123.6l0,.01a11.47,11.47,0,0,0,4.389,6.376C1128.065,1482.774,1128.137,1482.824,1128.21,1482.874Z" transform="translate(-1089.179 -1476.336)"/><g transform="translate(25.731)"><rect class="h" width="0.796" height="6.538" transform="translate(38.372 0)"/><rect class="h" width="0.796" height="6.538" transform="translate(35.677 0)"/><rect class="h" width="0.796" height="6.538" transform="translate(32.447 0)"/><rect class="h" width="0.796" height="6.538" transform="translate(27.494 0)"/><rect class="h" width="0.796" height="6.538" transform="translate(22.258 0)"/><rect class="h" width="0.796" height="6.538" transform="translate(14.229 0)"/><rect class="h" width="0.796" height="6.538" transform="translate(6.712 0)"/><rect class="h" width="0.796" height="6.538" transform="translate(0 0)"/><rect class="h" width="0.796" height="6.538" transform="translate(40.936 0)"/><rect class="h" width="0.796" height="6.538" transform="translate(42.631 0)"/><rect class="h" width="0.796" height="6.538" transform="translate(44.267 0)"/><path class="h" d="M1449.008,1476.358v6.492a1.976,1.976,0,0,1-.3.023h-.5v-6.538h.5A1.976,1.976,0,0,1,1449.008,1476.358Z" transform="translate(-1402.715 -1476.335)"/><path class="h" d="M1454.583,1477.351v5.281a1.689,1.689,0,0,1-.8.532v-6.346A1.689,1.689,0,0,1,1454.583,1477.351Z" transform="translate(-1407.184 -1476.722)"/></g></g><g transform="translate(7.487 0)"><path class="g" d="M1173.647,1444.857v3.692a1.258,1.258,0,0,1-.29.794,1.687,1.687,0,0,1-.8.532,1.821,1.821,0,0,1-.31.073c-.033,0-.066.01-.1.013l-.055,0-.055,0-.09,0h-70.031a1.6,1.6,0,0,1-1.693-1.35c0-.024,0-.049,0-.073v-3.692c0-.024,0-.049,0-.073a1.6,1.6,0,0,1,1.693-1.349h70.031a2.007,2.007,0,0,1,.3.022,1.822,1.822,0,0,1,.31.073,1.686,1.686,0,0,1,.8.533A1.257,1.257,0,0,1,1173.647,1444.857Z" transform="translate(-1100.227 -1443.434)"/><path class="h" d="M1139.258,1449.972H1101.74a1.481,1.481,0,0,1-1.511-1.35c0-.024,0-.049,0-.073v-3.692c0-.024,0-.049,0-.073a1.481,1.481,0,0,1,1.511-1.349h32.911a11.462,11.462,0,0,0,4.593,6.527Z" transform="translate(-1100.227 -1443.434)"/><g transform="translate(25.731)"><rect class="h" width="0.796" height="6.538" transform="translate(38.372 0)"/><rect class="h" width="0.796" height="6.538" transform="translate(35.678 0)"/><rect class="h" width="0.796" height="6.538" transform="translate(32.447 0)"/><rect class="h" width="0.796" height="6.538" transform="translate(27.494 0)"/><rect class="h" width="0.796" height="6.538" transform="translate(22.258 0)"/><rect class="h" width="0.796" height="6.538" transform="translate(14.229 0)"/><rect class="h" width="0.796" height="6.538" transform="translate(6.712 0)"/><rect class="h" width="0.796" height="6.538" transform="translate(0 0)"/><rect class="h" width="0.796" height="6.538" transform="translate(40.936 0)"/><rect class="h" width="0.796" height="6.538" transform="translate(42.631 0)"/><rect class="h" width="0.796" height="6.538" transform="translate(44.267 0)"/><path class="h" d="M1460.056,1443.456v6.492a1.971,1.971,0,0,1-.3.023h-.5v-6.538h.5A1.986,1.986,0,0,1,1460.056,1443.456Z" transform="translate(-1413.762 -1443.433)"/><path class="h" d="M1465.63,1444.449v5.281a1.686,1.686,0,0,1-.8.532v-6.346A1.688,1.688,0,0,1,1465.63,1444.449Z" transform="translate(-1418.231 -1443.82)"/></g></g></g><g transform="translate(676.05 421.676)"><path class="i" d="M1288.593,1227.306s-3.678,5.178-7.05,5.25-8.5-2.4-8.5-2.4-3.1-6.9-1-9.6a4.509,4.509,0,0,1,4.308.708,6.608,6.608,0,0,1,1.14,1.092,3.615,3.615,0,0,0,1.77,1.2c2.406.732,5.262-.99,6.331.672a11.3,11.3,0,0,0,1.86,2.2A8.488,8.488,0,0,0,1288.593,1227.306Z" transform="translate(-1240.64 -1220.295)"/><path class="i" d="M1116.7,1314.2s13-31.5,36.4-32.1c0,0,21.6,2.4,22.8,32.1Z" transform="translate(-1116.698 -1269.839)"/><path class="j" d="M1267.69,1270.475s9.38,2.086,12.274.86c0,0,.437-3.922-3.513-3.372a8.286,8.286,0,0,1-5.5-1.45C1269.485,1265.767,1267.3,1268.835,1267.69,1270.475Z" transform="translate(-1237.698 -1257.252)"/><path class="k" d="M1299.154,1231.52c-.6.45-2.442-6.342-2.442-6.342a6.608,6.608,0,0,1,1.14,1.092,3.615,3.615,0,0,0,1.77,1.2C1299.628,1227.668,1299.736,1231.083,1299.154,1231.52Z" transform="translate(-1260.999 -1224.209)"/><path class="k" d="M1331.969,1242.321c-.132.078-4.47,2.676-5.058,2.676s3.2-4.878,3.2-4.878A11.3,11.3,0,0,0,1331.969,1242.321Z" transform="translate(-1285.155 -1236.186)"/><path class="l" d="M1180.7,1342.973c-.24-.206,9.2-13.9,11.8-14s8.442,3,12.672,3.4,8.33-.8,9.13,1.7,3,11.364,1.65,12.783S1185.892,1347.408,1180.7,1342.973Z" transform="translate(-1168 -1307.409)"/></g><g transform="translate(746.999 305.375)"><path class="g" d="M1507.518,670.942a20.488,20.488,0,0,1-1.886,1.3c-.256.158-.514.306-.779.453a20.888,20.888,0,0,1-2.043.987c-.2-.035-.4-.07-.6-.1q-1.887-.315-3.721-.578-.909-.131-1.8-.249c-2.5-.332-4.907-.6-7.191-.805q-.922-.088-1.818-.16c-.475-.039-.941-.074-1.4-.109q-1.693-.125-3.271-.212a20.437,20.437,0,0,1-4.01-3.739,20.607,20.607,0,0,1,5.979-31.094c.262-.144.527-.284.794-.413a20.589,20.589,0,0,1,21.75,34.727Z" transform="translate(-1474.322 -634.067)"/><g transform="translate(2.264 2.36)"><path class="h" d="M1520.339,655.5a18.455,18.455,0,1,0-23.511,25.815q.9.072,1.818.16a17.945,17.945,0,1,1,14.684-1.625c-.159.094-.319.186-.481.276a17.857,17.857,0,0,1-7.011,2.155q.893.118,1.8.249a18.442,18.442,0,0,0,5.451-1.967c.335-.184.661-.379.98-.58A18.474,18.474,0,0,0,1520.339,655.5Z" transform="translate(-1485.736 -645.963)"/></g><g transform="translate(12.064 7.267)"><path class="h" d="M1552.853,686.027a5.3,5.3,0,0,0-3.343-3.238,9.413,9.413,0,0,0-2.5-.468q-1.378-.085-3-.039a14.414,14.414,0,0,1-1.713-.035,4.278,4.278,0,0,1-1.205-.262,2.111,2.111,0,0,1-.805-.547,2.88,2.88,0,0,1-.512-.842,3.105,3.105,0,0,1-.232-.991,2.118,2.118,0,0,1,.146-.93,2.276,2.276,0,0,1,.573-.814,3.362,3.362,0,0,1,1.05-.639,2.646,2.646,0,0,1,2.249.022,3.815,3.815,0,0,1,1.7,2.126l4.194-1.7a7.805,7.805,0,0,0-1.374-2.277,5.888,5.888,0,0,0-4.111-2.028,7.808,7.808,0,0,0-2.533.258l-1.188-2.925-2.321.943,1.17,2.883a8.718,8.718,0,0,0-2.131,1.518,6.52,6.52,0,0,0-1.343,1.873,5.211,5.211,0,0,0-.495,2.116,6.189,6.189,0,0,0,1.824,4.347,5.49,5.49,0,0,0,1.965,1.151,9.3,9.3,0,0,0,2.5.453,29.4,29.4,0,0,0,3.008,0,11.466,11.466,0,0,1,1.636.011,4.39,4.39,0,0,1,1.2.267,2.254,2.254,0,0,1,.84.571,3.1,3.1,0,0,1,.564.932,2.617,2.617,0,0,1,.2,1,2.129,2.129,0,0,1-.225.945,2.682,2.682,0,0,1-.665.838,4.019,4.019,0,0,1-1.127.661,4.825,4.825,0,0,1-1.232.319,2.781,2.781,0,0,1-1.242-.125,2.883,2.883,0,0,1-1.133-.733,4.432,4.432,0,0,1-.917-1.488l-4.2,1.7a7.286,7.286,0,0,0,1.652,2.566,5.914,5.914,0,0,0,2.172,1.354,6.633,6.633,0,0,0,2.47.357,10.538,10.538,0,0,0,2.542-.42l1.083,2.669,2.308-.936-1.09-2.682a9.46,9.46,0,0,0,2.155-1.5,6.326,6.326,0,0,0,1.372-1.846,5.128,5.128,0,0,0,.505-2.1A5.632,5.632,0,0,0,1552.853,686.027Z" transform="translate(-1535.134 -670.696)"/></g></g><path class="m" d="M1093.168,1509.656a35.114,35.114,0,0,1-23.2,21.784v-2.875c0-.024,0-.048,0-.072,0-.048.009-.094.015-.14a1.256,1.256,0,0,1,.041-.157,1.5,1.5,0,0,1,1.456-1.053H1064a1.5,1.5,0,0,1-1.454-1.056,1.252,1.252,0,0,1-.041-.156c-.006-.046-.013-.092-.015-.138,0-.024,0-.048,0-.074v-3.69c0-.024,0-.051,0-.074,0-.046.009-.092.015-.138a1.246,1.246,0,0,1,.041-.156A1.5,1.5,0,0,1,1064,1520.6h2.923a1.434,1.434,0,0,1-.8-1.033c-.007-.031-.009-.061-.013-.092a.574.574,0,0,1,0-.063c0-.024,0-.048,0-.072v-3.693c0-.024,0-.048,0-.072a.943.943,0,0,1,.015-.138,1.226,1.226,0,0,1,.039-.153,1.5,1.5,0,0,1,1.455-1.06h1.678a1.5,1.5,0,0,1-1.456-1.055,1.189,1.189,0,0,1-.041-.157c-.007-.046-.013-.092-.015-.138v-3.839a1.472,1.472,0,0,1,1.332-1.339h-4.968a1.481,1.481,0,0,1-1.511-1.35.733.733,0,0,1,0-.074v-3.691c0-.024,0-.05,0-.074a.536.536,0,0,1,0-.059,1.459,1.459,0,0,1,1.175-1.253,1.48,1.48,0,0,1-1.313-1.216,1.2,1.2,0,0,1-.013-.122c0-.026,0-.05,0-.075V1496.1c0-.026,0-.05,0-.074,0-.046.009-.092.015-.138a1.234,1.234,0,0,1,.041-.156,1.5,1.5,0,0,1,1.454-1.056h2.923a1.434,1.434,0,0,1-.8-1.032c-.007-.031-.009-.061-.013-.092a.621.621,0,0,1,0-.064c0-.024,0-.048,0-.074v-3.691c0-.024,0-.05,0-.074a.982.982,0,0,1,.015-.138,1.208,1.208,0,0,1,.039-.152,1.5,1.5,0,0,1,1.455-1.06h5.723a1.5,1.5,0,0,1-1.455-1.058,1.25,1.25,0,0,1-.039-.152,1.007,1.007,0,0,1-.015-.14c0-.024,0-.048,0-.072v-3.693c0-.024,0-.048,0-.072a1.468,1.468,0,0,1,1.33-1.339h-9.013a1.538,1.538,0,0,1-1.264-.646l0-.033.949-5.8,0-.033,1.352-8.272c15.769,2.111,27.59,14.075,29.436,28.514A31.247,31.247,0,0,1,1093.168,1509.656Z" transform="translate(-397.191 -996.371)"/><circle class="n" cx="34.446" cy="34.446" r="34.446" transform="translate(606.756 501.417) rotate(-45)"/><path class="g" d="M878.408,1519.756q-.637.389-1.294.751c-.148.082-.3.163-.446.24-.339.181-.679.355-1.021.525a34.447,34.447,0,0,1-31.792-61.1q.662-.365,1.334-.7.651-.325,1.313-.618a34.375,34.375,0,0,1,10.339-2.78,34.452,34.452,0,0,1,21.567,63.678Z" transform="translate(-207.646 -987.472)"/><g transform="translate(622.156 472.365)"><path class="h" d="M875.961,1537.535a30.989,30.989,0,0,1-8.621-1.23,30.675,30.675,0,1,1,8.621,1.23Zm-.094-60.906a30.029,30.029,0,1,0,26.351,15.529A29.851,29.851,0,0,0,875.867,1476.629Z" transform="translate(-845.039 -1475.797)"/></g><g transform="translate(638.571 480.573)"><path class="h" d="M957.423,1542.821c-.068-.17-.14-.334-.213-.5a9.036,9.036,0,0,0-2.089-2.985,9.332,9.332,0,0,0-3.289-1.935,15.756,15.756,0,0,0-4.179-.785q-2.307-.142-5.019-.065a24.142,24.142,0,0,1-2.866-.058,7.171,7.171,0,0,1-2.017-.441,3.536,3.536,0,0,1-1.347-.912,4.807,4.807,0,0,1-.856-1.412,5.221,5.221,0,0,1-.389-1.655,3.553,3.553,0,0,1,.245-1.558,3.8,3.8,0,0,1,.961-1.361,5.6,5.6,0,0,1,1.757-1.069,4.432,4.432,0,0,1,3.763.035,6.386,6.386,0,0,1,2.845,3.561l7.018-2.849a13.118,13.118,0,0,0-2.3-3.809,9.844,9.844,0,0,0-6.879-3.394,13,13,0,0,0-4.235.433l-1.987-4.895-3.884,1.577,1.959,4.827a14.568,14.568,0,0,0-3.566,2.538,10.9,10.9,0,0,0-2.248,3.133,8.727,8.727,0,0,0-.826,3.541,10.37,10.37,0,0,0,3.053,7.272,9.184,9.184,0,0,0,3.285,1.924,15.554,15.554,0,0,0,4.181.758,49.281,49.281,0,0,0,5.032-.006,18.65,18.65,0,0,1,2.737.019,7.14,7.14,0,0,1,2.006.446,3.8,3.8,0,0,1,1.4.953,5.17,5.17,0,0,1,.945,1.56,4.333,4.333,0,0,1,.335,1.664,3.55,3.55,0,0,1-.375,1.584,4.471,4.471,0,0,1-1.115,1.4,6.734,6.734,0,0,1-1.884,1.106,8.091,8.091,0,0,1-2.06.535,4.7,4.7,0,0,1-2.078-.208,4.831,4.831,0,0,1-1.9-1.227,7.452,7.452,0,0,1-1.535-2.49l-7.016,2.849a12.113,12.113,0,0,0,2.76,4.29,9.955,9.955,0,0,0,3.636,2.268,11.116,11.116,0,0,0,4.131.6,17.52,17.52,0,0,0,4.255-.7l1.812,4.466,3.86-1.567-1.822-4.487a15.678,15.678,0,0,0,3.6-2.515,10.635,10.635,0,0,0,2.174-2.839c.042-.082.083-.164.123-.248a8.629,8.629,0,0,0,.846-3.522A9.477,9.477,0,0,0,957.423,1542.821Z" transform="translate(-927.78 -1517.171)"/></g><g transform="translate(791.485 357.145)"><path class="o" d="M1758.709,1077.191h0a2.472,2.472,0,0,1-2.25-1.564l-57.825-177.653a1.168,1.168,0,0,1,1.225-1.584h0a2.472,2.472,0,0,1,2.25,1.564l57.825,177.653A1.168,1.168,0,0,1,1758.709,1077.191Z" transform="translate(-1698.56 -896.118)"/><path class="o" d="M1993.619,1075.819h0a2.472,2.472,0,0,1-2.25-1.564L1933.544,896.6a1.168,1.168,0,0,1,1.225-1.584h0a2.472,2.472,0,0,1,2.25,1.564l57.825,177.653A1.168,1.168,0,0,1,1993.619,1075.819Z" transform="translate(-1886.866 -895.018)"/><path class="o" d="M1785.77,1015.771l-46.8.273a2.342,2.342,0,0,1-2.124-1.476h0a1.1,1.1,0,0,1,1.157-1.5l46.8-.273a2.342,2.342,0,0,1,2.124,1.476h0A1.1,1.1,0,0,1,1785.77,1015.771Z" transform="translate(-1729.196 -989.433)"/><path class="o" d="M1836.66,1172.12l-46.8.273a2.342,2.342,0,0,1-2.124-1.476h0a1.1,1.1,0,0,1,1.157-1.5l46.8-.273a2.342,2.342,0,0,1,2.124,1.476h0A1.1,1.1,0,0,1,1836.66,1172.12Z" transform="translate(-1769.99 -1114.764)"/><path class="o" d="M1885.673,1322.7l-46.8.273a2.342,2.342,0,0,1-2.124-1.476h0a1.1,1.1,0,0,1,1.157-1.5l46.8-.273a2.342,2.342,0,0,1,2.124,1.476h0A1.1,1.1,0,0,1,1885.673,1322.7Z" transform="translate(-1809.28 -1235.471)"/><path class="o" d="M1940.852,1492.224l-46.8.273a2.343,2.343,0,0,1-2.124-1.476h0a1.1,1.1,0,0,1,1.157-1.5l46.8-.273a2.343,2.343,0,0,1,2.125,1.476h0A1.1,1.1,0,0,1,1940.852,1492.224Z" transform="translate(-1853.511 -1371.362)"/><path class="o" d="M1998.606,1669.657l-46.8.273a2.342,2.342,0,0,1-2.124-1.476h0a1.1,1.1,0,0,1,1.157-1.5l46.8-.273a2.343,2.343,0,0,1,2.124,1.476h0A1.1,1.1,0,0,1,1998.606,1669.657Z" transform="translate(-1899.807 -1513.595)"/></g><g transform="translate(782.71 270.636)"><path class="p" d="M1663.814,732.462c-.862-.608-2.815-1.946-2.916-1.648a1.312,1.312,0,0,0,.266.958c-1.182-.441-2.381-.731-5.218-.186a2.127,2.127,0,0,0-1.4.919.938.938,0,0,0,.326,1.464c1.448.9,1.028.361,3.04,1.672s4.475,1.645,5.947.726l1.975-.329.245-3.249S1664.957,732.653,1663.814,732.462Z" transform="translate(-1654.328 -676.846)"/><path class="p" d="M1914.507,559.942s-4.656,5.524-10.586,3.213a17.962,17.962,0,0,1-1.293-5.359c0-.28-.006-.551-.01-.809-.032-2.561-.118-4-.118-4h.006c.27-.113,9.065-3.723,9.057-3.423C1911.412,556.491,1914.507,559.942,1914.507,559.942Z" transform="translate(-1853.265 -531.575)"/><path class="q" d="M1910.68,557.7a13.756,13.756,0,0,1-8.062,5.771c-.032-2.561-.118-4-.118-4h.006C1902.75,559.405,1910.933,557.236,1910.68,557.7Z" transform="translate(-1853.265 -538.058)"/><path class="p" d="M1887,499.69s9.891,2.325,11.244-3.856,3.541-10.045-2.717-11.791-8.005.343-8.959,2.3S1884.461,498.926,1887,499.69Z" transform="translate(-1839.607 -478.542)"/><path class="o" d="M1884.533,477.935c.135.086,2.263.74,6.294-7.289a6.993,6.993,0,0,0-.411-6.4c-1.475-2.409-6.7-4.3-11.049-5.128s-5.388,1.62-6.411,4.078c-1.074,2.579-4.176,4.7-4.176,4.7,3.747,2.093,8.259-.9,9.823-.408s2.116,2.956,2.233,3.746.3,1.446,2.263.741.889,2.786.574,3.453C1883.673,475.434,1883.406,477.212,1884.533,477.935Z" transform="translate(-1826.235 -458.959)"/><g transform="translate(42.084 72.613)"><path class="r" d="M2001.2,1269.31h5.989c1.255,0,2.651-1.257,3-3.558s2.93-3.558,3.489-5.442-2.3-4.536-2.3-4.536l-.479-.615-.5-.641-4.744,1.115s-.117,1.13-.19,2.569c-.051,1.039-.078,2.24-.019,3.293.14,2.513-.7,5.217-2.935,5.706S2001.2,1269.31,2001.2,1269.31Z" transform="translate(-1974.318 -1169.301)"/><path class="r" d="M1866.459,1296.73h15.875a1.429,1.429,0,0,0,.337-.1c1.06-.531.728-4.589.6-5.842-.024-.232-.042-.368-.042-.368s-5.582-4.465-6.35-1.046c-.024.106-.052.211-.082.314v0c-.969,3.2-5.3,4.651-7.8,5.057A2.725,2.725,0,0,0,1866.459,1296.73Z" transform="translate(-1866.459 -1196.21)"/><path class="f" d="M1882.588,864.284s.848,10.577,1.844,23.292c1.354,17.272,2.983,38.487,3.144,42.506.278,6.979,1.4,18.142,1.4,18.142s2.65,2.652,7.954,1.534a182.612,182.612,0,0,0,6.077-32.8c.021-.276.042-.555.063-.833,1.256-17.165,3.209-53.309,3.209-53.309Z" transform="translate(-1879.388 -855.311)"/><path class="o" d="M1882.588,864.284s.848,10.577,1.844,23.292L1903,916.961c.021-.276.042-.555.063-.833,1.256-17.165,3.209-53.309,3.209-53.309Z" transform="translate(-1879.388 -855.311)"/><path class="f" d="M1909.213,831.689s8.582,35.386,15.134,54.933,6.828,29.011,6.828,29.011,7.425-1.451,8.23-2.9c0,0,2.544-33.478-2.505-43.047-2.853-5.407-2.371-17.935-2.371-23.643a80.613,80.613,0,0,0-3.3-21.075Z" transform="translate(-1900.731 -824.972)"/></g><g transform="translate(57.275 28.979)"><path class="p" d="M2077.274,837.811l.162,2.464a5.308,5.308,0,0,0,2.928,6.621s1.948.786,2.028-.731-.17-.947-.012-3.083-.682-4.155-2.094-4.835l-1.16-1.338Z" transform="translate(-2050.545 -790.908)"/><path class="s" d="M1971.537,653.728c-1.691.543-1.962.42-1.962.42s-8.232-14.988-9.066-16.36-17.479-16.807-17.479-16.807l4.278-15.951s18.931,24.515,20.976,28.033c3.378,5.813,5.358,19.313,5.358,19.313A4.95,4.95,0,0,1,1971.537,653.728Z" transform="translate(-1943.03 -605.031)"/></g><path class="t" d="M1866.248,612.833c.06,3.276.25,6.958.507,10.7l.047.665c.164,2.317.342,4.639.547,6.9.082.908.169,1.806.26,2.687l.014.119c.007.33.047.688.084,1.014.834,8.482,1.709,15.184,1.872,15.287a.952.952,0,0,0,.651.166c2.224-.28,8.861.225,14.295-.957a41.2,41.2,0,0,0,12.717-5.273c.555-.328,1.821-1.2,1.718-1.847-.1-.714-.288-1.746-.526-3.043A164.678,164.678,0,0,1,1895.7,617.9q-.141-2.538-.41-5.006a75.975,75.975,0,0,0-2.216-11.955c-1.863-6.708-4.6-11.845-8.035-13.855-.449-.251-2.864,1.285-5.081,2.708a9.792,9.792,0,0,1-6.3,1.493l-1.846,2.041a20.611,20.611,0,0,0-5.264,10.974q-.073.545-.126,1.159A72.168,72.168,0,0,0,1866.248,612.833Z" transform="translate(-1824.189 -561.641)"/><path class="s" d="M1866.248,671.973c.06,3.276.25,6.958.507,10.7l.047.665c12.706-7.953,14.663-22.506,14.663-22.506a34.755,34.755,0,0,0-15.044,3.766A72.168,72.168,0,0,0,1866.248,671.973Z" transform="translate(-1824.189 -620.781)"/><path class="t" d="M1704.456,643.267c-.131-1.885.845-2.2.845-2.2s19.158-3.472,20.786-3.984,15.554-15,15.554-15,5.338-6.02,9.708-4.691c3.8,1.155,5.283,4.118,5.788,6.94a8.313,8.313,0,0,1-3.86,8.534c-6.537,4.01-19.626,11.911-22.709,12.815-6.861,2.011-25.293.161-25.293.161A5.946,5.946,0,0,1,1704.456,643.267Z" transform="translate(-1694.502 -585.81)"/></g><g transform="translate(745.298 339.951)"><path class="f" d="M1523.242,817.651a1.771,1.771,0,0,1-2.218,1.164,152.424,152.424,0,0,0-27.75-5.708,164.831,164.831,0,0,0-25.645-1.063,1.771,1.771,0,0,1-.219-3.535,169.3,169.3,0,0,1,26.567,1.1,157.027,157.027,0,0,1,28.1,5.82A1.771,1.771,0,0,1,1523.242,817.651Z" transform="translate(-1465.748 -808.353)"/></g><g transform="translate(936.511 504.488)"><path class="h" d="M2477.022,1647.25a4.377,4.377,0,0,0-.578-.917h0l0,0a4.446,4.446,0,0,0-.562-.569l-.847-.859-.223.165c-4.338-2.124-13.3.127-22.357,6.043-10.951,7.15-17.982,17-15.955,22.227l-.309.228,1.218,1.214c.058.062.118.121.18.179l.034.034.011.008a4.985,4.985,0,0,0,1.053.733l.006,0h0c4.282,2.244,13.336.01,22.5-5.971C2472.346,1662.483,2479.434,1652.4,2477.022,1647.25Z" transform="translate(-2434.846 -1642.98)"/><path class="g" d="M2445.882,1644.543c11.156-7.284,22.156-9.012,24.569-3.86s-4.676,15.233-15.833,22.517-22.156,9.012-24.569,3.86S2434.726,1651.827,2445.882,1644.543Z" transform="translate(-2429.579 -1637.716)"/><g transform="translate(2.574 1.876)"><path class="h" d="M2448.272,1675.411a8.892,8.892,0,0,1-2.456-.311,4.251,4.251,0,0,1-2.869-2.289c-1.006-2.193-.074-5.45,2.624-9.17a43.947,43.947,0,0,1,11.33-10.379h0c7.172-4.7,14.467-6.965,18.584-5.779a4.251,4.251,0,0,1,2.869,2.289c1.006,2.194.074,5.45-2.624,9.171a43.946,43.946,0,0,1-11.329,10.379C2458.492,1673.189,2452.5,1675.41,2448.272,1675.411Zm24.783-27.418c-4.045,0-9.987,2.208-15.707,5.953a43.119,43.119,0,0,0-11.115,10.175c-2.48,3.42-3.407,6.464-2.542,8.349a3.47,3.47,0,0,0,2.352,1.843,8,8,0,0,0,2.2.276c4.045,0,9.987-2.208,15.707-5.953a43.117,43.117,0,0,0,11.115-10.175c2.481-3.42,3.407-6.464,2.543-8.349a3.471,3.471,0,0,0-2.352-1.843A8,8,0,0,0,2473.055,1647.993Z" transform="translate(-2442.552 -1647.172)"/></g><g transform="translate(8.916 8.759)"><path class="h" d="M2481.781,1691.918a5.946,5.946,0,0,0,.92-.5,4.371,4.371,0,0,0,.744-.632,5.871,5.871,0,0,0,.646-.831,11,11,0,0,0,.612-1.087q.539-1.068,1.106-2a12.1,12.1,0,0,1,1.268-1.719,10.217,10.217,0,0,1,1.6-1.454,11.021,11.021,0,0,1,2.106-1.192,7.713,7.713,0,0,1,1.882-.589,3.248,3.248,0,0,1,1.432.049,1.731,1.731,0,0,1,.933.646,2.2,2.2,0,0,1,.371,1.215l2.632-1.156-.137,1.417-2.669,1.172a6.036,6.036,0,0,1-.737,1.646,8.692,8.692,0,0,1-1.283,1.573,11.93,11.93,0,0,1-1.781,1.422,14.929,14.929,0,0,1-2.242,1.21l.248-2.56a7.531,7.531,0,0,0,2.25-1.408,2.508,2.508,0,0,0,.845-1.495.956.956,0,0,0-.1-.613.621.621,0,0,0-.409-.274,1.562,1.562,0,0,0-.656.025,4.519,4.519,0,0,0-.84.285,5.5,5.5,0,0,0-.832.45,4.09,4.09,0,0,0-.712.605,5.863,5.863,0,0,0-.646.835q-.311.48-.658,1.141-.563,1.07-1.135,2a12.394,12.394,0,0,1-1.28,1.72,10.4,10.4,0,0,1-1.607,1.456,10.958,10.958,0,0,1-2.094,1.187,7.727,7.727,0,0,1-1.918.6,3.157,3.157,0,0,1-1.419-.059,1.633,1.633,0,0,1-.9-.668,2.4,2.4,0,0,1-.352-1.232l-2.447,1.075.136-1.408,2.435-1.07a7.136,7.136,0,0,1,.617-1.632,8.128,8.128,0,0,1,1.182-1.685,11.254,11.254,0,0,1,1.835-1.62,14.076,14.076,0,0,1,2.564-1.432l-.248,2.56a8.579,8.579,0,0,0-1.473.8,5.487,5.487,0,0,0-.977.849,3.172,3.172,0,0,0-.552.841,2.626,2.626,0,0,0-.211.775,1.174,1.174,0,0,0,.089.661.669.669,0,0,0,.392.332,1.318,1.318,0,0,0,.64.025A3.571,3.571,0,0,0,2481.781,1691.918Z" transform="translate(-2474.52 -1681.867)"/></g></g><g transform="translate(758.939 250.668)"><path class="h" d="M1534.807,364.361a2.758,2.758,0,0,1,.366-.582h0v0a2.814,2.814,0,0,1,.356-.361l.538-.545.141.1c2.752-1.348,8.437.081,14.187,3.835,6.949,4.537,11.41,10.784,10.124,14.1l.2.145-.773.77q-.056.058-.114.114l-.022.022-.007,0a3.155,3.155,0,0,1-.668.465l0,0h0c-2.717,1.424-8.462.006-14.275-3.789C1537.774,374.027,1533.276,367.63,1534.807,364.361Z" transform="translate(-1534.508 -361.652)"/><path class="g" d="M1554.564,362.643c-7.079-4.622-14.059-5.718-15.59-2.449s2.967,9.666,10.046,14.288,14.059,5.719,15.59,2.449S1561.643,367.265,1554.564,362.643Z" transform="translate(-1537.848 -358.311)"/><g transform="translate(2.46 1.19)"><path class="h" d="M1556.012,378.365a27.884,27.884,0,0,1-7.189-6.586c-1.712-2.361-2.3-4.427-1.665-5.819a2.7,2.7,0,0,1,1.821-1.452c2.612-.753,7.241.687,11.792,3.667h0a27.878,27.878,0,0,1,7.189,6.586c1.712,2.361,2.3,4.427,1.665,5.819a2.7,2.7,0,0,1-1.821,1.452,5.648,5.648,0,0,1-1.558.2C1563.562,382.229,1559.76,380.82,1556.012,378.365Zm-6.89-13.358a2.2,2.2,0,0,0-1.492,1.17c-.549,1.2.039,3.127,1.613,5.3a27.359,27.359,0,0,0,7.053,6.456c3.629,2.376,7.4,3.778,9.966,3.777a5.087,5.087,0,0,0,1.4-.175,2.2,2.2,0,0,0,1.493-1.17c.549-1.2-.039-3.128-1.614-5.3a27.365,27.365,0,0,0-7.053-6.456c-3.629-2.376-7.4-3.778-9.967-3.778A5.078,5.078,0,0,0,1549.122,365.007Z" transform="translate(-1546.907 -364.311)"/></g><g transform="translate(6.484 5.558)"><path class="h" d="M1578.031,392.871a.836.836,0,0,0,.406-.015.424.424,0,0,0,.249-.211.743.743,0,0,0,.057-.419,1.669,1.669,0,0,0-.134-.492,2.016,2.016,0,0,0-.35-.533,3.485,3.485,0,0,0-.62-.539,5.469,5.469,0,0,0-.935-.51l-.157-1.624a8.926,8.926,0,0,1,1.627.909,7.134,7.134,0,0,1,1.164,1.028,5.145,5.145,0,0,1,.75,1.069,4.508,4.508,0,0,1,.392,1.036l1.545.679.087.894-1.553-.682a1.526,1.526,0,0,1-.223.782,1.037,1.037,0,0,1-.572.424,2.007,2.007,0,0,1-.9.038,4.91,4.91,0,0,1-1.217-.382,6.942,6.942,0,0,1-1.328-.753,6.6,6.6,0,0,1-1.02-.924,7.869,7.869,0,0,1-.812-1.091q-.363-.587-.72-1.266-.22-.42-.418-.724a3.7,3.7,0,0,0-.41-.53,2.592,2.592,0,0,0-.452-.384,3.511,3.511,0,0,0-.528-.286,2.868,2.868,0,0,0-.533-.18.99.99,0,0,0-.416-.016.394.394,0,0,0-.26.174.609.609,0,0,0-.063.389,1.594,1.594,0,0,0,.536.949,4.783,4.783,0,0,0,1.428.894l.157,1.624a9.492,9.492,0,0,1-1.423-.768,7.6,7.6,0,0,1-1.13-.9,5.516,5.516,0,0,1-.814-1,3.832,3.832,0,0,1-.467-1.045l-1.694-.744-.087-.9,1.67.734a1.4,1.4,0,0,1,.235-.771,1.1,1.1,0,0,1,.592-.41,2.062,2.062,0,0,1,.908-.031,4.905,4.905,0,0,1,1.194.374,6.986,6.986,0,0,1,1.336.756,6.49,6.49,0,0,1,1.016.923,7.68,7.68,0,0,1,.8,1.091q.359.588.7,1.266a7.007,7.007,0,0,0,.388.69,3.727,3.727,0,0,0,.41.527,2.757,2.757,0,0,0,.472.4,3.769,3.769,0,0,0,.583.315A2.269,2.269,0,0,0,1578.031,392.871Z" transform="translate(-1567.191 -386.326)"/></g></g></g></svg>