<svg xmlns="http://www.w3.org/2000/svg" viewBox="0 0 920 682" width="920" height="682">
	<style>
		tspan { white-space:pre }
		.shp0 { fill: #cfe7ff } 
		.shp1 { fill: #c0d8fb } 
		.shp2 { fill: #dceaff } 
		.shp3 { fill: #ed7d2b } 
		.shp4 { fill: #f99746 } 
		.shp5 { fill: #2b478b } 
		.shp6 { fill: #ffb93e } 
		.shp7 { fill: #ffa412 } 
		.shp8 { fill: #ffeddc } 
		.shp9 { fill: #db6a1d } 
		.shp10 { fill: #e5c1a1 } 
		.shp11 { fill: #f9ddbf } 
		.shp12 { opacity: 0.502;fill: #e2810e } 
		.shp13 { fill: #e2810e } 
		.shp14 { fill: #233862 } 
		.shp15 { fill: #ffb27d } 
		.shp16 { fill: #ed975d } 
		.shp17 { fill: #2c3a64 } 
		.shp18 { fill: #1e3d70 } 
		.shp19 { fill: #2a4e96 } 
	</style>
	<g id="Group 16320">
		<g id="Group 16273">
			<path id="Path 10693" class="shp0" d="M383.19 368.12L257.48 504L76.33 336.4L76.33 336.4L0 265.78L125.71 129.91L268.22 261.76L383.19 368.12Z" />
			<g id="Group 16272">
				<path id="Path 10694" fill-rule="evenodd" class="shp1" d="M354.41 369.69L256.81 475.18L25.39 261.07L122.98 155.58L354.41 369.69ZM265.57 459.26L339.18 379.71C344.17 374.31 343.84 365.88 338.44 360.88L133.18 170.98C127.68 165.89 119.1 166.22 114.02 171.72L40.71 250.96C35.67 256.41 36 264.92 41.45 269.96L246.85 459.99C252.22 464.96 260.6 464.64 265.57 459.26Z" />
			</g>
			<path id="Ellipse 113" class="shp1" d="M190.65 354.04C169.28 354.46 151.66 337.51 151.24 316.14C150.82 294.76 167.76 277.14 189.14 276.72C210.52 276.31 228.14 293.25 228.55 314.63C228.97 336 212.03 353.62 190.65 354.04Z" />
		</g>
		<g id="Group 16275">
			<path id="Path 10695" class="shp2" d="M432.5 342.78L251.95 383.6L197.53 142.89L197.53 142.89L174.6 41.47L355.15 0.65L397.97 190.02L432.5 342.78Z" />
			<g id="Group 16274">
				<path id="Path 10696" fill-rule="evenodd" class="shp1" d="M407.89 327.79L267.72 359.48L198.2 51.96L338.37 20.27L407.89 327.79ZM283.95 351.32L389.66 327.42C396.84 325.8 401.34 318.67 399.72 311.49L338.06 38.73C336.41 31.43 329.15 26.84 321.84 28.5L216.55 52.3C209.31 53.94 204.76 61.13 206.4 68.38L268.1 341.31C269.71 348.45 276.81 352.93 283.95 351.32Z" />
			</g>
			<path id="Ellipse 114" class="shp1" d="M330.38 217.21C315.26 232.33 290.82 232.33 275.7 217.21C260.58 202.09 260.58 177.65 275.7 162.53C290.82 147.41 315.26 147.41 330.38 162.53C345.5 177.65 345.5 202.09 330.38 217.21Z" />
		</g>
		<g id="Group 16277">
			<path id="Path 10697" class="shp2" d="M791.9 542.09L599.37 474.57L689.39 217.9L689.4 217.89L727.33 109.74L919.85 177.27L849.03 379.2L791.9 542.09Z" />
			<g id="Group 16276">
				<path id="Path 10698" fill-rule="evenodd" class="shp1" d="M777.69 513.69L628.22 461.26L743.23 133.35L892.7 185.77L777.69 513.69ZM648.15 463.14L760.87 502.68C768.53 505.36 776.9 501.33 779.59 493.68L881.6 202.83C884.33 195.04 880.23 186.52 872.44 183.78L760.17 144.41C752.45 141.7 743.99 145.76 741.28 153.49L639.2 444.52C636.53 452.13 640.54 460.47 648.15 463.14Z" />
			</g>
			<path id="Path 10699" class="shp1" d="M720.24 309.41C728.03 287.2 752.35 275.51 774.56 283.3C796.77 291.09 808.46 315.41 800.67 337.62C792.88 359.83 768.56 371.52 746.35 363.73C724.14 355.94 712.45 331.62 720.24 309.41Z" />
		</g>
		<g id="Group 16279">
			<path id="Path 10700" class="shp3" d="M241.4 393.52L241.4 448.48C241.4 459 232.78 467.61 222.27 467.61L182.89 467.61C172.37 467.61 163.75 459 163.75 448.48L163.75 393.52C163.75 383 172.37 374.39 182.89 374.39L222.27 374.39C232.78 374.39 241.4 383 241.4 393.52Z" />
			<path id="Path 10701" class="shp4" d="M241.4 393.52L241.4 424.14C241.4 434.66 232.78 443.27 222.27 443.27L182.89 443.27C172.37 443.27 163.75 434.66 163.75 424.14L163.75 393.52C163.75 383 172.37 374.39 182.89 374.39L222.27 374.39C232.78 374.39 241.4 383 241.4 393.52Z" />
			<path id="Path 10702" class="shp3" d="M677.74 421C677.74 449.12 671.99 475.97 661.6 500.41C630.45 573.75 557.59 625.52 473.22 625.52L414.75 625.52C340.11 625.52 274.46 584.99 238.75 524.86C220.65 494.37 210.23 458.84 210.23 421C210.23 392.88 215.98 366.04 226.37 341.59C257.52 268.25 330.39 216.48 414.75 216.48L473.22 216.48C549.94 216.48 617.15 259.29 652.12 322.2C668.44 351.54 677.74 385.23 677.74 421Z" />
			<path id="Path 10703" class="shp4" d="M652.12 322.2C656.98 345.79 653.16 379.51 646.95 397.36C605.68 516.07 508.66 537.5 409.49 546.53C338.97 552.95 238.75 524.86 238.75 524.86C220.65 494.37 210.23 458.84 210.23 421C210.23 392.88 215.98 366.04 226.37 341.59C257.52 268.25 330.39 216.48 414.75 216.48L473.22 216.48C549.94 216.48 617.15 259.29 652.12 322.2Z" />
			<path id="Path 10704" class="shp4" d="M390.64 267.72L310.2 267.72C302.08 267.72 295.51 262.79 295.51 256.72L295.51 146.88C295.51 145.01 296.1 143.3 297.12 141.82C301.05 136.12 311.39 133.76 319.08 138.12C349.62 155.43 399.66 193.06 405.29 255.97C405.86 262.33 399.14 267.72 390.64 267.72Z" />
			<path id="Path 10705" class="shp3" d="M313.47 267.72L310.2 267.72C302.08 267.72 295.51 262.79 295.51 256.72L295.51 146.88C295.51 145.01 296.1 143.3 297.12 141.82C297.46 142.12 297.8 142.44 298.11 142.79C315.58 162.25 340.77 200.46 333.67 254C332.64 261.78 323.91 267.72 313.47 267.72Z" />
			<path id="Path 10706" class="shp5" d="M271.07 341.14C271.07 334.52 276.43 329.16 283.05 329.16C289.67 329.16 295.04 334.52 295.04 341.14C295.04 347.76 289.67 353.13 283.05 353.13C276.43 353.13 271.07 347.76 271.07 341.14Z" />
			<path id="Path 10707" class="shp3" d="M507.83 538.69L488.75 662.57C486.22 672.17 493.46 681.56 503.38 681.56L553.52 681.56C564.26 681.56 574.11 675.56 579.03 666L656.95 510.58L507.83 538.69Z" />
			<path id="Path 10708" class="shp3" d="M393.68 540.82L408.98 662.57C411.51 672.17 404.28 681.56 394.35 681.56L344.22 681.56C333.47 681.56 323.62 675.56 318.7 666L238.75 524.86L393.68 540.82Z" />
			<g id="Group 16278">
				<path id="Path 10709" fill-rule="evenodd" class="shp3" d="M726.46 476.59C725.31 476.59 724.16 476.44 723.01 476.14C714.12 473.8 709.04 463.19 709.74 448.44C710.42 433.99 716.47 418.72 726.34 406.57C730.7 401.19 735.74 396.48 741.37 392.5C738.72 388.12 735.13 383.92 730.31 380.31C722.12 374.16 713.65 372.39 704.44 374.89C679.65 381.62 658.64 417.05 656.94 421.03C656.17 423.16 653.84 424.3 651.67 423.58C649.48 422.85 648.29 420.47 649.02 418.28C649.76 416.07 655.9 405.49 664.46 395.02C679.39 376.76 692.39 369.85 700.67 367.26C712.95 363.42 724.62 365.56 735.34 373.6C740.67 377.59 745.06 382.44 748.48 388.02C756.98 383.28 766.56 379.99 776.98 378.28C779.27 377.91 781.42 379.46 781.8 381.74C782.17 384.03 780.63 386.18 778.34 386.56C768.78 388.12 760.02 391.15 752.28 395.51C754.66 401.24 756.16 407.56 756.76 414.38C757.97 428.41 755.16 443.74 749.02 456.42C742.78 469.33 734.55 476.59 726.46 476.59ZM745.09 400.16C740.53 403.53 736.43 407.44 732.85 411.85C724.08 422.65 718.71 436.13 718.11 448.84C717.63 458.93 720.52 466.82 725.15 468.04C729.82 469.26 736.53 462.99 741.48 452.77C746.89 441.57 749.48 427.49 748.4 415.1C748.02 410.65 747.08 405.44 745.09 400.16ZM656.98 420.93C656.97 420.95 656.96 420.98 656.95 421C656.96 420.97 656.97 420.95 656.98 420.93Z" />
			</g>
		</g>
		<g id="Group 16302">
			<g id="Group 16281">
				<path id="Path 10710" class="shp6" d="M387.23 666.53L387.23 674.51C387.23 675.15 387 675.74 386.6 676.23C386.19 676.74 385.58 677.15 384.89 677.38C384.67 677.45 384.45 677.51 384.21 677.54C384 677.57 383.79 677.59 383.57 677.59L232.25 677.59C230.42 677.59 228.89 676.45 228.62 674.97C228.61 674.87 228.59 674.77 228.59 674.67C228.59 674.62 228.58 674.57 228.58 674.51L228.58 666.53C228.58 666.48 228.59 666.43 228.59 666.38C228.59 666.27 228.61 666.18 228.62 666.08C228.89 664.6 230.42 663.46 232.25 663.46L383.57 663.46C383.79 663.46 384 663.48 384.21 663.51C384.45 663.54 384.67 663.6 384.89 663.67C385.58 663.9 386.19 664.3 386.6 664.82C387 665.31 387.23 665.9 387.23 666.53Z" />
				<path id="Path 10711" class="shp7" d="M312.92 677.59L231.85 677.59C230.35 677.59 229.09 676.62 228.71 675.31C228.67 675.2 228.64 675.09 228.62 674.97C228.61 674.87 228.59 674.77 228.59 674.67C228.59 674.62 228.58 674.57 228.58 674.51L228.58 666.53C228.58 666.48 228.59 666.43 228.59 666.38C228.59 666.27 228.61 666.18 228.62 666.08C228.64 665.96 228.67 665.85 228.71 665.74C229.09 664.43 230.35 663.46 231.85 663.46L302.97 663.46C304.1 667.62 306.75 673.37 312.92 677.59Z" />
				<g id="Group 16280">
					<path id="Rectangle 6259" class="shp7" d="M367.1 663.46L368.82 663.46L368.82 677.59L367.1 677.59L367.1 663.46Z" />
					<path id="Rectangle 6260" class="shp7" d="M361.27 663.46L362.99 663.46L362.99 677.59L361.27 677.59L361.27 663.46Z" />
					<path id="Rectangle 6261" class="shp7" d="M354.29 663.46L356.01 663.46L356.01 677.59L354.29 677.59L354.29 663.46Z" />
					<path id="Rectangle 6262" class="shp7" d="M343.59 663.46L345.31 663.46L345.31 677.59L343.59 677.59L343.59 663.46Z" />
					<path id="Rectangle 6263" class="shp7" d="M332.28 663.46L334 663.46L334 677.59L332.28 677.59L332.28 663.46Z" />
					<path id="Rectangle 6264" class="shp7" d="M314.93 663.46L316.65 663.46L316.65 677.59L314.93 677.59L314.93 663.46Z" />
					<path id="Rectangle 6265" class="shp7" d="M298.69 663.46L300.41 663.46L300.41 677.59L298.69 677.59L298.69 663.46Z" />
					<path id="Rectangle 6266" class="shp7" d="M284.18 663.46L285.9 663.46L285.9 677.59L284.18 677.59L284.18 663.46Z" />
					<path id="Rectangle 6267" class="shp7" d="M372.64 663.46L374.36 663.46L374.36 677.59L372.64 677.59L372.64 663.46Z" />
					<path id="Rectangle 6268" class="shp7" d="M376.3 663.46L378.02 663.46L378.02 677.59L376.3 677.59L376.3 663.46Z" />
					<path id="Rectangle 6269" class="shp7" d="M379.83 663.46L381.55 663.46L381.55 677.59L379.83 677.59L379.83 663.46Z" />
					<path id="Path 10712" class="shp7" d="M384.21 663.51L384.21 677.54C384 677.57 383.79 677.59 383.57 677.59L382.49 677.59L382.49 663.46L383.57 663.46C383.79 663.46 384 663.48 384.21 663.51Z" />
					<path id="Path 10713" class="shp7" d="M386.6 664.82L386.6 676.23C386.18 676.75 385.59 677.15 384.88 677.38L384.88 663.67C385.59 663.9 386.18 664.3 386.6 664.82Z" />
				</g>
			</g>
			<g id="Group 16283">
				<path id="Path 10714" class="shp6" d="M371.05 652.41L371.05 660.38C371.05 661.02 370.82 661.61 370.42 662.11C370.32 662.23 370.2 662.36 370.08 662.47C369.7 662.81 369.23 663.08 368.7 663.25C368.49 663.33 368.26 663.38 368.03 663.41C367.82 663.44 367.61 663.46 367.39 663.46L216.06 663.46C214.24 663.46 212.71 662.32 212.44 660.84C212.43 660.74 212.42 660.64 212.41 660.55C212.41 660.49 212.41 660.44 212.41 660.38L212.41 652.41C212.41 652.36 212.41 652.3 212.41 652.25C212.42 652.15 212.43 652.05 212.44 651.95C212.71 650.48 214.24 649.33 216.06 649.33L367.39 649.33C367.48 649.33 367.58 649.34 367.68 649.35C367.72 649.35 367.75 649.35 367.78 649.36C367.79 649.35 367.8 649.35 367.8 649.36C367.84 649.36 367.89 649.36 367.94 649.37C367.97 649.37 368 649.38 368.03 649.38C368.26 649.42 368.49 649.47 368.7 649.54C368.83 649.58 368.95 649.63 369.07 649.68L369.08 649.68C369.16 649.72 369.24 649.76 369.31 649.8C369.36 649.82 369.4 649.85 369.45 649.87C369.49 649.9 369.53 649.92 369.57 649.95C369.73 650.04 369.88 650.15 370.01 650.27C370.06 650.31 370.1 650.35 370.14 650.39C370.17 650.42 370.19 650.44 370.22 650.46C370.23 650.48 370.25 650.49 370.25 650.5L370.29 650.54C370.34 650.59 370.38 650.64 370.42 650.69C370.82 651.19 371.05 651.77 371.05 652.41Z" />
				<path id="Path 10715" class="shp7" d="M296.74 663.46L215.67 663.46C214.17 663.46 212.91 662.49 212.53 661.18C212.5 661.07 212.46 660.96 212.44 660.84C212.43 660.74 212.42 660.64 212.41 660.55C212.41 660.49 212.41 660.44 212.41 660.38L212.41 652.41C212.41 652.36 212.41 652.3 212.41 652.25C212.42 652.15 212.43 652.05 212.44 651.95C212.46 651.84 212.5 651.72 212.53 651.61C212.91 650.31 214.17 649.33 215.67 649.33L286.79 649.33C286.82 649.45 286.85 649.56 286.89 649.68C288.07 653.81 290.74 659.36 296.74 663.46Z" />
				<g id="Group 16282">
					<path id="Rectangle 6270" class="shp7" d="M350.92 649.33L352.64 649.33L352.64 663.46L350.92 663.46L350.92 649.33Z" />
					<path id="Rectangle 6271" class="shp7" d="M345.09 649.33L346.81 649.33L346.81 663.46L345.09 663.46L345.09 649.33Z" />
					<path id="Rectangle 6272" class="shp7" d="M338.11 649.33L339.83 649.33L339.83 663.46L338.11 663.46L338.11 649.33Z" />
					<path id="Rectangle 6273" class="shp7" d="M327.41 649.33L329.13 649.33L329.13 663.46L327.41 663.46L327.41 649.33Z" />
					<path id="Rectangle 6274" class="shp7" d="M316.1 649.33L317.82 649.33L317.82 663.46L316.1 663.46L316.1 649.33Z" />
					<path id="Rectangle 6275" class="shp7" d="M298.75 649.33L300.47 649.33L300.47 663.46L298.75 663.46L298.75 649.33Z" />
					<path id="Rectangle 6276" class="shp7" d="M282.51 649.33L284.23 649.33L284.23 663.46L282.51 663.46L282.51 649.33Z" />
					<path id="Rectangle 6277" class="shp7" d="M268 649.33L269.72 649.33L269.72 663.46L268 663.46L268 649.33Z" />
					<path id="Rectangle 6278" class="shp7" d="M356.46 649.33L358.18 649.33L358.18 663.46L356.46 663.46L356.46 649.33Z" />
					<path id="Rectangle 6279" class="shp7" d="M360.12 649.33L361.84 649.33L361.84 663.46L360.12 663.46L360.12 649.33Z" />
					<path id="Rectangle 6280" class="shp7" d="M363.65 649.33L365.37 649.33L365.37 663.46L363.65 663.46L363.65 649.33Z" />
					<path id="Path 10716" class="shp7" d="M368.03 649.38L368.03 663.41C367.82 663.44 367.61 663.46 367.39 663.46L366.31 663.46L366.31 649.33L367.39 649.33C367.61 649.33 367.82 649.35 368.03 649.38Z" />
					<path id="Path 10717" class="shp7" d="M370.42 650.69L370.42 662.1C370.01 662.62 369.41 663.03 368.7 663.25L368.7 649.54C369.41 649.77 370.01 650.18 370.42 650.69Z" />
				</g>
			</g>
			<g id="Group 16285">
				<path id="Path 10718" class="shp6" d="M378.87 638.63L378.87 646.61C378.87 647.24 378.64 647.83 378.24 648.33C377.82 648.84 377.23 649.25 376.52 649.47C376.31 649.54 376.08 649.6 375.85 649.63C375.64 649.66 375.43 649.68 375.21 649.68L223.88 649.68C223.28 649.68 222.7 649.55 222.2 649.33C221.19 648.89 220.46 648.07 220.27 647.1C220.25 647.03 220.25 646.97 220.24 646.9C220.23 646.86 220.23 646.81 220.23 646.77C220.22 646.71 220.22 646.66 220.22 646.61L220.22 638.63C220.22 638.58 220.22 638.53 220.23 638.47C220.23 638.37 220.24 638.27 220.26 638.18C220.53 636.7 222.06 635.56 223.88 635.56L375.21 635.56C375.43 635.56 375.64 635.57 375.85 635.6C376.08 635.64 376.31 635.69 376.52 635.76C377.23 635.99 377.82 636.4 378.24 636.91C378.64 637.41 378.87 638 378.87 638.63Z" />
				<path id="Path 10719" class="shp7" d="M304.56 649.68L223.49 649.68C222.95 649.68 222.44 649.55 221.99 649.33C221.09 648.89 220.43 648.07 220.27 647.1C220.25 647.03 220.25 646.97 220.24 646.9C220.23 646.86 220.23 646.81 220.23 646.77C220.22 646.71 220.22 646.66 220.22 646.61L220.22 638.63C220.22 638.58 220.22 638.53 220.23 638.47C220.23 638.37 220.24 638.27 220.26 638.18C220.28 638.06 220.31 637.95 220.35 637.85C220.72 636.53 221.99 635.56 223.49 635.56L294.61 635.56C295.71 639.6 298.25 645.15 304.07 649.33C304.23 649.45 304.39 649.57 304.56 649.68Z" />
				<g id="Group 16284">
					<path id="Rectangle 6281" class="shp7" d="M358.74 635.56L360.46 635.56L360.46 649.68L358.74 649.68L358.74 635.56Z" />
					<path id="Rectangle 6282" class="shp7" d="M352.91 635.56L354.63 635.56L354.63 649.68L352.91 649.68L352.91 635.56Z" />
					<path id="Rectangle 6283" class="shp7" d="M345.93 635.56L347.65 635.56L347.65 649.68L345.93 649.68L345.93 635.56Z" />
					<path id="Rectangle 6284" class="shp7" d="M335.23 635.56L336.95 635.56L336.95 649.68L335.23 649.68L335.23 635.56Z" />
					<path id="Rectangle 6285" class="shp7" d="M323.92 635.56L325.64 635.56L325.64 649.68L323.92 649.68L323.92 635.56Z" />
					<path id="Rectangle 6286" class="shp7" d="M306.57 635.56L308.29 635.56L308.29 649.68L306.57 649.68L306.57 635.56Z" />
					<path id="Rectangle 6287" class="shp7" d="M290.33 635.56L292.05 635.56L292.05 649.68L290.33 649.68L290.33 635.56Z" />
					<path id="Rectangle 6288" class="shp7" d="M275.82 635.56L277.54 635.56L277.54 649.68L275.82 649.68L275.82 635.56Z" />
					<path id="Rectangle 6289" class="shp7" d="M364.28 635.56L366 635.56L366 649.68L364.28 649.68L364.28 635.56Z" />
					<path id="Rectangle 6290" class="shp7" d="M367.94 635.56L369.66 635.56L369.66 649.68L367.94 649.68L367.94 635.56Z" />
					<path id="Rectangle 6291" class="shp7" d="M371.47 635.56L373.19 635.56L373.19 649.68L371.47 649.68L371.47 635.56Z" />
					<path id="Path 10720" class="shp7" d="M375.85 635.6L375.85 649.63C375.64 649.67 375.43 649.68 375.21 649.68L374.13 649.68L374.13 635.56L375.21 635.56C375.43 635.56 375.64 635.57 375.85 635.6Z" />
					<path id="Path 10721" class="shp7" d="M378.24 636.91L378.24 648.32C377.82 648.84 377.23 649.25 376.52 649.48L376.52 635.76C377.23 635.99 377.82 636.4 378.24 636.91Z" />
				</g>
			</g>
			<g id="Group 16287">
				<path id="Path 10722" class="shp6" d="M382.49 624.5L382.49 632.48C382.49 633.12 382.26 633.7 381.86 634.2C381.81 634.26 381.76 634.32 381.7 634.39C381.41 634.69 381.06 634.95 380.65 635.15C380.49 635.22 380.32 635.29 380.15 635.35C379.93 635.42 379.71 635.47 379.48 635.51C379.37 635.52 379.27 635.53 379.16 635.54C379.05 635.55 378.94 635.56 378.83 635.56L227.51 635.56C225.68 635.56 224.15 634.41 223.88 632.94C223.87 632.84 223.85 632.74 223.85 632.64L223.85 624.34C223.95 622.85 225.33 621.63 227.07 621.45C227.22 621.44 227.36 621.43 227.51 621.43L378.83 621.43C378.94 621.43 379.05 621.43 379.16 621.44C379.27 621.45 379.37 621.46 379.48 621.48C379.71 621.51 379.93 621.56 380.15 621.64C380.85 621.86 381.45 622.27 381.86 622.78C382.26 623.28 382.49 623.87 382.49 624.5Z" />
				<path id="Path 10723" class="shp7" d="M308.19 635.56L227.12 635.56C225.61 635.56 224.35 634.58 223.97 633.28C223.94 633.17 223.9 633.05 223.88 632.94C223.87 632.84 223.85 632.74 223.85 632.64L223.85 624.34C223.94 622.85 225.17 621.63 226.73 621.45C226.86 621.44 226.98 621.43 227.12 621.43L298.23 621.43C298.23 621.44 298.24 621.44 298.24 621.45C299.38 625.61 302.02 631.35 308.19 635.56Z" />
				<g id="Group 16286">
					<path id="Rectangle 6292" class="shp7" d="M362.36 621.43L364.08 621.43L364.08 635.56L362.36 635.56L362.36 621.43Z" />
					<path id="Rectangle 6293" class="shp7" d="M356.54 621.43L358.26 621.43L358.26 635.56L356.54 635.56L356.54 621.43Z" />
					<path id="Rectangle 6294" class="shp7" d="M349.56 621.43L351.28 621.43L351.28 635.56L349.56 635.56L349.56 621.43Z" />
					<path id="Rectangle 6295" class="shp7" d="M338.86 621.43L340.58 621.43L340.58 635.56L338.86 635.56L338.86 621.43Z" />
					<path id="Rectangle 6296" class="shp7" d="M327.54 621.43L329.26 621.43L329.26 635.56L327.54 635.56L327.54 621.43Z" />
					<path id="Rectangle 6297" class="shp7" d="M310.19 621.43L311.91 621.43L311.91 635.56L310.19 635.56L310.19 621.43Z" />
					<path id="Rectangle 6298" class="shp7" d="M293.95 621.43L295.67 621.43L295.67 635.56L293.95 635.56L293.95 621.43Z" />
					<path id="Rectangle 6299" class="shp7" d="M279.45 621.43L281.17 621.43L281.17 635.56L279.45 635.56L279.45 621.43Z" />
					<path id="Rectangle 6300" class="shp7" d="M367.9 621.43L369.62 621.43L369.62 635.56L367.9 635.56L367.9 621.43Z" />
					<path id="Rectangle 6301" class="shp7" d="M371.56 621.43L373.28 621.43L373.28 635.56L371.56 635.56L371.56 621.43Z" />
					<path id="Rectangle 6302" class="shp7" d="M375.1 621.43L376.82 621.43L376.82 635.56L375.1 635.56L375.1 621.43Z" />
					<path id="Path 10724" class="shp7" d="M379.48 621.48L379.48 635.51C379.27 635.54 379.05 635.55 378.83 635.55L377.76 635.55L377.76 621.43L378.83 621.43C379.05 621.43 379.27 621.44 379.48 621.48Z" />
					<path id="Path 10725" class="shp7" d="M381.87 622.79L381.87 634.2C381.45 634.71 380.85 635.12 380.15 635.35L380.15 621.64C380.85 621.86 381.45 622.27 381.87 622.79Z" />
				</g>
			</g>
			<g id="Group 16289">
				<path id="Path 10726" class="shp6" d="M371.37 610.4L371.37 618.37C371.37 619.01 371.14 619.6 370.74 620.09C370.33 620.61 369.73 621.02 369.02 621.24C368.81 621.31 368.58 621.37 368.35 621.4C368.28 621.41 368.21 621.42 368.14 621.43L368.11 621.43C368.08 621.43 368.04 621.44 368 621.44C367.97 621.44 367.94 621.44 367.9 621.45C367.83 621.45 367.77 621.45 367.71 621.45L216.39 621.45C214.43 621.45 212.83 620.15 212.73 618.53C212.72 618.48 212.72 618.43 212.72 618.37L212.72 610.4C212.72 610.35 212.72 610.29 212.73 610.24C212.73 610.2 212.73 610.15 212.74 610.11C212.88 608.81 214.01 607.73 215.48 607.42C215.52 607.41 215.55 607.4 215.59 607.4C215.85 607.35 216.11 607.32 216.39 607.32L367.71 607.32C367.82 607.32 367.92 607.33 368.03 607.34C368.08 607.34 368.13 607.35 368.17 607.35L368.18 607.35L368.18 607.35C368.24 607.36 368.3 607.36 368.35 607.37C368.58 607.41 368.81 607.46 369.02 607.53C369.73 607.76 370.33 608.16 370.74 608.68C371.14 609.18 371.37 609.76 371.37 610.4Z" />
				<path id="Path 10727" class="shp7" d="M297.06 621.45L215.99 621.45C214.25 621.45 212.82 620.15 212.73 618.53C212.72 618.48 212.72 618.43 212.72 618.37L212.72 610.4C212.72 610.35 212.72 610.29 212.73 610.24C212.73 610.2 212.73 610.15 212.74 610.11C212.87 608.78 213.91 607.69 215.28 607.4C215.32 607.39 215.36 607.38 215.41 607.37C215.6 607.34 215.8 607.32 215.99 607.32L287.1 607.32C287.11 607.36 287.12 607.39 287.13 607.43C288.28 611.57 290.93 617.25 297.03 621.43C297.04 621.44 297.05 621.44 297.06 621.45Z" />
				<g id="Group 16288">
					<path id="Rectangle 6303" class="shp7" d="M351.23 607.32L352.95 607.32L352.95 621.45L351.23 621.45L351.23 607.32Z" />
					<path id="Rectangle 6304" class="shp7" d="M345.41 607.32L347.13 607.32L347.13 621.45L345.41 621.45L345.41 607.32Z" />
					<path id="Rectangle 6305" class="shp7" d="M338.43 607.32L340.15 607.32L340.15 621.45L338.43 621.45L338.43 607.32Z" />
					<path id="Rectangle 6306" class="shp7" d="M327.73 607.32L329.45 607.32L329.45 621.45L327.73 621.45L327.73 607.32Z" />
					<path id="Rectangle 6307" class="shp7" d="M316.42 607.32L318.13 607.32L318.13 621.45L316.42 621.45L316.42 607.32Z" />
					<path id="Rectangle 6308" class="shp7" d="M299.07 607.32L300.79 607.32L300.79 621.45L299.07 621.45L299.07 607.32Z" />
					<path id="Rectangle 6309" class="shp7" d="M282.82 607.32L284.54 607.32L284.54 621.45L282.82 621.45L282.82 607.32Z" />
					<path id="Rectangle 6310" class="shp7" d="M268.32 607.32L270.04 607.32L270.04 621.45L268.32 621.45L268.32 607.32Z" />
					<path id="Rectangle 6311" class="shp7" d="M356.78 607.32L358.5 607.32L358.5 621.45L356.78 621.45L356.78 607.32Z" />
					<path id="Rectangle 6312" class="shp7" d="M360.44 607.32L362.16 607.32L362.16 621.45L360.44 621.45L360.44 607.32Z" />
					<path id="Rectangle 6313" class="shp7" d="M363.97 607.32L365.69 607.32L365.69 621.45L363.97 621.45L363.97 607.32Z" />
					<path id="Path 10728" class="shp7" d="M368.35 607.37L368.35 621.4C368.14 621.43 367.93 621.45 367.71 621.45L366.63 621.45L366.63 607.32L367.71 607.32C367.93 607.32 368.14 607.34 368.35 607.37Z" />
					<path id="Path 10729" class="shp7" d="M370.74 608.68L370.74 620.09C370.32 620.61 369.72 621.02 369.02 621.24L369.02 607.53C369.72 607.76 370.32 608.17 370.74 608.68Z" />
				</g>
			</g>
			<g id="Group 16291">
				<path id="Path 10730" class="shp6" d="M371.05 596.37L371.05 604.35C371.05 604.99 370.82 605.57 370.42 606.07C370.32 606.19 370.2 606.32 370.08 606.43C369.7 606.77 369.23 607.05 368.7 607.22C368.53 607.28 368.36 607.32 368.18 607.35L368.18 607.35L368.17 607.35C368.12 607.36 368.08 607.37 368.03 607.37C367.82 607.41 367.61 607.43 367.39 607.43L216.06 607.43C215.91 607.43 215.75 607.42 215.59 607.4C215.53 607.39 215.47 607.38 215.41 607.37C213.87 607.14 212.66 606.08 212.44 604.77C212.42 604.68 212.42 604.6 212.41 604.51C212.41 604.45 212.41 604.4 212.41 604.35L212.41 596.37C212.41 596.32 212.41 596.27 212.41 596.21C212.42 596.11 212.43 596.02 212.44 595.92C212.71 594.44 214.24 593.3 216.06 593.3L367.39 593.3C367.48 593.3 367.58 593.3 367.68 593.31C367.69 593.31 367.71 593.31 367.72 593.31C367.74 593.32 367.77 593.32 367.8 593.32C367.84 593.32 367.89 593.33 367.94 593.33C367.97 593.33 368 593.34 368.03 593.35C368.26 593.38 368.49 593.43 368.7 593.51C368.83 593.55 368.95 593.59 369.07 593.65L369.08 593.65C369.55 593.85 369.96 594.15 370.29 594.5C370.34 594.55 370.38 594.6 370.42 594.65C370.82 595.15 371.05 595.74 371.05 596.37Z" />
				<path id="Path 10731" class="shp7" d="M296.74 607.43L215.67 607.43C215.61 607.43 215.54 607.42 215.48 607.42C215.41 607.42 215.34 607.41 215.28 607.4C213.81 607.23 212.64 606.14 212.44 604.77C212.42 604.68 212.42 604.6 212.41 604.51C212.41 604.45 212.41 604.4 212.41 604.35L212.41 596.37C212.41 596.32 212.41 596.27 212.41 596.21C212.42 596.11 212.43 596.02 212.44 595.92C212.46 595.8 212.5 595.69 212.53 595.58C212.91 594.27 214.17 593.3 215.67 593.3L286.79 593.3C286.82 593.42 286.85 593.53 286.89 593.65C288.06 597.74 290.7 603.23 296.6 607.32C296.64 607.36 296.7 607.39 296.74 607.43Z" />
				<g id="Group 16290">
					<path id="Rectangle 6314" class="shp7" d="M350.92 593.3L352.64 593.3L352.64 607.42L350.92 607.42L350.92 593.3Z" />
					<path id="Rectangle 6315" class="shp7" d="M345.09 593.3L346.81 593.3L346.81 607.42L345.09 607.42L345.09 593.3Z" />
					<path id="Rectangle 6316" class="shp7" d="M338.11 593.3L339.83 593.3L339.83 607.42L338.11 607.42L338.11 593.3Z" />
					<path id="Rectangle 6317" class="shp7" d="M327.41 593.3L329.13 593.3L329.13 607.42L327.41 607.42L327.41 593.3Z" />
					<path id="Rectangle 6318" class="shp7" d="M316.1 593.3L317.82 593.3L317.82 607.42L316.1 607.42L316.1 593.3Z" />
					<path id="Rectangle 6319" class="shp7" d="M298.75 593.3L300.47 593.3L300.47 607.42L298.75 607.42L298.75 593.3Z" />
					<path id="Rectangle 6320" class="shp7" d="M282.51 593.3L284.23 593.3L284.23 607.42L282.51 607.42L282.51 593.3Z" />
					<path id="Rectangle 6321" class="shp7" d="M268 593.3L269.72 593.3L269.72 607.42L268 607.42L268 593.3Z" />
					<path id="Rectangle 6322" class="shp7" d="M356.46 593.3L358.18 593.3L358.18 607.42L356.46 607.42L356.46 593.3Z" />
					<path id="Rectangle 6323" class="shp7" d="M360.12 593.3L361.84 593.3L361.84 607.42L360.12 607.42L360.12 593.3Z" />
					<path id="Rectangle 6324" class="shp7" d="M363.65 593.3L365.37 593.3L365.37 607.42L363.65 607.42L363.65 593.3Z" />
					<path id="Path 10732" class="shp7" d="M368.03 593.35L368.03 607.38C367.82 607.41 367.61 607.42 367.39 607.42L366.31 607.42L366.31 593.3L367.39 593.3C367.61 593.3 367.82 593.31 368.03 593.35Z" />
					<path id="Path 10733" class="shp7" d="M370.42 594.66L370.42 606.07C370.01 606.58 369.41 606.99 368.7 607.22L368.7 593.51C369.41 593.73 370.01 594.14 370.42 594.66Z" />
				</g>
			</g>
			<g id="Group 16293">
				<path id="Path 10734" class="shp6" d="M378.87 582.59L378.87 590.57C378.87 591.21 378.64 591.8 378.24 592.29C377.82 592.81 377.23 593.21 376.52 593.44C376.31 593.51 376.08 593.56 375.85 593.59C375.64 593.63 375.43 593.65 375.21 593.65L223.88 593.65C223.28 593.65 222.7 593.52 222.2 593.3C221.19 592.86 220.46 592.03 220.27 591.07C220.25 591 220.25 590.93 220.24 590.87C220.23 590.82 220.23 590.78 220.23 590.73C220.22 590.68 220.22 590.63 220.22 590.57L220.22 582.59C220.22 582.54 220.22 582.49 220.23 582.43C220.23 582.33 220.24 582.24 220.26 582.14C220.53 580.66 222.06 579.52 223.88 579.52L375.21 579.52C375.43 579.52 375.64 579.54 375.85 579.57C376.08 579.6 376.31 579.65 376.52 579.73C377.23 579.95 377.82 580.36 378.24 580.88C378.64 581.37 378.87 581.96 378.87 582.59Z" />
				<path id="Path 10735" class="shp7" d="M304.56 593.65L223.49 593.65C222.95 593.65 222.44 593.52 221.99 593.3C221.09 592.86 220.43 592.03 220.27 591.07C220.25 591 220.25 590.93 220.24 590.87C220.23 590.82 220.23 590.78 220.23 590.73C220.22 590.68 220.22 590.63 220.22 590.57L220.22 582.59C220.22 582.54 220.22 582.49 220.23 582.43C220.23 582.33 220.24 582.24 220.26 582.14C220.28 582.02 220.31 581.92 220.35 581.81C220.72 580.5 221.99 579.52 223.49 579.52L294.61 579.52C295.71 583.56 298.25 589.12 304.07 593.3C304.23 593.41 304.39 593.53 304.56 593.65Z" />
				<g id="Group 16292">
					<path id="Rectangle 6325" class="shp7" d="M358.74 579.52L360.46 579.52L360.46 593.65L358.74 593.65L358.74 579.52Z" />
					<path id="Rectangle 6326" class="shp7" d="M352.91 579.52L354.63 579.52L354.63 593.65L352.91 593.65L352.91 579.52Z" />
					<path id="Rectangle 6327" class="shp7" d="M345.93 579.52L347.65 579.52L347.65 593.65L345.93 593.65L345.93 579.52Z" />
					<path id="Rectangle 6328" class="shp7" d="M335.23 579.52L336.95 579.52L336.95 593.65L335.23 593.65L335.23 579.52Z" />
					<path id="Rectangle 6329" class="shp7" d="M323.92 579.52L325.64 579.52L325.64 593.65L323.92 593.65L323.92 579.52Z" />
					<path id="Rectangle 6330" class="shp7" d="M306.57 579.52L308.29 579.52L308.29 593.65L306.57 593.65L306.57 579.52Z" />
					<path id="Rectangle 6331" class="shp7" d="M290.33 579.52L292.05 579.52L292.05 593.65L290.33 593.65L290.33 579.52Z" />
					<path id="Rectangle 6332" class="shp7" d="M275.82 579.52L277.54 579.52L277.54 593.65L275.82 593.65L275.82 579.52Z" />
					<path id="Rectangle 6333" class="shp7" d="M364.28 579.52L366 579.52L366 593.65L364.28 593.65L364.28 579.52Z" />
					<path id="Rectangle 6334" class="shp7" d="M367.94 579.52L369.66 579.52L369.66 593.65L367.94 593.65L367.94 579.52Z" />
					<path id="Rectangle 6335" class="shp7" d="M371.47 579.52L373.19 579.52L373.19 593.65L371.47 593.65L371.47 579.52Z" />
					<path id="Path 10736" class="shp7" d="M375.85 579.57L375.85 593.6C375.64 593.63 375.43 593.65 375.21 593.65L374.13 593.65L374.13 579.52L375.21 579.52C375.43 579.52 375.64 579.54 375.85 579.57Z" />
					<path id="Path 10737" class="shp7" d="M378.24 580.88L378.24 592.29C377.82 592.8 377.23 593.21 376.52 593.44L376.52 579.73C377.23 579.95 377.82 580.36 378.24 580.88Z" />
				</g>
			</g>
			<g id="Group 16295">
				<path id="Path 10738" class="shp6" d="M391.23 568.47L391.23 576.44C391.23 577.08 391 577.66 390.61 578.16L390.61 578.16C390.55 578.23 390.5 578.29 390.44 578.35C390.21 578.6 389.94 578.81 389.63 578.98C389.48 579.07 389.32 579.15 389.15 579.21C389.14 579.21 389.14 579.22 389.14 579.22C389.06 579.25 388.98 579.29 388.89 579.31C388.68 579.38 388.45 579.44 388.22 579.47C388.01 579.5 387.79 579.52 387.58 579.52L236.25 579.52C234.42 579.52 232.9 578.38 232.63 576.9C232.61 576.8 232.6 576.7 232.6 576.6C232.59 576.55 232.59 576.5 232.59 576.44L232.59 568.47C232.59 568.41 232.59 568.36 232.6 568.31C232.69 566.82 234.07 565.59 235.82 565.42C235.96 565.4 236.1 565.39 236.25 565.39L387.58 565.39C387.79 565.39 388.01 565.41 388.22 565.44C388.45 565.48 388.68 565.53 388.89 565.6C389.5 565.8 390.03 566.13 390.44 566.56C390.5 566.62 390.55 566.68 390.61 566.75L390.61 566.75C391 567.25 391.23 567.83 391.23 568.47Z" />
				<path id="Path 10739" class="shp7" d="M316.93 579.52L235.86 579.52C234.35 579.52 233.08 578.54 232.71 577.23C232.68 577.12 232.65 577.01 232.63 576.9C232.61 576.8 232.6 576.7 232.6 576.6C232.59 576.55 232.59 576.5 232.59 576.44L232.59 568.47C232.59 568.41 232.59 568.36 232.6 568.31C232.68 566.82 233.91 565.59 235.47 565.42C235.6 565.4 235.72 565.39 235.86 565.39L306.97 565.39C306.97 565.4 306.98 565.41 306.98 565.42C308.12 569.57 310.76 575.31 316.93 579.52Z" />
				<g id="Group 16294">
					<path id="Rectangle 6336" class="shp7" d="M371.1 565.39L372.82 565.39L372.82 579.52L371.1 579.52L371.1 565.39Z" />
					<path id="Rectangle 6337" class="shp7" d="M365.28 565.39L367 565.39L367 579.52L365.28 579.52L365.28 565.39Z" />
					<path id="Rectangle 6338" class="shp7" d="M358.3 565.39L360.02 565.39L360.02 579.52L358.3 579.52L358.3 565.39Z" />
					<path id="Rectangle 6339" class="shp7" d="M347.6 565.39L349.32 565.39L349.32 579.52L347.6 579.52L347.6 565.39Z" />
					<path id="Rectangle 6340" class="shp7" d="M336.28 565.39L338 565.39L338 579.52L336.28 579.52L336.28 565.39Z" />
					<path id="Rectangle 6341" class="shp7" d="M318.93 565.39L320.65 565.39L320.65 579.52L318.93 579.52L318.93 565.39Z" />
					<path id="Rectangle 6342" class="shp7" d="M302.69 565.39L304.41 565.39L304.41 579.52L302.69 579.52L302.69 565.39Z" />
					<path id="Rectangle 6343" class="shp7" d="M288.19 565.39L289.91 565.39L289.91 579.52L288.19 579.52L288.19 565.39Z" />
					<path id="Rectangle 6344" class="shp7" d="M376.64 565.39L378.36 565.39L378.36 579.52L376.64 579.52L376.64 565.39Z" />
					<path id="Rectangle 6345" class="shp7" d="M380.3 565.39L382.02 565.39L382.02 579.52L380.3 579.52L380.3 565.39Z" />
					<path id="Rectangle 6346" class="shp7" d="M383.84 565.39L385.56 565.39L385.56 579.52L383.84 579.52L383.84 565.39Z" />
					<path id="Path 10740" class="shp7" d="M388.22 565.44L388.22 579.47C388.01 579.5 387.79 579.52 387.57 579.52L386.5 579.52L386.5 565.39L387.57 565.39C387.79 565.39 388.01 565.41 388.22 565.44Z" />
					<path id="Path 10741" class="shp7" d="M390.61 566.75L390.61 578.16C390.19 578.68 389.59 579.08 388.89 579.31L388.89 565.6C389.59 565.83 390.19 566.23 390.61 566.75Z" />
				</g>
			</g>
			<g id="Group 16297">
				<path id="Path 10742" class="shp6" d="M371.37 554.36L371.37 562.34C371.37 562.98 371.14 563.56 370.74 564.05C370.33 564.57 369.73 564.98 369.02 565.21C368.81 565.28 368.58 565.33 368.35 565.36C368.28 565.37 368.21 565.38 368.14 565.39L368.11 565.39C368.07 565.4 368.02 565.4 367.97 565.41C367.94 565.41 367.91 565.41 367.89 565.41C367.82 565.41 367.77 565.42 367.71 565.42L216.39 565.42C215.07 565.42 213.91 564.83 213.27 563.95C212.95 563.52 212.76 563.03 212.73 562.5C212.72 562.44 212.72 562.39 212.72 562.34L212.72 554.36C212.72 554.31 212.72 554.26 212.73 554.2C212.81 552.89 213.88 551.79 215.32 551.42C215.66 551.33 216.02 551.29 216.39 551.29L367.71 551.29C367.77 551.29 367.83 551.29 367.9 551.29C367.93 551.29 367.97 551.3 368 551.3C368.12 551.31 368.24 551.32 368.35 551.34C368.58 551.37 368.81 551.42 369.02 551.49C369.13 551.53 369.23 551.57 369.33 551.61L369.34 551.61C369.74 551.78 370.1 552.01 370.4 552.28C370.4 552.28 370.41 552.29 370.41 552.3C370.42 552.31 370.44 552.32 370.45 552.34C370.56 552.43 370.65 552.53 370.74 552.64C371.14 553.14 371.37 553.73 371.37 554.36Z" />
				<path id="Path 10743" class="shp7" d="M297.06 565.42L215.99 565.42C214.85 565.42 213.84 564.86 213.26 564.02C212.95 563.58 212.76 563.06 212.73 562.5C212.72 562.44 212.72 562.39 212.72 562.34L212.72 554.36C212.72 554.31 212.72 554.26 212.73 554.2C212.81 552.79 213.9 551.63 215.33 551.35C215.54 551.31 215.77 551.29 215.99 551.29L287.1 551.29C287.13 551.39 287.17 551.5 287.2 551.61C288.38 555.73 291.04 561.28 297.03 565.39C297.04 565.4 297.05 565.41 297.06 565.42Z" />
				<g id="Group 16296">
					<path id="Rectangle 6347" class="shp7" d="M351.23 551.29L352.95 551.29L352.95 565.41L351.23 565.41L351.23 551.29Z" />
					<path id="Rectangle 6348" class="shp7" d="M345.41 551.29L347.13 551.29L347.13 565.41L345.41 565.41L345.41 551.29Z" />
					<path id="Rectangle 6349" class="shp7" d="M338.43 551.29L340.15 551.29L340.15 565.41L338.43 565.41L338.43 551.29Z" />
					<path id="Rectangle 6350" class="shp7" d="M327.73 551.29L329.45 551.29L329.45 565.41L327.73 565.41L327.73 551.29Z" />
					<path id="Rectangle 6351" class="shp7" d="M316.42 551.29L318.13 551.29L318.13 565.41L316.42 565.41L316.42 551.29Z" />
					<path id="Rectangle 6352" class="shp7" d="M299.07 551.29L300.79 551.29L300.79 565.41L299.07 565.41L299.07 551.29Z" />
					<path id="Rectangle 6353" class="shp7" d="M282.82 551.29L284.54 551.29L284.54 565.41L282.82 565.41L282.82 551.29Z" />
					<path id="Rectangle 6354" class="shp7" d="M268.32 551.29L270.04 551.29L270.04 565.41L268.32 565.41L268.32 551.29Z" />
					<path id="Rectangle 6355" class="shp7" d="M356.78 551.29L358.5 551.29L358.5 565.41L356.78 565.41L356.78 551.29Z" />
					<path id="Rectangle 6356" class="shp7" d="M360.44 551.29L362.16 551.29L362.16 565.41L360.44 565.41L360.44 551.29Z" />
					<path id="Rectangle 6357" class="shp7" d="M363.97 551.29L365.69 551.29L365.69 565.41L363.97 565.41L363.97 551.29Z" />
					<path id="Path 10744" class="shp7" d="M368.35 551.34L368.35 565.36C368.14 565.4 367.93 565.41 367.71 565.41L366.63 565.41L366.63 551.29L367.71 551.29C367.93 551.29 368.14 551.3 368.35 551.34Z" />
					<path id="Path 10745" class="shp7" d="M370.74 552.65L370.74 564.06C370.32 564.57 369.72 564.98 369.02 565.21L369.02 551.5C369.72 551.72 370.32 552.13 370.74 552.65Z" />
				</g>
			</g>
			<g id="Group 16299">
				<path id="Path 10746" class="shp6" d="M382.49 540.56L382.49 548.54C382.49 549.17 382.26 549.76 381.87 550.26C381.45 550.77 380.85 551.18 380.15 551.41C379.93 551.48 379.71 551.53 379.48 551.56C379.27 551.6 379.05 551.61 378.83 551.61L227.51 551.61C226.92 551.61 226.37 551.5 225.87 551.29C224.77 550.82 223.98 549.9 223.86 548.82C223.86 548.78 223.85 548.74 223.85 548.7C223.85 548.64 223.85 548.59 223.85 548.54L223.85 540.56C223.85 540.51 223.85 540.46 223.85 540.4C223.94 538.91 225.33 537.68 227.08 537.51C227.22 537.49 227.36 537.49 227.51 537.49L378.83 537.49C379.05 537.49 379.27 537.5 379.48 537.54C379.71 537.57 379.93 537.62 380.15 537.69C380.85 537.92 381.45 538.33 381.87 538.84C382.26 539.34 382.49 539.93 382.49 540.56Z" />
				<path id="Path 10747" class="shp7" d="M308.19 551.61L227.12 551.61C226.59 551.61 226.1 551.5 225.66 551.29C224.67 550.82 223.97 549.9 223.86 548.82C223.86 548.78 223.85 548.74 223.85 548.7C223.85 548.64 223.85 548.59 223.85 548.54L223.85 540.56C223.85 540.51 223.85 540.46 223.85 540.4C223.93 538.91 225.17 537.68 226.73 537.51C226.86 537.49 226.99 537.49 227.12 537.49L298.23 537.49C298.23 537.49 298.23 537.5 298.24 537.51C299.35 541.56 301.89 547.11 307.72 551.29C307.87 551.4 308.03 551.51 308.19 551.61Z" />
				<g id="Group 16298">
					<path id="Rectangle 6358" class="shp7" d="M362.36 537.49L364.08 537.49L364.08 551.61L362.36 551.61L362.36 537.49Z" />
					<path id="Rectangle 6359" class="shp7" d="M356.54 537.49L358.26 537.49L358.26 551.61L356.54 551.61L356.54 537.49Z" />
					<path id="Rectangle 6360" class="shp7" d="M349.56 537.49L351.28 537.49L351.28 551.61L349.56 551.61L349.56 537.49Z" />
					<path id="Rectangle 6361" class="shp7" d="M338.86 537.49L340.58 537.49L340.58 551.61L338.86 551.61L338.86 537.49Z" />
					<path id="Rectangle 6362" class="shp7" d="M327.54 537.49L329.26 537.49L329.26 551.61L327.54 551.61L327.54 537.49Z" />
					<path id="Rectangle 6363" class="shp7" d="M310.19 537.49L311.91 537.49L311.91 551.61L310.19 551.61L310.19 537.49Z" />
					<path id="Rectangle 6364" class="shp7" d="M293.95 537.49L295.67 537.49L295.67 551.61L293.95 551.61L293.95 537.49Z" />
					<path id="Rectangle 6365" class="shp7" d="M279.45 537.49L281.17 537.49L281.17 551.61L279.45 551.61L279.45 537.49Z" />
					<path id="Rectangle 6366" class="shp7" d="M367.9 537.49L369.62 537.49L369.62 551.61L367.9 551.61L367.9 537.49Z" />
					<path id="Rectangle 6367" class="shp7" d="M371.56 537.49L373.28 537.49L373.28 551.61L371.56 551.61L371.56 537.49Z" />
					<path id="Rectangle 6368" class="shp7" d="M375.1 537.49L376.82 537.49L376.82 551.61L375.1 551.61L375.1 537.49Z" />
					<path id="Path 10748" class="shp7" d="M379.48 537.54L379.48 551.56C379.27 551.6 379.05 551.61 378.83 551.61L377.76 551.61L377.76 537.49L378.83 537.49C379.05 537.49 379.27 537.5 379.48 537.54Z" />
					<path id="Path 10749" class="shp7" d="M381.87 538.84L381.87 550.26C381.45 550.77 380.85 551.18 380.15 551.41L380.15 537.69C380.85 537.92 381.45 538.33 381.87 538.84Z" />
				</g>
			</g>
			<g id="Group 16301">
				<path id="Path 10750" class="shp6" d="M387.23 526.46L387.23 534.43C387.23 535.07 387 535.66 386.6 536.15C386.18 536.67 385.59 537.07 384.88 537.3C384.67 537.37 384.44 537.43 384.21 537.46C384.14 537.47 384.07 537.48 384 537.49C383.96 537.49 383.92 537.49 383.88 537.5C383.84 537.5 383.8 537.5 383.76 537.5C383.7 537.51 383.63 537.51 383.57 537.51L232.25 537.51C230.29 537.51 228.69 536.21 228.59 534.59C228.59 534.54 228.58 534.49 228.58 534.43L228.58 526.46C228.58 526.4 228.59 526.35 228.59 526.3C228.69 524.68 230.29 523.38 232.25 523.38L383.57 523.38C383.79 523.38 384 523.4 384.21 523.43C384.44 523.47 384.67 523.52 384.88 523.59C385.59 523.82 386.18 524.22 386.6 524.74C387 525.23 387.23 525.82 387.23 526.46Z" />
				<path id="Path 10751" class="shp7" d="M312.92 537.51L231.85 537.51C230.11 537.51 228.68 536.21 228.59 534.59C228.59 534.54 228.58 534.49 228.58 534.43L228.58 526.46C228.58 526.4 228.59 526.35 228.59 526.3C228.68 524.68 230.11 523.38 231.85 523.38L302.97 523.38C304.1 527.53 306.74 533.27 312.89 537.49C312.9 537.49 312.91 537.5 312.92 537.51Z" />
				<g id="Group 16300">
					<path id="Rectangle 6369" class="shp7" d="M367.1 523.38L368.82 523.38L368.82 537.51L367.1 537.51L367.1 523.38Z" />
					<path id="Rectangle 6370" class="shp7" d="M361.27 523.38L362.99 523.38L362.99 537.51L361.27 537.51L361.27 523.38Z" />
					<path id="Rectangle 6371" class="shp7" d="M354.29 523.38L356.01 523.38L356.01 537.51L354.29 537.51L354.29 523.38Z" />
					<path id="Rectangle 6372" class="shp7" d="M343.59 523.38L345.31 523.38L345.31 537.51L343.59 537.51L343.59 523.38Z" />
					<path id="Rectangle 6373" class="shp7" d="M332.28 523.38L334 523.38L334 537.51L332.28 537.51L332.28 523.38Z" />
					<path id="Rectangle 6374" class="shp7" d="M314.93 523.38L316.65 523.38L316.65 537.51L314.93 537.51L314.93 523.38Z" />
					<path id="Rectangle 6375" class="shp7" d="M298.69 523.38L300.41 523.38L300.41 537.51L298.69 537.51L298.69 523.38Z" />
					<path id="Rectangle 6376" class="shp7" d="M284.18 523.38L285.9 523.38L285.9 537.51L284.18 537.51L284.18 523.38Z" />
					<path id="Rectangle 6377" class="shp7" d="M372.64 523.38L374.36 523.38L374.36 537.51L372.64 537.51L372.64 523.38Z" />
					<path id="Rectangle 6378" class="shp7" d="M376.3 523.38L378.02 523.38L378.02 537.51L376.3 537.51L376.3 523.38Z" />
					<path id="Rectangle 6379" class="shp7" d="M379.83 523.38L381.55 523.38L381.55 537.51L379.83 537.51L379.83 523.38Z" />
					<path id="Path 10752" class="shp7" d="M384.21 523.43L384.21 537.46C384 537.49 383.79 537.51 383.57 537.51L382.49 537.51L382.49 523.38L383.57 523.38C383.79 523.38 384 523.4 384.21 523.43Z" />
					<path id="Path 10753" class="shp7" d="M386.6 524.74L386.6 536.15C386.18 536.67 385.59 537.07 384.88 537.3L384.88 523.59C385.59 523.82 386.18 524.22 386.6 524.74Z" />
				</g>
			</g>
		</g>
		<g id="Group 16303">
			<path id="Path 10754" class="shp8" d="M339.26 442.88C339.26 442.88 331.31 454.07 324.03 454.22C316.74 454.38 305.66 449.04 305.66 449.04C305.66 449.04 298.97 434.13 303.5 428.29C303.5 428.29 308.05 426.29 312.81 429.82C313.63 430.43 314.46 431.2 315.28 432.18C316.43 433.57 317.73 434.36 319.1 434.77C324.3 436.36 330.47 432.63 332.78 436.23C334.13 438.31 335.59 439.88 336.8 440.98C338.23 442.25 339.26 442.88 339.26 442.88Z" />
			<path id="Path 10755" class="shp8" d="M235.64 523.59C235.64 523.59 263.74 455.52 314.3 454.22C314.3 454.22 360.98 459.41 363.57 523.59L235.64 523.59Z" />
			<path id="Path 10756" class="shp9" d="M300.45 456.3C300.45 456.3 320.72 460.81 326.97 458.16C326.97 458.16 327.92 449.68 319.38 450.87C313.54 451.69 309.74 448.88 307.5 447.74C304.33 446.13 299.61 452.76 300.45 456.3Z" />
			<path id="Path 10757" class="shp10" d="M318.09 443.53C316.79 444.5 312.81 429.82 312.81 429.82C313.63 430.43 314.46 431.2 315.28 432.18C316.43 433.57 317.73 434.36 319.1 434.77C319.11 435.2 319.35 442.58 318.09 443.53Z" />
			<path id="Path 10758" class="shp10" d="M336.8 440.98C336.51 441.15 327.14 446.77 325.87 446.77C324.57 446.77 332.78 436.23 332.78 436.23C334.13 438.31 335.59 439.88 336.8 440.98Z" />
			<path id="Path 10759" class="shp11" d="M263.09 504.57C262.57 504.13 282.97 474.54 288.59 474.32C294.21 474.1 306.83 480.8 315.97 481.67C325.11 482.53 333.97 479.94 335.7 485.34C337.43 490.74 342.18 509.9 339.26 512.96C336.35 516.03 274.31 514.16 263.09 504.57Z" />
		</g>
		<g id="Group 16306">
			<path id="Path 10760" class="shp6" d="M460.68 256.1C459.39 257.1 458.03 258.04 456.61 258.9C456.05 259.24 455.49 259.56 454.92 259.88C453.48 260.68 452 261.39 450.51 262.01C450.07 261.94 449.64 261.86 449.21 261.79C446.49 261.34 443.8 260.92 441.17 260.54C439.86 260.35 438.56 260.17 437.28 260C431.87 259.29 426.67 258.71 421.74 258.26C420.41 258.14 419.1 258.02 417.81 257.92C416.78 257.83 415.78 257.76 414.78 257.68C412.34 257.5 409.98 257.35 407.71 257.22C404.52 254.97 401.6 252.27 399.05 249.15C397.36 247.08 395.82 244.83 394.49 242.4C382.63 220.88 390.45 193.82 411.97 181.96C412.53 181.65 413.11 181.34 413.68 181.07C434.9 170.52 460.86 178.49 472.41 199.45C483.14 218.92 477.75 242.93 460.68 256.1Z" />
			<g id="Group 16304">
				<path id="Path 10761" class="shp7" d="M468.61 202.14C458 182.89 433.71 175.86 414.46 186.47C401.29 193.73 393.84 207.38 393.84 221.45C393.84 227.95 395.44 234.54 398.79 240.63C400.61 243.92 402.82 246.85 405.33 249.4C408.96 253.06 413.21 255.93 417.81 257.92C419.1 258.02 420.41 258.14 421.74 258.26C416.28 256.49 411.21 253.53 406.96 249.49C404.15 246.82 401.7 243.68 399.73 240.11C389.4 221.38 396.24 197.74 414.97 187.41C433.71 177.09 457.34 183.93 467.67 202.65C477.8 221.04 471.41 244.14 453.47 254.75C453.12 254.96 452.78 255.15 452.43 255.35C447.6 258.01 442.44 259.53 437.28 260C438.56 260.17 439.86 260.35 441.17 260.54C445.19 259.78 449.16 258.37 452.95 256.29C453.67 255.9 454.37 255.48 455.06 255.04C472.7 243.86 478.82 220.67 468.61 202.14Z" />
			</g>
			<g id="Group 16305">
				<path id="Path 10762" class="shp7" d="M453.31 225.26C452.54 223.37 451.55 221.87 450.33 220.76C449.11 219.65 447.69 218.82 446.08 218.26C444.47 217.71 442.67 217.37 440.68 217.25C438.7 217.12 436.54 217.1 434.2 217.16C432.76 217.2 431.53 217.18 430.5 217.09C429.48 217 428.61 216.8 427.9 216.52C427.18 216.23 426.6 215.84 426.16 215.34C425.71 214.84 425.35 214.24 425.05 213.52C424.76 212.8 424.59 212.08 424.55 211.38C424.51 210.67 424.61 210 424.87 209.37C425.12 208.73 425.53 208.15 426.11 207.61C426.68 207.07 427.43 206.61 428.38 206.23C430.11 205.52 431.73 205.54 433.23 206.28C434.74 207.01 435.96 208.54 436.91 210.87L445.97 207.19C445.18 205.25 444.2 203.61 443.01 202.27C441.82 200.93 440.48 199.9 438.99 199.17C437.5 198.44 435.88 198.01 434.12 197.89C432.37 197.77 430.55 197.95 428.65 198.45L426.08 192.13L421.07 194.16L423.6 200.4C421.79 201.34 420.25 202.43 418.99 203.68C417.73 204.92 416.77 206.27 416.09 207.72C415.41 209.17 415.05 210.7 415.02 212.29C414.99 213.89 415.31 215.52 415.98 217.17C416.75 219.07 417.75 220.58 418.96 221.69C420.18 222.8 421.6 223.63 423.21 224.17C424.82 224.72 426.62 225.05 428.61 225.15C430.6 225.26 432.77 225.26 435.11 225.14C436.46 225.07 437.64 225.08 438.64 225.17C439.64 225.26 440.5 225.45 441.23 225.74C441.96 226.03 442.57 226.45 443.05 226.98C443.53 227.51 443.94 228.18 444.27 228.99C444.56 229.71 444.7 230.43 444.7 231.14C444.7 231.85 444.54 232.53 444.22 233.18C443.89 233.83 443.42 234.44 442.78 234.99C442.14 235.55 441.33 236.02 440.34 236.42C439.48 236.77 438.6 237 437.68 237.11C436.77 237.22 435.87 237.13 435 236.84C434.13 236.55 433.31 236.02 432.55 235.26C431.79 234.5 431.13 233.42 430.57 232.04L421.5 235.72C422.45 238.05 423.64 239.9 425.07 241.27C426.5 242.63 428.06 243.61 429.76 244.19C431.47 244.78 433.24 245.04 435.1 244.96C436.95 244.89 438.79 244.58 440.59 244.05L442.93 249.82L447.92 247.8L445.57 242C447.38 241.06 448.93 239.98 450.22 238.76C451.51 237.53 452.5 236.2 453.19 234.77C453.87 233.34 454.24 231.82 454.28 230.22C454.33 228.62 454 226.96 453.31 225.26Z" />
			</g>
		</g>
		<path id="Path 10763" class="shp12" d="M278.7 625.68C270.65 649.02 250.49 666.51 228.58 672.75L228.58 666.53C228.58 666.48 228.59 666.43 228.59 666.38C228.59 666.27 228.61 666.18 228.62 666.08C228.64 665.96 228.67 665.85 228.71 665.74C229.09 664.43 230.35 663.46 231.85 663.46L215.67 663.46C214.17 663.46 212.91 662.49 212.53 661.18C212.5 661.07 212.46 660.96 212.44 660.84C212.43 660.74 212.42 660.64 212.41 660.55C212.41 660.49 212.41 660.44 212.41 660.38L212.41 652.41C212.41 652.36 212.41 652.3 212.41 652.25C212.42 652.15 212.43 652.05 212.44 651.95C212.46 651.84 212.5 651.72 212.53 651.61C212.91 650.31 214.17 649.33 215.67 649.33L221.99 649.33C221.09 648.89 220.43 648.07 220.27 647.1C220.25 647.04 220.25 646.97 220.24 646.9C220.23 646.86 220.23 646.81 220.23 646.77C220.22 646.71 220.22 646.66 220.22 646.61L220.22 638.63C220.22 638.58 220.22 638.53 220.23 638.47C220.23 638.38 220.24 638.27 220.26 638.18C220.28 638.06 220.31 637.96 220.35 637.85C220.72 636.53 221.99 635.56 223.49 635.56L227.12 635.56C225.61 635.56 224.35 634.58 223.97 633.28C223.94 633.17 223.9 633.05 223.88 632.94C223.87 632.84 223.86 632.74 223.85 632.64L223.85 624.34C223.94 622.85 225.17 621.63 226.73 621.45L215.99 621.45C214.25 621.45 212.82 620.15 212.73 618.53C212.72 618.48 212.72 618.43 212.72 618.37L212.72 610.4C212.72 610.35 212.72 610.29 212.73 610.24C212.73 610.2 212.73 610.15 212.74 610.11C212.87 608.78 213.91 607.69 215.28 607.4C213.81 607.23 212.64 606.14 212.44 604.77C212.42 604.68 212.42 604.6 212.41 604.51C212.41 604.45 212.41 604.4 212.41 604.35L212.41 596.37C212.41 596.32 212.41 596.27 212.41 596.21C212.42 596.11 212.43 596.01 212.44 595.92C212.46 595.8 212.5 595.69 212.53 595.58C212.91 594.27 214.17 593.3 215.67 593.3L221.99 593.3C221.09 592.86 220.43 592.03 220.27 591.07C220.25 591 220.25 590.93 220.24 590.87C220.23 590.82 220.23 590.78 220.23 590.73C220.22 590.68 220.22 590.63 220.22 590.57L220.22 582.59C220.22 582.54 220.22 582.49 220.23 582.43C220.23 582.33 220.24 582.24 220.26 582.14C220.28 582.02 220.31 581.92 220.35 581.81C220.72 580.5 221.99 579.52 223.49 579.52L235.86 579.52C234.35 579.52 233.08 578.54 232.71 577.23C232.68 577.12 232.65 577.01 232.63 576.9C232.61 576.8 232.6 576.7 232.6 576.6C232.59 576.55 232.59 576.5 232.59 576.44L232.59 568.47C232.59 568.41 232.59 568.36 232.6 568.31C232.68 566.82 233.91 565.59 235.47 565.42L215.99 565.42C214.85 565.42 213.84 564.86 213.26 564.02L213.27 563.95L215.32 551.42L215.33 551.35L218.25 533.48C252.33 538.04 277.87 563.89 281.86 595.09C283.16 605.26 282.13 615.73 278.7 625.68Z" />
		<path id="Ellipse 115" class="shp13" d="M243.81 652.66C214.7 681.77 167.65 681.77 138.54 652.66C109.44 623.56 109.44 576.51 138.54 547.4C167.65 518.3 214.7 518.3 243.81 547.4C272.91 576.51 272.91 623.56 243.81 652.66Z" />
		<path id="Path 10764" class="shp6" d="M224.22 666.73C223.3 667.29 222.37 667.83 221.42 668.35C221.1 668.53 220.78 668.7 220.46 668.87C219.72 669.26 218.99 669.64 218.25 670C182.81 687.41 139.57 674.05 120.3 639.1C101.92 605.76 111.8 564.46 141.96 542.78C144.37 541.05 146.9 539.45 149.56 537.98C150.51 537.46 151.47 536.95 152.44 536.47C153.38 536.01 154.32 535.56 155.28 535.14C158.19 533.84 161.15 532.75 164.14 531.85C168.58 530.51 173.1 529.61 177.62 529.13C191.64 527.65 205.74 530.21 218.25 536.33C231.52 542.82 243 553.31 250.67 567.23C269.99 602.29 258.09 646.13 224.22 666.73Z" />
		<g id="Group 16307">
			<path id="Path 10765" fill-rule="evenodd" class="shp7" d="M186.01 670.66C179.78 670.66 173.52 669.78 167.38 668C150.27 663.05 136.11 651.73 127.51 636.13C118.91 620.53 116.9 602.52 121.85 585.4C126.8 568.29 138.12 554.13 153.72 545.53C185.92 527.78 226.57 539.54 244.32 571.74C262.07 603.95 250.31 644.59 218.11 662.34C208.11 667.85 197.12 670.66 186.01 670.66ZM185.8 539.05C175.22 539.05 164.49 541.65 154.59 547.11C139.41 555.47 128.39 569.25 123.58 585.9C118.76 602.55 120.72 620.08 129.08 635.26C137.45 650.44 151.23 661.46 167.88 666.27C184.53 671.09 202.06 669.14 217.24 660.77C248.58 643.49 260.02 603.95 242.74 572.61C230.93 551.18 208.7 539.05 185.8 539.05Z" />
		</g>
		<g id="Group 16308">
			<path id="Path 10766" class="shp7" d="M218.71 610.41C218.57 610.05 218.41 609.69 218.25 609.35C217.04 606.69 215.54 604.54 213.74 602.9C211.7 601.04 209.33 599.64 206.63 598.71C203.93 597.78 200.92 597.22 197.6 597.02C194.28 596.81 190.66 596.77 186.76 596.88C184.34 596.95 182.28 596.91 180.56 596.75C178.85 596.6 177.4 596.28 176.2 595.8C175.01 595.32 174.04 594.66 173.29 593.83C172.55 593 171.93 591.98 171.44 590.78C170.96 589.57 170.68 588.38 170.6 587.2C170.53 586.02 170.71 584.9 171.13 583.83C171.56 582.77 172.25 581.79 173.21 580.89C174.17 579.99 175.43 579.22 177 578.58C179.91 577.4 182.62 577.43 185.14 578.66C187.65 579.89 189.7 582.46 191.28 586.35L206.45 580.2C205.13 576.95 203.47 574.21 201.48 571.97C199.5 569.73 197.26 568 194.76 566.78C192.27 565.56 189.56 564.84 186.62 564.63C183.68 564.42 180.63 564.74 177.47 565.57L173.17 554.99L164.78 558.4L169.01 568.83C165.98 570.4 163.42 572.23 161.31 574.31C159.2 576.4 157.58 578.66 156.45 581.08C155.31 583.51 154.72 586.06 154.66 588.73C154.61 591.41 155.14 594.12 156.26 596.88C157.56 600.07 159.22 602.59 161.26 604.45C163.3 606.31 165.66 607.69 168.36 608.61C171.05 609.52 174.06 610.07 177.39 610.24C180.72 610.42 184.35 610.42 188.27 610.23C190.54 610.1 192.51 610.12 194.18 610.27C195.85 610.42 197.29 610.75 198.51 611.23C199.73 611.73 200.74 612.41 201.55 613.29C202.36 614.18 203.04 615.3 203.59 616.67C204.08 617.87 204.32 619.07 204.32 620.26C204.31 621.46 204.04 622.6 203.51 623.68C202.97 624.77 202.17 625.78 201.1 626.71C200.03 627.63 198.67 628.43 197.03 629.1C195.59 629.68 194.11 630.06 192.58 630.25C191.04 630.44 189.55 630.29 188.08 629.8C186.62 629.32 185.26 628.43 183.99 627.15C182.71 625.88 181.6 624.08 180.67 621.77L165.51 627.93C167.09 631.83 169.08 634.92 171.47 637.2C173.87 639.48 176.48 641.12 179.33 642.1C182.17 643.08 185.15 643.52 188.25 643.39C191.36 643.26 194.42 642.76 197.45 641.87L201.36 651.52L209.7 648.13L205.77 638.44C208.8 636.86 211.39 635.05 213.55 633C215.56 631.1 217.12 629.06 218.25 626.87C218.34 626.69 218.43 626.51 218.52 626.33C219.66 623.94 220.27 621.4 220.34 618.72C220.42 616.04 219.87 613.27 218.71 610.41Z" />
		</g>
		<g id="Group 16309">
			<path id="Path 10767" class="shp14" d="M615.05 679.55L615.05 679.55C612.97 679.56 610.8 678.05 610.18 676.17L485.24 292.3C484.62 290.42 485.81 288.89 487.88 288.88L487.88 288.88C489.96 288.86 492.14 290.38 492.75 292.26L617.7 676.13C618.31 678.01 617.12 679.54 615.05 679.55Z" />
			<path id="Path 10768" class="shp14" d="M715.75 678.96L715.75 678.96C713.67 678.98 711.5 677.46 710.88 675.58L585.94 291.71C585.33 289.83 586.51 288.3 588.59 288.29L588.59 288.29C590.66 288.28 592.84 289.79 593.45 291.67L718.4 675.54C719.01 677.42 717.82 678.95 715.75 678.96Z" />
			<path id="Path 10769" class="shp14" d="M607.32 345.2L506.2 345.79C504.25 345.8 502.18 344.37 501.61 342.6L501.61 342.6C501.03 340.84 502.16 339.38 504.11 339.37L605.23 338.78C607.18 338.77 609.25 340.2 609.82 341.97L609.82 341.97C610.39 343.74 609.27 345.19 607.32 345.2Z" />
			<path id="Path 10770" class="shp14" d="M629.14 412.22L528.02 412.81C526.06 412.83 524 411.39 523.43 409.62L523.43 409.62C522.85 407.86 523.97 406.4 525.93 406.39L627.05 405.8C629 405.79 631.06 407.23 631.64 408.99L631.64 408.99C632.21 410.76 631.09 412.21 629.14 412.22Z" />
			<path id="Path 10771" class="shp14" d="M650.15 476.77L549.03 477.37C547.08 477.38 545.01 475.94 544.44 474.18L544.44 474.18C543.86 472.41 544.99 470.96 546.94 470.94L648.06 470.35C650.01 470.34 652.07 471.78 652.65 473.54L652.65 473.54C653.22 475.31 652.1 476.76 650.15 476.77Z" />
			<path id="Path 10772" class="shp14" d="M673.8 549.44L572.68 550.04C570.73 550.05 568.66 548.61 568.09 546.85L568.09 546.85C567.51 545.08 568.64 543.63 570.59 543.61L671.71 543.02C673.66 543.01 675.73 544.45 676.3 546.21L676.3 546.21C676.88 547.98 675.75 549.43 673.8 549.44Z" />
			<path id="Path 10773" class="shp14" d="M698.56 625.51L597.44 626.1C595.49 626.11 593.42 624.67 592.85 622.91L592.85 622.91C592.27 621.14 593.4 619.69 595.35 619.68L696.47 619.08C698.42 619.07 700.48 620.51 701.06 622.28L701.06 622.28C701.63 624.04 700.51 625.5 698.56 625.51Z" />
		</g>
		<g id="Group 16312">
			<path id="Path 10774" class="shp15" d="M486.61 221.53C484.75 220.22 480.53 217.33 480.31 217.97C480.15 218.44 480.38 219.22 480.88 220.04C478.33 219.09 475.74 218.46 469.61 219.64C468.38 219.88 467.27 220.57 466.59 221.63C465.97 222.6 465.73 223.82 467.3 224.79C470.43 226.73 469.52 225.57 473.87 228.4C478.21 231.23 483.54 231.96 486.72 229.97L490.98 229.26L491.51 222.24C491.51 222.24 489.08 221.95 486.61 221.53Z" />
			<path id="Path 10775" class="shp15" d="M598.45 162.66C598.45 162.66 588.39 174.59 575.57 169.6C575.57 169.6 572.82 162.93 572.78 158.02C572.77 157.41 572.76 156.83 572.76 156.27C572.69 150.74 572.5 147.63 572.5 147.63C572.5 147.63 572.5 147.63 572.51 147.63C573.1 147.39 592.1 139.58 592.08 140.23C591.76 155.2 598.45 162.66 598.45 162.66Z" />
			<path id="Path 10776" class="shp16" d="M590.18 143.8C588.34 147.2 582.06 153.84 572.76 156.27C572.69 150.74 572.5 147.63 572.5 147.63C572.5 147.63 572.5 147.63 572.51 147.63C573.04 147.49 590.72 142.8 590.18 143.8Z" />
			<path id="Path 10777" class="shp15" d="M568.52 147.06C568.52 147.06 589.89 152.08 592.82 138.72C595.74 125.37 600.47 117.02 586.95 113.25C573.42 109.47 569.65 113.99 567.59 118.21C565.53 122.43 563.04 145.41 568.52 147.06Z" />
			<path id="Path 10778" class="shp14" d="M592.08 142.36C592.38 142.55 596.98 143.96 605.68 126.61C607.05 123.89 607.98 118 604.8 112.79C601.61 107.59 590.31 103.49 580.92 101.71C571.53 99.93 569.28 105.21 567.07 110.52C564.75 116.1 558.05 120.68 558.05 120.68C566.14 125.21 575.89 118.74 579.27 119.8C582.65 120.87 583.84 126.19 584.09 127.9C584.35 129.6 584.74 131.02 588.99 129.5C593.23 127.97 590.91 135.52 590.23 136.96C590.23 136.96 589.65 140.8 592.08 142.36Z" />
			<g id="Group 16310">
				<path id="Path 10779" class="shp17" d="M615.14 474.36L628.08 474.36C630.79 474.36 633.81 471.65 634.56 466.67C635.32 461.7 640.89 458.98 642.1 454.91C643.31 450.84 637.12 445.11 637.12 445.11L636.09 443.78L635.01 442.4L624.76 444.81C624.76 444.81 624.51 447.25 624.35 450.36C624.24 452.6 624.18 455.2 624.31 457.47C624.61 462.9 622.79 468.75 617.97 469.8C613.14 470.86 615.14 474.36 615.14 474.36Z" />
				<path id="Path 10780" class="shp17" d="M557.05 475.46L591.35 475.46C591.68 475.4 591.93 475.33 592.08 475.25C594.37 474.11 593.65 465.34 593.38 462.63C593.33 462.13 593.29 461.83 593.29 461.83C593.29 461.83 581.23 452.19 579.57 459.57C579.51 459.8 579.45 460.03 579.39 460.25L579.39 460.26C577.3 467.17 567.94 470.31 562.53 471.18C558.4 471.85 557.33 474.26 557.05 475.46Z" />
				<path id="Path 10781" class="shp5" d="M563.96 277.65C563.96 277.65 565.8 300.51 567.95 327.98C570.88 365.3 574.39 411.14 574.74 419.83C575.34 434.91 577.76 459.03 577.76 459.03C577.76 459.03 583.49 464.76 594.95 462.34C594.95 462.34 605.16 427.91 608.08 391.48C608.12 390.88 608.17 390.28 608.21 389.68C610.93 352.59 615.15 274.49 615.15 274.49L563.96 277.65Z" />
				<path id="Path 10782" class="shp14" d="M563.96 277.65C563.96 277.65 565.8 300.51 567.95 327.98L608.08 391.48C608.12 390.88 608.17 390.28 608.21 389.68C610.93 352.59 615.15 274.49 615.15 274.49L563.96 277.65Z" />
				<path id="Path 10783" class="shp5" d="M575.38 272.78C575.38 272.78 593.92 349.24 608.08 391.48C622.24 433.71 622.83 454.16 622.83 454.16C622.83 454.16 638.88 451.03 640.61 447.9C640.61 447.9 646.11 375.56 635.2 354.89C629.04 343.2 630.08 316.13 630.08 303.8C630.08 280.95 622.95 258.26 622.95 258.26L575.38 272.78Z" />
			</g>
			<g id="Group 16311">
				<path id="Path 10784" class="shp15" d="M647.63 265.33L647.98 270.65C647.98 270.65 644.47 280.11 654.31 284.96C654.31 284.96 658.52 286.66 658.69 283.38C658.86 280.1 658.32 281.33 658.66 276.72C659 272.1 657.19 267.74 654.14 266.27L651.63 263.38L647.63 265.33Z" />
				<path id="Path 10785" class="shp18" d="M651.47 269.2C647.82 270.38 647.23 270.11 647.23 270.11C647.23 270.11 629.44 237.73 627.64 234.76C625.84 231.8 589.87 198.44 589.87 198.44L599.12 163.98C599.12 163.98 640.02 216.95 644.44 224.55C651.74 237.11 656.02 266.28 656.02 266.28C656.02 266.28 654.34 268.28 651.47 269.2Z" />
			</g>
			<path id="Path 10786" class="shp19" d="M556.99 211.98C557.12 219.05 557.53 227.01 558.09 235.09L558.19 236.53C558.54 241.54 558.93 246.55 559.37 251.45C559.55 253.41 559.74 255.35 559.93 257.25L559.96 257.51C559.98 258.22 560.07 259 560.14 259.7C561.95 278.03 563.84 292.51 564.19 292.73C564.61 293.01 565.08 293.15 565.6 293.09C570.4 292.49 584.74 293.58 596.48 291.02C606.39 288.93 614.92 284.97 623.96 279.63C625.16 278.92 627.9 277.04 627.67 275.64C627.46 274.1 627.05 271.87 626.54 269.06C624.76 259.31 621.68 242.54 620.63 222.92C620.43 219.26 620.13 215.65 619.75 212.1C618.74 202.85 617.13 194.07 614.96 186.27C610.93 171.77 605.02 160.67 597.6 156.33C596.63 155.79 591.41 159.11 586.62 162.18C582.19 165.02 577.53 165.8 573 165.41L569.01 169.82C564.19 175.43 559.04 182.91 557.64 193.53C557.53 194.32 557.44 195.15 557.37 196.04C556.98 200.36 556.88 205.84 556.99 211.98Z" />
			<path id="Path 10787" class="shp18" d="M556.99 211.98C557.12 219.05 557.53 227.01 558.09 235.09L558.19 236.53C585.65 219.34 589.87 187.9 589.87 187.9C576.37 188.49 565.64 191.6 557.37 196.04C556.98 200.36 556.88 205.84 556.99 211.98Z" />
			<path id="Path 10788" class="shp19" d="M487.62 225.51C487.34 221.44 489.45 220.76 489.45 220.76C489.45 220.76 530.85 213.26 534.36 212.15C537.88 211.05 567.97 179.75 567.97 179.75C567.97 179.75 579.51 166.74 588.95 169.61C597.16 172.11 600.37 178.51 601.46 184.61C602.76 191.87 599.41 199.19 593.12 203.05C578.99 211.71 550.71 228.78 544.05 230.74C529.22 235.08 489.39 231.08 489.39 231.08C489.39 231.08 487.85 228.71 487.62 225.51Z" />
		</g>
		<g id="Group 16313">
			<path id="Path 10789" class="shp5" d="M509.51 271.23C508.91 273.15 506.86 274.38 504.71 273.74C485.4 267.72 464.94 263.73 444.75 261.41C422.6 258.86 399.98 258.37 389.34 259.11C387.23 259.25 385.41 257.64 385.28 255.53C385.15 253.42 386.76 251.6 388.86 251.47C405.42 250.49 428.69 251.79 446.27 253.86C466.42 256.23 487.28 260.29 506.99 266.44C509.01 267.06 510.14 269.21 509.51 271.23Z" />
		</g>
		<g id="Group 16316">
			<path id="Path 10790" class="shp7" d="M889.58 615.89C889.24 615.17 888.82 614.51 888.33 613.91L888.33 613.91L888.33 613.91C887.96 613.46 887.56 613.05 887.11 612.68L885.28 610.82L884.8 611.18C875.43 606.59 856.07 611.45 836.49 624.23C812.83 639.68 797.64 660.96 802.02 672.26L801.35 672.76L803.98 675.38C804.11 675.51 804.24 675.64 804.37 675.77L804.44 675.84L804.47 675.86C805.13 676.47 805.89 676.99 806.74 677.44L806.76 677.45L806.76 677.45C816.01 682.3 835.57 677.47 855.37 664.55C879.48 648.81 894.79 627.02 889.58 615.89Z" />
			<path id="Path 10791" class="shp6" d="M833.68 621.42C857.78 605.68 881.55 601.95 886.76 613.08C891.98 624.21 876.66 645.99 852.55 661.73C828.45 677.47 804.68 681.2 799.47 670.07C794.25 658.94 809.57 637.16 833.68 621.42Z" />
			<g id="Group 16314">
				<path id="Path 10792" fill-rule="evenodd" class="shp7" d="M816.37 671.74C814.41 671.74 812.63 671.52 811.06 671.07C808.06 670.2 805.97 668.54 804.86 666.12C802.69 661.38 804.7 654.34 810.53 646.31C816.23 638.45 824.92 630.49 835.01 623.88C850.51 613.73 866.27 608.83 875.17 611.39C878.17 612.26 880.26 613.92 881.37 616.34C883.54 621.08 881.53 628.11 875.7 636.15C870 644.01 861.31 651.97 851.22 658.58C838.45 666.94 825.51 671.74 816.37 671.74ZM869.92 612.49C861.18 612.49 848.34 617.27 835.98 625.36C826.06 631.85 817.54 639.66 811.96 647.34C806.6 654.73 804.6 661.31 806.47 665.38C807.35 667.31 809.06 668.65 811.55 669.37C812.94 669.77 814.54 669.96 816.31 669.96C825.05 669.96 837.89 665.19 850.25 657.1C860.16 650.61 868.69 642.8 874.27 635.11C879.63 627.72 881.63 621.15 879.76 617.07C878.88 615.15 877.17 613.81 874.68 613.09C873.28 612.69 871.68 612.49 869.92 612.49Z" />
			</g>
			<g id="Group 16315">
				<path id="Path 10793" class="shp7" d="M833.4 647.31C834.15 646.99 834.81 646.63 835.39 646.24C835.97 645.85 836.51 645.39 837 644.87C837.49 644.35 837.95 643.75 838.39 643.08C838.83 642.4 839.27 641.62 839.71 640.73C840.49 639.19 841.29 637.75 842.1 636.42C842.92 635.08 843.83 633.84 844.84 632.7C845.85 631.56 847.01 630.52 848.3 629.56C849.6 628.61 851.12 627.75 852.85 626.99C854.36 626.32 855.71 625.9 856.92 625.71C858.12 625.52 859.16 625.56 860.01 625.82C860.87 626.08 861.54 626.54 862.03 627.21C862.51 627.89 862.78 628.76 862.83 629.84L868.52 627.34L868.22 630.4L862.45 632.94C862.14 634.13 861.6 635.31 860.86 636.49C860.12 637.68 859.2 638.81 858.09 639.89C856.98 640.98 855.7 642 854.24 642.97C852.78 643.93 851.17 644.8 849.4 645.58L849.93 640.05C852.06 639.12 853.68 638.1 854.8 637.01C855.91 635.91 856.52 634.84 856.62 633.78C856.68 633.2 856.61 632.76 856.41 632.45C856.21 632.14 855.91 631.94 855.52 631.86C855.13 631.77 854.66 631.79 854.1 631.91C853.55 632.04 852.94 632.24 852.29 632.53C851.63 632.82 851.03 633.14 850.49 633.5C849.95 633.86 849.43 634.3 848.95 634.81C848.47 635.32 848 635.92 847.56 636.61C847.11 637.31 846.63 638.13 846.13 639.08C845.32 640.62 844.5 642.06 843.68 643.39C842.86 644.73 841.93 645.96 840.92 647.11C839.9 648.25 838.74 649.3 837.44 650.26C836.15 651.21 834.64 652.06 832.92 652.82C831.36 653.5 829.98 653.94 828.77 654.12C827.57 654.3 826.55 654.26 825.71 653.99C824.87 653.72 824.22 653.24 823.76 652.55C823.3 651.85 823.05 650.96 823 649.88L817.71 652.21L818.01 649.16L823.27 646.85C823.53 645.72 823.98 644.55 824.6 643.33C825.23 642.1 826.08 640.89 827.16 639.68C828.23 638.48 829.55 637.31 831.12 636.18C832.69 635.05 834.54 634.02 836.66 633.09L836.13 638.62C834.87 639.17 833.81 639.75 832.94 640.36C832.08 640.96 831.38 641.57 830.83 642.19C830.29 642.81 829.89 643.41 829.64 644.01C829.39 644.6 829.23 645.16 829.18 645.68C829.13 646.28 829.19 646.76 829.38 647.11C829.56 647.46 829.84 647.7 830.22 647.83C830.6 647.96 831.06 647.97 831.6 647.88C832.15 647.79 832.75 647.6 833.4 647.31Z" />
			</g>
		</g>
		<g id="Group 16319">
			<path id="Path 10794" class="shp7" d="M415.4 64.07C415.61 63.61 415.88 63.19 416.19 62.81L416.19 62.81L416.19 62.81C416.42 62.53 416.68 62.27 416.96 62.03L418.12 60.85L418.43 61.08C424.38 58.16 436.66 61.25 449.08 69.36C464.1 79.17 473.74 92.66 470.96 99.84L471.38 100.15L469.71 101.81C469.63 101.9 469.55 101.98 469.47 102.06L469.42 102.11L469.4 102.12C468.98 102.51 468.5 102.84 467.96 103.12L467.95 103.13L467.95 103.13C462.08 106.2 449.66 103.14 437.1 94.94C421.81 84.95 412.09 71.13 415.4 64.07Z" />
			<path id="Path 10795" class="shp6" d="M450.87 67.58C435.57 57.59 420.49 55.22 417.18 62.28C413.88 69.35 423.59 83.17 438.89 93.16C454.19 103.14 469.27 105.51 472.58 98.45C475.89 91.38 466.17 77.56 450.87 67.58Z" />
			<g id="Group 16317">
				<path id="Path 10796" fill-rule="evenodd" class="shp7" d="M439.74 91.16C433.34 86.96 427.82 81.91 424.2 76.92C420.51 71.82 419.23 67.36 420.61 64.35C421.31 62.82 422.63 61.76 424.54 61.21C430.19 59.59 440.19 62.7 450.02 69.14C456.42 73.33 461.94 78.38 465.56 83.37C469.25 88.47 470.53 92.93 469.15 95.94C468.45 97.47 467.13 98.53 465.22 99.08C464.22 99.37 463.09 99.51 461.85 99.51C456.05 99.5 447.84 96.46 439.74 91.16ZM424.85 62.29C423.27 62.75 422.19 63.6 421.63 64.82C420.44 67.4 421.71 71.58 425.11 76.27C428.65 81.14 434.06 86.1 440.35 90.22C448.19 95.35 456.34 98.38 461.89 98.38C463.01 98.38 464.02 98.25 464.91 98C466.49 97.55 467.57 96.7 468.13 95.47C469.32 92.89 468.05 88.72 464.65 84.03C461.11 79.15 455.7 74.2 449.41 70.08C441.57 64.94 433.42 61.91 427.87 61.91C426.75 61.91 425.74 62.04 424.85 62.29Z" />
			</g>
			<g id="Group 16318">
				<path id="Path 10797" class="shp7" d="M452.18 84.37C452.53 84.43 452.82 84.41 453.06 84.33C453.3 84.25 453.48 84.1 453.6 83.88C453.72 83.65 453.76 83.35 453.72 82.97C453.69 82.64 453.59 82.29 453.43 81.91C453.27 81.53 453.02 81.15 452.67 80.76C452.33 80.37 451.88 79.98 451.33 79.59C450.79 79.21 450.11 78.84 449.31 78.49L448.97 74.98C450.32 75.57 451.49 76.23 452.49 76.94C453.49 77.66 454.32 78.4 455.01 79.17C455.69 79.93 456.23 80.7 456.63 81.48C457.02 82.25 457.31 83 457.47 83.71L460.81 85.18L461 87.11L457.64 85.64C457.61 86.32 457.45 86.89 457.16 87.33C456.87 87.77 456.46 88.07 455.93 88.24C455.39 88.41 454.74 88.44 453.98 88.33C453.22 88.21 452.34 87.94 451.35 87.5C450.26 87.02 449.3 86.48 448.48 85.87C447.66 85.27 446.92 84.6 446.28 83.88C445.63 83.15 445.04 82.36 444.52 81.52C444 80.67 443.48 79.76 442.96 78.78C442.65 78.18 442.35 77.66 442.06 77.22C441.78 76.78 441.48 76.4 441.18 76.07C440.87 75.75 440.54 75.47 440.2 75.24C439.85 75.01 439.47 74.81 439.06 74.62C438.64 74.44 438.26 74.31 437.91 74.23C437.55 74.16 437.25 74.15 437.01 74.2C436.76 74.25 436.57 74.38 436.45 74.58C436.32 74.77 436.27 75.05 436.31 75.42C436.37 76.09 436.76 76.77 437.47 77.47C438.18 78.16 439.2 78.81 440.55 79.4L440.89 82.91C439.77 82.41 438.74 81.86 437.82 81.25C436.89 80.64 436.08 79.99 435.38 79.3C434.68 78.61 434.09 77.89 433.62 77.14C433.15 76.39 432.81 75.64 432.61 74.88L428.95 73.28L428.76 71.33L432.37 72.92C432.4 72.24 432.57 71.68 432.88 71.25C433.19 70.83 433.61 70.53 434.16 70.37C434.7 70.2 435.36 70.18 436.12 70.3C436.89 70.42 437.75 70.69 438.7 71.11C439.8 71.59 440.77 72.14 441.59 72.74C442.41 73.35 443.14 74.01 443.78 74.74C444.42 75.46 445 76.24 445.52 77.09C446.04 77.94 446.55 78.85 447.04 79.83C447.32 80.39 447.6 80.89 447.88 81.32C448.15 81.75 448.45 82.13 448.76 82.46C449.07 82.79 449.41 83.08 449.78 83.32C450.15 83.57 450.57 83.8 451.04 84.01C451.46 84.19 451.84 84.31 452.18 84.37Z" />
			</g>
		</g>
	</g>
</svg>