<svg xmlns="http://www.w3.org/2000/svg" width="1682.816" height="389.369" viewBox="0 0 1682.816 389.369"><defs><style>.a,.d{opacity:0.3;}.b,.c,.e{fill:none;stroke-miterlimit:10;}.b,.c{stroke:#255f99;}.c,.e{stroke-linecap:round;}.d{fill:#255f99;}.e{stroke:#fff;}.f{fill:#e2810e;}.g{fill:#ffb93e;}.h{fill:#ffa412;}.i{fill:#2c3a64;}.j{fill:#ed985f;}.k{fill:#2b478b;}.l{fill:#233862;}.m{fill:#ed7d2b;}.n{fill:#ffb27d;}.o{fill:#f99746;}.p{fill:#ea8e50;}.q{fill:#1e3d70;}.r{fill:#ffb07b;}.s{fill:#d2e3fc;}.t{fill:#a4c8fc;}.u{fill:#e2e2e2;}</style></defs><g transform="translate(-109.497 -2785)"><g transform="translate(-28.677 1891.539)"><g transform="translate(-109.46 765.217)"><g class="a" transform="translate(248.138 394.252)"><path class="b" d="M333.059,424.693s-37.276.278-64.869-25.693-27.437-69.061,5-73.468S333.059,424.693,333.059,424.693Z" transform="translate(-248.138 -325.395)"/><path class="c" d="M253.384,330.49s39.006,29.374,72.013,86.763" transform="translate(-240.476 -317.956)"/><line class="c" y1="7.017" x2="24.494" transform="translate(7.082 29.327)"/><line class="c" y1="9.287" x2="31.351" transform="translate(14.681 44.787)"/><line class="c" y1="8.755" x2="29.019" transform="translate(30.073 60.772)"/><line class="c" y1="5.82" x2="19.652" transform="translate(50.545 75.924)"/></g><g transform="translate(264.67 278.244)"><path class="d" d="M437.055,493.549s4.222-80.782-35.5-130.81c-45.779-57.66-131.93-88.928-140.966-83.985s-18.073,160.169,62.654,214.8Z" transform="translate(-254.857 -278.244)"/><g transform="translate(8.132 7.221)"><path class="e" d="M259.816,281.179s94.607,67.71,117.539,208.084" transform="translate(-255.748 -281.179)"/><line class="e" x2="41.194" y2="2.189" transform="translate(0 33.305)"/><line class="e" x1="9.891" y2="28.617" transform="translate(52.947 21.126)"/><line class="e" y1="1.423" x2="64.085" transform="translate(4.069 70.886)"/><line class="e" x1="21.217" y2="43.512" transform="translate(78.804 44.512)"/><line class="e" y1="2.708" x2="78.731" transform="translate(11.634 109.64)"/><line class="e" x1="29.362" y2="58.819" transform="translate(101.275 75.475)"/><line class="e" y1="2.879" x2="78.417" transform="translate(28.894 150.695)"/><line class="e" x1="36.409" y2="59.202" transform="translate(117.271 123.188)"/><line class="e" y1="3.422" x2="55.456" transform="translate(62.838 190.53)"/><line class="e" x1="27.665" y2="34.77" transform="translate(135.475 173.315)"/></g></g></g><g transform="translate(1095.972 806.697)"><g class="a" transform="translate(600.705 299.764)"><path class="b" d="M600.705,450.755s1.311-61.9,14.554-98.267c12.877-35.36,33.312-57.785,45.8-51.742,15.284,7.393,6.541,25.873-7.626,46.736-8.8,12.969-35.531,63.67-39.57,103.182" transform="translate(-600.705 -299.764)"/><path class="c" d="M655.183,302.586c-35.3,42.288-49.189,101.885-51.394,144.443" transform="translate(-596.733 -296.129)"/><line class="c" x1="14.369" y2="0.959" transform="translate(47.11 20.724)"/><line class="c" x1="15.658" y2="0.275" transform="translate(40.313 32.399)"/><line class="c" x1="14.8" transform="translate(34.561 43.402)"/><line class="c" x1="14.8" transform="translate(28.87 55.79)"/><line class="c" x2="4.527" y2="10.206" transform="translate(40.313 14.969)"/><line class="c" x2="7.129" y2="11.78" transform="translate(30.794 25.174)"/><line class="c" x2="5.338" y2="9.626" transform="translate(10.495 84.622)"/><line class="c" x1="8.848" transform="translate(13.866 102.383)"/><line class="c" x2="5.505" y2="8.136" transform="translate(7.056 100.297)"/><line class="c" x2="4.948" y2="5.49" transform="translate(5.292 115.673)"/></g><g transform="translate(611.2 306.221)"><path class="d" d="M605.292,447.028s.364-55.147,39.6-107.356,65.493-36.531,70.838-28.377c5.83,8.894,5.812,20.126-13.8,40.107s-58.018,59.208-69.806,95.625Z" transform="translate(-605.292 -302.586)"/><path class="e" d="M695.648,307.305c-32.9,19.455-80.357,83.53-84.388,133.737" transform="translate(-597.605 -296.508)"/><line class="e" x1="22.09" y1="4.556" transform="translate(80.69 23.939)"/><line class="e" x1="27.016" y1="3.979" transform="translate(63.012 42.288)"/><line class="e" x1="24.237" y1="2.741" transform="translate(47.956 61.835)"/><line class="e" x1="19.234" y1="2.087" transform="translate(36.615 79.653)"/><line class="e" x2="5.035" y2="16.677" transform="translate(65.148 17.603)"/><line class="e" x2="6.952" y2="18.037" transform="translate(47.956 34.28)"/><line class="e" x2="7.892" y2="16.007" transform="translate(34.345 54.404)"/><line class="e" x1="17.229" y1="1.554" transform="translate(27.428 97.22)"/><line class="e" x2="8.628" y2="15.216" transform="translate(22.674 74.131)"/><line class="e" x1="14.047" y1="1.088" transform="translate(20.299 114.705)"/><line class="e" x2="9.912" y2="11.163" transform="translate(13.655 94.883)"/></g></g><g transform="translate(560.121 1085.195)"><circle class="f" cx="69.875" cy="69.875" r="69.875" transform="translate(25.604 157.766) rotate(-81.622)"/><circle class="g" cx="69.875" cy="69.875" r="69.875" transform="translate(0 98.818) rotate(-45)"/><g transform="translate(35.154 35.98)"><path class="h" d="M913.04,1530.439a63.664,63.664,0,1,1,45.016-18.646A63.248,63.248,0,0,1,913.04,1530.439Zm0-123.529a59.866,59.866,0,1,0,59.865,59.866A59.934,59.934,0,0,0,913.04,1406.91Z" transform="translate(-849.376 -1403.112)"/></g><g transform="translate(70.935 52.627)"><path class="h" d="M974.789,1509.9a10.51,10.51,0,0,0-.15-3.7,7.67,7.67,0,0,0-1.563-3.07,14.474,14.474,0,0,0-3.126-2.758,38.252,38.252,0,0,0-4.844-2.713,100.241,100.241,0,0,1-8.945-4.915,31.683,31.683,0,0,1-6.688-5.443,18.648,18.648,0,0,1-3.95-6.635,21.038,21.038,0,0,1,1.7-15.91,17.686,17.686,0,0,1,4.933-5.481,22.084,22.084,0,0,1,7.063-3.364,29.449,29.449,0,0,1,8.82-1.017l1.245-10.493,8.446,1-1.263,10.64a26.391,26.391,0,0,1,7.949,3.38,19.967,19.967,0,0,1,8.9,12.766,26.577,26.577,0,0,1,.349,9.017l-15.255-1.81q.7-5.884-1.568-9.112a8.994,8.994,0,0,0-6.649-3.748,11.434,11.434,0,0,0-4.169.178,7.734,7.734,0,0,0-3.04,1.479,7.22,7.22,0,0,0-1.959,2.527,10.625,10.625,0,0,0-.929,3.321,9.733,9.733,0,0,0,.138,3.347,7.2,7.2,0,0,0,1.5,2.938,14.557,14.557,0,0,0,3.152,2.76,49.1,49.1,0,0,0,5.035,2.91q4.892,2.519,8.852,5.027a32.068,32.068,0,0,1,6.656,5.489,18,18,0,0,1,4.632,15.1,19.234,19.234,0,0,1-2.424,7.568,17.481,17.481,0,0,1-4.953,5.429,21.333,21.333,0,0,1-7.1,3.235,31.813,31.813,0,0,1-8.863.937l-1.158,9.758-8.393-1,1.152-9.709a35.661,35.661,0,0,1-8.245-2.917,22.609,22.609,0,0,1-6.755-5.1,20.223,20.223,0,0,1-4.238-7.589,24.617,24.617,0,0,1-.7-10.326l15.256,1.81a15.179,15.179,0,0,0,.287,5.926,9.813,9.813,0,0,0,2.171,4.037,9.52,9.52,0,0,0,3.489,2.4,16.259,16.259,0,0,0,4.183,1.068,13.622,13.622,0,0,0,4.43-.12,9.092,9.092,0,0,0,3.35-1.393,7.229,7.229,0,0,0,2.217-2.447A8.809,8.809,0,0,0,974.789,1509.9Z" transform="translate(-938.142 -1444.41)"/></g></g><g transform="translate(423.678 930.778)"><path class="i" d="M829.714,959.849c.209-.84-18.255,8.345-19.191,9.383-8.66,9.606-6.191,22.141-1.235,22.261,3.178.077,2.562,5.36,2.562,5.36l35.4-14.976S842.99,957.021,829.714,959.849Z" transform="translate(-651.165 -947.997)"/><path class="i" d="M804.307,944.569s1.265-13.791-14.144-13.791c0,0,4.669,1.266,7.085,3.8,0,0-9.828-5.77-20.524,3.1s-4.05,31.1-7.3,35.323-15.918,5.066-14.37,18.717,40.2,30.748,37.715,42.042c0,0,15.146-22.265,4.316-32.426,0,0,5.279,4.973,5.817,10.883,0,0,1.433-11.54-5.911-15.231-6.5-3.267-11.821-15.213-11.258-17.348S804.307,944.569,804.307,944.569Z" transform="translate(-621.398 -930.778)"/><path class="j" d="M803.1,1109.674c-2.376-11.442-17.212-14.99-24.232-5.647a12.388,12.388,0,0,0-2.44,6.011c-1.6,12.988,19.164,65.89,22.137,70.68,5.414,8.721,37.3,38.614,37.3,38.614l5.876-3.561s-22.614-38.283-26.115-41.866C811.575,1169.762,807.612,1131.4,803.1,1109.674Z" transform="translate(-634.184 -1031)"/><path class="j" d="M918.458,1381.372s8.575-5.631,11.822-5.268,12.642,3.066,12.757,4.447-10.469,2.243-11.18,3-7.9,5.553-10.5,4.048S918.458,1381.372,918.458,1381.372Z" transform="translate(-719.014 -1196.584)"/><path class="k" d="M640.855,1418.478l-7.661-1.126s-25.759-20.47-29.595-58.666a68.214,68.214,0,0,1-.183-11.81,2.065,2.065,0,0,0-.268-1.3s0-.005-.008-.011c-.824-1.264-2.877-4.43-5.654-8.933-2.739-4.436-7.425-12.823-12.581-22.235-9.288-16.949-20.1-37.22-23.811-43.677-11.818-20.577-6.122-34.413-6.122-34.413s32.97-3.26,42-11.163l3.254,5.016s7.143,31.625,6.805,31.771q.528,1.613,1.072,3.285c5.638,17.4,12.122,39.148,15.657,56.86,1.987,9.966,3.04,18.649,2.474,24.566a43.088,43.088,0,0,0,.582,9C630.013,1378.331,640.855,1418.478,640.855,1418.478Z" transform="translate(-501.228 -1106.483)"/><path class="l" d="M762.34,1702.481H730.378s-.766-4.871.9-8.566c1.6-3.546,3.879-3.66.291-9.219,2.031,2.091,8.56,2.956,13.18,2.335.566.918,3.65,7.076,5.541,8.435C752.383,1696.967,761.7,1696.432,762.34,1702.481Z" transform="translate(-606.643 -1380.794)"/><path class="l" d="M608.107,1265.211c-2.792,15.4-9.386,41.025-23.2,49.182-9.288-16.949-20.1-37.22-23.811-43.677-11.818-20.577-6.122-34.413-6.122-34.413s32.97-3.26,42-11.163l3.254,5.016s7.143,31.625,6.805,31.771Q607.563,1263.539,608.107,1265.211Z" transform="translate(-501.228 -1106.483)"/><path class="m" d="M808.369,1108.342a34.214,34.214,0,0,1,6.583,10.328s-7.209,20.7-24.057,23.3C790.9,1141.968,804.225,1108.333,808.369,1108.342Z" transform="translate(-642.871 -1036.766)"/><path class="k" d="M514.414,1228.8l.108-5.978c-11.91,1.5-41.067-14.232-41.067-14.232s-12.46,8.287-14.166,31.955c-.832,11.552-6.1,60.407-6.682,74.995-.212,5.287-.283,9.061-.307,10.568a.026.026,0,0,1,0,.015,2.078,2.078,0,0,1-.506,1.231,68.261,68.261,0,0,0-6.454,9.892c-18.174,33.814-8.67,79.76-8.67,79.76l4.22-1.073s15.367-47.631,25.411-68.234a43.107,43.107,0,0,1,4.549-7.786c3.777-4.587,7.758-12.376,11.683-21.75,7.419-17.723,14.622-41.109,19.759-59.216C502.657,1259.016,514.414,1228.8,514.414,1228.8Z" transform="translate(-429.951 -1096.607)"/><path class="n" d="M790.049,1091.807c-19.471-4.469-7.032-31.829-5.9-31.348,2.7-.549,8.623-5.286,13.923-14.537l.716.621,11.959,10.485s-2.764,4.078-5.09,8.072c-1.817,3.127-3.362,6.208-3.116,7.265C803.5,1073.122,795.243,1093,790.049,1091.807Z" transform="translate(-635.888 -999.508)"/><path class="j" d="M839.421,1057.954s-2.765,4.073-5.09,8.072c-7.435-4.583-7.443-13.788-6.87-18.557Z" transform="translate(-664.565 -1000.432)"/><path class="n" d="M839.019,1031.553s-18.053-10.046-11.624-21.192,8.428-19.949,20.227-14.006,11.564,11.476,10.324,15.719S843.88,1033.878,839.019,1031.553Z" transform="translate(-663.831 -968.779)"/><path class="i" d="M858.185,1003.336c-.827-4.949-3.341-5.422-5.094-5.091-6.667-11.025-17.559-6.722-17.559-6.722a24.582,24.582,0,0,1-14.229,8.547s2.095,3.9,10.726,6.31a14.75,14.75,0,0,0,8.515-.68,48.19,48.19,0,0,1-12.251,4.618c11.375,1.041,22.2-9.358,23.32-10.47.525,1.611,1.445,4.986.894,7.452-.749,3.352-3.724,9.423-1.908,10.209C850.6,1017.507,859.425,1010.758,858.185,1003.336Z" transform="translate(-661.021 -966.543)"/><path class="l" d="M455.815,1702.139H423.853s-.766-4.871.9-8.566c1.6-3.547,4.105-5.158,3.505-9.449a11.511,11.511,0,0,0,9.962,3.811c.566.917,3.655,5.83,5.546,7.189C445.858,1696.625,455.172,1696.09,455.815,1702.139Z" transform="translate(-423.677 -1380.453)"/><path class="o" d="M644.55,1127.2c-4.112,1.435-9.885,2.221-15.79,2.863-8.4.917-17.081,1.545-21.627,3.358-1.658.661-2.767,1.477-3.113,2.522-1.97,5.925-10.653,15.067-10.653,15.067C537.712,1148.48,531.6,1125.2,531.6,1125.2c37.445-43.542,100.846-56.145,100.846-56.145s4.529-1.92,15.933,7.143c7.61,6.051,6.609,8.373,6.609,8.373S656.653,1122.983,644.55,1127.2Z" transform="translate(-488.098 -1013.215)"/><path class="m" d="M740.34,1153.617c-8.4.917-17.081,1.545-21.627,3.358a88.628,88.628,0,0,1,11.242-48.636S738.5,1143.112,740.34,1153.617Z" transform="translate(-599.677 -1036.764)"/><path class="n" d="M760.262,1095.017s-21.063,2.081-22.752,15.768,20.195,69.433,23.328,74.48c5.706,9.19,39.3,40.691,39.3,40.691l6.192-3.753s-23.83-40.342-27.52-44.117C773.019,1172.158,767.394,1099.758,760.262,1095.017Z" transform="translate(-610.949 -1028.813)"/><path class="o" d="M732.614,1114.161c.055.311,19.439,6.332,31.914,0,0,0,2.67-28.783-12.224-27.221s-23.712,6.253-24.087,13.383S732.614,1114.161,732.614,1114.161Z" transform="translate(-605.445 -1023.955)"/><path class="n" d="M888.269,1399.38s7.556-6.939,10.819-7.1,12.971.989,13.307,2.334-9.971,3.9-10.551,4.76-6.9,6.753-9.713,5.688S888.269,1399.38,888.269,1399.38Z" transform="translate(-700.994 -1206.238)"/></g></g><g transform="translate(-1106.481 1961.202)"><g transform="translate(2473.563 896.268)"><path class="p" d="M2586.894,1184.522l-3.955,3.212s-10.819-3.88-13.26,8.976c0,0-.65,5.479,2.821,5.49s2.038-.6,6.954-.455,8.988-2.447,9.708-6.435l2.351-3.379Z" transform="translate(-2569.63 -1108.674)"/><path class="q" d="M2608.544,1082.792c-3.156-3.295-2.9-5.73-2.9-5.73s36.537-29.913,40.242-32.35c2.525-1.661,29.432-25.515,42.01-40.057,6.239-7.214,13.967-4.415,22.809-1.878l7.281,2.089c8.792,2.522,11.078,14.819,3.865,20.794-20.317,16.829-54.115,35.757-60.439,39.735-15.7,9.875-46.428,21.61-46.428,21.61A19.476,19.476,0,0,1,2608.544,1082.792Z" transform="translate(-2590.833 -1000.052)"/></g><path class="l" d="M2460.016,1648.26s-8.867,6.643-22.454,3.133c0,0-10.954-2.5-13.357,2.967,0,0,16.8,8.535,21.051,10.869a50.933,50.933,0,0,1,8.912,6.683,4.406,4.406,0,0,0,6.38-.492c.739-.909,1.585-1.991,2.511-3.247,2.59-3.51,8.626-14.85,8.626-14.85Z" transform="translate(-10.437 -485.471)"/><g transform="translate(2406.481 832.414)"><circle class="f" cx="61.994" cy="61.994" r="61.994" transform="translate(12.466 140.726) rotate(-82.238)"/><circle class="g" cx="61.994" cy="61.994" r="61.994" transform="translate(0 87.673) rotate(-45)"/><g transform="translate(31.19 31.922)"><path class="h" d="M2498.881,1018.814a56.483,56.483,0,1,1,39.94,16.544A56.113,56.113,0,0,1,2498.881,1018.814Zm-13.174-39.94a53.114,53.114,0,1,0,53.114-53.114A53.174,53.174,0,0,0,2485.707,978.874Z" transform="translate(-2482.338 -922.391)"/></g><g transform="translate(62.021 58.677)"><g transform="translate(0 0)"><g transform="translate(0 17.644)"><rect class="h" width="28.775" height="6.809"/><rect class="h" width="28.775" height="6.809" transform="translate(0 12.054)"/></g><path class="h" d="M1053.1,508.96a15.59,15.59,0,0,1-6.869,1.375c-5.215,0-9.155-1.45-12.749-5.278a19.823,19.823,0,0,1-5.39-14.1,20.322,20.322,0,0,1,5.39-14.3c3.571-3.919,7.5-5.415,12.716-5.415a17.56,17.56,0,0,1,6.163,1.133l3.066-6.726a20.458,20.458,0,0,0-8.7-1.97c-8.349,0-14.688,2.78-19.947,9.266a28.012,28.012,0,0,0-6.409,18.085,26.952,26.952,0,0,0,7.658,19.322c5.127,5.295,10.853,7.478,18.106,7.478a26.093,26.093,0,0,0,10.087-2.024l-1.624-7.593Q1053.839,508.638,1053.1,508.96Z" transform="translate(-1015.457 -463.679)"/></g></g></g><path class="k" d="M2498.641,1413.172s5.4,12.449,17.861,10.161c0,0,25.432-21,42.876-42.82,5.666-7.087,10.49-14.259,13.325-20.822,11.568-26.782,42.79-66.729,62.641-86.975l-49.666-17.967s-15.908,32-37.075,71.31C2533.349,1354.381,2515.368,1386.5,2498.641,1413.172Z" transform="translate(-54.267 -253.758)"/><path class="l" d="M2620.153,1326.059l10.776,54.454c5.666-7.087,10.49-14.259,13.325-20.822,11.568-26.782,42.79-66.729,62.641-86.975l-49.666-17.967S2641.32,1286.75,2620.153,1326.059Z" transform="translate(-125.817 -253.758)"/><path class="l" d="M2692.537,1658.033s.541,9.934-11.5,11.259c0,0-6.881.036-6.9,6.359l35,.111a27.234,27.234,0,0,0,1.262-8.013c.19-4.195-4.066-15.161-4.066-15.161Z" transform="translate(-157.603 -488.019)"/><path class="k" d="M2695.824,1251.593s-22.126,24.312-36.171,68.113c-7.642,23.831,14.006,83.749,18.227,104.567,0,0,14.522,1.232,24.452-2.607,0,0,.754-43-5.053-76.138-3.25-18.547,29.133-39.667,43.282-73.179,9.626-22.8-2.084-22.412-16.476-22.96Z" transform="translate(-148.123 -250.602)"/><path class="r" d="M2812.065,947.975c12.31,6.952,37.512.54,37.512.54s-10.235-11.7-5.584-30.544l-9.666,4.909-10.382,5.273a86.174,86.174,0,0,0-1.139,9.305c-.118,1.539-.225,3.259-.3,5.138A32.293,32.293,0,0,0,2812.065,947.975Z" transform="translate(-238.822 -55.452)"/><path class="s" d="M2702.279,1089.706c0,2.164,2.493,3.2,3.022,3.3,4.965.908,18.829,6.3,31.318,7.537,10.516,1.1,20.279.056,31.005-2.1,1.42-.286,4.755-1.184,4.992-2.545.3-1.487,41.373-83.74,9.44-119.073-.75-.828-7.053.664-12.818,2.032a23.663,23.663,0,0,1-14.567-1.19l-5.406,2.844c-6.639,3.7-19.2,16.843-20.67,27.155-.746,5.245-3.745,9.128-4.613,13.742q-.483,2.56-.987,5-.981,4.78-2.022,9.1c-1.878,7.8-3.86,14.514-5.807,20.315-2.072,6.158-4.1,11.282-5.919,15.566-2.354,5.557-4.344,9.711-5.586,12.891A15.877,15.877,0,0,0,2702.279,1089.706Z" transform="translate(-174.176 -89.971)"/><path class="t" d="M2705.639,1124.265c57.986-27.319,78.067-79.777,78.067-79.777s-47.112,17.379-58.732,21.9q-.981,4.78-2.022,9.1c-1.878,7.8-3.861,14.514-5.807,20.315-2.072,6.158-4.1,11.282-5.919,15.566C2708.871,1116.932,2706.882,1121.085,2705.639,1124.265Z" transform="translate(-176.154 -129.95)"/><g transform="translate(2473.563 898.86)"><path class="r" d="M2591.627,1199.551l-5.011,1.837s-10.034-7.095-16.281,4.445c0,0-2.26,5.041,1.317,6.135s2.276.064,7.3,1.739,9.981.468,11.88-3.123l3.406-2.5Z" transform="translate(-2569.631 -1119.927)"/><path class="s" d="M2609.233,1093.067c-1.853-4.834-2.7-7.023-2.7-7.023s37.862-30.861,41.72-33.508c2.629-1.8,28.8-21.367,41.56-36.613a26.7,26.7,0,0,1,25.961-9l7.948,1.667a11.82,11.82,0,0,1,5.27,20.542c-20.967,17.975-56.332,38.823-62.925,43.16-16.368,10.765-52.574,25.85-52.574,25.85A9.322,9.322,0,0,1,2609.233,1093.067Z" transform="translate(-2591.361 -1006.358)"/></g><path class="p" d="M2838.19,944.487c12.106.68,19.978-9.315,19.978-9.315a96.1,96.1,0,0,1-8.458-5.263l-10.382,5.273A86.171,86.171,0,0,0,2838.19,944.487Z" transform="translate(-254.205 -62.482)"/><path class="r" d="M2824.124,890.911s18.342,13.163,26.364,1.614,15.791-17.628,4.419-26.52-16.733-6.083-20.348-2.879S2819.559,887.189,2824.124,890.911Z" transform="translate(-245.296 -21.334)"/><path class="l" d="M2846.23,831.361a29.52,29.52,0,0,1,2.137-7.563s1.15,4.768,9.865,4.11,22.525.857,27.128,10.787q.439.947.787,1.948a22.973,22.973,0,0,0,1.034-5.5c1.656,4.274,0,9.622,0,9.622h0c.025.155.046.312.068.468,1.923,1.626,3.539,6.68,3.539,6.68a6.057,6.057,0,0,0-3.258-2.9c.039,7.727-3.095,15.28-8.595,17.529-8.042,3.289-7.978.78-16.066,6.144,0,0-2.17-2.692-.689-4.5s7.07-4.439,3.946-7.07-4.275.329-5.426-1.479,4.6-7.07-2.795-12S2845.572,835.8,2846.23,831.361Z" transform="translate(-258.904)"/></g><g transform="translate(-144.228 2688.854)"><g transform="translate(970.228 278.118)"><g transform="translate(348.94 165.323)"><path class="u" d="M1746.559,660.37a3.614,3.614,0,0,1-3.614-3.614c0-2.943-.076-5.92-.225-8.847a3.613,3.613,0,1,1,7.217-.368c.156,3.049.235,6.15.235,9.215A3.614,3.614,0,0,1,1746.559,660.37Z" transform="translate(-1742.715 -644.111)"/></g><g transform="translate(2.132)"><path class="u" d="M1323.486,432.481a3.615,3.615,0,0,1-3.566-3.055,170.9,170.9,0,0,0-3.694-17.512,3.614,3.614,0,1,1,6.984-1.861,178.012,178.012,0,0,1,3.85,18.255,3.613,3.613,0,0,1-3.011,4.13A3.679,3.679,0,0,1,1323.486,432.481Zm-344.918-.153a3.655,3.655,0,0,1-.566-.044,3.614,3.614,0,0,1-3.008-4.132,178.143,178.143,0,0,1,3.868-18.253,3.614,3.614,0,0,1,6.982,1.869,170.639,170.639,0,0,0-3.709,17.508A3.615,3.615,0,0,1,978.567,432.328ZM1314.081,397.2a3.615,3.615,0,0,1-3.375-2.321,170.7,170.7,0,0,0-7.283-16.356,3.614,3.614,0,0,1,6.439-3.284,178.08,178.08,0,0,1,7.593,17.052,3.616,3.616,0,0,1-3.373,4.909ZM988,397.065a3.615,3.615,0,0,1-3.372-4.911,177.836,177.836,0,0,1,7.6-17.031,3.614,3.614,0,0,1,6.436,3.288,170.652,170.652,0,0,0-7.29,16.336A3.615,3.615,0,0,1,988,397.065Zm309.5-32.4a3.611,3.611,0,0,1-3.033-1.645,172.307,172.307,0,0,0-10.53-14.481,3.614,3.614,0,0,1,5.616-4.549,179.747,179.747,0,0,1,10.973,15.092,3.614,3.614,0,0,1-3.026,5.584Zm-292.9-.1a3.614,3.614,0,0,1-3.025-5.586,179.529,179.529,0,0,1,10.979-15.079,3.614,3.614,0,0,1,5.613,4.553,172.268,172.268,0,0,0-10.536,14.47A3.61,3.61,0,0,1,1004.6,364.568ZM1274.511,336.3a3.6,3.6,0,0,1-2.557-1.06,172.777,172.777,0,0,0-13.3-11.988,3.614,3.614,0,0,1,4.554-5.613,180.179,180.179,0,0,1,13.854,12.492,3.614,3.614,0,0,1-2.556,6.168Zm-246.915-.078a3.613,3.613,0,0,1-2.555-6.169,179.938,179.938,0,0,1,13.864-12.484,3.614,3.614,0,0,1,4.55,5.616,172.706,172.706,0,0,0-13.3,11.98A3.6,3.6,0,0,1,1027.6,336.217ZM1246.16,313.3a3.6,3.6,0,0,1-1.968-.586,171.629,171.629,0,0,0-15.484-8.967,3.614,3.614,0,1,1,3.289-6.436,178.871,178.871,0,0,1,16.139,9.346,3.614,3.614,0,0,1-1.975,6.642Zm-190.192-.065a3.614,3.614,0,0,1-1.973-6.643,178.716,178.716,0,0,1,16.156-9.34,3.614,3.614,0,1,1,3.284,6.438,171.472,171.472,0,0,0-15.5,8.961A3.6,3.6,0,0,1,1055.968,313.233Zm157.7-16.538a3.612,3.612,0,0,1-1.3-.242,170.121,170.121,0,0,0-17.02-5.535,3.614,3.614,0,0,1,1.869-6.982,177.637,177.637,0,0,1,17.745,5.771,3.614,3.614,0,0,1-1.3,6.988Zm-125.174-.052a3.614,3.614,0,0,1-1.295-6.988,177.408,177.408,0,0,1,17.757-5.757,3.614,3.614,0,1,1,1.863,6.983,170.129,170.129,0,0,0-17.031,5.523A3.619,3.619,0,0,1,1088.495,296.643Zm89.917-9.392a3.606,3.606,0,0,1-.567-.045,172.359,172.359,0,0,0-17.8-1.858,3.614,3.614,0,0,1,.375-7.218,179.675,179.675,0,0,1,18.553,1.937,3.614,3.614,0,0,1-.558,7.184Zm-54.645-.023a3.614,3.614,0,0,1-.555-7.184,179.609,179.609,0,0,1,18.554-1.921,3.614,3.614,0,1,1,.369,7.218,172.293,172.293,0,0,0-17.8,1.843A3.684,3.684,0,0,1,1123.767,287.228Z" transform="translate(-974.949 -278.118)"/></g><g transform="translate(0 165.322)"><path class="u" d="M973.842,660.369a3.614,3.614,0,0,1-3.614-3.614c0-3.064.078-6.164.234-9.215a3.614,3.614,0,1,1,7.218.368c-.15,2.929-.225,5.906-.225,8.847A3.614,3.614,0,0,1,973.842,660.369Z" transform="translate(-970.228 -644.11)"/></g></g><g transform="translate(1019.144 327.114)"><g transform="translate(0 0)"><g transform="translate(0 116.331)"><path class="u" d="M1082.132,660.375a3.613,3.613,0,0,1-3.614-3.614c0-3.09.11-6.213.328-9.283a3.614,3.614,0,1,1,7.209.511c-.206,2.9-.31,5.852-.31,8.772A3.614,3.614,0,0,1,1082.132,660.375Z" transform="translate(-1078.518 -644.12)"/></g><g transform="translate(2.857)"><path class="u" d="M1088.461,492.4a3.616,3.616,0,0,1-3.536-4.381,128.764,128.764,0,0,1,5.2-17.7,3.614,3.614,0,1,1,6.77,2.53,121.538,121.538,0,0,0-4.905,16.706A3.615,3.615,0,0,1,1088.461,492.4Zm245.595-.1a3.615,3.615,0,0,1-3.527-2.846,121.532,121.532,0,0,0-4.915-16.693,3.614,3.614,0,0,1,6.769-2.534,128.856,128.856,0,0,1,5.208,17.689,3.619,3.619,0,0,1-3.534,4.384Zm-233.087-33.41a3.615,3.615,0,0,1-3.166-5.35,129.892,129.892,0,0,1,9.989-15.5,3.614,3.614,0,1,1,5.781,4.337,122.712,122.712,0,0,0-9.431,14.635A3.613,3.613,0,0,1,1100.968,458.894Zm220.566-.061a3.614,3.614,0,0,1-3.172-1.877,122.634,122.634,0,0,0-9.433-14.622,3.614,3.614,0,1,1,5.779-4.341,129.9,129.9,0,0,1,9.992,15.488,3.615,3.615,0,0,1-3.166,5.352Zm-199.107-28.545a3.613,3.613,0,0,1-2.554-6.169,130.333,130.333,0,0,1,13.929-12.074,3.614,3.614,0,1,1,4.335,5.784,123.081,123.081,0,0,0-13.154,11.4A3.6,3.6,0,0,1,1122.428,430.287Zm177.64-.04a3.6,3.6,0,0,1-2.553-1.056,123.206,123.206,0,0,0-13.162-11.4,3.614,3.614,0,0,1,4.332-5.785,130.359,130.359,0,0,1,13.936,12.069,3.613,3.613,0,0,1-2.553,6.171Zm-149.029-21.4a3.614,3.614,0,0,1-1.738-6.785,129.082,129.082,0,0,1,16.76-7.667,3.614,3.614,0,0,1,2.528,6.771,121.874,121.874,0,0,0-15.819,7.236A3.6,3.6,0,0,1,1151.039,408.85Zm120.4-.032a3.593,3.593,0,0,1-1.729-.444,121.9,121.9,0,0,0-15.838-7.233,3.614,3.614,0,1,1,2.523-6.772,129.091,129.091,0,0,1,16.779,7.664,3.614,3.614,0,0,1-1.735,6.786Zm-86.921-12.464a3.614,3.614,0,0,1-.762-7.146,129.732,129.732,0,0,1,18.25-2.607,3.614,3.614,0,1,1,.51,7.209,122.386,122.386,0,0,0-17.229,2.462A3.616,3.616,0,0,1,1184.518,396.354Zm53.408-.02a3.631,3.631,0,0,1-.767-.082,122.426,122.426,0,0,0-17.23-2.449,3.613,3.613,0,1,1,.505-7.209,129.581,129.581,0,0,1,18.252,2.594,3.614,3.614,0,0,1-.76,7.146Z" transform="translate(-1084.842 -386.585)"/></g><g transform="translate(251.019 116.331)"><path class="u" d="M1638.16,660.374a3.614,3.614,0,0,1-3.614-3.614c0-2.921-.1-5.872-.31-8.771a3.614,3.614,0,1,1,7.209-.512c.218,3.069.329,6.192.329,9.283A3.614,3.614,0,0,1,1638.16,660.374Z" transform="translate(-1634.226 -644.119)"/></g></g></g><g transform="translate(1297.052 426.281)"><path class="u" d="M1719.075,641.656h-.044a2.256,2.256,0,0,1-1.767-.91L1694.2,609.727a2.257,2.257,0,1,1,3.622-2.693l21.327,28.68,21.237-26.363a2.257,2.257,0,0,1,3.515,2.831l-23.066,28.633A2.258,2.258,0,0,1,1719.075,641.656Z" transform="translate(-1693.753 -606.124)"/></g><g transform="translate(997.364 426.281)"><path class="u" d="M1055.624,641.656h-.043a2.256,2.256,0,0,1-1.767-.91l-23.066-31.019a2.257,2.257,0,0,1,3.622-2.693l21.327,28.68,21.237-26.363a2.256,2.256,0,0,1,3.514,2.831l-23.066,28.633A2.258,2.258,0,0,1,1055.624,641.656Z" transform="translate(-1030.301 -606.123)"/></g></g></g></svg>