<svg xmlns="http://www.w3.org/2000/svg" width="738.101" height="351.598" viewBox="0 0 738.101 351.598"><defs><style>.a{fill:#252c33;}.b{fill:#ffc48e;}.c{fill:#6791c9;}.d{fill:#ff7d51;}.e,.f{fill:#e37049;}.f{opacity:0.5;}.g{fill:#d3875e;}.h{fill:#258c99;}.i{fill:#4381db;}.j{fill:#18436f;}.k{fill:#9cbeed;}.l{fill:#464545;}.m{fill:#dbe5eb;}.n{fill:#3c230d;}.o{fill:#f37168;}.p{fill:#f2e5de;}.q{fill:#7bcee8;}.r{fill:#020205;}.s{fill:#f37a50;}.t{fill:#de623c;}.u{fill:#fff;}.v{fill:#212126;}.w{fill:#2b2b2e;}.x{fill:#4cb1ad;}.y{fill:#1e807c;}.z{fill:#2a2a33;}.aa{fill:#24242e;}.ab{fill:#f9cd2d;}.ac{fill:#f9f93a;}.ad{fill:#9cd499;}.ae{fill:#74b570;}.af{fill:#a2dff2;}.ag{fill:#9ec8ff;}</style></defs><g transform="translate(-294.231 -534.883)"><g transform="translate(294.231 407.187)"><g transform="translate(0 145.151)"><path class="a" d="M2035.051,1267.757c26.061-23.212,45.2-9.365,59.454,6.108,11.361,12.334,12.946,15.069,22.332,27.848a11.215,11.215,0,0,1,2.508,6.358c.264,14.127,7.492,73.862-.543,94.474-9.367,24.026-124.88,35.02-124.88,35.02Z" transform="translate(-1895.92 -1255.404)"/><g transform="translate(211.919 49.033)"><path class="a" d="M2181.645,1447.48a1.191,1.191,0,0,1-.059-2.38,11.071,11.071,0,0,0,8.53-4.711c12.952-16.781,5.669-72.805-.676-103.263a1.19,1.19,0,0,1,2.331-.486,408.447,408.447,0,0,1,7.466,54.859c1.487,25.261-.948,42.2-7.236,50.344a13.5,13.5,0,0,1-10.294,5.634Z" transform="translate(-2180.456 -1335.693)"/></g><path class="a" d="M1993.7,1264.3c-50.087,27.691-19.546,121.351-83.072,154.743-17.6,9.25-71.67,56.195-36.242,118.093,23.174,40.488,92.439,31.763,115.243-4.072S1993.7,1264.3,1993.7,1264.3Z" transform="translate(-1844.797 -1258.865)"/><g transform="translate(14.419 40.482)"><path class="a" d="M1858.249,1499.582a1.214,1.214,0,0,1-.159-.01,1.19,1.19,0,0,1-1.023-1.337,68.521,68.521,0,0,1,6.13-18.663,81.869,81.869,0,0,1,29.974-33.764c29.394-18.705,48.906-36.333,71.974-123.23a1.19,1.19,0,0,1,2.3.611c-11.148,41.99-22.2,70.377-34.784,89.334-11.684,17.6-23.708,26.064-38.213,35.294-30.535,19.43-34.981,50.422-35.022,50.733A1.191,1.191,0,0,1,1858.249,1499.582Z" transform="translate(-1857.057 -1321.691)"/></g><g transform="translate(15.516 33.559)"><path class="a" d="M1860.044,1470.914a1.191,1.191,0,0,1-1.006-1.826,90.722,90.722,0,0,1,27.5-28.03c41.279-26.694,48.109-42.041,82.2-129.943a1.191,1.191,0,1,1,2.22.861c-17.045,43.948-27.232,69.7-38.375,87.955-11.967,19.6-25.472,30.657-44.753,43.126a88.359,88.359,0,0,0-26.776,27.3A1.191,1.191,0,0,1,1860.044,1470.914Z" transform="translate(-1858.854 -1310.355)"/></g><path class="b" d="M2065.045,1360c-17.246,35.816-14.593,68.317-14.593,68.317s1.99,12.6,9.95,15.256,19.235-5.307,18.571-15.919,2.654-36.48,6.632-45.766S2065.045,1360,2065.045,1360Z" transform="translate(-1917.87 -1296.123)"/><path class="c" d="M1925.241,1750.895c1.087,9.773-1.357,8.959,7.33,10.588s24.161-4.344,24.161-4.344l-17.374-32.306Z" transform="translate(-1869.182 -1438.151)"/><path class="b" d="M2002.558,1440.371c-4.886,15.881-41.534,3.665-54.36,7.33s-23.822,57.415-25.654,105.667.611,86.732,5.5,92.84,85.512,8.551,92.841,6.108-61.08-32.982-61.08-32.982-4.275-56.194,1.221-84.9S2016,1467.857,2016,1467.857Z" transform="translate(-1867.896 -1327.411)"/><path class="b" d="M2079.621,1448.373c12.826,19.545,46.42,17.1,58.025,32.983s36.037,103.224,36.037,103.224l25.653-88.564s20.8-3.5,14.048,10.993c-12.016,25.769-16.495,108.909-29.526,120.718-14.491,13.131-28.913,2.444-37.05-20.548-7.872-22.24-27.486-70.241-41.534-88.565s-29.319-47.643-29.319-47.643Z" transform="translate(-1927.855 -1330.526)"/><path class="d" d="M1962.018,1450.765c25.653,29.929,75.738,28.707,86.733,25.042l10.994-3.665s8.551-3.054,15.881,5.5,25.042,62.3,28.1,74.517,7.939,32.372,7.939,32.372-13.1,15.729-13.1,31.61,5.565,16.017,5.565,16.017-16.282-3.65-19.947-13.422-36.648-98.339-36.648-98.339l-91.009,1.833,1.222,100.17s-7.94-7.329-18.935,0-14.659,24.432-12.827,26.875-3.665,2.444-3.665.611-10.383-46.421-3.053-119.716,21.377-81.235,29.318-81.846A25.794,25.794,0,0,1,1962.018,1450.765Z" transform="translate(-1865.835 -1330.475)"/><g transform="translate(190.095 170.761)"><path class="c" d="M2217.53,1747.322a.97.97,0,0,0,.273.059S2217.7,1747.361,2217.53,1747.322Z" transform="translate(-2173.065 -1617.667)"/><path class="e" d="M2192.71,1620.533c-5.294,1.629-14.253,20.361-14.253,20.361s-20.361-44.387-26.469-105.876l-7.268,41.714c10.033,26.938,25.78,69.206,28.247,75.783,3.352,8.939,16.872,12.669,18.725,13.083-.507-.172-1.626-.849-2.554-3.532-.534-.487-3.593-1.917-4.166-2.442-4.886-4.479-2.849-15.067.408-26.876S2198,1618.9,2192.71,1620.533Z" transform="translate(-2144.72 -1535.017)"/></g><path class="e" d="M1976.2,1539.826l-10.094-46.152c-11,15.475-12.217,68.413-7.737,104.655,3.674,29.723,9.169,37.435,12.944,40.534a10.969,10.969,0,0,1,1.728,1.222l-1.222-100.171Z" transform="translate(-1881.129 -1348.162)"/><path class="d" d="M1941.245,1493.008c18.732,50.495,9.366,60.675,34.015,119.942,13.767,33.1,40.312,58.026,40.312,58.026a168.661,168.661,0,0,0,48.253,3.664c26.875-1.832,46.551-3.679,46.551-3.679s-28.227-17.088-29.448-28.693-6.524-57.637.4-90.214c5.406-25.439-16.891-50.879-16.891-50.879l-37.259-1.832Z" transform="translate(-1875.412 -1347.903)"/><path class="f" d="M1995,1616.906c-3.258-11.81,13.845,3.665,41.942,6.516s59.455-1.63,43.98,3.257-57.825-2.444-50.087,13.031c9.1,18.211,19.857,35.835,35.427,46.423,10.181,6.923,34.614,13.437,11,9.773s-48.866-31.356-59.861-49.273S1995.73,1619.539,1995,1616.906Z" transform="translate(-1896.187 -1394.429)"/><path class="g" d="M2085.187,1424.552c.248-12.19,3.22-32.995,6.7-41.116,2.852-6.653-8.936-15.007-15.851-19.211l-5.847-.25q-1.337,2.912-2.506,5.786c-6.175,40.539,12.3,57.291,21.119,60.662a26.666,26.666,0,0,0,11.713,1.287A71.021,71.021,0,0,1,2085.187,1424.552Z" transform="translate(-1924.153 -1297.67)"/><g transform="translate(123.254 120.405)"><path class="h" d="M2061.863,1477.063a27.538,27.538,0,0,1-6.5-.787c-5.1-1.243-17.254-5.964-20.082-22.928a.675.675,0,1,1,1.331-.223c2.695,16.172,14.234,20.661,19.07,21.84,7.514,1.832,15.485.136,18.545-3.944,2.453-3.271.981-10.241.967-10.311a.674.674,0,1,1,1.318-.286c.068.31,1.618,7.641-1.206,11.407C2072.8,1475.167,2067.64,1477.063,2061.863,1477.063Z" transform="translate(-2035.271 -1452.562)"/></g><path class="b" d="M2135.086,1356.783c-4.142,21.878-13.712,39.528-29.905,36.2s-33.217-26.437-28.737-48.249,21.241-36.8,37.435-33.47S2140.606,1327.63,2135.086,1356.783Z" transform="translate(-1927.762 -1276.971)"/><path class="b" d="M2247.072,1563.022s-29.931,80.425-31.355,88.774,1.425,13.642,2.24,13.642,26.265-43.573,26.265-43.573Z" transform="translate(-1982.111 -1375.159)"/><path class="b" d="M2268.446,1545.476c2.444-8.144-1.357-18.46-1.357-18.46l10.859,1.357Z" transform="translate(-2002.263 -1361.141)"/><g transform="translate(245.064 100.812)"><path class="i" d="M2267.781,1490.109h-30.3a2.749,2.749,0,0,1-2.634-3.534l19.127-64.133a2.751,2.751,0,0,1,2.634-1.963h30.3a2.748,2.748,0,0,1,2.634,3.534l-19.128,64.132A2.747,2.747,0,0,1,2267.781,1490.109Z" transform="translate(-2234.73 -1420.478)"/><path class="j" d="M2274,1490.109h-30.3a2.749,2.749,0,0,1-2.635-3.534l19.128-64.133a2.748,2.748,0,0,1,2.634-1.963h30.3a2.748,2.748,0,0,1,2.633,3.534l-19.127,64.132A2.748,2.748,0,0,1,2274,1490.109Z" transform="translate(-2237.153 -1420.478)"/><path class="k" d="M2256,1445.118c-3.23,11.639-5.4,21.2-4.856,21.35s3.611-9.16,6.841-20.8,5.4-21.2,4.857-21.35S2259.231,1433.479,2256,1445.118Z" transform="translate(-2241.087 -1421.973)"/></g><path class="b" d="M2285.979,1520.2c.9-10.576,10.056-20.49,13.542-23.653a5,5,0,0,0,1.644-3.756c-.05-5.271-.284-17.717-1.375-19.171-1.387-1.851-4.858-25.679-6.477-24.753s.463,21.745.463,21.745-3.933-1.85-6.015-2.776-10.642,8.56-10.642,8.56-4.013,10.14,6.96,5.8c13.03-5.158,3.257,9.23-5.43,18.46-7.158,7.6-1.067,9.288-1.067,9.288l5.783-.231Z" transform="translate(-2005.407 -1330.709)"/><g transform="translate(265.101 183.727)"><path class="h" d="M2279.729,1570.336a10.694,10.694,0,0,1-3.142-.49c-2.818-.878-7.739-3.713-9.04-12.827a.674.674,0,1,1,1.335-.191c1.114,7.793,4.892,10.637,7.865,11.65a7.344,7.344,0,0,0,4.95.164.675.675,0,0,1,1.295-.158.951.951,0,0,1-.215,1.013A4.463,4.463,0,0,1,2279.729,1570.336Z" transform="translate(-2267.539 -1556.249)"/></g><g transform="translate(263.777 186.883)"><path class="h" d="M2277.748,1569.728a19.173,19.173,0,0,1-2.731-.2c-5.237-.76-8.746-3.417-9.628-7.288a.675.675,0,1,1,1.316-.3c.841,3.695,4.2,5.266,6.869,5.932,3.742.936,7.257.359,7.677-.126a.663.663,0,0,1,.913-.247.685.685,0,0,1,.252.929C2281.912,1569.323,2279.947,1569.728,2277.748,1569.728Z" transform="translate(-2265.372 -1561.417)"/></g><g transform="translate(180.427 63.668)"><path class="l" d="M2137.2,1387.186a6.629,6.629,0,0,1-1-.076c-5.138-.787-8.243-7.416-7.066-15.093a18.032,18.032,0,0,1,3.976-9.094c2.148-2.447,4.735-3.582,7.284-3.191,5.139.787,8.243,7.417,7.067,15.093C2146.364,1382,2141.969,1387.186,2137.2,1387.186Zm2.221-25.148a6.231,6.231,0,0,0-4.519,2.455,15.632,15.632,0,0,0-3.413,7.885c-.941,6.144,1.383,11.813,5.074,12.379s7.605-4.149,8.546-10.293-1.383-11.813-5.073-12.378A4.112,4.112,0,0,0,2139.421,1362.039Z" transform="translate(-2128.888 -1359.657)"/></g><g transform="translate(200.745 67.042)"><path class="l" d="M2167.092,1389.369a3.213,3.213,0,0,1-.489-.037c-3.365-.516-5.189-6.215-4.154-12.975s4.49-11.663,7.847-11.138c1.734.266,3.1,1.851,3.842,4.468a20.62,20.62,0,0,1,.312,8.507C2173.464,1384.628,2170.294,1389.369,2167.092,1389.369Zm2.708-22.387c-1.982,0-4.678,3.814-5.573,9.648-.927,6.057.652,10.618,2.648,10.923s4.867-3.575,5.8-9.631a18.843,18.843,0,0,0-.263-7.744c-.533-1.87-1.4-3.03-2.384-3.18A1.529,1.529,0,0,0,2169.8,1366.982Z" transform="translate(-2162.16 -1365.181)"/></g><g transform="translate(142.013 57.177)"><path class="l" d="M2107.086,1362.813a1.2,1.2,0,0,1-.328-.046l-39.908-11.4a1.191,1.191,0,0,1,.654-2.29l39.907,11.4a1.19,1.19,0,0,1-.326,2.335Z" transform="translate(-2065.988 -1349.029)"/></g><path class="a" d="M2138.427,1316.439c-61.762,36.378-65.154,11.945-65.154,11.945l3.664-34.748,36.649,2.035Z" transform="translate(-1926.811 -1270.287)"/><path class="b" d="M2071.891,1357.62c1.437,6.149-.524,11.865-4.382,12.766s-8.15-3.353-9.586-9.5.525-11.866,4.383-12.768S2070.456,1351.47,2071.891,1357.62Z" transform="translate(-1920.651 -1291.45)"/><path class="h" d="M2071.067,1375.431a2.432,2.432,0,1,1-2.432-2.432A2.431,2.431,0,0,1,2071.067,1375.431Z" transform="translate(-1924.058 -1301.183)"/><path class="j" d="M2560.295,1795.331H1840.047c-3.646,0-6.6-2.535-6.6-5.662s2.955-5.661,6.6-5.661h720.248c3.645,0,6.6,2.534,6.6,5.661S2563.94,1795.331,2560.295,1795.331Z" transform="translate(-1833.446 -1461.189)"/><path class="m" d="M2067.452,1782.224s-23.29.295-23.584,2.358.884,2.948,9.138,4.422,101.119,2.063,102,1.474,28.006-7.076,28.006-7.076l-65.152-1.179Z" transform="translate(-1915.348 -1460.494)"/><path class="b" d="M2103.277,1753.712s16.7-7.33,21.583-4.073,19,18.19,19,18.19Z" transform="translate(-1938.491 -1447.484)"/><path class="n" d="M2144.259,1762.725c-.318.4-.791.564-1.057.365l-34.355-25.575c-1.85-1.378-2.73-3.484-1.841-4.6s3.138-.716,4.889.788l32.489,27.909C2144.635,1761.83,2144.577,1762.328,2144.259,1762.725Z" transform="translate(-1939.807 -1441.052)"/><path class="b" d="M2015.922,1751.727s27.691,10.994,30.949,10.994,21.446-12.216,27.554-10.587,35.971,16.7,35.156,17.917-9.366,4.072-34.614,3.258-66.375-4.479-66.375-4.479Z" transform="translate(-1901.631 -1448.622)"/><path class="o" d="M4.758,0H111.58a11.94,11.94,0,0,1,11.94,11.94v0a11.939,11.939,0,0,1-11.939,11.939H4.757A4.757,4.757,0,0,1,0,19.121V4.758A4.758,4.758,0,0,1,4.758,0Z" transform="translate(344.907 299.411)"/><path class="p" d="M2504.641,1752.294H2397.483a8.218,8.218,0,0,0-1.192,4.25v7.3a8.218,8.218,0,0,0,1.192,4.25h107.157a6.937,6.937,0,0,0,6.917-6.917v-1.964A6.937,6.937,0,0,0,2504.641,1752.294Z" transform="translate(-2052.561 -1448.842)"/><path class="q" d="M2.878,0H85.8a7.222,7.222,0,0,1,7.222,7.222v0A7.222,7.222,0,0,1,85.8,14.444H2.878A2.878,2.878,0,0,1,0,11.566V2.878A2.878,2.878,0,0,1,2.878,0Z" transform="translate(369.151 284.966)"/><path class="p" d="M2518.061,1726.026h-80.7a4.272,4.272,0,0,0-.9,2.571v4.414a4.27,4.27,0,0,0,.9,2.571h80.7c2.865,0,5.209-1.883,5.209-4.184v-1.187C2523.27,1727.909,2520.926,1726.026,2518.061,1726.026Z" transform="translate(-2068.201 -1438.616)"/></g><g transform="translate(525.934 127.696)"><path class="r" d="M2220.944,1083.862c3.571-11.179,2.7-22.023-5.147-29.325-7.951-7.4-20.7-5.078-20.7-5.078h0s-8.918-5.813-20.1,1.8-6.551,17.786-11.873,24.018c-3.152,3.691-14.248,1.941-14.727,16.312-.137,4.146,3.974,7.945,7.935,9.177,6.958,2.163,14.666.752,16.407,4.433,5.986,12.656,28.99,13.047,33.9,5.513,1.521-2.336,19.159,7.131,21.461-10.719C2229.273,1090.948,2217.754,1093.851,2220.944,1083.862Z" transform="translate(-2144.156 -1047.335)"/><g transform="translate(31.06 9.187)"><path class="s" d="M2174.046,1079c-1.448,13.761,6.141,25.839,16.948,26.976s20.744-9.1,22.192-22.858-6.141-25.838-16.948-26.977S2175.494,1065.244,2174.046,1079Z" transform="translate(-2173.869 -1056.06)"/><path d="M2205.656,1083.466a1.89,1.89,0,1,0,1.646-2.106A1.891,1.891,0,0,0,2205.656,1083.466Z" transform="translate(-2172.186 -1054.721)"/><path d="M2191.2,1082.054a2.046,2.046,0,1,0,1.781-2.281A2.045,2.045,0,0,0,2191.2,1082.054Z" transform="translate(-2172.951 -1054.805)"/><g transform="translate(15.886 21.965)"><path class="r" d="M2189.755,1079.853a.712.712,0,0,0,.421-.209c1.7-1.744,4.459-1.227,4.487-1.221a.712.712,0,0,0,.28-1.4c-.144-.028-3.533-.682-5.785,1.623a.711.711,0,0,0,.6,1.2Z" transform="translate(-2188.956 -1076.92)"/></g><g transform="translate(33.835 23.72)"><path class="r" d="M2210.436,1082.4a.712.712,0,0,0,.554-1.017,5,5,0,0,0-4.27-2.8.711.711,0,0,0-.014,1.422,3.568,3.568,0,0,1,3,2A.71.71,0,0,0,2210.436,1082.4Z" transform="translate(-2206.003 -1078.587)"/></g><path class="t" d="M2203.459,1086.664a18.811,18.811,0,0,0,1.838,3.609.75.75,0,0,1-.1,1.023c-1.227,1.07-3.818,1.393-5.37,1.489a.2.2,0,0,1-.086-.385,9.717,9.717,0,0,0,3.1-1.782.894.894,0,0,0,.267-.765c-.084-.65-.243-1.972-.29-3.038A.337.337,0,0,1,2203.459,1086.664Z" transform="translate(-2172.505 -1054.45)"/><path class="u" d="M2189.409,1092.6a.567.567,0,0,1,.792-.678,40.209,40.209,0,0,0,10.071,3.561.567.567,0,0,1,.189,1.026,7.078,7.078,0,0,1-11.052-3.909Z" transform="translate(-2173.047 -1054.165)"/></g><path class="r" d="M2174.189,1077.95c12.456,2.613,33.383-3.621,36.946-9.357.34-8.284-10.59-16.371-18.734-15.359S2172.474,1066.769,2174.189,1077.95Z" transform="translate(-2142.8 -1047.027)"/><path class="t" d="M2209,1112.031c12.821,3.2,34.732,33.155,36.785,55.615-7.035,1.456-15.072-4.152-15.072-4.152l-17.417-25.051Z" transform="translate(-2140.948 -1043.91)"/><g transform="translate(17.931 141.027)"><path class="s" d="M2221.362,1357.56l6.866-27.044-17.037-2.345c-.584,12.79-1.54,25.382-1.458,28.794Z" transform="translate(-2158.841 -1173.493)"/><path class="s" d="M2183.064,1328.024h-17.789c.585,4.262,2.918,27.344,2.918,27.344,1.5,3.411,14.759,2.632,14.759.714C2181.95,1351.925,2182.98,1328.556,2183.064,1328.024Z" transform="translate(-2161.194 -1173.501)"/><path class="v" d="M2211.058,1345.93l17.542,2.59,12.164-72.742c-2.5-27.606-26.807-86.334-26.807-86.334l-27.391,9.593-.668,25.9,32.988,55.85C2214.584,1291.59,2211.643,1326.511,2211.058,1345.93Z" transform="translate(-2160.103 -1180.838)"/><path class="w" d="M2198.8,1191.823c-.251-1.706-.335-2.238-1.754-3.091l-26.306-7.461-6.263,6.182c-5.929,21.531-2.255,51.481,2.421,75.25-6.847,20.571-4.17,62.979-1.413,82.91h18.707c1.086-13.323.746-38.037.829-49.975h0c2.421-9.594,4.76-19.825,6.848-30.59,2.673-13.749,6.012-27.073,6.931-39.543C2199.631,1213.673,2199.881,1200.99,2198.8,1191.823Z" transform="translate(-2161.4 -1181.271)"/></g><path class="s" d="M2166.515,1108.915c-6.184,4.057-32.25,37.97-17.886,65.9.664.37,12.17-19.125,12.17-19.125l13.58-26.885Z" transform="translate(-2144.37 -1044.075)"/><path class="s" d="M2177.831,1092.159l16.332,9.275s1.449,6.611,2.172,8.757c1.492,4.428-4.227,6.362-9.062,3.606a32.881,32.881,0,0,1-7.964-6.443Z" transform="translate(-2142.599 -1044.962)"/><path class="x" d="M2219.451,1198.163s-6.739,7.978-7.876,8.576l-6.036-6.59-.043.113-1.431,3.771-1.674,4.4c-1.4,0-43.486-9.426-43.486-9.426.086-3.795,3.654-16.084,9.427-29.167-1.4-11.08-.055-22.6-.493-28.985,3.4-17.136.974-23.714-2.092-31.787l10.678-3.152,19.219,6.778,1.427-4.635s12.051,2.89,14.585,4.291l4.552,19-.985,40.368S2216.736,1187.978,2219.451,1198.163Z" transform="translate(-2143.601 -1044.233)"/><path class="y" d="M2179.447,1103.89l-7.53,3.2c.8,9.042,21.028,14.447,21.028,14.447l2.008-8.728Z" transform="translate(-2142.912 -1044.341)"/><path class="y" d="M2193.794,1112.737l5.959,6.619s5.151-5.328,3.286-8.62-8.692-5.515-8.692-5.515Z" transform="translate(-2141.753 -1044.271)"/><g transform="translate(67.742 319.459)"><path class="z" d="M2217.271,1355.929c1.781-4.678,5.59-5.2,5.59-5.2,7.4,9.875,25.583,3.815,24.982,17.171-27.647-.172-39.137,0-39.137,0a94.727,94.727,0,0,1,1.22-13.2l1.44.256Z" transform="translate(-2208.706 -1350.731)"/><path class="aa" d="M0,0H39.152a0,0,0,0,1,0,0V.2a3.735,3.735,0,0,1-3.735,3.735H3.735A3.735,3.735,0,0,1,0,.2V0A0,0,0,0,1,0,0Z" transform="translate(0 16.804)"/></g><g transform="translate(51.1 68.196)"><path class="y" d="M2203.7,1199.935l-1.431,3.771c-1.3-8.675-6.138-44.979-3.407-55,2.562-9.414-.641-19.341-3.743-28.939-.754-2.346-1.54-4.771-2.213-7.122l.943-.27.939-.269c.665,2.32,1.443,4.728,2.193,7.06,3.189,9.871,6.481,20.08,3.766,30.057C2198.388,1157.87,2202,1187.674,2203.7,1199.935Z" transform="translate(-2192.901 -1112.102)"/></g><g transform="translate(21.274 319.194)"><path class="z" d="M2186.134,1368.045s-2.22-8.28-2.415-9.344c-.223-1.21-.875-4.069-1.008-5.535-.032-.361-3.843-2.693-6.753-2.687-3.941.006-7.534,2.29-7.605,2.721-.467,2.764-.479,6.012-1.233,8.7-.56,2-2.084,6.666-2.084,6.666Z" transform="translate(-2164.55 -1350.479)"/><g transform="translate(0 16.671)"><path class="aa" d="M2186.158,1366.564c-.518,1.643-6.9-.253-11.556-.252-3.909,0-8.969,1.516-9.543.927-.978,1.726-.172,5.3-.172,5.3s4.074.211,8.96,0,10.534.1,12.662-.531C2187.85,1369.769,2186.158,1366.564,2186.158,1366.564Z" transform="translate(-2164.574 -1366.312)"/></g></g><g transform="translate(3.157 80.294)"><path class="s" d="M2195.237,1145.191s-33.68,33.763-46.767,27.9c-4.314-5.832,4.848-17.536,13.427-21.458,8.546-3.905,22.89-10.061,22.89-10.061Z" transform="translate(-2147.368 -1122.641)"/><path class="ab" d="M2198.892,1134.674l13.994-10.8a1.382,1.382,0,0,1,1.07-.264l9.531,1.729c.273.045.83,1.709.61,1.875l-9.516,5.719a.312.312,0,0,1-.156.062l-14.96,2.567C2199.147,1135.6,2198.638,1134.868,2198.892,1134.674Z" transform="translate(-2144.644 -1123.592)"/><path class="ac" d="M2199.578,1135.624l13.309-10.158a1.38,1.38,0,0,1,1.069-.265l9.849,1.665a.315.315,0,0,1,.138.561l-9.36,7.1a.316.316,0,0,1-.156.062l-14.624,1.6A.315.315,0,0,1,2199.578,1135.624Z" transform="translate(-2144.611 -1123.508)"/><path class="s" d="M2182.56,1142.4l7.864-3.938s4.984-5.427,6.545-7.048c1.991-.579,5.867-2.251,6.658-2.194a11.105,11.105,0,0,1,2.125.525l-4.551,3.561a5.969,5.969,0,0,0,4.457-.184c2.6-1.04,7.453-4.232,9.321-3.087l.6.764s1.64-1.27,2.627-.389c3.05,2.722-16.629,14.449-16.629,14.449l-8.2.982Z" transform="translate(-2145.505 -1123.294)"/><path class="ab" d="M2213.67,1127.613a.971.971,0,1,1,.473-1.461A1.1,1.1,0,0,1,2213.67,1127.613Z" transform="translate(-2143.946 -1123.475)"/></g><path class="t" d="M2245.5,1165.156s-17.46,19.965-29.612,22.786c-.723-4-1.388-7.065-1.388-7.065l16.567-21.811Z" transform="translate(-2140.657 -1041.42)"/><path class="t" d="M2213.9,1188.136a1.644,1.644,0,0,1,.25-.464c-.03-.008-.059-.016-.087-.025-1.726-.573-2.791-2.039-2.379-3.277a1.734,1.734,0,0,1,.307-.549,2.431,2.431,0,0,1-1.082-2.59,1.822,1.822,0,0,1,.64-.872,2.432,2.432,0,0,1-1.122-2.722,2.851,2.851,0,0,1,5.331,1.77,2.025,2.025,0,0,1-.507.811c1.438.663,2.276,1.968,1.9,3.086a1.729,1.729,0,0,1-.307.549,2.43,2.43,0,0,1,1.081,2.591,1.8,1.8,0,0,1-.577.822,2.078,2.078,0,0,1,1.049,2.365,2.408,2.408,0,0,1-4.5-1.5Z" transform="translate(-2140.878 -1040.517)"/><g transform="translate(24.679 29.505)"><path class="s" d="M2178.448,1078.822c2.028,3.164,1.572,7.073-1.017,8.731s-6.331.439-8.358-2.725-1.57-7.072,1.018-8.731S2176.422,1075.659,2178.448,1078.822Z" transform="translate(-2167.808 -1075.357)"/><g transform="translate(4.137 3.142)"><path class="t" d="M2174.027,1085.519a.827.827,0,0,0,.354-.132,3.714,3.714,0,0,0,1.787-4.2,3.958,3.958,0,0,0-3.592-2.849.821.821,0,0,0-.033,1.643,2.345,2.345,0,0,1,2.048,1.665,2.1,2.1,0,0,1-1.119,2.37.822.822,0,0,0,.556,1.5Z" transform="translate(-2171.738 -1078.341)"/></g></g></g></g><g transform="translate(940.176 651.072)"><path class="ad" d="M2702.66,1479.434c7.116-39.048,5.558-53.014-13.5-84.886s-20.88-91.185-28.065-73.789-6.218,61.083,16.3,82.283,25.549,30.693,26.886,39.323-3.215,35.151-3.215,35.151Z" transform="translate(-2657.116 -1266.506)"/><path class="ae" d="M2706.225,1454.331c.011-.15.022-.3.032-.447-.418-3.2-2.68-19.679-5.81-26.18-3.474-7.217-18.709-19.779-22.985-35.548s-11.055-27.992-15.5-37.953c-5.872-13.152-2.662-30.637,2.192-36.316a1.19,1.19,0,0,0-.355-.163l-1.612.974a11.414,11.414,0,0,0-1.094,2.122c-7.184,17.4-6.218,61.083,16.3,82.282s25.549,30.693,26.887,39.323a50.571,50.571,0,0,1,0,10.018Z" transform="translate(-2657.116 -1266.566)"/><path class="ad" d="M2740.859,1385.167c5.295-45.887,3.53-61.771-6.707-98.482s56.477-120.366,54.359-105.894-9.177,50.476-27.532,73.067-19.767,40.946-16.237,60.36-.706,64.595-.706,64.595l-2.118,8.119Z" transform="translate(-2705.043 -1179.128)"/><g transform="translate(31.29 5.14)"><path class="ae" d="M2748.85,1374.885h-.017a.442.442,0,0,1-.426-.459c0-.142.531-14.287.267-25.9s-3.414-31.537-5.329-38.378c-1.745-6.229-3.938-27.12,6.711-48.692a279.7,279.7,0,0,1,15.4-26.942c5.792-9.293,13-20.86,24.437-41.234a.443.443,0,0,1,.772.434c-11.446,20.392-18.66,31.968-24.457,41.269a279.146,279.146,0,0,0-15.356,26.866c-10.526,21.323-8.371,41.923-6.652,48.061,1.928,6.883,5.1,26.913,5.362,38.6.265,11.639-.262,25.811-.268,25.953A.443.443,0,0,1,2748.85,1374.885Z" transform="translate(-2741.886 -1193.054)"/></g><path class="ad" d="M2738.184,1552.809c3.177-30.709,3.708-15.564-9.485-57.29-15.1-47.755,38.782-90.151,47.606-72.855s19.061,71.655,15.178,69.89-29.65-52.241-30.356-50.123-34.945,19.767-33.533,37.769,14.472,46.594,14.472,46.594l-.353,26.368Z" transform="translate(-2700.603 -1330.284)"/><g transform="translate(25 87.996)"><path class="ae" d="M2740.958,1552.049l-.044,0-3.53-.354a.444.444,0,0,1-.4-.486c.367-3.548.706-6.536.979-8.936,1.479-13.037,1.479-13.037-2.568-24.207-1.829-5.047-4.333-11.959-7.876-23.165a57.089,57.089,0,0,1-2.035-25.813,66.171,66.171,0,0,1,7.868-22.6c6.989-12.491,17.987-23.219,28.021-27.331,6.972-2.858,12.283-1.928,14.569,2.552,3.745,7.342,8.224,22.374,11.979,40.212,2.168,10.295,5.353,28.222,3.544,30.115a.783.783,0,0,1-.923.169c-2.118-.964-9.132-13.34-18.809-30.719-4.852-8.713-9.858-17.7-11.21-19.255a35.93,35.93,0,0,1-4.769,3.485c-9.591,6.505-29.547,20.041-28.476,33.7,1.389,17.717,14.3,46.159,14.433,46.444a.441.441,0,0,1,.04.19l-.353,25.568a.443.443,0,0,1-.443.437Zm-3.044-1.193,2.608.261.345-24.985c-.814-1.8-13.107-29.283-14.469-46.651-1.111-14.168,19.134-27.9,28.863-34.5a32.523,32.523,0,0,0,4.7-3.457.516.516,0,0,1,.441-.354c.856-.08,2.549,2.707,12.112,19.882,6.863,12.326,16.243,29.172,18.355,30.32.163-.265.643-1.712-.291-9.166-.676-5.389-1.913-12.48-3.486-19.965-3.747-17.829-8.207-32.831-11.932-40.132-2.051-4.019-6.951-4.8-13.444-2.135-17.595,7.212-44.554,39.209-33.345,74.657,3.537,11.188,6.038,18.09,7.864,23.13,4.118,11.365,4.118,11.365,2.616,24.608C2738.571,1544.789,2738.261,1547.515,2737.914,1550.856Z" transform="translate(-2724.846 -1417.525)"/></g><path class="q" d="M2748.612,1708h-16.018c-1.1,0-2.085-.626-2.189-1.405l-5.383-40.464a2.873,2.873,0,0,1,2.75-3.44h25.662a2.872,2.872,0,0,1,2.75,3.44l-5.382,40.464C2750.7,1707.373,2749.713,1708,2748.612,1708Z" transform="translate(-2699.938 -1484.201)"/><path class="af" d="M2776.492,1713.954H2774.2c-1.122,0-2.024-.649-2.006-1.458l.81-34.953a3.263,3.263,0,0,1,3.167-3.2h3.479a2.8,2.8,0,0,1,2.753,3.2l-3.716,34.953C2778.6,1713.3,2777.614,1713.954,2776.492,1713.954Z" transform="translate(-2729.717 -1491.552)"/><g transform="translate(27.524 111.338)"><path class="ae" d="M2733.861,1608.649l.283-.493a101.349,101.349,0,0,1-2.459-10.964A55.877,55.877,0,0,0,2733.861,1608.649Z" transform="translate(-2731.685 -1554.217)"/><path class="ae" d="M2734.12,1505.618a32.959,32.959,0,0,0-2.024,7.992c4.728-15.522,31.058-29.535,32.769-31.9l.3-.595C2755.279,1478.356,2739.465,1492.254,2734.12,1505.618Z" transform="translate(-2731.944 -1480.764)"/></g><g transform="translate(28.188 94.992)"><path class="ae" d="M2796.2,1502.8a.443.443,0,0,1-.43-.337L2790.987,1483c-3.736-15.252-8.385-34.234-13.6-42.684-.861-1.393-4.619-3.277-9.942-2.9-7.2.51-21.064,5.48-33.108,33.048a.443.443,0,1,1-.812-.355c12.231-28,26.462-33.053,33.858-33.577,5.752-.4,9.756,1.7,10.758,3.32,5.293,8.569,9.766,26.829,13.712,42.938l4.784,19.464a.441.441,0,0,1-.431.549Z" transform="translate(-2733.483 -1436.48)"/></g><g transform="translate(74.025 101.894)"><path class="ae" d="M2860.515,1489.207a.415.415,0,0,1-.052,0,.443.443,0,0,1-.389-.491,104.111,104.111,0,0,0-2.4-32.983.443.443,0,0,1,.86-.215,105.1,105.1,0,0,1,2.416,33.3A.443.443,0,0,1,2860.515,1489.207Z" transform="translate(-2857.666 -1455.179)"/></g><g transform="translate(71.487 98.152)"><path class="ae" d="M2851.231,1472.921a.427.427,0,0,1-.052,0,.443.443,0,0,1-.388-.492c.017-.147,1.717-14.8.533-26.9a.443.443,0,0,1,.882-.086c1.194,12.2-.518,26.943-.535,27.09A.443.443,0,0,1,2851.231,1472.921Z" transform="translate(-2850.788 -1445.04)"/></g><g transform="translate(54.648 26.523)"><path class="ae" d="M2805.612,1271.915a.443.443,0,0,1-.192-.842,50.525,50.525,0,0,0,20.115-19.856.443.443,0,1,1,.78.42,51.459,51.459,0,0,1-20.511,20.235A.438.438,0,0,1,2805.612,1271.915Z" transform="translate(-2805.168 -1250.984)"/></g><g transform="translate(45.294 50.31)"><path class="ae" d="M2780.268,1328.609a.443.443,0,0,1-.089-.877c.1-.021,10.476-2.244,22.8-12.205a.443.443,0,0,1,.557.688c-12.5,10.107-23.069,12.363-23.175,12.384A.437.437,0,0,1,2780.268,1328.609Z" transform="translate(-2779.826 -1315.428)"/></g><g transform="translate(37.275 69.821)"><path class="ae" d="M2758.833,1377.466c-.182,0-.29-.006-.321-.009a.443.443,0,1,1,.065-.884c.071.006,7.22.395,18.677-8.2a.443.443,0,0,1,.532.709C2767.267,1376.975,2760.381,1377.466,2758.833,1377.466Z" transform="translate(-2758.102 -1368.287)"/></g></g><g transform="translate(723.618 689.02)"><path class="ag" d="M2517.842,1402.167h-5.209a1.347,1.347,0,0,1-1.266-1.992l1.561-4.291a3.149,3.149,0,0,1,2.717-1.992h5.208a1.348,1.348,0,0,1,1.268,1.992l-1.562,4.291A3.149,3.149,0,0,1,2517.842,1402.167Z" transform="translate(-2511.237 -1393.892)"/><path class="ag" d="M2541.677,1402.167h-5.21a1.348,1.348,0,0,1-1.267-1.992l1.561-4.291a3.152,3.152,0,0,1,2.716-1.992h5.211a1.348,1.348,0,0,1,1.268,1.992l-1.562,4.291A3.152,3.152,0,0,1,2541.677,1402.167Z" transform="translate(-2518.355 -1393.892)"/><path class="ag" d="M2565.51,1402.167H2560.3a1.347,1.347,0,0,1-1.267-1.992l1.561-4.291a3.149,3.149,0,0,1,2.717-1.992h5.21a1.347,1.347,0,0,1,1.267,1.992l-1.562,4.291A3.15,3.15,0,0,1,2565.51,1402.167Z" transform="translate(-2525.474 -1393.892)"/></g><path class="ag" d="M2518.559,1427.518H2417.1c-1.817,0-2.761-.754-2.1-1.676l.268-.371c.66-.923,2.688-1.676,4.5-1.676H2521.23c1.816,0,2.761.754,2.1,1.676l-.267.371C2522.4,1426.765,2520.375,1427.518,2518.559,1427.518Z" transform="translate(-1758.814 -713.802)"/><path class="ag" d="M2510.6,1445.862H2409.134c-1.816,0-2.761-.754-2.1-1.675l.267-.373c.661-.922,2.687-1.675,4.5-1.675h101.462c1.817,0,2.761.754,2.1,1.675l-.267.373C2514.441,1445.109,2512.413,1445.862,2510.6,1445.862Z" transform="translate(-1756.436 -719.281)"/></g></svg>