<svg xmlns="http://www.w3.org/2000/svg" width="76.153" height="76.046" viewBox="0 0 76.153 76.046"><defs><style>.a{fill:#333;}</style></defs><g transform="translate(0 -0.358)"><g transform="translate(0 46.806)"><path class="a" d="M70.2,312.642v20.674a2.978,2.978,0,0,1-2.975,2.975H8.924a2.978,2.978,0,0,1-2.975-2.975V312.642H0v20.674a8.934,8.934,0,0,0,8.924,8.924h58.3a8.934,8.934,0,0,0,8.924-8.924V312.642Z" transform="translate(0 -312.642)"/></g><g transform="translate(19.591 0.358)"><path class="a" d="M150.2.358,131.716,18.844l4.207,4.207,11.3-11.3V58.11h5.949V11.746l11.3,11.3,4.207-4.207Z" transform="translate(-131.716 -0.358)"/></g></g></svg>