<svg width="26" height="28" viewBox="0 0 26 28" fill="none" xmlns="http://www.w3.org/2000/svg">
<g clip-path="url(#clip0)" filter="url(#filter0_d)">
<path d="M21.18 19.738H19.18C19.18 16.364 16.35 13.62 12.869 13.62C9.38802 13.62 6.55902 16.365 6.55902 19.738H4.55902C4.55902 15.26 8.28802 11.62 12.87 11.62C17.451 11.62 21.18 15.26 21.18 19.738Z" fill="white"/>
<path d="M12.87 10.97C9.84705 10.97 7.38605 8.508 7.38605 5.485C7.38505 2.461 9.84605 0 12.87 0C15.895 0 18.356 2.46 18.356 5.485C18.356 8.51 15.895 10.97 12.87 10.97ZM12.87 2C10.948 2 9.38505 3.563 9.38505 5.485C9.38505 7.407 10.948 8.97 12.87 8.97C14.793 8.97 16.356 7.407 16.356 5.485C16.356 3.563 14.791 2 12.87 2Z" fill="white"/>
</g>
<defs>
<filter id="filter0_d" x="-1" y="0" width="27.738" height="27.738" filterUnits="userSpaceOnUse" color-interpolation-filters="sRGB">
<feFlood flood-opacity="0" result="BackgroundImageFix"/>
<feColorMatrix in="SourceAlpha" type="matrix" values="0 0 0 0 0 0 0 0 0 0 0 0 0 0 0 0 0 0 127 0"/>
<feOffset dy="4"/>
<feGaussianBlur stdDeviation="2"/>
<feColorMatrix type="matrix" values="0 0 0 0 0 0 0 0 0 0 0 0 0 0 0 0 0 0 0.25 0"/>
<feBlend mode="normal" in2="BackgroundImageFix" result="effect1_dropShadow"/>
<feBlend mode="normal" in="SourceGraphic" in2="effect1_dropShadow" result="shape"/>
</filter>
<clipPath id="clip0">
<rect width="19.738" height="19.738" fill="white" transform="translate(3)"/>
</clipPath>
</defs>
</svg>
