<svg width="18" height="20" viewBox="0 0 18 20" fill="none" xmlns="http://www.w3.org/2000/svg">
<path d="M17.18 19.738H15.18C15.18 16.364 12.35 13.62 8.86902 13.62C5.38802 13.62 2.55902 16.365 2.55902 19.738H0.559021C0.559021 15.26 4.28802 11.62 8.87002 11.62C13.451 11.62 17.18 15.26 17.18 19.738Z" fill="white"/>
<path d="M8.87005 10.97C5.84705 10.97 3.38605 8.508 3.38605 5.485C3.38505 2.461 5.84605 0 8.87005 0C11.895 0 14.356 2.46 14.356 5.485C14.356 8.51 11.895 10.97 8.87005 10.97ZM8.87005 2C6.94805 2 5.38505 3.563 5.38505 5.485C5.38505 7.407 6.94805 8.97 8.87005 8.97C10.793 8.97 12.356 7.407 12.356 5.485C12.356 3.563 10.791 2 8.87005 2Z" fill="white"/>
</svg>
