<svg xmlns="http://www.w3.org/2000/svg" width="1152.725" height="602.369" viewBox="0 0 1152.725 602.369"><defs><style>.a{fill:#bbbabe;}.b{fill:#e0dfe1;}.ae,.af,.c,.f,.m,.o,.r,.s,.u,.v{fill:none;stroke-miterlimit:10;}.ae,.c,.u,.v{stroke:#fff;}.c{stroke-width:1.159px;}.ae,.c,.w{opacity:0.5;}.d{fill:#c89084;}.e{fill:#ffa75c;}.af,.f,.m,.o,.s{stroke:#000;}.f{stroke-width:0.176px;}.g{fill:#3e4445;}.h{fill:#fff;}.i,.p{fill:#413847;}.i{opacity:0.1;}.j{fill:#ffc48e;}.k{fill:#60a1b0;}.l{fill:#bae6e6;}.m{stroke-width:0.19px;}.n{fill:#d3875e;}.o{stroke-width:0.238px;}.q{opacity:0.3;}.r{stroke:#413847;stroke-width:0.36px;}.s{stroke-width:0.457px;}.t,.w{fill:#fff7e7;}.t{opacity:0.47;}.af,.u{stroke-width:0.183px;}.v{stroke-width:0.229px;}.x{fill:#ff616e;font-size:9px;font-family:Poppins-Bold, Poppins;font-weight:700;}.x,.y{letter-spacing:0.2em;}.y{fill:#5b808a;font-size:3px;font-family:Poppins-Medium, Poppins;font-weight:500;}.z{fill:#ffece0;}.aa{fill:#ff7d51;}.ab{fill:#ecd0b3;}.ac{fill:#92babe;}.ad{fill:#badfe1;}.ae{stroke-width:1.828px;}.ag{fill:#e2810e;}.ah{fill:#ffb93e;}.ai{fill:#ffa412;}.aj{fill:#ca8024;}.ak{fill:#e8a22c;}</style></defs><g transform="translate(-59.564 -146.987)"><g transform="translate(544.215 255.976)"><rect class="a" width="40.928" height="11.062" rx="3.072" transform="translate(40.928 11.089) rotate(-180)"/><path class="b" d="M338.081,207.625h32.356l-3.533-2.879a9.326,9.326,0,0,1-3.432-7.226V167.849a4.777,4.777,0,0,0-4.777-4.777H326.8l.994,1.223a14.057,14.057,0,0,1,3.147,8.866v27.324A7.142,7.142,0,0,0,338.081,207.625Z" transform="translate(-322.247 -163.072)"/><line class="c" x1="21.247" transform="translate(14.772 11.926)"/><line class="c" x1="21.247" transform="translate(14.772 6.148)"/><line class="c" x1="21.247" transform="translate(14.772 18.602)"/><line class="c" x1="21.247" transform="translate(14.772 24.581)"/><line class="c" x1="21.247" transform="translate(14.772 31.554)"/><line class="c" x1="21.247" transform="translate(16.333 38.528)"/></g><g transform="translate(59.564 146.987)"><g transform="translate(898.126 156.721)"><g transform="translate(6.739)"><path d="M616.452,203.691c-.344-.178,5-4.067,7.8-6.072a4.949,4.949,0,0,1,3.628-.873l8.733,1.309a.955.955,0,0,1,.454,1.7c-2.514,1.945-6.882,5.328-7.393,5.738C628.946,206.071,619.783,205.43,616.452,203.691Z" transform="translate(-498.776 -72.144)"/><path d="M614.443,150.987s2.051,3.092,2.155,5.173c.259,5.2-.781,9.746-7.019,11.176L606.72,152.78Z" transform="translate(-506.555 -108.733)"/><path class="d" d="M591.8,348.622l-.349,3.14a2.507,2.507,0,0,0-1.046,3.14c.7,2.269,10.641,20.935,10.641,20.935s2.252,6.28,7.676,6.28c6.979,0,5.933-2.966,5.933-2.966s-4.013-.873-4.188-4.885-3.353-16.77-3.353-16.77l.263-6.84Z" transform="translate(-519.745 49.488)"/><path d="M609.932,374.267c-.175-4.012-3.353-16.77-3.353-16.77l.263-6.84-15.577-2.035-.349,3.14,9.705,4.532Z" transform="translate(-519.207 49.488)"/><path d="M593.21,350.366a2.507,2.507,0,0,0-1.046,3.14c.7,2.269,10.641,20.935,10.641,20.935s2.252,6.28,7.676,6.28c6.979,0,5.933-2.966,5.933-2.966s6.8,3.815,7.087,5.245a6.276,6.276,0,0,1-.573,3.243s-11.731,1.241-15.546,0-3.815-1.525-4.1-2.479-4.1-12.59-7.249-15.164l.859,13.258h-2s-1.05-12.4-4.674-16.787a5.806,5.806,0,0,1-2-5.724,23.657,23.657,0,0,1,2.575-6.295A5.055,5.055,0,0,1,593.21,350.366Z" transform="translate(-521.5 50.884)"/><path d="M571.869,342.605s-4.588-2.823-8.337.122a8.843,8.843,0,0,0-3.214,7.5L551.09,361.58l1.282,1.568,9.833-7.98a17.737,17.737,0,0,1-.569,11.115c-2.281,6.271-2.424,10.832,1.853,14.536s14.394,10.261,14.394,10.261,3.135.142,2.85-2.28-4.419-13.254-4.419-13.254l-4.446-32.941" transform="translate(-551.09 43.695)"/><path class="d" d="M578.431,350.107l-5.893,17.676s-1.856,5.078-2.877,9.338a3.508,3.508,0,0,1-5.481,1.99c-1.788-1.3-2.168-3.552-2.852-5.378-1.606-4.285-2.071-9.132-.2-16.1,1.239-4.6-.243-8.553.139-11.779a4,4,0,0,1,2.971-3.412l3.477-.908Z" transform="translate(-544.027 43.815)"/><path d="M571.934,367.783l5.893-17.676-10.713-8.571-3.477.908a4,4,0,0,0-2.971,3.412s3.289,7.209,7.37,11.644Z" transform="translate(-543.424 43.815)"/><path class="e" d="M626.079,209.85s7.939,3.679,6.613,10.445L618.9,228.912l-6.026,3.767-3.828-16.437,2.314-7.748Z" transform="translate(-504.69 -62.694)"/><path d="M611.362,208.494l-2.313,7.747,3.828,16.438,6.027-3.767.529-18.409Z" transform="translate(-504.69 -62.694)"/><path d="M622.126,209.993s7.939,3.679,6.614,10.445c0,0-15.134-7.928-14.747-10.832h0Z" transform="translate(-500.738 -62.838)"/><path d="M631.276,202.951s1.35,2.026,1.125,3.376-3.151,4.165-4.727,4.615c0,0-1.576,3.6-4.5,4.5l-2.362,1.575-2.7-2.026,6.077-9.341Z" transform="translate(-497.436 -67.132)"/><path class="e" d="M596.4,173.278s19.142,6.981,21.843,15.762,10.809,29.949,10.809,29.949a99.378,99.378,0,0,1,.9,17.194c-.061,1.828-.182,3.725-.376,5.65a52.107,52.107,0,0,1-4.354,17.012s-.526-8.265-1.323-17.572c-.151-1.772-.313-3.58-.482-5.376-.792-8.4-1.759-16.529-2.723-19.322-2.253-6.531-23.618-33.84-23.618-33.84l-2.478-3.378Z" transform="translate(-516.259 -90.887)"/><path d="M616.763,213.991c.194-1.925.315-3.823.376-5.65l-6.536-.286c.169,1.8.331,3.6.482,5.376Z" transform="translate(-503.446 -63.046)"/><path class="f" d="M595.9,173.936c3.448,3.535,5.07,4.563,9.095,7.426.175.124-1.329,1.433-1.206,1.5,1.118.652,6.032,4.166,7.3,4.4,0,0,13.778,21.29,12.415,31.58" transform="translate(-515.217 -90.36)"/><path class="d" d="M602.976,205.855l2.542-6.475s9.944,3.7,11.333,1.849c.664-.886,3.878-5.854,7.278-11.092.472-.727,3.97,1.314,4.444.538,3.221-5.288-3.419-6.421,1.295-17.262,5.987-13.767-5.953-23.586-10.011-26.76-8.047-6.295-23.818-5.088-30.757,5.549a17.7,17.7,0,0,0,0,19.889,5.889,5.889,0,0,1,.463,6.705c-2.081,3.932-5.782,13.182-5.782,13.182Z" transform="translate(-524.92 -115.267)"/><path class="g" d="M635.708,233.769s8.875,32.965,5.917,57.479-8.452,53.252-8.452,53.252L613.309,445.089s-16.061.846-23.245-5.072l8.029-76.074Z" transform="translate(-519.889 -42.46)"/><path class="g" d="M597.305,246.1c-7.231,16.106,6.34,59.593,6.34,59.593l4.226,40.151-46.914,84.106s7.366,15.546,20.469,16.391L617.169,382.2s15.215-10.566,16.906-20.708,16.906-89.6,16.906-89.6l8.03-37.193S606.6,225.4,597.305,246.1Z" transform="translate(-543.191 -43.385)"/><path class="f" d="M606.974,245.021c.135,30.066,6.72,59.824,6.857,89.89l-.207,4.93s-4.291,2.146-18.233,29.313-32.172,54.694-32.172,54.694" transform="translate(-541.381 -33.452)"/><path class="f" d="M572.938,439.628l34.639-62.86s15.107-10.121,17.572-19.059c6.4-23.18,10.787-65.334,15.814-89.8,0,0,.652-24.427.652-28.516" transform="translate(-533.599 -37.958)"/><path d="M601.935,362.025c6.4-23.18,10.787-65.334,15.814-89.8,0,0,.652-24.427.652-28.516,0,0-.164-11.005,1.26-9.581s12.813,28.759,12.813,29.9-.285,11.106-.285,11.106l-7.688,2.562s-10.251,64.068-14.237,72.894S601.935,362.025,601.935,362.025Z" transform="translate(-510.385 -42.275)"/><path class="e" d="M613.638,220.8s8.189,16.823,10.011,26.663,8.383,13.852,2.551,30.984l-17.133-39.368Z" transform="translate(-504.675 -52.843)"/><path class="h" d="M586.221,170.124l21.063,17.838,10.582,13.06s10.434,12.134,11.749,19.466S628,237.726,628,237.726Z" transform="translate(-522.965 -93.412)"/><path class="d" d="M604.661,207.107l10.191-8.884a7.273,7.273,0,0,1,7.838,2.613l11.76,2.352,8.173.209a2.486,2.486,0,0,1,2.436,2.82c-.088.513-.353.891-.94.891a15.266,15.266,0,0,0-3.439.421,30.558,30.558,0,0,1-1.592,4.017c-.522.783-1.635,2.62-9.2,1.439l6.781.29s-.027,4.71-3.424,4.449-2.2-.164-2.2-.164.783,1.568-1.568,2.613-8.362-1.044-12.543-.522l-4.181.522Z" transform="translate(-508.203 -71.148)"/><path class="e" d="M579.222,303.221l64.286,24.616-.889-50.4.421-25.781s-7.184-22.824-13.947-32.122c-6.3-8.664-23.616-41.924-35.521-51.883a2.54,2.54,0,0,0-3.87.8l-3.718,7.127s-7.607.845-13.524,5.072l17.329,62.55-2.958,33.39Z" transform="translate(-533.983 -95.853)"/><path class="e" d="M643.42,248.862S585.1,265.767,580.447,266.19s-6.763-5.072-9.3-13.524-12.68-65.51,6.34-76.92l4.226-2.537s17.329,2.114,17.752,22.822-.846,42.265-.846,42.265l35.08-13.1S642.153,227.307,643.42,248.862Z" transform="translate(-539.013 -90.942)"/><path d="M593.094,175.792s-2.312,2.314-4.163.232-7.141-8.346-3.93-20.12c2.775-10.175,9.019-19.426,26.364-17.808,17.656,1.649,21.043,18.964,21.275,23.357,0,0-7.17,9.482-22.664,5.319,0,0-.463,8.326-5.088,8.326s-6.242-6.475-6.242-6.475Z" transform="translate(-524.752 -119.2)"/><path d="M596.67,146.88s-10.342-11.072,2.83-18.215c5.926-3.214,12.784.832,15.523,5.971,1.593,2.985.6,10.946-2.859,13.4C609.1,150.216,596.67,146.88,596.67,146.88Z" transform="translate(-517.69 -127.52)"/><path class="f" d="M577.154,173.2c6.242,2.928,11.909,14.473,12.049,18.827.49,15.251,1.649,31.112.085,46.289L624.912,225.2l4.926-1.972" transform="translate(-530.224 -90.945)"/><path class="f" d="M580.391,171.74c.42,2.87,2.4,5.229,4.309,7.417a4.093,4.093,0,0,0,2.937,1.853l5.846,1.176" transform="translate(-527.633 -92.118)"/><path class="f" d="M588.5,178.11l-1.624,3.911,30.259,39.251" transform="translate(-522.443 -87.019)"/><path class="f" d="M581.768,238.724c1.385-.187,47.791-13.326,49.022-13.985,0,0,5.086-.83,4.8-2.1s-4.233-12.26-6.486-19.3" transform="translate(-526.53 -66.827)"/><path d="M634.453,214.756c-1.233.659-52.053,14.851-53.439,15.038,0,0-.355,2.692-.355,3.913s26.279-2.9,26.279-2.9l26.945-12.22Z" transform="translate(-527.418 -57.681)"/><path d="M583.8,191.421s1.039,13.643.367,22.383.342,9.912.342,9.912l11.536-4.534s-2.018-.672-4.932-5.378S583.8,191.421,583.8,191.421Z" transform="translate(-524.903 -76.362)"/><path class="f" d="M580.657,215.921a32.094,32.094,0,0,1,7.64-7.01" transform="translate(-527.42 -62.36)"/><path class="f" d="M610.654,214.421c1.574,8.016,2.087,27.974,1.161,40.686" transform="translate(-503.405 -57.949)"/><path class="d" d="M590.2,164.809s-5.227-6.9-.852-11.045,6.587-1.921,6.4,3.877A7.678,7.678,0,0,1,590.2,164.809Z" transform="translate(-521.859 -108.216)"/><path class="f" d="M599.9,178.924A36.326,36.326,0,0,1,590,167.9" transform="translate(-519.938 -95.196)"/><path d="M600.529,179.3A39.826,39.826,0,0,1,590,167.9l8.358,16.918Z" transform="translate(-519.938 -95.196)"/><path class="f" d="M601.359,157.353a13.394,13.394,0,0,1,9.943-.513" transform="translate(-510.846 -104.623)"/><path class="f" d="M604.766,160.615a2.438,2.438,0,0,0-.724,2.177,15.632,15.632,0,0,0,2.548-2.931" transform="translate(-508.727 -101.628)"/><path class="f" d="M599.527,169.421l3.385,2.836" transform="translate(-512.313 -93.975)"/><path class="f" d="M610.783,235.427c-4.424-.416-18.888-4.276-22.651-6.637,0,0-4.795,13.218,1,17.633s16,4.691,16,4.691" transform="translate(-522.927 -46.446)"/><path class="f" d="M598.573,245.521a14.155,14.155,0,0,0,4.192-11.844" transform="translate(-513.077 -42.534)"/><path class="f" d="M578.779,241.4c4.618,2.957,51.48,20.372,56.635,22.242" transform="translate(-528.923 -36.35)"/><path class="f" d="M618.042,254.682a34.948,34.948,0,0,0,.967-13.81" transform="translate(-497.491 -36.774)"/><path class="f" d="M615.931,202.8a82.127,82.127,0,0,0,9.309,1.365,26.862,26.862,0,0,0,4.941.225,13.442,13.442,0,0,0,5.26-1.532" transform="translate(-499.18 -67.254)"/><path class="f" d="M616.108,207.034a38.217,38.217,0,0,0,9.4.69,7.477,7.477,0,0,0,2.912-.58,2.915,2.915,0,0,0,1.725-2.274" transform="translate(-499.039 -65.596)"/><path class="f" d="M615.44,208.277a29.833,29.833,0,0,0,9.329,1.349" transform="translate(-499.574 -62.868)"/></g><ellipse class="i" cx="69.896" cy="7.818" rx="69.896" ry="7.818" transform="translate(0 429.391)"/><path class="f" d="M613.652,143.74l8.256-8.256" transform="translate(-494.267 -121.144)"/><path class="f" d="M617.481,148.976a15.175,15.175,0,0,0,9.658-1.217" transform="translate(-491.201 -111.317)"/><path class="f" d="M618.991,157.692l6.857,1.476" transform="translate(-489.992 -103.365)"/></g><g transform="translate(90.503 161.343)"><g transform="translate(0 18.034)"><path class="j" d="M137.45,368.243l1.833,18.8,10.3-1.227,3.765-17.986Z" transform="translate(-91.496 17.675)"/><path d="M153.345,367.824l-15.9.418,1.833,18.8,3.5-6.563,5.688-1.312Z" transform="translate(-91.496 17.675)"/><path class="j" d="M160.124,366.431l-.837,20.5,12.13.837,5.019-20.5Z" transform="translate(-74.014 16.559)"/><path d="M159.288,386.927l.837-20.5,16.313.837-4.323,14.324H163.8Z" transform="translate(-74.014 16.559)"/><path d="M137.6,184.207c1.016-1.741.889-2.033.889-2.033s3.536-2.465,5.422-1.3l-1.16,6.311s-2.685,2.539-3.7,2.031S137.6,184.207,137.6,184.207Z" transform="translate(-91.374 -132.243)"/><path class="k" d="M190.356,277.325l.374,87.221-4.091,102.08s-20.066-1.574-24-2.755L151.482,293.247s12.123-27.023,12.5-27.147c10.623-3.542,24.3-7.445,24.3-7.445Z" transform="translate(-80.262 -69.722)"/><path class="k" d="M170.026,296.235l-3.86,171.446-25.015-.211-5.09-92.544L128.319,263.58l5.508-8.657,51.846,11.41S172.386,290.335,170.026,296.235Z" transform="translate(-98.806 -72.71)"/><path d="M132.011,254.923l-1.424,11.435s14.181,6.145,23.163,9.455,22.217,9.455,34.034,4.727A183.378,183.378,0,0,0,210,269.668l-2.84-7.269-28.832,7.742Z" transform="translate(-96.99 -72.71)"/><path class="l" d="M154.007,185.329c-5.128.853-11.322-2.991-12.6,4.058s-13.888,122.844-13.888,122.844,5.15,4.674,21.812,11.725,40.785,12.2,57.876,1.307l-4.914-59.394-9.827-70.5Z" transform="translate(-99.45 -128.661)"/><path class="m" d="M139.615,192.553a27.6,27.6,0,0,0,10.225,6.99,20.217,20.217,0,0,0,14.586-.094,16.883,16.883,0,0,0,9.755-10.64" transform="translate(-89.763 -125.638)"/><path class="j" d="M146.483,176.479s-.4,4.413-4.815,10.031-5.62,7.224-.8,12.039,10.811,8.326,15.143,8.5c10.3.418,16.96-3.684,16.558-8.5s-2.407-16.853-2.407-16.853Z" transform="translate(-91.244 -135.51)"/><path d="M169.977,186.714c-4.053,7.546-9.338,8.69-10.672,8.839-2.35.263-4.424-1.449-6.077-3.14a63.006,63.006,0,0,1-9.674-12.82s4.121,21.751,12.078,21.751S169.977,186.714,169.977,186.714Z" transform="translate(-86.609 -133.017)"/><path class="g" d="M159.045,181.456c-.308,4.325,6.489,28.737,8.652,41.1s8.654,31.209,4.636,47.9-22.017,46.3-22.721,47.36-10.917,20.427-23.6,19.371-14.088-5.636-14.088-5.636,16.731-28.9,21.131-45.432c2.614-9.817-8.8-84.524-8.8-84.524l22.54-11.623Z" transform="translate(-111.928 -131.525)"/><path d="M124.055,241.5c6.286.313,19.488.628,26.717.313l1.19,4.464-23.812,1.86-6.072-1.86Z" transform="translate(-103.802 -83.459)"/><path class="m" d="M131.183,192.928l4.959-7.9" transform="translate(-96.513 -128.668)"/><path class="m" d="M131.522,189.752a29.064,29.064,0,0,0,6.558,3.261" transform="translate(-96.242 -124.884)"/><path class="m" d="M137.4,192.058a28.863,28.863,0,0,0-6.109,5.517" transform="translate(-96.427 -123.038)"/><path class="m" d="M130.943,195.892a310.957,310.957,0,0,1,20.481,51.829" transform="translate(-96.705 -119.968)"/><path class="g" d="M122.33,192.636c-1.957,0-6.394,8.956-6.592,20.226-.281,16.014-3.36,56.351.594,62.085s27.088,8.3,41.323,4.943c0,0-.592-22.54,1.385-25.505a12.758,12.758,0,0,1,4.35-4.152l-21.553,3.558S131.1,192.636,122.33,192.636Z" transform="translate(-110.004 -122.575)"/><path d="M138.43,254.281s-.592-22.54,1.385-25.505a12.758,12.758,0,0,1,4.35-4.152,8.721,8.721,0,0,1,2.569,5.339c.594,3.756-.592,14.037-2.569,18.387A12.2,12.2,0,0,1,138.43,254.281Z" transform="translate(-90.778 -96.967)"/><path class="g" d="M156.731,183.244s.99,20.366,1.385,30.053,8.106,50.816,11.073,62.678,17.793,67.424,22.54,71.18c0,0,1.581,2.175.2-11.072s-5.735-36.975-7.514-46.069,6.129-58.922,4.35-92.139c0,0-21.553-9.095-24.716-9.491C164.047,188.385,161.279,182.652,156.731,183.244Z" transform="translate(-76.06 -130.128)"/><path d="M148.888,230.509c-2.056,1.372-5.483,10.623-5.483,10.623s7.881,3.428,15.42-.342,13.366-7.2,13.366-7.2,8.223,7.539,9.937,6.169,0-9.253,0-9.253l-14.676-3.032Z" transform="translate(-86.729 -94.683)"/><path class="m" d="M165.32,244.328c2.667-13.191,3.138-33.215,4.519-47.393l-1.631-1.5a49.225,49.225,0,0,0-7.309-4.084" transform="translate(-72.723 -123.606)"/><path d="M153.72,227.559s4.478-10.611,6.469-10.728,16.981-.234,17.566.7-4.188,9.845-4.188,9.845S153.72,239.829,153.72,227.559Z" transform="translate(-78.471 -103.267)"/><path class="g" d="M177.558,191.351s4.528,3.158,5.814,15.591,4.716,34.292,4.716,41.795c0,0,4.287,5.358,3.644,11.144s-13.288,22.077-13.288,22.077,8.4-15.771,3-26.576c-1.714-3.43-10.717.428-10.717.428l6.43-41.795Z" transform="translate(-64.855 -123.604)"/><path d="M178.255,207.836l-7.874,37.729,8.2,1.97s1.97-20.013.657-24.934S178.255,207.836,178.255,207.836Z" transform="translate(-65.132 -110.406)"/><path d="M179.2,254.12s8.4-15.771,3-26.576c-1.714-3.43-10.717.428-10.717.428S164.406,248.976,179.2,254.12Z" transform="translate(-65.607 -95.767)"/><path class="j" d="M144.057,230.2s8.178-11.191,9.566-11.569,7.251-1.86,9.4-.22,5.62,2.87,5.62,3.374-.252,2.523-4.165,1.514a19.741,19.741,0,0,0-5.551-.884,1.992,1.992,0,0,0,2.018,2.65c2.776.252,7.775.535,7.775.535s9.251-3.724,11.4-2.713,2.91,1.421.387,2.557-8.58,4.417-10.726,4.921l3.284-.153s8.005-3.8,11.261-4.069c2.092-.175,5.643.438,3.12,1.952s-6.309,3.911-6.309,3.911-1.008,4.163-4.037,5.425a26.7,26.7,0,0,1-5.3,1.64s-2.9,3.659-5.805,4.921-14.761,0-14.761,0l-12.744,8.832s-.076-16.758,1.224-18.472Z" transform="translate(-90.67 -102.544)"/><path class="j" d="M162.191,230.825c2.944.709-1.826,3.16-.749,4.112,0,0-2.368-.587-1.417.547s9.737,6.464,9.737,6.464a25.293,25.293,0,0,0,4.581,1.869c1.5.281,4.487-.841,4.487-.841a3.948,3.948,0,0,0,.841,2.431c.843.841,9.442,5.8,11.5,2.15,0,0,2.532-9.617-.978-15.184l-3.882-.861s-6.394-6.421-8.169-8.477-1.367-3.8-3.61-2.494c-1.635.952-.094,3.738,1.122,5.609a47.292,47.292,0,0,1,2.805,5.7,30.2,30.2,0,0,0-6.732-1.59A48.3,48.3,0,0,0,162.191,230.825Z" transform="translate(-73.603 -100.597)"/><path class="n" d="M191.1,243.074c-2.056,3.646-10.656-1.309-11.5-2.15a3.948,3.948,0,0,1-.841-2.431s-2.991,1.122-4.487.841a25.293,25.293,0,0,1-4.581-1.869s-8.787-5.328-9.737-6.464c-.308-.367.616-.7,1.235-1.3,1.293-1.235,2.921-2.885.931-3.363a48.3,48.3,0,0,1,9.534-.562,30.194,30.194,0,0,1,6.732,1.59l2.65,5.281,6.34,3.547Z" transform="translate(-73.53 -96.112)"/><path class="j" d="M142.612,192.274c.036,3.236,4.012,10.432,4.012,10.432s7.625,11.637,14.046,11.637,15.247-18.859,15.649-22.07,4.415-15.651,4.013-24.479c0,0-10.434-12.84-18.459-10.834-6.277,1.57-14.763.438-17.971,16.96A92.637,92.637,0,0,0,142.612,192.274Z" transform="translate(-87.372 -151.305)"/><path d="M145.165,186.149l3.814-6.613,1.19-8.031s9.518,3.57,16.358,5.355,11.9,2.973,15.168,0,6.84-2.677,5.947-6.246,0-9.518-4.46-12.789-14.871-5.056-21.711-3.569-15.467,3.866-14.277,9.221a7.1,7.1,0,0,0-5.65-.3C138.57,164.368,140.109,184.959,145.165,186.149Z" transform="translate(-89.425 -153.726)"/><path class="j" d="M147.343,179.976c-2.38,1.19-7.137.3-7.733-5.056s3.682-6.651,7.37-2.488Z" transform="translate(-89.811 -140.723)"/><path class="m" d="M143.554,179.593a63.006,63.006,0,0,0,9.674,12.82c1.653,1.691,3.727,3.4,6.077,3.14,1.334-.149,6.619-1.293,10.672-8.839" transform="translate(-86.609 -133.017)"/><path class="m" d="M128.936,194.631a31.175,31.175,0,0,1,7.784,11.055" transform="translate(-98.312 -120.978)"/><path class="m" d="M126.905,208.465q4.408,16.135,7.326,32.628" transform="translate(-99.938 -109.903)"/><path class="m" d="M117.922,230.012c7.06-4.3,14.675-2.413,22.912-1.711l18.231-3.457" transform="translate(-107.129 -96.79)"/><path class="m" d="M123.507,241.5c6.286.315,18.142.742,25.372.429" transform="translate(-102.658 -83.455)"/><path class="m" d="M133.653,241.691c-.976-.5-2.119-1.356-1.82-2.411a1.659,1.659,0,0,1,1.185-1.048,2.116,2.116,0,0,1,2.557,1.2,1.551,1.551,0,0,1-1.633,1.979" transform="translate(-96.032 -86.136)"/><path class="m" d="M174.52,191.819a147.328,147.328,0,0,1-.268,21.077" transform="translate(-62.033 -123.229)"/><path class="m" d="M174.325,204.146c-.077,12.615,2.35,25.185,1.691,37.781" transform="translate(-61.977 -113.361)"/><path class="m" d="M177.323,222.491a9.026,9.026,0,0,1,4.764,1.77" transform="translate(-59.575 -98.674)"/><path class="m" d="M177.668,219.071A13.933,13.933,0,0,1,182,226" transform="translate(-59.299 -101.412)"/><path class="m" d="M161,186.805a31.862,31.862,0,0,1,2.339,5.861l-2.586,1.973" transform="translate(-72.838 -127.243)"/><path class="m" d="M151.826,282.613a34.411,34.411,0,0,0,5.553-13.294" transform="translate(-79.987 -61.185)"/><path class="m" d="M153.1,274.949c5.479,18.486,12.4,171.412,12.4,171.412" transform="translate(-78.969 -56.678)"/><path class="m" d="M133.544,279.283c4.255-6.082,2.884-10.938,5.641-17.829" transform="translate(-94.623 -67.482)"/><path class="m" d="M131.169,277.879c3.887-4.773,2.17-8.389,4.563-14.062" transform="translate(-96.524 -65.59)"/><path class="m" d="M131.306,272.4c1.7,17.26,3.461,65.785,6.8,84.414l4.3,92.565" transform="translate(-96.415 -58.717)"/><path class="m" d="M151.254,226.337c3.88-.648,8.268-.817,12.057-1.882" transform="translate(-80.445 -97.102)"/><path class="m" d="M151.642,230.4a35.2,35.2,0,0,0,9.215-.65,61.353,61.353,0,0,0,7.375-2.616c1.709-.908,3.425-.911,6.147-2.5" transform="translate(-80.134 -96.955)"/><path class="m" d="M152.129,231.557a25.551,25.551,0,0,0,13.611-3.176" transform="translate(-79.744 -93.959)"/><path class="m" d="M148.445,234.077a12.616,12.616,0,0,0,14.639-3.886" transform="translate(-82.694 -92.51)"/><path class="m" d="M160.876,228.214a51.535,51.535,0,0,0,8.868,5.9" transform="translate(-72.742 -94.093)"/><path class="m" d="M161.2,227.569q7.441,2.874,15.078,5.2" transform="translate(-72.482 -94.609)"/><path class="m" d="M170.638,233.575a20.977,20.977,0,0,0,8.8-2.433" transform="translate(-64.927 -91.748)"/><path class="m" d="M154.261,180.787a13.376,13.376,0,0,0,4.1.407" transform="translate(-78.038 -132.061)"/><path class="m" d="M156.985,188.557c-.311-6.55.58-11.2-.119-17.831" transform="translate(-75.952 -140.115)"/><path class="o" d="M151.524,174.049a3.388,3.388,0,0,1-.609,2.182" transform="translate(-80.716 -137.455)"/><path class="o" d="M159.617,175.238l-.668,2" transform="translate(-74.285 -136.503)"/><path class="m" d="M150.528,182.662h6.658" transform="translate(-81.026 -130.56)"/><path class="m" d="M147.589,171.731a11.431,11.431,0,0,1,12.717-1.558" transform="translate(-83.379 -141.565)"/><path class="m" d="M159.36,170.557c.92-1.808,4.235-1.269,4.536.736" transform="translate(-73.955 -141.133)"/><path class="m" d="M141.087,171.943a19.934,19.934,0,0,1,1.592,2.7" transform="translate(-88.584 -139.141)"/><path d="M142.3,379.05s-8.608,6.2-8.608,8.643,8.292,2.087,13.657,1.6,13.657-1.2,13.657-1.2-1.7-10.847-8.409-10.269Z" transform="translate(-94.508 25.662)"/><path d="M160.5,377.814s-3.173,7.406-2.685,9.356,33.17,0,33.17,0,1.824-8.52-18.355-8.52Z" transform="translate(-75.229 25.672)"/></g><g transform="translate(31.159)"><path class="m" d="M135.376,143.71l4.894,8.567" transform="translate(-124.315 -143.71)"/><path class="m" d="M130.589,149.878l9.842,4.791" transform="translate(-128.147 -138.772)"/><path class="m" d="M129.233,156l7.317,2.524" transform="translate(-129.233 -133.868)"/></g><ellipse class="i" cx="74.755" cy="10.805" rx="74.755" ry="10.805" transform="translate(3.119 419.415)"/></g><g transform="translate(410.865 9.586)"><g transform="translate(0 0)"><path class="n" d="M362.447,184.513c-3.782-5.8-16.325-34.216-6.491-45.817s14.255-7.824,14.255-7.824l5.576,9.687Z" transform="translate(-300.045 -64.089)"/><path d="M361.735,160.228c.3-3.543,5.448-29.53,5.448-29.53l5.576,9.687-13.34,43.953S360.413,175.661,361.735,160.228Z" transform="translate(-297.018 -63.914)"/><rect class="p" width="175.617" height="344.171" rx="15.73" transform="translate(90.779) rotate(13.832)"/><path class="h" d="M477.354,425.96,340.171,392.183a11.12,11.12,0,0,1-8.138-13.457L401.154,98.205a11.118,11.118,0,0,1,13.455-8.138l137.183,33.778a11.12,11.12,0,0,1,8.14,13.455L490.811,417.821A11.122,11.122,0,0,1,477.354,425.96Z" transform="translate(-308.307 -81.261)"/><rect class="i" width="139.645" height="54.945" rx="4.052" transform="translate(90.331 74.352) rotate(13.598)"/><rect class="i" width="67.487" height="34.8" rx="2.18" transform="translate(51.135 233.469) rotate(13.598)"/><rect class="i" width="66.566" height="103.584" rx="3.823" transform="matrix(0.975, 0.223, -0.223, 0.975, 136.484, 184.35)"/><g class="q" transform="translate(59.588 167.5)"><line class="r" x1="65.021" y1="15.475" transform="translate(7.202)"/><line class="r" x1="65.021" y1="15.475" transform="translate(5.865 5.671)"/><line class="r" x1="65.021" y1="15.475" transform="translate(4.455 10.855)"/><line class="r" x1="65.021" y1="15.475" transform="translate(3.044 16.04)"/><line class="r" x1="65.021" y1="15.475" transform="translate(1.299 21.438)"/><line class="r" x1="65.021" y1="15.475" transform="translate(0 27.353)"/></g><g class="q" transform="translate(51.285 200.955)"><line class="r" x1="65.021" y1="15.475" transform="translate(7.202)"/><line class="r" x1="65.021" y1="15.475" transform="translate(5.865 5.671)"/><line class="r" x1="65.021" y1="15.475" transform="translate(4.455 10.855)"/><line class="r" x1="65.021" y1="15.475" transform="translate(3.044 16.04)"/><line class="r" x1="65.021" y1="15.475" transform="translate(1.299 21.438)"/><line class="r" x1="65.021" y1="15.475" transform="translate(0 27.353)"/></g><g class="q" transform="translate(67.789 133.887)"><line class="r" x1="132.15" y1="31.452" transform="translate(7.877)"/><line class="r" x1="132.15" y1="31.452" transform="translate(6.554 5.674)"/><line class="r" x1="132.15" y1="31.452" transform="translate(4.971 10.817)"/><line class="r" x1="132.15" y1="31.452" transform="translate(3.387 15.96)"/><line class="r" x1="132.15" y1="31.452" transform="translate(1.194 21.252)"/><line class="r" x1="132.15" y1="31.452" transform="translate(0 27.192)"/></g><path class="j" d="M359.131,392.946s10.4,58.133,16.223,67.567,13.04,21.086,13.04,21.086l11.1,66.034H538.219l-15.538-56.045s34.127-77.965,34.959-142.611-.278-108.206-8.046-134.842-10.267-37.455-21.642-39.953-16.647,8.6-18.033,16.371c-.745,4.167-1.387,72.071-1.387,72.071l-7.492,53.613s-38.776,40.683-58.206,97.432l-38.868-10.816Z" transform="translate(-297.14 -45.649)"/><path class="n" d="M492.764,396c-8.006,7.189-31.7,18.442-63.681,13.111,0,0,22.109,16.142,36.875,14.665S492.764,396,492.764,396Z" transform="translate(-267.512 48.453)"/><path class="s" d="M429.083,409.113c31.983,5.331,55.675-5.922,63.681-13.111" transform="translate(-267.512 48.453)"/><path class="s" d="M380.071,390.717a105.622,105.622,0,0,0,13.491,8.2" transform="translate(-288.27 46.215)"/><path class="n" d="M419.662,380.678s4.2-16.556,9.832-35.152L390.626,334.71a170.328,170.328,0,0,0,15.44,27.954C408.718,366.545,419.662,380.678,419.662,380.678Z" transform="translate(-283.8 22.494)"/><path class="s" d="M411.777,375.274q5.492-20.823,11.566-41.488" transform="translate(-274.842 22.102)"/><path class="j" d="M348.364,197.615c-4.618,1.485-14.122,9.079-15.131,23.2s6.053,19.923,12.1,20.678,13.114-5.3,14.879-10.087,8.322-10.843,6.809-21.436S362.487,193.075,348.364,197.615Z" transform="translate(-308.149 -36.204)"/><path class="s" d="M349.191,240.373A47.4,47.4,0,0,0,361.092,221c2.161-7.343,2.06-15.566-1.391-22.4-1.446-2.864-9.542-4.285-15.868-.834" transform="translate(-303.619 -36.362)"/><path class="t" d="M334.723,216.2c-.878,4.1-1.137,10.914.91,15.007a21.566,21.566,0,0,0,7.73-.682s4.32-14.779,7.049-18.872,5-10.231,3.183-12.05-6.594-.91-8.185-.456S336.77,206.654,334.723,216.2Z" transform="translate(-307.755 -35.19)"/><path class="j" d="M346.2,241.746c-5.495-2.931-20.436,1.039-24.976,14.151S318.342,283.411,335.6,285.4c8.443.974,12.685-1.211,17.464-17.208,2.02-6.759,4.029-11.774,3.76-15.294C356.343,246.556,351.354,244.492,346.2,241.746Z" transform="translate(-314.108 -17.268)"/><path class="s" d="M343.358,242.644c6.433,3.485,7.576,7.615,7.684,9.526a18.087,18.087,0,0,1-.891,5.647l-2.177,8.106c-1.833,6.823-7.03,18.809-14.8,19.077" transform="translate(-308.135 -16.5)"/><path class="j" d="M317.913,299.82c2.453-5.825,9.583-5.8,15.888-5.3s22.192,1.261,22.948,16.9-5.933,17.342-17.534,18.6-19.789,2.834-22.31-7.253S315.9,304.611,317.913,299.82Z" transform="translate(-315.584 5.385)"/><path class="s" d="M332.157,294.821c4.043.74,8.171,1.7,11.545,4.047s6.92,6.4,6.3,10.467" transform="translate(-308.564 5.599)"/><path class="t" d="M329.06,324.894c-2.917-3.751-3.721-22.045-1.234-26.069,0,0,18.51.309,19.745,2.313s2.458,19.6-1.747,21.7C339.62,325.941,329.06,324.894,329.06,324.894Z" transform="translate(-311.026 7.295)"/><path class="p" d="M1.659,0H82.315a1.659,1.659,0,0,1,1.659,1.659V10.08a9.733,9.733,0,0,1-9.733,9.733H9.733A9.733,9.733,0,0,1,0,10.08V1.659A1.659,1.659,0,0,1,1.659,0Z" transform="translate(138.382 13.08) rotate(14.203)"/><circle class="u" cx="2.409" cy="2.409" r="2.409" transform="translate(199.864 38.171)"/><circle class="v" cx="6.921" cy="6.921" r="6.921" transform="translate(87.124 332.222)"/><circle class="h" cx="2.409" cy="2.409" r="2.409" transform="translate(188.049 35.051)"/><path class="t" d="M320.852,269.614s-.73-8.524,2.679-15.83,7.78-9.817,11.4-9.747c2.7.051,7.711,1.926,8.575,4.145,2.154,5.533-3.267,17.195-5.946,23.77,0,0-1.118,8.621-8.91,5.942C328.645,277.895,321.825,274.729,320.852,269.614Z" transform="translate(-313.38 -15.911)"/><path class="s" d="M495.378,202.214a24.366,24.366,0,0,1-11.726,4.525,2.272,2.272,0,0,1-1.17-.093,2.349,2.349,0,0,1-.987-1.194,102.31,102.31,0,0,1-4.725-11.1" transform="translate(-247.314 -36.954)"/><path class="w" d="M487.45,177.97s-11.529,1.611-13.045,2.91,5.119,30,11.441,31.393,11.971-5.321,11.971-5.321S493.826,188.063,487.45,177.97Z" transform="translate(-248.409 -43.893)"/><path class="s" d="M487.182,236.783a37.61,37.61,0,0,0,11.85-3.277" transform="translate(-242.904 -20.371)"/><path class="s" d="M490.257,239.677a18.2,18.2,0,0,0,8.091-2.652" transform="translate(-241.602 -18.88)"/><path class="n" d="M413.623,355.688l-54.493-27.937,44.835,9.907Z" transform="translate(-297.14 19.546)"/><text class="x" transform="matrix(0.97, 0.242, -0.242, 0.97, 103.095, 49.729)"><tspan x="0" y="0">TRANSFER MONEY</tspan></text><text class="y" transform="matrix(0.97, 0.242, -0.242, 0.97, 100.997, 61.266)"><tspan x="0" y="0">YOU ARE JUST ONE CLICK AWAY</tspan></text><path class="i" d="M380.448,301.4l6.958,8.778,10.986-4.839Z" transform="translate(-288.111 8.384)"/></g><path class="z" d="M388.6,420.346l-12.48,8.043,15.12,71.066,163.3-31.652-6.8-47.73-20.412.274Z" transform="translate(-289.944 58.648)"/><path class="aa" d="M387.339,486.084l163.3-31.652,7.993-2.372a9.979,9.979,0,0,1,12.818,9.566v58.686H385.335S387.339,484.6,387.339,486.084Z" transform="translate(-286.041 72.019)"/><path class="ab" d="M551.475,453.6l-163.3,31.652-4.809-22.6,119.113-5.638Z" transform="translate(-286.876 72.849)"/><path class="s" d="M462.5,433.523l6.2,37.046" transform="translate(-253.359 64.345)"/><path class="s" d="M470.88,439.216c-2.352,5-1.011,11.186,2.3,15.613a10.087,10.087,0,0,0,4.86,3.834,7.436,7.436,0,0,0,6.8-1.479,9.235,9.235,0,0,0,3.15-6.318" transform="translate(-250.311 66.756)"/><path class="s" d="M392.929,496.833c24.119-5.678,144.652-26.215,168.771-31.894" transform="translate(-282.825 77.651)"/><path class="s" d="M498.434,460.2c1.082,7.387,5.839,49.276,6.921,56.661" transform="translate(-238.139 75.643)"/><path class="s" d="M390.506,498.51q-7.841-34.761-13.138-70.031l10.7-8.214" transform="translate(-289.415 58.73)"/></g><g transform="translate(768.984 423.376)"><rect class="ac" width="64.563" height="17.45" rx="4.846" transform="translate(64.563 17.491) rotate(180)"/><path class="ad" d="M505.482,367.591h51.042l-5.571-4.541a14.706,14.706,0,0,1-5.414-11.4v-46.8A7.536,7.536,0,0,0,538,297.311H487.687l1.566,1.928a22.172,22.172,0,0,1,4.964,13.985v43.1A11.265,11.265,0,0,0,505.482,367.591Z" transform="translate(-480.504 -297.311)"/><line class="ae" x1="33.518" transform="translate(23.303 18.812)"/><line class="ae" x1="33.518" transform="translate(23.303 9.698)"/><line class="ae" x1="33.518" transform="translate(23.303 29.343)"/><line class="ae" x1="33.518" transform="translate(23.303 38.776)"/><path class="af" d="M487.71,297.394h50.056s7.755.392,7.755,7.386v46.8" transform="translate(-480.485 -297.245)"/><path class="af" d="M490.7,302.669c.834,2.578,1.158,47.92.951,50.621,0,0,3.124,10.011,11.428,10.011h51.042" transform="translate(-478.096 -293.022)"/><line class="ae" x1="33.518" transform="translate(23.303 49.776)"/><line class="ae" x1="33.518" transform="translate(25.765 60.776)"/></g><g transform="translate(0 117.197)"><circle class="ag" cx="38.485" cy="38.485" r="38.485" transform="translate(14.102 86.893) rotate(-81.622)"/><circle class="ah" cx="38.485" cy="38.485" r="38.485" transform="translate(0 54.426) rotate(-45)"/><g transform="translate(19.362 19.817)"><path class="ai" d="M884.441,1473.24a35.064,35.064,0,1,1,24.794-10.27A34.834,34.834,0,0,1,884.441,1473.24Zm0-68.036a32.972,32.972,0,1,0,32.972,32.972A33.01,33.01,0,0,0,884.441,1405.2Z" transform="translate(-849.376 -1403.112)"/></g><g transform="translate(39.069 28.985)"><path class="ai" d="M958.326,1480.482a5.786,5.786,0,0,0-.083-2.036,4.227,4.227,0,0,0-.861-1.691,7.973,7.973,0,0,0-1.721-1.519,21.057,21.057,0,0,0-2.668-1.494,55.131,55.131,0,0,1-4.927-2.707,17.452,17.452,0,0,1-3.684-3,10.271,10.271,0,0,1-2.176-3.654,11.587,11.587,0,0,1,.936-8.763,9.74,9.74,0,0,1,2.717-3.018,12.161,12.161,0,0,1,3.89-1.853,16.216,16.216,0,0,1,4.858-.56l.686-5.78,4.652.552-.7,5.86a14.538,14.538,0,0,1,4.378,1.861,11,11,0,0,1,4.9,7.031,14.641,14.641,0,0,1,.192,4.966l-8.4-1a7.127,7.127,0,0,0-.864-5.019,4.952,4.952,0,0,0-3.662-2.064,6.291,6.291,0,0,0-2.3.1,4.258,4.258,0,0,0-1.674.814,3.975,3.975,0,0,0-1.079,1.392,5.854,5.854,0,0,0-.512,1.829,5.361,5.361,0,0,0,.076,1.844,3.965,3.965,0,0,0,.825,1.618,8.012,8.012,0,0,0,1.736,1.52,27.074,27.074,0,0,0,2.773,1.6q2.694,1.388,4.875,2.769a17.662,17.662,0,0,1,3.666,3.023,9.914,9.914,0,0,1,2.551,8.314,10.592,10.592,0,0,1-1.335,4.168,9.628,9.628,0,0,1-2.728,2.99,11.752,11.752,0,0,1-3.911,1.782,17.532,17.532,0,0,1-4.882.516l-.638,5.375-4.623-.549.635-5.347a19.657,19.657,0,0,1-4.541-1.606,12.455,12.455,0,0,1-3.721-2.811,11.139,11.139,0,0,1-2.334-4.18,13.558,13.558,0,0,1-.387-5.687l8.4,1a8.362,8.362,0,0,0,.158,3.264,5.4,5.4,0,0,0,1.2,2.224,5.246,5.246,0,0,0,1.921,1.323,8.963,8.963,0,0,0,2.3.588,7.5,7.5,0,0,0,2.44-.066,5.006,5.006,0,0,0,1.845-.767,3.984,3.984,0,0,0,1.221-1.348A4.852,4.852,0,0,0,958.326,1480.482Z" transform="translate(-938.142 -1444.41)"/></g></g><g transform="translate(1043.872 145.361)"><g transform="translate(0 0)"><circle class="aj" cx="38.485" cy="38.485" r="38.485" transform="translate(14.102 86.893) rotate(-81.622)"/><circle class="ah" cx="38.485" cy="38.485" r="38.485" transform="translate(0 54.426) rotate(-45)"/><g transform="translate(19.362 19.817)"><path class="ak" d="M969.574,474.248a35.065,35.065,0,1,1,24.794-10.27A34.835,34.835,0,0,1,969.574,474.248Zm0-68.037a32.972,32.972,0,1,0,32.972,32.972A33.01,33.01,0,0,0,969.574,406.212Z" transform="translate(-934.51 -404.12)"/></g></g><g transform="translate(34.543 33.04)"><g transform="translate(0 0)"><g transform="translate(0 13.935)"><rect class="ai" width="22.727" height="5.378"/><rect class="ai" width="22.727" height="5.378" transform="translate(0 9.521)"/></g><path class="ai" d="M1046.224,499.442a12.314,12.314,0,0,1-5.426,1.086,12.672,12.672,0,0,1-10.069-4.168,15.656,15.656,0,0,1-4.257-11.134,16.05,16.05,0,0,1,4.257-11.3,12.462,12.462,0,0,1,10.043-4.277,13.869,13.869,0,0,1,4.867.895l2.422-5.312a16.157,16.157,0,0,0-6.873-1.556c-6.594,0-11.6,2.2-15.754,7.318a22.124,22.124,0,0,0-5.062,14.284,21.287,21.287,0,0,0,6.048,15.261,18.553,18.553,0,0,0,14.3,5.906,20.607,20.607,0,0,0,7.967-1.6l-1.283-6Q1046.8,499.188,1046.224,499.442Z" transform="translate(-1016.49 -463.679)"/></g></g></g><g transform="translate(243.479)"><circle class="ag" cx="38.485" cy="38.485" r="38.485" transform="translate(14.102 86.893) rotate(-81.622)"/><circle class="ah" cx="38.485" cy="38.485" r="38.485" transform="translate(0 54.426) rotate(-45)"/><g transform="translate(19.362 19.817)"><path class="ai" d="M884.441,1473.24a35.064,35.064,0,1,1,24.794-10.27A34.834,34.834,0,0,1,884.441,1473.24Zm0-68.036a32.972,32.972,0,1,0,32.972,32.972A33.01,33.01,0,0,0,884.441,1405.2Z" transform="translate(-849.376 -1403.112)"/></g><g transform="translate(39.069 28.985)"><path class="ai" d="M958.326,1480.482a5.786,5.786,0,0,0-.083-2.036,4.227,4.227,0,0,0-.861-1.691,7.973,7.973,0,0,0-1.721-1.519,21.057,21.057,0,0,0-2.668-1.494,55.131,55.131,0,0,1-4.927-2.707,17.452,17.452,0,0,1-3.684-3,10.271,10.271,0,0,1-2.176-3.654,11.587,11.587,0,0,1,.936-8.763,9.74,9.74,0,0,1,2.717-3.018,12.161,12.161,0,0,1,3.89-1.853,16.216,16.216,0,0,1,4.858-.56l.686-5.78,4.652.552-.7,5.86a14.538,14.538,0,0,1,4.378,1.861,11,11,0,0,1,4.9,7.031,14.641,14.641,0,0,1,.192,4.966l-8.4-1a7.127,7.127,0,0,0-.864-5.019,4.952,4.952,0,0,0-3.662-2.064,6.291,6.291,0,0,0-2.3.1,4.258,4.258,0,0,0-1.674.814,3.975,3.975,0,0,0-1.079,1.392,5.854,5.854,0,0,0-.512,1.829,5.361,5.361,0,0,0,.076,1.844,3.965,3.965,0,0,0,.825,1.618,8.012,8.012,0,0,0,1.736,1.52,27.074,27.074,0,0,0,2.773,1.6q2.694,1.388,4.875,2.769a17.662,17.662,0,0,1,3.666,3.023,9.914,9.914,0,0,1,2.551,8.314,10.592,10.592,0,0,1-1.335,4.168,9.628,9.628,0,0,1-2.728,2.99,11.752,11.752,0,0,1-3.911,1.782,17.532,17.532,0,0,1-4.882.516l-.638,5.375-4.623-.549.635-5.347a19.657,19.657,0,0,1-4.541-1.606,12.455,12.455,0,0,1-3.721-2.811,11.139,11.139,0,0,1-2.334-4.18,13.558,13.558,0,0,1-.387-5.687l8.4,1a8.362,8.362,0,0,0,.158,3.264,5.4,5.4,0,0,0,1.2,2.224,5.246,5.246,0,0,0,1.921,1.323,8.963,8.963,0,0,0,2.3.588,7.5,7.5,0,0,0,2.44-.066,5.006,5.006,0,0,0,1.845-.767,3.984,3.984,0,0,0,1.221-1.348A4.852,4.852,0,0,0,958.326,1480.482Z" transform="translate(-938.142 -1444.41)"/></g></g><g transform="translate(781.314 19.079)"><g transform="translate(0 0)"><circle class="aj" cx="38.485" cy="38.485" r="38.485" transform="translate(14.102 86.893) rotate(-81.622)"/><circle class="ah" cx="38.485" cy="38.485" r="38.485" transform="translate(0 54.426) rotate(-45)"/><g transform="translate(19.362 19.817)"><path class="ak" d="M969.574,474.248a35.065,35.065,0,1,1,24.794-10.27A34.835,34.835,0,0,1,969.574,474.248Zm0-68.037a32.972,32.972,0,1,0,32.972,32.972A33.01,33.01,0,0,0,969.574,406.212Z" transform="translate(-934.51 -404.12)"/></g></g><g transform="translate(34.543 33.04)"><g transform="translate(0 0)"><g transform="translate(0 13.935)"><rect class="ai" width="22.727" height="5.378"/><rect class="ai" width="22.727" height="5.378" transform="translate(0 9.521)"/></g><path class="ai" d="M1046.224,499.442a12.314,12.314,0,0,1-5.426,1.086,12.672,12.672,0,0,1-10.069-4.168,15.656,15.656,0,0,1-4.257-11.134,16.05,16.05,0,0,1,4.257-11.3,12.462,12.462,0,0,1,10.043-4.277,13.869,13.869,0,0,1,4.867.895l2.422-5.312a16.157,16.157,0,0,0-6.873-1.556c-6.594,0-11.6,2.2-15.754,7.318a22.124,22.124,0,0,0-5.062,14.284,21.287,21.287,0,0,0,6.048,15.261,18.553,18.553,0,0,0,14.3,5.906,20.607,20.607,0,0,0,7.967-1.6l-1.283-6Q1046.8,499.188,1046.224,499.442Z" transform="translate(-1016.49 -463.679)"/></g></g></g></g></g></svg>