<svg xmlns="http://www.w3.org/2000/svg" width="190" height="81.8" viewBox="0 0 190 81.8"><defs><style>.a{fill:#11559c;}.b{fill:#f2a724;}</style></defs><g transform="translate(-2.4 -1.1)"><path class="a" d="M79.3,44.8,69.8,70.5l-1-5.2c-2.4-6.4-7.5-13.1-13.5-15.8l8.7,33H74.3L89.6,44.9H79.3Z"/><path class="a" d="M87.5,82.4l6.1-37.6h9.7L97.2,82.4Z"/><path class="a" d="M132.5,45.7a23.219,23.219,0,0,0-8.7-1.6c-9.6,0-16.4,5.1-16.4,12.4-.1,5.4,4.8,8.4,8.5,10.2,3.8,1.8,5.1,3,5.1,4.7,0,2.5-3,3.7-5.8,3.7a19.747,19.747,0,0,1-9.2-2l-1.3-.6-1.4,8.4a29.661,29.661,0,0,0,10.8,2c10.2,0,16.9-5.1,16.9-12.9,0-4.3-2.6-7.6-8.2-10.2-3.4-1.7-5.5-2.9-5.5-4.7,0-1.6,1.8-3.2,5.6-3.2a17.485,17.485,0,0,1,7.3,1.4l.9.4,1.4-8Z"/><path class="a" d="M157.5,44.8H150c-2.3,0-4.1.7-5.1,3.1L130.5,82.4h10.2s1.7-4.6,2-5.7h12.5c.3,1.3,1.2,5.6,1.2,5.6h9l-7.9-37.5Zm-12,24.3c.8-2.2,3.9-10.5,3.9-10.5-.1.1.8-2.2,1.3-3.6l.6,3.2s1.9,9,2.3,10.9Z"/><path class="b" d="M60.9,44.8H45.2l-.1.6c12.2,3.1,20.3,10.8,23.6,19.8L65.3,47.9c-.5-2.3-2.2-3-4.4-3.1Z"/><path class="a" d="M15.8,35.7H9.6L2.4,3.4,9.3,2.2l4.9,25.3L26.7,2.6h6.6Z"/><path class="a" d="M48.1,25.1H33.3c-.4,4.5,1.7,6.4,5.2,6.4,3,0,5.6-1.1,8.4-2.9v4.5a17.77,17.77,0,0,1-9.6,2.8c-6.4,0-10.7-3.7-9.4-12,1.2-7.5,6.3-12,12.4-12,6.9,0,9.2,5.2,8.2,11.7a6.763,6.763,0,0,0-.4,1.5Zm-8.7-9.2c-2.3,0-4.4,1.8-5.4,5.6h9.2c.1-3.5-1.1-5.6-3.8-5.6Z"/><path class="a" d="M57.7,22.3l-2,13.2H50l3.5-23.1h4.9V17c1.9-2.7,4.6-4.9,8.2-5.1v5.7a13.036,13.036,0,0,0-8.9,4.7Z"/><path class="a" d="M66.5,35.5,70,12.4h5.7L72.2,35.5ZM73.6,8.6a2.684,2.684,0,0,1-2.9-3.2,3.907,3.907,0,0,1,4-3.3,2.758,2.758,0,0,1,2.9,3.3,4.151,4.151,0,0,1-4,3.2Z"/><path class="a" d="M91.7,6.2a3.169,3.169,0,0,0-3.5,2.9l-.5,3.4h4.4v4.7H87L84.2,35.6H78.5l2.8-18.4H78l.7-4.7H82l.6-4c.8-5.1,4.3-7,9.1-7a12.144,12.144,0,0,1,2.3.2V6.4a13.045,13.045,0,0,0-2.3-.2Z"/><path class="a" d="M91.7,35.5l3.5-23.1h5.7L97.4,35.5ZM98.8,8.6a2.684,2.684,0,0,1-2.9-3.2,3.907,3.907,0,0,1,4-3.3,2.758,2.758,0,0,1,2.9,3.3,4.151,4.151,0,0,1-4,3.2Z"/><path class="a" d="M123.2,25.1H108.4c-.4,4.5,1.7,6.4,5.2,6.4,3,0,5.6-1.1,8.4-2.9v4.5a17.77,17.77,0,0,1-9.6,2.8c-6.4,0-10.7-3.7-9.4-12,1.2-7.5,6.3-12,12.4-12,6.9,0,9.2,5.2,8.2,11.7-.2.6-.3,1.2-.4,1.5Zm-8.7-9.2c-2.3,0-4.4,1.8-5.4,5.6h9.2c.1-3.5-1-5.6-3.8-5.6Z"/><path class="a" d="M140.2,35.5V32.3a10.5,10.5,0,0,1-7.6,3.7c-4.8,0-8.1-3.6-6.9-11.4,1.3-8.6,6.6-12.4,12-12.4a14.3,14.3,0,0,1,5.2.9L144.5,2l5.9-.9-5.3,34.5h-4.9Zm1.9-17.7a8.058,8.058,0,0,0-4.3-1c-3,0-5.6,2.4-6.4,7.5-.7,4.5.9,6.6,3.4,6.6,2.1,0,3.9-1.2,5.7-3.2l1.6-9.9Z"/><path class="a" d="M162.7,35.7a19.018,19.018,0,0,1-7-1.2L159.5,10l4.4-.7L162.3,20a7.885,7.885,0,0,1,5.3-2.3c3.7,0,6.2,2.7,5.3,8.6-1.1,6.4-5,9.4-10.2,9.4Zm3.2-14.2c-1.4,0-2.9,1-4.2,2.3l-1.2,7.9a6.845,6.845,0,0,0,2.7.5c2.7,0,4.7-1.7,5.3-5.6.4-3.4-.7-5.1-2.6-5.1Z"/><path class="a" d="M183,36.5c-2.2,4.3-4.4,5.6-7.8,5.6a5.666,5.666,0,0,1-1.6-.2V38.3a10.58,10.58,0,0,0,2,.3,3.449,3.449,0,0,0,3.1-1.8l.6-1.2-3.7-17.2,4.6-.6,2.1,12.4L188.1,18h4.3L183,36.5Z"/></g></svg>